G04 #@! TF.GenerationSoftware,KiCad,Pcbnew,(5.1.6)-1*
G04 #@! TF.CreationDate,2021-10-25T07:34:01+01:00*
G04 #@! TF.ProjectId,Corinthians-Flight-Control-System,436f7269-6e74-4686-9961-6e732d466c69,1*
G04 #@! TF.SameCoordinates,Original*
G04 #@! TF.FileFunction,Soldermask,Bot*
G04 #@! TF.FilePolarity,Negative*
%FSLAX46Y46*%
G04 Gerber Fmt 4.6, Leading zero omitted, Abs format (unit mm)*
G04 Created by KiCad (PCBNEW (5.1.6)-1) date 2021-10-25 07:34:01*
%MOMM*%
%LPD*%
G01*
G04 APERTURE LIST*
%ADD10C,3.300000*%
%ADD11O,1.800000X1.800000*%
%ADD12R,1.800000X1.800000*%
%ADD13C,2.350000*%
G04 APERTURE END LIST*
D10*
X102006400Y-135534400D03*
D11*
X119532400Y-174904400D03*
X119532400Y-177444400D03*
X116992400Y-174904400D03*
X116992400Y-177444400D03*
X114452400Y-174904400D03*
X114452400Y-177444400D03*
X111912400Y-174904400D03*
X111912400Y-177444400D03*
X109372400Y-174904400D03*
D12*
X109372400Y-177444400D03*
D13*
X119380000Y-185267600D03*
X119380000Y-190347600D03*
X114300000Y-190347600D03*
X114300000Y-185267600D03*
X116840000Y-187807600D03*
D11*
X88392000Y-190195200D03*
X88392000Y-187655200D03*
D12*
X88392000Y-185115200D03*
D11*
X83769200Y-190195200D03*
X83769200Y-187655200D03*
D12*
X83769200Y-185115200D03*
D11*
X88341200Y-179730400D03*
X88341200Y-177190400D03*
D12*
X88341200Y-174650400D03*
D11*
X83769200Y-179730400D03*
X83769200Y-177190400D03*
D12*
X83769200Y-174650400D03*
D11*
X88239600Y-169316400D03*
X88239600Y-166776400D03*
D12*
X88239600Y-164236400D03*
D11*
X83820000Y-169367200D03*
X83820000Y-166827200D03*
D12*
X83820000Y-164287200D03*
D11*
X83413600Y-139750800D03*
X83413600Y-137210800D03*
D12*
X83413600Y-134670800D03*
D11*
X83413600Y-129540000D03*
X83413600Y-127000000D03*
D12*
X83413600Y-124460000D03*
D11*
X90322400Y-123901200D03*
X92862400Y-123901200D03*
D12*
X95402400Y-123901200D03*
D11*
X101447600Y-123901200D03*
X103987600Y-123901200D03*
D12*
X106527600Y-123901200D03*
D11*
X126238000Y-189230000D03*
X123698000Y-189230000D03*
X126238000Y-186690000D03*
X123698000Y-186690000D03*
X126238000Y-184150000D03*
X123698000Y-184150000D03*
X126238000Y-181610000D03*
X123698000Y-181610000D03*
X126238000Y-179070000D03*
X123698000Y-179070000D03*
X126238000Y-176530000D03*
X123698000Y-176530000D03*
X126238000Y-173990000D03*
X123698000Y-173990000D03*
X126238000Y-171450000D03*
X123698000Y-171450000D03*
X126238000Y-168910000D03*
X123698000Y-168910000D03*
X126238000Y-166370000D03*
X123698000Y-166370000D03*
X126238000Y-163830000D03*
X123698000Y-163830000D03*
X126238000Y-161290000D03*
X123698000Y-161290000D03*
X126238000Y-158750000D03*
X123698000Y-158750000D03*
X126238000Y-156210000D03*
X123698000Y-156210000D03*
X126238000Y-153670000D03*
X123698000Y-153670000D03*
X126238000Y-151130000D03*
X123698000Y-151130000D03*
X126238000Y-148590000D03*
X123698000Y-148590000D03*
X126238000Y-146050000D03*
X123698000Y-146050000D03*
X126238000Y-143510000D03*
X123698000Y-143510000D03*
X126238000Y-140970000D03*
D12*
X123698000Y-140970000D03*
M02*
