G04 #@! TF.GenerationSoftware,KiCad,Pcbnew,(5.1.6)-1*
G04 #@! TF.CreationDate,2021-10-25T07:34:01+01:00*
G04 #@! TF.ProjectId,Corinthians-Flight-Control-System,436f7269-6e74-4686-9961-6e732d466c69,1*
G04 #@! TF.SameCoordinates,Original*
G04 #@! TF.FileFunction,Paste,Top*
G04 #@! TF.FilePolarity,Positive*
%FSLAX46Y46*%
G04 Gerber Fmt 4.6, Leading zero omitted, Abs format (unit mm)*
G04 Created by KiCad (PCBNEW (5.1.6)-1) date 2021-10-25 07:34:01*
%MOMM*%
%LPD*%
G01*
G04 APERTURE LIST*
%ADD10R,1.200000X1.400000*%
%ADD11R,1.500000X2.000000*%
%ADD12R,3.800000X2.000000*%
%ADD13R,0.450000X0.300000*%
%ADD14R,0.300000X0.450000*%
%ADD15R,0.350000X0.500000*%
%ADD16C,0.100000*%
%ADD17R,0.700000X0.700000*%
%ADD18R,1.200000X0.500000*%
%ADD19R,1.500000X1.500000*%
G04 APERTURE END LIST*
G36*
G01*
X99793380Y-165452940D02*
X99793380Y-166777940D01*
G75*
G02*
X99718380Y-166852940I-75000J0D01*
G01*
X99568380Y-166852940D01*
G75*
G02*
X99493380Y-166777940I0J75000D01*
G01*
X99493380Y-165452940D01*
G75*
G02*
X99568380Y-165377940I75000J0D01*
G01*
X99718380Y-165377940D01*
G75*
G02*
X99793380Y-165452940I0J-75000D01*
G01*
G37*
G36*
G01*
X99293380Y-165452940D02*
X99293380Y-166777940D01*
G75*
G02*
X99218380Y-166852940I-75000J0D01*
G01*
X99068380Y-166852940D01*
G75*
G02*
X98993380Y-166777940I0J75000D01*
G01*
X98993380Y-165452940D01*
G75*
G02*
X99068380Y-165377940I75000J0D01*
G01*
X99218380Y-165377940D01*
G75*
G02*
X99293380Y-165452940I0J-75000D01*
G01*
G37*
G36*
G01*
X98793380Y-165452940D02*
X98793380Y-166777940D01*
G75*
G02*
X98718380Y-166852940I-75000J0D01*
G01*
X98568380Y-166852940D01*
G75*
G02*
X98493380Y-166777940I0J75000D01*
G01*
X98493380Y-165452940D01*
G75*
G02*
X98568380Y-165377940I75000J0D01*
G01*
X98718380Y-165377940D01*
G75*
G02*
X98793380Y-165452940I0J-75000D01*
G01*
G37*
G36*
G01*
X98293380Y-165452940D02*
X98293380Y-166777940D01*
G75*
G02*
X98218380Y-166852940I-75000J0D01*
G01*
X98068380Y-166852940D01*
G75*
G02*
X97993380Y-166777940I0J75000D01*
G01*
X97993380Y-165452940D01*
G75*
G02*
X98068380Y-165377940I75000J0D01*
G01*
X98218380Y-165377940D01*
G75*
G02*
X98293380Y-165452940I0J-75000D01*
G01*
G37*
G36*
G01*
X97793380Y-165452940D02*
X97793380Y-166777940D01*
G75*
G02*
X97718380Y-166852940I-75000J0D01*
G01*
X97568380Y-166852940D01*
G75*
G02*
X97493380Y-166777940I0J75000D01*
G01*
X97493380Y-165452940D01*
G75*
G02*
X97568380Y-165377940I75000J0D01*
G01*
X97718380Y-165377940D01*
G75*
G02*
X97793380Y-165452940I0J-75000D01*
G01*
G37*
G36*
G01*
X97293380Y-165452940D02*
X97293380Y-166777940D01*
G75*
G02*
X97218380Y-166852940I-75000J0D01*
G01*
X97068380Y-166852940D01*
G75*
G02*
X96993380Y-166777940I0J75000D01*
G01*
X96993380Y-165452940D01*
G75*
G02*
X97068380Y-165377940I75000J0D01*
G01*
X97218380Y-165377940D01*
G75*
G02*
X97293380Y-165452940I0J-75000D01*
G01*
G37*
G36*
G01*
X96793380Y-165452940D02*
X96793380Y-166777940D01*
G75*
G02*
X96718380Y-166852940I-75000J0D01*
G01*
X96568380Y-166852940D01*
G75*
G02*
X96493380Y-166777940I0J75000D01*
G01*
X96493380Y-165452940D01*
G75*
G02*
X96568380Y-165377940I75000J0D01*
G01*
X96718380Y-165377940D01*
G75*
G02*
X96793380Y-165452940I0J-75000D01*
G01*
G37*
G36*
G01*
X96293380Y-165452940D02*
X96293380Y-166777940D01*
G75*
G02*
X96218380Y-166852940I-75000J0D01*
G01*
X96068380Y-166852940D01*
G75*
G02*
X95993380Y-166777940I0J75000D01*
G01*
X95993380Y-165452940D01*
G75*
G02*
X96068380Y-165377940I75000J0D01*
G01*
X96218380Y-165377940D01*
G75*
G02*
X96293380Y-165452940I0J-75000D01*
G01*
G37*
G36*
G01*
X95793380Y-165452940D02*
X95793380Y-166777940D01*
G75*
G02*
X95718380Y-166852940I-75000J0D01*
G01*
X95568380Y-166852940D01*
G75*
G02*
X95493380Y-166777940I0J75000D01*
G01*
X95493380Y-165452940D01*
G75*
G02*
X95568380Y-165377940I75000J0D01*
G01*
X95718380Y-165377940D01*
G75*
G02*
X95793380Y-165452940I0J-75000D01*
G01*
G37*
G36*
G01*
X95293380Y-165452940D02*
X95293380Y-166777940D01*
G75*
G02*
X95218380Y-166852940I-75000J0D01*
G01*
X95068380Y-166852940D01*
G75*
G02*
X94993380Y-166777940I0J75000D01*
G01*
X94993380Y-165452940D01*
G75*
G02*
X95068380Y-165377940I75000J0D01*
G01*
X95218380Y-165377940D01*
G75*
G02*
X95293380Y-165452940I0J-75000D01*
G01*
G37*
G36*
G01*
X94793380Y-165452940D02*
X94793380Y-166777940D01*
G75*
G02*
X94718380Y-166852940I-75000J0D01*
G01*
X94568380Y-166852940D01*
G75*
G02*
X94493380Y-166777940I0J75000D01*
G01*
X94493380Y-165452940D01*
G75*
G02*
X94568380Y-165377940I75000J0D01*
G01*
X94718380Y-165377940D01*
G75*
G02*
X94793380Y-165452940I0J-75000D01*
G01*
G37*
G36*
G01*
X94293380Y-165452940D02*
X94293380Y-166777940D01*
G75*
G02*
X94218380Y-166852940I-75000J0D01*
G01*
X94068380Y-166852940D01*
G75*
G02*
X93993380Y-166777940I0J75000D01*
G01*
X93993380Y-165452940D01*
G75*
G02*
X94068380Y-165377940I75000J0D01*
G01*
X94218380Y-165377940D01*
G75*
G02*
X94293380Y-165452940I0J-75000D01*
G01*
G37*
G36*
G01*
X93468380Y-164627940D02*
X93468380Y-164777940D01*
G75*
G02*
X93393380Y-164852940I-75000J0D01*
G01*
X92068380Y-164852940D01*
G75*
G02*
X91993380Y-164777940I0J75000D01*
G01*
X91993380Y-164627940D01*
G75*
G02*
X92068380Y-164552940I75000J0D01*
G01*
X93393380Y-164552940D01*
G75*
G02*
X93468380Y-164627940I0J-75000D01*
G01*
G37*
G36*
G01*
X93468380Y-164127940D02*
X93468380Y-164277940D01*
G75*
G02*
X93393380Y-164352940I-75000J0D01*
G01*
X92068380Y-164352940D01*
G75*
G02*
X91993380Y-164277940I0J75000D01*
G01*
X91993380Y-164127940D01*
G75*
G02*
X92068380Y-164052940I75000J0D01*
G01*
X93393380Y-164052940D01*
G75*
G02*
X93468380Y-164127940I0J-75000D01*
G01*
G37*
G36*
G01*
X93468380Y-163627940D02*
X93468380Y-163777940D01*
G75*
G02*
X93393380Y-163852940I-75000J0D01*
G01*
X92068380Y-163852940D01*
G75*
G02*
X91993380Y-163777940I0J75000D01*
G01*
X91993380Y-163627940D01*
G75*
G02*
X92068380Y-163552940I75000J0D01*
G01*
X93393380Y-163552940D01*
G75*
G02*
X93468380Y-163627940I0J-75000D01*
G01*
G37*
G36*
G01*
X93468380Y-163127940D02*
X93468380Y-163277940D01*
G75*
G02*
X93393380Y-163352940I-75000J0D01*
G01*
X92068380Y-163352940D01*
G75*
G02*
X91993380Y-163277940I0J75000D01*
G01*
X91993380Y-163127940D01*
G75*
G02*
X92068380Y-163052940I75000J0D01*
G01*
X93393380Y-163052940D01*
G75*
G02*
X93468380Y-163127940I0J-75000D01*
G01*
G37*
G36*
G01*
X93468380Y-162627940D02*
X93468380Y-162777940D01*
G75*
G02*
X93393380Y-162852940I-75000J0D01*
G01*
X92068380Y-162852940D01*
G75*
G02*
X91993380Y-162777940I0J75000D01*
G01*
X91993380Y-162627940D01*
G75*
G02*
X92068380Y-162552940I75000J0D01*
G01*
X93393380Y-162552940D01*
G75*
G02*
X93468380Y-162627940I0J-75000D01*
G01*
G37*
G36*
G01*
X93468380Y-162127940D02*
X93468380Y-162277940D01*
G75*
G02*
X93393380Y-162352940I-75000J0D01*
G01*
X92068380Y-162352940D01*
G75*
G02*
X91993380Y-162277940I0J75000D01*
G01*
X91993380Y-162127940D01*
G75*
G02*
X92068380Y-162052940I75000J0D01*
G01*
X93393380Y-162052940D01*
G75*
G02*
X93468380Y-162127940I0J-75000D01*
G01*
G37*
G36*
G01*
X93468380Y-161627940D02*
X93468380Y-161777940D01*
G75*
G02*
X93393380Y-161852940I-75000J0D01*
G01*
X92068380Y-161852940D01*
G75*
G02*
X91993380Y-161777940I0J75000D01*
G01*
X91993380Y-161627940D01*
G75*
G02*
X92068380Y-161552940I75000J0D01*
G01*
X93393380Y-161552940D01*
G75*
G02*
X93468380Y-161627940I0J-75000D01*
G01*
G37*
G36*
G01*
X93468380Y-161127940D02*
X93468380Y-161277940D01*
G75*
G02*
X93393380Y-161352940I-75000J0D01*
G01*
X92068380Y-161352940D01*
G75*
G02*
X91993380Y-161277940I0J75000D01*
G01*
X91993380Y-161127940D01*
G75*
G02*
X92068380Y-161052940I75000J0D01*
G01*
X93393380Y-161052940D01*
G75*
G02*
X93468380Y-161127940I0J-75000D01*
G01*
G37*
G36*
G01*
X93468380Y-160627940D02*
X93468380Y-160777940D01*
G75*
G02*
X93393380Y-160852940I-75000J0D01*
G01*
X92068380Y-160852940D01*
G75*
G02*
X91993380Y-160777940I0J75000D01*
G01*
X91993380Y-160627940D01*
G75*
G02*
X92068380Y-160552940I75000J0D01*
G01*
X93393380Y-160552940D01*
G75*
G02*
X93468380Y-160627940I0J-75000D01*
G01*
G37*
G36*
G01*
X93468380Y-160127940D02*
X93468380Y-160277940D01*
G75*
G02*
X93393380Y-160352940I-75000J0D01*
G01*
X92068380Y-160352940D01*
G75*
G02*
X91993380Y-160277940I0J75000D01*
G01*
X91993380Y-160127940D01*
G75*
G02*
X92068380Y-160052940I75000J0D01*
G01*
X93393380Y-160052940D01*
G75*
G02*
X93468380Y-160127940I0J-75000D01*
G01*
G37*
G36*
G01*
X93468380Y-159627940D02*
X93468380Y-159777940D01*
G75*
G02*
X93393380Y-159852940I-75000J0D01*
G01*
X92068380Y-159852940D01*
G75*
G02*
X91993380Y-159777940I0J75000D01*
G01*
X91993380Y-159627940D01*
G75*
G02*
X92068380Y-159552940I75000J0D01*
G01*
X93393380Y-159552940D01*
G75*
G02*
X93468380Y-159627940I0J-75000D01*
G01*
G37*
G36*
G01*
X93468380Y-159127940D02*
X93468380Y-159277940D01*
G75*
G02*
X93393380Y-159352940I-75000J0D01*
G01*
X92068380Y-159352940D01*
G75*
G02*
X91993380Y-159277940I0J75000D01*
G01*
X91993380Y-159127940D01*
G75*
G02*
X92068380Y-159052940I75000J0D01*
G01*
X93393380Y-159052940D01*
G75*
G02*
X93468380Y-159127940I0J-75000D01*
G01*
G37*
G36*
G01*
X94293380Y-157127940D02*
X94293380Y-158452940D01*
G75*
G02*
X94218380Y-158527940I-75000J0D01*
G01*
X94068380Y-158527940D01*
G75*
G02*
X93993380Y-158452940I0J75000D01*
G01*
X93993380Y-157127940D01*
G75*
G02*
X94068380Y-157052940I75000J0D01*
G01*
X94218380Y-157052940D01*
G75*
G02*
X94293380Y-157127940I0J-75000D01*
G01*
G37*
G36*
G01*
X94793380Y-157127940D02*
X94793380Y-158452940D01*
G75*
G02*
X94718380Y-158527940I-75000J0D01*
G01*
X94568380Y-158527940D01*
G75*
G02*
X94493380Y-158452940I0J75000D01*
G01*
X94493380Y-157127940D01*
G75*
G02*
X94568380Y-157052940I75000J0D01*
G01*
X94718380Y-157052940D01*
G75*
G02*
X94793380Y-157127940I0J-75000D01*
G01*
G37*
G36*
G01*
X95293380Y-157127940D02*
X95293380Y-158452940D01*
G75*
G02*
X95218380Y-158527940I-75000J0D01*
G01*
X95068380Y-158527940D01*
G75*
G02*
X94993380Y-158452940I0J75000D01*
G01*
X94993380Y-157127940D01*
G75*
G02*
X95068380Y-157052940I75000J0D01*
G01*
X95218380Y-157052940D01*
G75*
G02*
X95293380Y-157127940I0J-75000D01*
G01*
G37*
G36*
G01*
X95793380Y-157127940D02*
X95793380Y-158452940D01*
G75*
G02*
X95718380Y-158527940I-75000J0D01*
G01*
X95568380Y-158527940D01*
G75*
G02*
X95493380Y-158452940I0J75000D01*
G01*
X95493380Y-157127940D01*
G75*
G02*
X95568380Y-157052940I75000J0D01*
G01*
X95718380Y-157052940D01*
G75*
G02*
X95793380Y-157127940I0J-75000D01*
G01*
G37*
G36*
G01*
X96293380Y-157127940D02*
X96293380Y-158452940D01*
G75*
G02*
X96218380Y-158527940I-75000J0D01*
G01*
X96068380Y-158527940D01*
G75*
G02*
X95993380Y-158452940I0J75000D01*
G01*
X95993380Y-157127940D01*
G75*
G02*
X96068380Y-157052940I75000J0D01*
G01*
X96218380Y-157052940D01*
G75*
G02*
X96293380Y-157127940I0J-75000D01*
G01*
G37*
G36*
G01*
X96793380Y-157127940D02*
X96793380Y-158452940D01*
G75*
G02*
X96718380Y-158527940I-75000J0D01*
G01*
X96568380Y-158527940D01*
G75*
G02*
X96493380Y-158452940I0J75000D01*
G01*
X96493380Y-157127940D01*
G75*
G02*
X96568380Y-157052940I75000J0D01*
G01*
X96718380Y-157052940D01*
G75*
G02*
X96793380Y-157127940I0J-75000D01*
G01*
G37*
G36*
G01*
X97293380Y-157127940D02*
X97293380Y-158452940D01*
G75*
G02*
X97218380Y-158527940I-75000J0D01*
G01*
X97068380Y-158527940D01*
G75*
G02*
X96993380Y-158452940I0J75000D01*
G01*
X96993380Y-157127940D01*
G75*
G02*
X97068380Y-157052940I75000J0D01*
G01*
X97218380Y-157052940D01*
G75*
G02*
X97293380Y-157127940I0J-75000D01*
G01*
G37*
G36*
G01*
X97793380Y-157127940D02*
X97793380Y-158452940D01*
G75*
G02*
X97718380Y-158527940I-75000J0D01*
G01*
X97568380Y-158527940D01*
G75*
G02*
X97493380Y-158452940I0J75000D01*
G01*
X97493380Y-157127940D01*
G75*
G02*
X97568380Y-157052940I75000J0D01*
G01*
X97718380Y-157052940D01*
G75*
G02*
X97793380Y-157127940I0J-75000D01*
G01*
G37*
G36*
G01*
X98293380Y-157127940D02*
X98293380Y-158452940D01*
G75*
G02*
X98218380Y-158527940I-75000J0D01*
G01*
X98068380Y-158527940D01*
G75*
G02*
X97993380Y-158452940I0J75000D01*
G01*
X97993380Y-157127940D01*
G75*
G02*
X98068380Y-157052940I75000J0D01*
G01*
X98218380Y-157052940D01*
G75*
G02*
X98293380Y-157127940I0J-75000D01*
G01*
G37*
G36*
G01*
X98793380Y-157127940D02*
X98793380Y-158452940D01*
G75*
G02*
X98718380Y-158527940I-75000J0D01*
G01*
X98568380Y-158527940D01*
G75*
G02*
X98493380Y-158452940I0J75000D01*
G01*
X98493380Y-157127940D01*
G75*
G02*
X98568380Y-157052940I75000J0D01*
G01*
X98718380Y-157052940D01*
G75*
G02*
X98793380Y-157127940I0J-75000D01*
G01*
G37*
G36*
G01*
X99293380Y-157127940D02*
X99293380Y-158452940D01*
G75*
G02*
X99218380Y-158527940I-75000J0D01*
G01*
X99068380Y-158527940D01*
G75*
G02*
X98993380Y-158452940I0J75000D01*
G01*
X98993380Y-157127940D01*
G75*
G02*
X99068380Y-157052940I75000J0D01*
G01*
X99218380Y-157052940D01*
G75*
G02*
X99293380Y-157127940I0J-75000D01*
G01*
G37*
G36*
G01*
X99793380Y-157127940D02*
X99793380Y-158452940D01*
G75*
G02*
X99718380Y-158527940I-75000J0D01*
G01*
X99568380Y-158527940D01*
G75*
G02*
X99493380Y-158452940I0J75000D01*
G01*
X99493380Y-157127940D01*
G75*
G02*
X99568380Y-157052940I75000J0D01*
G01*
X99718380Y-157052940D01*
G75*
G02*
X99793380Y-157127940I0J-75000D01*
G01*
G37*
G36*
G01*
X101793380Y-159127940D02*
X101793380Y-159277940D01*
G75*
G02*
X101718380Y-159352940I-75000J0D01*
G01*
X100393380Y-159352940D01*
G75*
G02*
X100318380Y-159277940I0J75000D01*
G01*
X100318380Y-159127940D01*
G75*
G02*
X100393380Y-159052940I75000J0D01*
G01*
X101718380Y-159052940D01*
G75*
G02*
X101793380Y-159127940I0J-75000D01*
G01*
G37*
G36*
G01*
X101793380Y-159627940D02*
X101793380Y-159777940D01*
G75*
G02*
X101718380Y-159852940I-75000J0D01*
G01*
X100393380Y-159852940D01*
G75*
G02*
X100318380Y-159777940I0J75000D01*
G01*
X100318380Y-159627940D01*
G75*
G02*
X100393380Y-159552940I75000J0D01*
G01*
X101718380Y-159552940D01*
G75*
G02*
X101793380Y-159627940I0J-75000D01*
G01*
G37*
G36*
G01*
X101793380Y-160127940D02*
X101793380Y-160277940D01*
G75*
G02*
X101718380Y-160352940I-75000J0D01*
G01*
X100393380Y-160352940D01*
G75*
G02*
X100318380Y-160277940I0J75000D01*
G01*
X100318380Y-160127940D01*
G75*
G02*
X100393380Y-160052940I75000J0D01*
G01*
X101718380Y-160052940D01*
G75*
G02*
X101793380Y-160127940I0J-75000D01*
G01*
G37*
G36*
G01*
X101793380Y-160627940D02*
X101793380Y-160777940D01*
G75*
G02*
X101718380Y-160852940I-75000J0D01*
G01*
X100393380Y-160852940D01*
G75*
G02*
X100318380Y-160777940I0J75000D01*
G01*
X100318380Y-160627940D01*
G75*
G02*
X100393380Y-160552940I75000J0D01*
G01*
X101718380Y-160552940D01*
G75*
G02*
X101793380Y-160627940I0J-75000D01*
G01*
G37*
G36*
G01*
X101793380Y-161127940D02*
X101793380Y-161277940D01*
G75*
G02*
X101718380Y-161352940I-75000J0D01*
G01*
X100393380Y-161352940D01*
G75*
G02*
X100318380Y-161277940I0J75000D01*
G01*
X100318380Y-161127940D01*
G75*
G02*
X100393380Y-161052940I75000J0D01*
G01*
X101718380Y-161052940D01*
G75*
G02*
X101793380Y-161127940I0J-75000D01*
G01*
G37*
G36*
G01*
X101793380Y-161627940D02*
X101793380Y-161777940D01*
G75*
G02*
X101718380Y-161852940I-75000J0D01*
G01*
X100393380Y-161852940D01*
G75*
G02*
X100318380Y-161777940I0J75000D01*
G01*
X100318380Y-161627940D01*
G75*
G02*
X100393380Y-161552940I75000J0D01*
G01*
X101718380Y-161552940D01*
G75*
G02*
X101793380Y-161627940I0J-75000D01*
G01*
G37*
G36*
G01*
X101793380Y-162127940D02*
X101793380Y-162277940D01*
G75*
G02*
X101718380Y-162352940I-75000J0D01*
G01*
X100393380Y-162352940D01*
G75*
G02*
X100318380Y-162277940I0J75000D01*
G01*
X100318380Y-162127940D01*
G75*
G02*
X100393380Y-162052940I75000J0D01*
G01*
X101718380Y-162052940D01*
G75*
G02*
X101793380Y-162127940I0J-75000D01*
G01*
G37*
G36*
G01*
X101793380Y-162627940D02*
X101793380Y-162777940D01*
G75*
G02*
X101718380Y-162852940I-75000J0D01*
G01*
X100393380Y-162852940D01*
G75*
G02*
X100318380Y-162777940I0J75000D01*
G01*
X100318380Y-162627940D01*
G75*
G02*
X100393380Y-162552940I75000J0D01*
G01*
X101718380Y-162552940D01*
G75*
G02*
X101793380Y-162627940I0J-75000D01*
G01*
G37*
G36*
G01*
X101793380Y-163127940D02*
X101793380Y-163277940D01*
G75*
G02*
X101718380Y-163352940I-75000J0D01*
G01*
X100393380Y-163352940D01*
G75*
G02*
X100318380Y-163277940I0J75000D01*
G01*
X100318380Y-163127940D01*
G75*
G02*
X100393380Y-163052940I75000J0D01*
G01*
X101718380Y-163052940D01*
G75*
G02*
X101793380Y-163127940I0J-75000D01*
G01*
G37*
G36*
G01*
X101793380Y-163627940D02*
X101793380Y-163777940D01*
G75*
G02*
X101718380Y-163852940I-75000J0D01*
G01*
X100393380Y-163852940D01*
G75*
G02*
X100318380Y-163777940I0J75000D01*
G01*
X100318380Y-163627940D01*
G75*
G02*
X100393380Y-163552940I75000J0D01*
G01*
X101718380Y-163552940D01*
G75*
G02*
X101793380Y-163627940I0J-75000D01*
G01*
G37*
G36*
G01*
X101793380Y-164127940D02*
X101793380Y-164277940D01*
G75*
G02*
X101718380Y-164352940I-75000J0D01*
G01*
X100393380Y-164352940D01*
G75*
G02*
X100318380Y-164277940I0J75000D01*
G01*
X100318380Y-164127940D01*
G75*
G02*
X100393380Y-164052940I75000J0D01*
G01*
X101718380Y-164052940D01*
G75*
G02*
X101793380Y-164127940I0J-75000D01*
G01*
G37*
G36*
G01*
X101793380Y-164627940D02*
X101793380Y-164777940D01*
G75*
G02*
X101718380Y-164852940I-75000J0D01*
G01*
X100393380Y-164852940D01*
G75*
G02*
X100318380Y-164777940I0J75000D01*
G01*
X100318380Y-164627940D01*
G75*
G02*
X100393380Y-164552940I75000J0D01*
G01*
X101718380Y-164552940D01*
G75*
G02*
X101793380Y-164627940I0J-75000D01*
G01*
G37*
G36*
G01*
X108755600Y-165600801D02*
X108755600Y-164700799D01*
G75*
G02*
X109005599Y-164450800I249999J0D01*
G01*
X109655601Y-164450800D01*
G75*
G02*
X109905600Y-164700799I0J-249999D01*
G01*
X109905600Y-165600801D01*
G75*
G02*
X109655601Y-165850800I-249999J0D01*
G01*
X109005599Y-165850800D01*
G75*
G02*
X108755600Y-165600801I0J249999D01*
G01*
G37*
G36*
G01*
X106705600Y-165600801D02*
X106705600Y-164700799D01*
G75*
G02*
X106955599Y-164450800I249999J0D01*
G01*
X107605601Y-164450800D01*
G75*
G02*
X107855600Y-164700799I0J-249999D01*
G01*
X107855600Y-165600801D01*
G75*
G02*
X107605601Y-165850800I-249999J0D01*
G01*
X106955599Y-165850800D01*
G75*
G02*
X106705600Y-165600801I0J249999D01*
G01*
G37*
D10*
X96709600Y-182338800D03*
X96709600Y-184538800D03*
X95009600Y-184538800D03*
X95009600Y-182338800D03*
X107608000Y-163050400D03*
X107608000Y-160850400D03*
X109308000Y-160850400D03*
X109308000Y-163050400D03*
G36*
G01*
X95104800Y-133001599D02*
X95104800Y-133901601D01*
G75*
G02*
X94854801Y-134151600I-249999J0D01*
G01*
X94204799Y-134151600D01*
G75*
G02*
X93954800Y-133901601I0J249999D01*
G01*
X93954800Y-133001599D01*
G75*
G02*
X94204799Y-132751600I249999J0D01*
G01*
X94854801Y-132751600D01*
G75*
G02*
X95104800Y-133001599I0J-249999D01*
G01*
G37*
G36*
G01*
X97154800Y-133001599D02*
X97154800Y-133901601D01*
G75*
G02*
X96904801Y-134151600I-249999J0D01*
G01*
X96254799Y-134151600D01*
G75*
G02*
X96004800Y-133901601I0J249999D01*
G01*
X96004800Y-133001599D01*
G75*
G02*
X96254799Y-132751600I249999J0D01*
G01*
X96904801Y-132751600D01*
G75*
G02*
X97154800Y-133001599I0J-249999D01*
G01*
G37*
G36*
G01*
X92906000Y-148684401D02*
X92906000Y-147784399D01*
G75*
G02*
X93155999Y-147534400I249999J0D01*
G01*
X93806001Y-147534400D01*
G75*
G02*
X94056000Y-147784399I0J-249999D01*
G01*
X94056000Y-148684401D01*
G75*
G02*
X93806001Y-148934400I-249999J0D01*
G01*
X93155999Y-148934400D01*
G75*
G02*
X92906000Y-148684401I0J249999D01*
G01*
G37*
G36*
G01*
X90856000Y-148684401D02*
X90856000Y-147784399D01*
G75*
G02*
X91105999Y-147534400I249999J0D01*
G01*
X91756001Y-147534400D01*
G75*
G02*
X92006000Y-147784399I0J-249999D01*
G01*
X92006000Y-148684401D01*
G75*
G02*
X91756001Y-148934400I-249999J0D01*
G01*
X91105999Y-148934400D01*
G75*
G02*
X90856000Y-148684401I0J249999D01*
G01*
G37*
G36*
G01*
X105656801Y-159366800D02*
X104756799Y-159366800D01*
G75*
G02*
X104506800Y-159116801I0J249999D01*
G01*
X104506800Y-158466799D01*
G75*
G02*
X104756799Y-158216800I249999J0D01*
G01*
X105656801Y-158216800D01*
G75*
G02*
X105906800Y-158466799I0J-249999D01*
G01*
X105906800Y-159116801D01*
G75*
G02*
X105656801Y-159366800I-249999J0D01*
G01*
G37*
G36*
G01*
X105656801Y-161416800D02*
X104756799Y-161416800D01*
G75*
G02*
X104506800Y-161166801I0J249999D01*
G01*
X104506800Y-160516799D01*
G75*
G02*
X104756799Y-160266800I249999J0D01*
G01*
X105656801Y-160266800D01*
G75*
G02*
X105906800Y-160516799I0J-249999D01*
G01*
X105906800Y-161166801D01*
G75*
G02*
X105656801Y-161416800I-249999J0D01*
G01*
G37*
G36*
G01*
X100041000Y-144772801D02*
X100041000Y-143872799D01*
G75*
G02*
X100290999Y-143622800I249999J0D01*
G01*
X100941001Y-143622800D01*
G75*
G02*
X101191000Y-143872799I0J-249999D01*
G01*
X101191000Y-144772801D01*
G75*
G02*
X100941001Y-145022800I-249999J0D01*
G01*
X100290999Y-145022800D01*
G75*
G02*
X100041000Y-144772801I0J249999D01*
G01*
G37*
G36*
G01*
X97991000Y-144772801D02*
X97991000Y-143872799D01*
G75*
G02*
X98240999Y-143622800I249999J0D01*
G01*
X98891001Y-143622800D01*
G75*
G02*
X99141000Y-143872799I0J-249999D01*
G01*
X99141000Y-144772801D01*
G75*
G02*
X98891001Y-145022800I-249999J0D01*
G01*
X98240999Y-145022800D01*
G75*
G02*
X97991000Y-144772801I0J249999D01*
G01*
G37*
G36*
G01*
X104740000Y-144849001D02*
X104740000Y-143948999D01*
G75*
G02*
X104989999Y-143699000I249999J0D01*
G01*
X105640001Y-143699000D01*
G75*
G02*
X105890000Y-143948999I0J-249999D01*
G01*
X105890000Y-144849001D01*
G75*
G02*
X105640001Y-145099000I-249999J0D01*
G01*
X104989999Y-145099000D01*
G75*
G02*
X104740000Y-144849001I0J249999D01*
G01*
G37*
G36*
G01*
X102690000Y-144849001D02*
X102690000Y-143948999D01*
G75*
G02*
X102939999Y-143699000I249999J0D01*
G01*
X103590001Y-143699000D01*
G75*
G02*
X103840000Y-143948999I0J-249999D01*
G01*
X103840000Y-144849001D01*
G75*
G02*
X103590001Y-145099000I-249999J0D01*
G01*
X102939999Y-145099000D01*
G75*
G02*
X102690000Y-144849001I0J249999D01*
G01*
G37*
G36*
G01*
X106672800Y-151351401D02*
X106672800Y-150451399D01*
G75*
G02*
X106922799Y-150201400I249999J0D01*
G01*
X107572801Y-150201400D01*
G75*
G02*
X107822800Y-150451399I0J-249999D01*
G01*
X107822800Y-151351401D01*
G75*
G02*
X107572801Y-151601400I-249999J0D01*
G01*
X106922799Y-151601400D01*
G75*
G02*
X106672800Y-151351401I0J249999D01*
G01*
G37*
G36*
G01*
X104622800Y-151351401D02*
X104622800Y-150451399D01*
G75*
G02*
X104872799Y-150201400I249999J0D01*
G01*
X105522801Y-150201400D01*
G75*
G02*
X105772800Y-150451399I0J-249999D01*
G01*
X105772800Y-151351401D01*
G75*
G02*
X105522801Y-151601400I-249999J0D01*
G01*
X104872799Y-151601400D01*
G75*
G02*
X104622800Y-151351401I0J249999D01*
G01*
G37*
G36*
G01*
X109439000Y-144874401D02*
X109439000Y-143974399D01*
G75*
G02*
X109688999Y-143724400I249999J0D01*
G01*
X110339001Y-143724400D01*
G75*
G02*
X110589000Y-143974399I0J-249999D01*
G01*
X110589000Y-144874401D01*
G75*
G02*
X110339001Y-145124400I-249999J0D01*
G01*
X109688999Y-145124400D01*
G75*
G02*
X109439000Y-144874401I0J249999D01*
G01*
G37*
G36*
G01*
X107389000Y-144874401D02*
X107389000Y-143974399D01*
G75*
G02*
X107638999Y-143724400I249999J0D01*
G01*
X108289001Y-143724400D01*
G75*
G02*
X108539000Y-143974399I0J-249999D01*
G01*
X108539000Y-144874401D01*
G75*
G02*
X108289001Y-145124400I-249999J0D01*
G01*
X107638999Y-145124400D01*
G75*
G02*
X107389000Y-144874401I0J249999D01*
G01*
G37*
G36*
G01*
X96665201Y-169628400D02*
X95765199Y-169628400D01*
G75*
G02*
X95515200Y-169378401I0J249999D01*
G01*
X95515200Y-168728399D01*
G75*
G02*
X95765199Y-168478400I249999J0D01*
G01*
X96665201Y-168478400D01*
G75*
G02*
X96915200Y-168728399I0J-249999D01*
G01*
X96915200Y-169378401D01*
G75*
G02*
X96665201Y-169628400I-249999J0D01*
G01*
G37*
G36*
G01*
X96665201Y-171678400D02*
X95765199Y-171678400D01*
G75*
G02*
X95515200Y-171428401I0J249999D01*
G01*
X95515200Y-170778399D01*
G75*
G02*
X95765199Y-170528400I249999J0D01*
G01*
X96665201Y-170528400D01*
G75*
G02*
X96915200Y-170778399I0J-249999D01*
G01*
X96915200Y-171428401D01*
G75*
G02*
X96665201Y-171678400I-249999J0D01*
G01*
G37*
G36*
G01*
X99103601Y-169679200D02*
X98203599Y-169679200D01*
G75*
G02*
X97953600Y-169429201I0J249999D01*
G01*
X97953600Y-168779199D01*
G75*
G02*
X98203599Y-168529200I249999J0D01*
G01*
X99103601Y-168529200D01*
G75*
G02*
X99353600Y-168779199I0J-249999D01*
G01*
X99353600Y-169429201D01*
G75*
G02*
X99103601Y-169679200I-249999J0D01*
G01*
G37*
G36*
G01*
X99103601Y-171729200D02*
X98203599Y-171729200D01*
G75*
G02*
X97953600Y-171479201I0J249999D01*
G01*
X97953600Y-170829199D01*
G75*
G02*
X98203599Y-170579200I249999J0D01*
G01*
X99103601Y-170579200D01*
G75*
G02*
X99353600Y-170829199I0J-249999D01*
G01*
X99353600Y-171479201D01*
G75*
G02*
X99103601Y-171729200I-249999J0D01*
G01*
G37*
G36*
G01*
X95192001Y-141028000D02*
X94291999Y-141028000D01*
G75*
G02*
X94042000Y-140778001I0J249999D01*
G01*
X94042000Y-140127999D01*
G75*
G02*
X94291999Y-139878000I249999J0D01*
G01*
X95192001Y-139878000D01*
G75*
G02*
X95442000Y-140127999I0J-249999D01*
G01*
X95442000Y-140778001D01*
G75*
G02*
X95192001Y-141028000I-249999J0D01*
G01*
G37*
G36*
G01*
X95192001Y-143078000D02*
X94291999Y-143078000D01*
G75*
G02*
X94042000Y-142828001I0J249999D01*
G01*
X94042000Y-142177999D01*
G75*
G02*
X94291999Y-141928000I249999J0D01*
G01*
X95192001Y-141928000D01*
G75*
G02*
X95442000Y-142177999I0J-249999D01*
G01*
X95442000Y-142828001D01*
G75*
G02*
X95192001Y-143078000I-249999J0D01*
G01*
G37*
G36*
G01*
X107993600Y-188003601D02*
X107993600Y-187103599D01*
G75*
G02*
X108243599Y-186853600I249999J0D01*
G01*
X108893601Y-186853600D01*
G75*
G02*
X109143600Y-187103599I0J-249999D01*
G01*
X109143600Y-188003601D01*
G75*
G02*
X108893601Y-188253600I-249999J0D01*
G01*
X108243599Y-188253600D01*
G75*
G02*
X107993600Y-188003601I0J249999D01*
G01*
G37*
G36*
G01*
X105943600Y-188003601D02*
X105943600Y-187103599D01*
G75*
G02*
X106193599Y-186853600I249999J0D01*
G01*
X106843601Y-186853600D01*
G75*
G02*
X107093600Y-187103599I0J-249999D01*
G01*
X107093600Y-188003601D01*
G75*
G02*
X106843601Y-188253600I-249999J0D01*
G01*
X106193599Y-188253600D01*
G75*
G02*
X105943600Y-188003601I0J249999D01*
G01*
G37*
G36*
G01*
X93210801Y-183039600D02*
X92310799Y-183039600D01*
G75*
G02*
X92060800Y-182789601I0J249999D01*
G01*
X92060800Y-182139599D01*
G75*
G02*
X92310799Y-181889600I249999J0D01*
G01*
X93210801Y-181889600D01*
G75*
G02*
X93460800Y-182139599I0J-249999D01*
G01*
X93460800Y-182789601D01*
G75*
G02*
X93210801Y-183039600I-249999J0D01*
G01*
G37*
G36*
G01*
X93210801Y-185089600D02*
X92310799Y-185089600D01*
G75*
G02*
X92060800Y-184839601I0J249999D01*
G01*
X92060800Y-184189599D01*
G75*
G02*
X92310799Y-183939600I249999J0D01*
G01*
X93210801Y-183939600D01*
G75*
G02*
X93460800Y-184189599I0J-249999D01*
G01*
X93460800Y-184839601D01*
G75*
G02*
X93210801Y-185089600I-249999J0D01*
G01*
G37*
G36*
G01*
X101454799Y-157269600D02*
X102354801Y-157269600D01*
G75*
G02*
X102604800Y-157519599I0J-249999D01*
G01*
X102604800Y-158169601D01*
G75*
G02*
X102354801Y-158419600I-249999J0D01*
G01*
X101454799Y-158419600D01*
G75*
G02*
X101204800Y-158169601I0J249999D01*
G01*
X101204800Y-157519599D01*
G75*
G02*
X101454799Y-157269600I249999J0D01*
G01*
G37*
G36*
G01*
X101454799Y-155219600D02*
X102354801Y-155219600D01*
G75*
G02*
X102604800Y-155469599I0J-249999D01*
G01*
X102604800Y-156119601D01*
G75*
G02*
X102354801Y-156369600I-249999J0D01*
G01*
X101454799Y-156369600D01*
G75*
G02*
X101204800Y-156119601I0J249999D01*
G01*
X101204800Y-155469599D01*
G75*
G02*
X101454799Y-155219600I249999J0D01*
G01*
G37*
G36*
G01*
X104096399Y-190340400D02*
X104996401Y-190340400D01*
G75*
G02*
X105246400Y-190590399I0J-249999D01*
G01*
X105246400Y-191240401D01*
G75*
G02*
X104996401Y-191490400I-249999J0D01*
G01*
X104096399Y-191490400D01*
G75*
G02*
X103846400Y-191240401I0J249999D01*
G01*
X103846400Y-190590399D01*
G75*
G02*
X104096399Y-190340400I249999J0D01*
G01*
G37*
G36*
G01*
X104096399Y-188290400D02*
X104996401Y-188290400D01*
G75*
G02*
X105246400Y-188540399I0J-249999D01*
G01*
X105246400Y-189190401D01*
G75*
G02*
X104996401Y-189440400I-249999J0D01*
G01*
X104096399Y-189440400D01*
G75*
G02*
X103846400Y-189190401I0J249999D01*
G01*
X103846400Y-188540399D01*
G75*
G02*
X104096399Y-188290400I249999J0D01*
G01*
G37*
G36*
G01*
X100997600Y-188373599D02*
X100997600Y-189273601D01*
G75*
G02*
X100747601Y-189523600I-249999J0D01*
G01*
X100097599Y-189523600D01*
G75*
G02*
X99847600Y-189273601I0J249999D01*
G01*
X99847600Y-188373599D01*
G75*
G02*
X100097599Y-188123600I249999J0D01*
G01*
X100747601Y-188123600D01*
G75*
G02*
X100997600Y-188373599I0J-249999D01*
G01*
G37*
G36*
G01*
X103047600Y-188373599D02*
X103047600Y-189273601D01*
G75*
G02*
X102797601Y-189523600I-249999J0D01*
G01*
X102147599Y-189523600D01*
G75*
G02*
X101897600Y-189273601I0J249999D01*
G01*
X101897600Y-188373599D01*
G75*
G02*
X102147599Y-188123600I249999J0D01*
G01*
X102797601Y-188123600D01*
G75*
G02*
X103047600Y-188373599I0J-249999D01*
G01*
G37*
G36*
G01*
X103523200Y-187190801D02*
X103523200Y-186290799D01*
G75*
G02*
X103773199Y-186040800I249999J0D01*
G01*
X104423201Y-186040800D01*
G75*
G02*
X104673200Y-186290799I0J-249999D01*
G01*
X104673200Y-187190801D01*
G75*
G02*
X104423201Y-187440800I-249999J0D01*
G01*
X103773199Y-187440800D01*
G75*
G02*
X103523200Y-187190801I0J249999D01*
G01*
G37*
G36*
G01*
X101473200Y-187190801D02*
X101473200Y-186290799D01*
G75*
G02*
X101723199Y-186040800I249999J0D01*
G01*
X102373201Y-186040800D01*
G75*
G02*
X102623200Y-186290799I0J-249999D01*
G01*
X102623200Y-187190801D01*
G75*
G02*
X102373201Y-187440800I-249999J0D01*
G01*
X101723199Y-187440800D01*
G75*
G02*
X101473200Y-187190801I0J249999D01*
G01*
G37*
G36*
G01*
X119169600Y-126230801D02*
X119169600Y-125330799D01*
G75*
G02*
X119419599Y-125080800I249999J0D01*
G01*
X120069601Y-125080800D01*
G75*
G02*
X120319600Y-125330799I0J-249999D01*
G01*
X120319600Y-126230801D01*
G75*
G02*
X120069601Y-126480800I-249999J0D01*
G01*
X119419599Y-126480800D01*
G75*
G02*
X119169600Y-126230801I0J249999D01*
G01*
G37*
G36*
G01*
X117119600Y-126230801D02*
X117119600Y-125330799D01*
G75*
G02*
X117369599Y-125080800I249999J0D01*
G01*
X118019601Y-125080800D01*
G75*
G02*
X118269600Y-125330799I0J-249999D01*
G01*
X118269600Y-126230801D01*
G75*
G02*
X118019601Y-126480800I-249999J0D01*
G01*
X117369599Y-126480800D01*
G75*
G02*
X117119600Y-126230801I0J249999D01*
G01*
G37*
G36*
G01*
X115105600Y-126230801D02*
X115105600Y-125330799D01*
G75*
G02*
X115355599Y-125080800I249999J0D01*
G01*
X116005601Y-125080800D01*
G75*
G02*
X116255600Y-125330799I0J-249999D01*
G01*
X116255600Y-126230801D01*
G75*
G02*
X116005601Y-126480800I-249999J0D01*
G01*
X115355599Y-126480800D01*
G75*
G02*
X115105600Y-126230801I0J249999D01*
G01*
G37*
G36*
G01*
X113055600Y-126230801D02*
X113055600Y-125330799D01*
G75*
G02*
X113305599Y-125080800I249999J0D01*
G01*
X113955601Y-125080800D01*
G75*
G02*
X114205600Y-125330799I0J-249999D01*
G01*
X114205600Y-126230801D01*
G75*
G02*
X113955601Y-126480800I-249999J0D01*
G01*
X113305599Y-126480800D01*
G75*
G02*
X113055600Y-126230801I0J249999D01*
G01*
G37*
G36*
G01*
X110141600Y-125330799D02*
X110141600Y-126230801D01*
G75*
G02*
X109891601Y-126480800I-249999J0D01*
G01*
X109241599Y-126480800D01*
G75*
G02*
X108991600Y-126230801I0J249999D01*
G01*
X108991600Y-125330799D01*
G75*
G02*
X109241599Y-125080800I249999J0D01*
G01*
X109891601Y-125080800D01*
G75*
G02*
X110141600Y-125330799I0J-249999D01*
G01*
G37*
G36*
G01*
X112191600Y-125330799D02*
X112191600Y-126230801D01*
G75*
G02*
X111941601Y-126480800I-249999J0D01*
G01*
X111291599Y-126480800D01*
G75*
G02*
X111041600Y-126230801I0J249999D01*
G01*
X111041600Y-125330799D01*
G75*
G02*
X111291599Y-125080800I249999J0D01*
G01*
X111941601Y-125080800D01*
G75*
G02*
X112191600Y-125330799I0J-249999D01*
G01*
G37*
G36*
G01*
X92855200Y-145077601D02*
X92855200Y-144177599D01*
G75*
G02*
X93105199Y-143927600I249999J0D01*
G01*
X93755201Y-143927600D01*
G75*
G02*
X94005200Y-144177599I0J-249999D01*
G01*
X94005200Y-145077601D01*
G75*
G02*
X93755201Y-145327600I-249999J0D01*
G01*
X93105199Y-145327600D01*
G75*
G02*
X92855200Y-145077601I0J249999D01*
G01*
G37*
G36*
G01*
X90805200Y-145077601D02*
X90805200Y-144177599D01*
G75*
G02*
X91055199Y-143927600I249999J0D01*
G01*
X91705201Y-143927600D01*
G75*
G02*
X91955200Y-144177599I0J-249999D01*
G01*
X91955200Y-145077601D01*
G75*
G02*
X91705201Y-145327600I-249999J0D01*
G01*
X91055199Y-145327600D01*
G75*
G02*
X90805200Y-145077601I0J249999D01*
G01*
G37*
G36*
G01*
X100068800Y-142334401D02*
X100068800Y-141434399D01*
G75*
G02*
X100318799Y-141184400I249999J0D01*
G01*
X100968801Y-141184400D01*
G75*
G02*
X101218800Y-141434399I0J-249999D01*
G01*
X101218800Y-142334401D01*
G75*
G02*
X100968801Y-142584400I-249999J0D01*
G01*
X100318799Y-142584400D01*
G75*
G02*
X100068800Y-142334401I0J249999D01*
G01*
G37*
G36*
G01*
X98018800Y-142334401D02*
X98018800Y-141434399D01*
G75*
G02*
X98268799Y-141184400I249999J0D01*
G01*
X98918801Y-141184400D01*
G75*
G02*
X99168800Y-141434399I0J-249999D01*
G01*
X99168800Y-142334401D01*
G75*
G02*
X98918801Y-142584400I-249999J0D01*
G01*
X98268799Y-142584400D01*
G75*
G02*
X98018800Y-142334401I0J249999D01*
G01*
G37*
G36*
G01*
X104742400Y-142385201D02*
X104742400Y-141485199D01*
G75*
G02*
X104992399Y-141235200I249999J0D01*
G01*
X105642401Y-141235200D01*
G75*
G02*
X105892400Y-141485199I0J-249999D01*
G01*
X105892400Y-142385201D01*
G75*
G02*
X105642401Y-142635200I-249999J0D01*
G01*
X104992399Y-142635200D01*
G75*
G02*
X104742400Y-142385201I0J249999D01*
G01*
G37*
G36*
G01*
X102692400Y-142385201D02*
X102692400Y-141485199D01*
G75*
G02*
X102942399Y-141235200I249999J0D01*
G01*
X103592401Y-141235200D01*
G75*
G02*
X103842400Y-141485199I0J-249999D01*
G01*
X103842400Y-142385201D01*
G75*
G02*
X103592401Y-142635200I-249999J0D01*
G01*
X102942399Y-142635200D01*
G75*
G02*
X102692400Y-142385201I0J249999D01*
G01*
G37*
G36*
G01*
X106723600Y-148887601D02*
X106723600Y-147987599D01*
G75*
G02*
X106973599Y-147737600I249999J0D01*
G01*
X107623601Y-147737600D01*
G75*
G02*
X107873600Y-147987599I0J-249999D01*
G01*
X107873600Y-148887601D01*
G75*
G02*
X107623601Y-149137600I-249999J0D01*
G01*
X106973599Y-149137600D01*
G75*
G02*
X106723600Y-148887601I0J249999D01*
G01*
G37*
G36*
G01*
X104673600Y-148887601D02*
X104673600Y-147987599D01*
G75*
G02*
X104923599Y-147737600I249999J0D01*
G01*
X105573601Y-147737600D01*
G75*
G02*
X105823600Y-147987599I0J-249999D01*
G01*
X105823600Y-148887601D01*
G75*
G02*
X105573601Y-149137600I-249999J0D01*
G01*
X104923599Y-149137600D01*
G75*
G02*
X104673600Y-148887601I0J249999D01*
G01*
G37*
G36*
G01*
X109466800Y-142436001D02*
X109466800Y-141535999D01*
G75*
G02*
X109716799Y-141286000I249999J0D01*
G01*
X110366801Y-141286000D01*
G75*
G02*
X110616800Y-141535999I0J-249999D01*
G01*
X110616800Y-142436001D01*
G75*
G02*
X110366801Y-142686000I-249999J0D01*
G01*
X109716799Y-142686000D01*
G75*
G02*
X109466800Y-142436001I0J249999D01*
G01*
G37*
G36*
G01*
X107416800Y-142436001D02*
X107416800Y-141535999D01*
G75*
G02*
X107666799Y-141286000I249999J0D01*
G01*
X108316801Y-141286000D01*
G75*
G02*
X108566800Y-141535999I0J-249999D01*
G01*
X108566800Y-142436001D01*
G75*
G02*
X108316801Y-142686000I-249999J0D01*
G01*
X107666799Y-142686000D01*
G75*
G02*
X107416800Y-142436001I0J249999D01*
G01*
G37*
G36*
G01*
X110787601Y-148292400D02*
X109887599Y-148292400D01*
G75*
G02*
X109637600Y-148042401I0J249999D01*
G01*
X109637600Y-147392399D01*
G75*
G02*
X109887599Y-147142400I249999J0D01*
G01*
X110787601Y-147142400D01*
G75*
G02*
X111037600Y-147392399I0J-249999D01*
G01*
X111037600Y-148042401D01*
G75*
G02*
X110787601Y-148292400I-249999J0D01*
G01*
G37*
G36*
G01*
X110787601Y-150342400D02*
X109887599Y-150342400D01*
G75*
G02*
X109637600Y-150092401I0J249999D01*
G01*
X109637600Y-149442399D01*
G75*
G02*
X109887599Y-149192400I249999J0D01*
G01*
X110787601Y-149192400D01*
G75*
G02*
X111037600Y-149442399I0J-249999D01*
G01*
X111037600Y-150092401D01*
G75*
G02*
X110787601Y-150342400I-249999J0D01*
G01*
G37*
G36*
G01*
X102354801Y-152407200D02*
X101454799Y-152407200D01*
G75*
G02*
X101204800Y-152157201I0J249999D01*
G01*
X101204800Y-151507199D01*
G75*
G02*
X101454799Y-151257200I249999J0D01*
G01*
X102354801Y-151257200D01*
G75*
G02*
X102604800Y-151507199I0J-249999D01*
G01*
X102604800Y-152157201D01*
G75*
G02*
X102354801Y-152407200I-249999J0D01*
G01*
G37*
G36*
G01*
X102354801Y-154457200D02*
X101454799Y-154457200D01*
G75*
G02*
X101204800Y-154207201I0J249999D01*
G01*
X101204800Y-153557199D01*
G75*
G02*
X101454799Y-153307200I249999J0D01*
G01*
X102354801Y-153307200D01*
G75*
G02*
X102604800Y-153557199I0J-249999D01*
G01*
X102604800Y-154207201D01*
G75*
G02*
X102354801Y-154457200I-249999J0D01*
G01*
G37*
G36*
G01*
X99611601Y-152407200D02*
X98711599Y-152407200D01*
G75*
G02*
X98461600Y-152157201I0J249999D01*
G01*
X98461600Y-151507199D01*
G75*
G02*
X98711599Y-151257200I249999J0D01*
G01*
X99611601Y-151257200D01*
G75*
G02*
X99861600Y-151507199I0J-249999D01*
G01*
X99861600Y-152157201D01*
G75*
G02*
X99611601Y-152407200I-249999J0D01*
G01*
G37*
G36*
G01*
X99611601Y-154457200D02*
X98711599Y-154457200D01*
G75*
G02*
X98461600Y-154207201I0J249999D01*
G01*
X98461600Y-153557199D01*
G75*
G02*
X98711599Y-153307200I249999J0D01*
G01*
X99611601Y-153307200D01*
G75*
G02*
X99861600Y-153557199I0J-249999D01*
G01*
X99861600Y-154207201D01*
G75*
G02*
X99611601Y-154457200I-249999J0D01*
G01*
G37*
G36*
G01*
X107855600Y-158299999D02*
X107855600Y-159200001D01*
G75*
G02*
X107605601Y-159450000I-249999J0D01*
G01*
X106955599Y-159450000D01*
G75*
G02*
X106705600Y-159200001I0J249999D01*
G01*
X106705600Y-158299999D01*
G75*
G02*
X106955599Y-158050000I249999J0D01*
G01*
X107605601Y-158050000D01*
G75*
G02*
X107855600Y-158299999I0J-249999D01*
G01*
G37*
G36*
G01*
X109905600Y-158299999D02*
X109905600Y-159200001D01*
G75*
G02*
X109655601Y-159450000I-249999J0D01*
G01*
X109005599Y-159450000D01*
G75*
G02*
X108755600Y-159200001I0J249999D01*
G01*
X108755600Y-158299999D01*
G75*
G02*
X109005599Y-158050000I249999J0D01*
G01*
X109655601Y-158050000D01*
G75*
G02*
X109905600Y-158299999I0J-249999D01*
G01*
G37*
G36*
G01*
X91737601Y-166986800D02*
X90837599Y-166986800D01*
G75*
G02*
X90587600Y-166736801I0J249999D01*
G01*
X90587600Y-166086799D01*
G75*
G02*
X90837599Y-165836800I249999J0D01*
G01*
X91737601Y-165836800D01*
G75*
G02*
X91987600Y-166086799I0J-249999D01*
G01*
X91987600Y-166736801D01*
G75*
G02*
X91737601Y-166986800I-249999J0D01*
G01*
G37*
G36*
G01*
X91737601Y-169036800D02*
X90837599Y-169036800D01*
G75*
G02*
X90587600Y-168786801I0J249999D01*
G01*
X90587600Y-168136799D01*
G75*
G02*
X90837599Y-167886800I249999J0D01*
G01*
X91737601Y-167886800D01*
G75*
G02*
X91987600Y-168136799I0J-249999D01*
G01*
X91987600Y-168786801D01*
G75*
G02*
X91737601Y-169036800I-249999J0D01*
G01*
G37*
G36*
G01*
X91599599Y-157269600D02*
X92499601Y-157269600D01*
G75*
G02*
X92749600Y-157519599I0J-249999D01*
G01*
X92749600Y-158169601D01*
G75*
G02*
X92499601Y-158419600I-249999J0D01*
G01*
X91599599Y-158419600D01*
G75*
G02*
X91349600Y-158169601I0J249999D01*
G01*
X91349600Y-157519599D01*
G75*
G02*
X91599599Y-157269600I249999J0D01*
G01*
G37*
G36*
G01*
X91599599Y-155219600D02*
X92499601Y-155219600D01*
G75*
G02*
X92749600Y-155469599I0J-249999D01*
G01*
X92749600Y-156119601D01*
G75*
G02*
X92499601Y-156369600I-249999J0D01*
G01*
X91599599Y-156369600D01*
G75*
G02*
X91349600Y-156119601I0J249999D01*
G01*
X91349600Y-155469599D01*
G75*
G02*
X91599599Y-155219600I249999J0D01*
G01*
G37*
G36*
G01*
X93414000Y-154374001D02*
X93414000Y-153473999D01*
G75*
G02*
X93663999Y-153224000I249999J0D01*
G01*
X94314001Y-153224000D01*
G75*
G02*
X94564000Y-153473999I0J-249999D01*
G01*
X94564000Y-154374001D01*
G75*
G02*
X94314001Y-154624000I-249999J0D01*
G01*
X93663999Y-154624000D01*
G75*
G02*
X93414000Y-154374001I0J249999D01*
G01*
G37*
G36*
G01*
X91364000Y-154374001D02*
X91364000Y-153473999D01*
G75*
G02*
X91613999Y-153224000I249999J0D01*
G01*
X92264001Y-153224000D01*
G75*
G02*
X92514000Y-153473999I0J-249999D01*
G01*
X92514000Y-154374001D01*
G75*
G02*
X92264001Y-154624000I-249999J0D01*
G01*
X91613999Y-154624000D01*
G75*
G02*
X91364000Y-154374001I0J249999D01*
G01*
G37*
G36*
G01*
X102775600Y-170136399D02*
X102775600Y-171036401D01*
G75*
G02*
X102525601Y-171286400I-249999J0D01*
G01*
X101875599Y-171286400D01*
G75*
G02*
X101625600Y-171036401I0J249999D01*
G01*
X101625600Y-170136399D01*
G75*
G02*
X101875599Y-169886400I249999J0D01*
G01*
X102525601Y-169886400D01*
G75*
G02*
X102775600Y-170136399I0J-249999D01*
G01*
G37*
G36*
G01*
X104825600Y-170136399D02*
X104825600Y-171036401D01*
G75*
G02*
X104575601Y-171286400I-249999J0D01*
G01*
X103925599Y-171286400D01*
G75*
G02*
X103675600Y-171036401I0J249999D01*
G01*
X103675600Y-170136399D01*
G75*
G02*
X103925599Y-169886400I249999J0D01*
G01*
X104575601Y-169886400D01*
G75*
G02*
X104825600Y-170136399I0J-249999D01*
G01*
G37*
G36*
G01*
X102812001Y-166682000D02*
X101911999Y-166682000D01*
G75*
G02*
X101662000Y-166432001I0J249999D01*
G01*
X101662000Y-165781999D01*
G75*
G02*
X101911999Y-165532000I249999J0D01*
G01*
X102812001Y-165532000D01*
G75*
G02*
X103062000Y-165781999I0J-249999D01*
G01*
X103062000Y-166432001D01*
G75*
G02*
X102812001Y-166682000I-249999J0D01*
G01*
G37*
G36*
G01*
X102812001Y-168732000D02*
X101911999Y-168732000D01*
G75*
G02*
X101662000Y-168482001I0J249999D01*
G01*
X101662000Y-167831999D01*
G75*
G02*
X101911999Y-167582000I249999J0D01*
G01*
X102812001Y-167582000D01*
G75*
G02*
X103062000Y-167831999I0J-249999D01*
G01*
X103062000Y-168482001D01*
G75*
G02*
X102812001Y-168732000I-249999J0D01*
G01*
G37*
G36*
G01*
X127274500Y-123487601D02*
X127274500Y-122587599D01*
G75*
G02*
X127524499Y-122337600I249999J0D01*
G01*
X128174501Y-122337600D01*
G75*
G02*
X128424500Y-122587599I0J-249999D01*
G01*
X128424500Y-123487601D01*
G75*
G02*
X128174501Y-123737600I-249999J0D01*
G01*
X127524499Y-123737600D01*
G75*
G02*
X127274500Y-123487601I0J249999D01*
G01*
G37*
G36*
G01*
X125224500Y-123487601D02*
X125224500Y-122587599D01*
G75*
G02*
X125474499Y-122337600I249999J0D01*
G01*
X126124501Y-122337600D01*
G75*
G02*
X126374500Y-122587599I0J-249999D01*
G01*
X126374500Y-123487601D01*
G75*
G02*
X126124501Y-123737600I-249999J0D01*
G01*
X125474499Y-123737600D01*
G75*
G02*
X125224500Y-123487601I0J249999D01*
G01*
G37*
G36*
G01*
X122776400Y-123487601D02*
X122776400Y-122587599D01*
G75*
G02*
X123026399Y-122337600I249999J0D01*
G01*
X123676401Y-122337600D01*
G75*
G02*
X123926400Y-122587599I0J-249999D01*
G01*
X123926400Y-123487601D01*
G75*
G02*
X123676401Y-123737600I-249999J0D01*
G01*
X123026399Y-123737600D01*
G75*
G02*
X122776400Y-123487601I0J249999D01*
G01*
G37*
G36*
G01*
X120726400Y-123487601D02*
X120726400Y-122587599D01*
G75*
G02*
X120976399Y-122337600I249999J0D01*
G01*
X121626401Y-122337600D01*
G75*
G02*
X121876400Y-122587599I0J-249999D01*
G01*
X121876400Y-123487601D01*
G75*
G02*
X121626401Y-123737600I-249999J0D01*
G01*
X120976399Y-123737600D01*
G75*
G02*
X120726400Y-123487601I0J249999D01*
G01*
G37*
G36*
G01*
X119169600Y-165143601D02*
X119169600Y-164243599D01*
G75*
G02*
X119419599Y-163993600I249999J0D01*
G01*
X120069601Y-163993600D01*
G75*
G02*
X120319600Y-164243599I0J-249999D01*
G01*
X120319600Y-165143601D01*
G75*
G02*
X120069601Y-165393600I-249999J0D01*
G01*
X119419599Y-165393600D01*
G75*
G02*
X119169600Y-165143601I0J249999D01*
G01*
G37*
G36*
G01*
X117119600Y-165143601D02*
X117119600Y-164243599D01*
G75*
G02*
X117369599Y-163993600I249999J0D01*
G01*
X118019601Y-163993600D01*
G75*
G02*
X118269600Y-164243599I0J-249999D01*
G01*
X118269600Y-165143601D01*
G75*
G02*
X118019601Y-165393600I-249999J0D01*
G01*
X117369599Y-165393600D01*
G75*
G02*
X117119600Y-165143601I0J249999D01*
G01*
G37*
G36*
G01*
X119728401Y-160078000D02*
X118828399Y-160078000D01*
G75*
G02*
X118578400Y-159828001I0J249999D01*
G01*
X118578400Y-159177999D01*
G75*
G02*
X118828399Y-158928000I249999J0D01*
G01*
X119728401Y-158928000D01*
G75*
G02*
X119978400Y-159177999I0J-249999D01*
G01*
X119978400Y-159828001D01*
G75*
G02*
X119728401Y-160078000I-249999J0D01*
G01*
G37*
G36*
G01*
X119728401Y-162128000D02*
X118828399Y-162128000D01*
G75*
G02*
X118578400Y-161878001I0J249999D01*
G01*
X118578400Y-161227999D01*
G75*
G02*
X118828399Y-160978000I249999J0D01*
G01*
X119728401Y-160978000D01*
G75*
G02*
X119978400Y-161227999I0J-249999D01*
G01*
X119978400Y-161878001D01*
G75*
G02*
X119728401Y-162128000I-249999J0D01*
G01*
G37*
G36*
G01*
X111716399Y-161384400D02*
X112616401Y-161384400D01*
G75*
G02*
X112866400Y-161634399I0J-249999D01*
G01*
X112866400Y-162284401D01*
G75*
G02*
X112616401Y-162534400I-249999J0D01*
G01*
X111716399Y-162534400D01*
G75*
G02*
X111466400Y-162284401I0J249999D01*
G01*
X111466400Y-161634399D01*
G75*
G02*
X111716399Y-161384400I249999J0D01*
G01*
G37*
G36*
G01*
X111716399Y-159334400D02*
X112616401Y-159334400D01*
G75*
G02*
X112866400Y-159584399I0J-249999D01*
G01*
X112866400Y-160234401D01*
G75*
G02*
X112616401Y-160484400I-249999J0D01*
G01*
X111716399Y-160484400D01*
G75*
G02*
X111466400Y-160234401I0J249999D01*
G01*
X111466400Y-159584399D01*
G75*
G02*
X111716399Y-159334400I249999J0D01*
G01*
G37*
G36*
G01*
X112529200Y-169831599D02*
X112529200Y-170731601D01*
G75*
G02*
X112279201Y-170981600I-249999J0D01*
G01*
X111629199Y-170981600D01*
G75*
G02*
X111379200Y-170731601I0J249999D01*
G01*
X111379200Y-169831599D01*
G75*
G02*
X111629199Y-169581600I249999J0D01*
G01*
X112279201Y-169581600D01*
G75*
G02*
X112529200Y-169831599I0J-249999D01*
G01*
G37*
G36*
G01*
X114579200Y-169831599D02*
X114579200Y-170731601D01*
G75*
G02*
X114329201Y-170981600I-249999J0D01*
G01*
X113679199Y-170981600D01*
G75*
G02*
X113429200Y-170731601I0J249999D01*
G01*
X113429200Y-169831599D01*
G75*
G02*
X113679199Y-169581600I249999J0D01*
G01*
X114329201Y-169581600D01*
G75*
G02*
X114579200Y-169831599I0J-249999D01*
G01*
G37*
G36*
G01*
X117456800Y-169882399D02*
X117456800Y-170782401D01*
G75*
G02*
X117206801Y-171032400I-249999J0D01*
G01*
X116556799Y-171032400D01*
G75*
G02*
X116306800Y-170782401I0J249999D01*
G01*
X116306800Y-169882399D01*
G75*
G02*
X116556799Y-169632400I249999J0D01*
G01*
X117206801Y-169632400D01*
G75*
G02*
X117456800Y-169882399I0J-249999D01*
G01*
G37*
G36*
G01*
X119506800Y-169882399D02*
X119506800Y-170782401D01*
G75*
G02*
X119256801Y-171032400I-249999J0D01*
G01*
X118606799Y-171032400D01*
G75*
G02*
X118356800Y-170782401I0J249999D01*
G01*
X118356800Y-169882399D01*
G75*
G02*
X118606799Y-169632400I249999J0D01*
G01*
X119256801Y-169632400D01*
G75*
G02*
X119506800Y-169882399I0J-249999D01*
G01*
G37*
G36*
G01*
X116426400Y-158031601D02*
X116426400Y-157131599D01*
G75*
G02*
X116676399Y-156881600I249999J0D01*
G01*
X117326401Y-156881600D01*
G75*
G02*
X117576400Y-157131599I0J-249999D01*
G01*
X117576400Y-158031601D01*
G75*
G02*
X117326401Y-158281600I-249999J0D01*
G01*
X116676399Y-158281600D01*
G75*
G02*
X116426400Y-158031601I0J249999D01*
G01*
G37*
G36*
G01*
X114376400Y-158031601D02*
X114376400Y-157131599D01*
G75*
G02*
X114626399Y-156881600I249999J0D01*
G01*
X115276401Y-156881600D01*
G75*
G02*
X115526400Y-157131599I0J-249999D01*
G01*
X115526400Y-158031601D01*
G75*
G02*
X115276401Y-158281600I-249999J0D01*
G01*
X114626399Y-158281600D01*
G75*
G02*
X114376400Y-158031601I0J249999D01*
G01*
G37*
G36*
G01*
X116172400Y-153256401D02*
X116172400Y-152356399D01*
G75*
G02*
X116422399Y-152106400I249999J0D01*
G01*
X117072401Y-152106400D01*
G75*
G02*
X117322400Y-152356399I0J-249999D01*
G01*
X117322400Y-153256401D01*
G75*
G02*
X117072401Y-153506400I-249999J0D01*
G01*
X116422399Y-153506400D01*
G75*
G02*
X116172400Y-153256401I0J249999D01*
G01*
G37*
G36*
G01*
X114122400Y-153256401D02*
X114122400Y-152356399D01*
G75*
G02*
X114372399Y-152106400I249999J0D01*
G01*
X115022401Y-152106400D01*
G75*
G02*
X115272400Y-152356399I0J-249999D01*
G01*
X115272400Y-153256401D01*
G75*
G02*
X115022401Y-153506400I-249999J0D01*
G01*
X114372399Y-153506400D01*
G75*
G02*
X114122400Y-153256401I0J249999D01*
G01*
G37*
G36*
G01*
X118024300Y-132733201D02*
X118024300Y-131833199D01*
G75*
G02*
X118274299Y-131583200I249999J0D01*
G01*
X118924301Y-131583200D01*
G75*
G02*
X119174300Y-131833199I0J-249999D01*
G01*
X119174300Y-132733201D01*
G75*
G02*
X118924301Y-132983200I-249999J0D01*
G01*
X118274299Y-132983200D01*
G75*
G02*
X118024300Y-132733201I0J249999D01*
G01*
G37*
G36*
G01*
X115974300Y-132733201D02*
X115974300Y-131833199D01*
G75*
G02*
X116224299Y-131583200I249999J0D01*
G01*
X116874301Y-131583200D01*
G75*
G02*
X117124300Y-131833199I0J-249999D01*
G01*
X117124300Y-132733201D01*
G75*
G02*
X116874301Y-132983200I-249999J0D01*
G01*
X116224299Y-132983200D01*
G75*
G02*
X115974300Y-132733201I0J249999D01*
G01*
G37*
G36*
G01*
X113710900Y-132733201D02*
X113710900Y-131833199D01*
G75*
G02*
X113960899Y-131583200I249999J0D01*
G01*
X114610901Y-131583200D01*
G75*
G02*
X114860900Y-131833199I0J-249999D01*
G01*
X114860900Y-132733201D01*
G75*
G02*
X114610901Y-132983200I-249999J0D01*
G01*
X113960899Y-132983200D01*
G75*
G02*
X113710900Y-132733201I0J249999D01*
G01*
G37*
G36*
G01*
X111660900Y-132733201D02*
X111660900Y-131833199D01*
G75*
G02*
X111910899Y-131583200I249999J0D01*
G01*
X112560901Y-131583200D01*
G75*
G02*
X112810900Y-131833199I0J-249999D01*
G01*
X112810900Y-132733201D01*
G75*
G02*
X112560901Y-132983200I-249999J0D01*
G01*
X111910899Y-132983200D01*
G75*
G02*
X111660900Y-132733201I0J249999D01*
G01*
G37*
G36*
G01*
X110649599Y-183939600D02*
X111549601Y-183939600D01*
G75*
G02*
X111799600Y-184189599I0J-249999D01*
G01*
X111799600Y-184839601D01*
G75*
G02*
X111549601Y-185089600I-249999J0D01*
G01*
X110649599Y-185089600D01*
G75*
G02*
X110399600Y-184839601I0J249999D01*
G01*
X110399600Y-184189599D01*
G75*
G02*
X110649599Y-183939600I249999J0D01*
G01*
G37*
G36*
G01*
X110649599Y-181889600D02*
X111549601Y-181889600D01*
G75*
G02*
X111799600Y-182139599I0J-249999D01*
G01*
X111799600Y-182789601D01*
G75*
G02*
X111549601Y-183039600I-249999J0D01*
G01*
X110649599Y-183039600D01*
G75*
G02*
X110399600Y-182789601I0J249999D01*
G01*
X110399600Y-182139599D01*
G75*
G02*
X110649599Y-181889600I249999J0D01*
G01*
G37*
G36*
G01*
X108465199Y-183939600D02*
X109365201Y-183939600D01*
G75*
G02*
X109615200Y-184189599I0J-249999D01*
G01*
X109615200Y-184839601D01*
G75*
G02*
X109365201Y-185089600I-249999J0D01*
G01*
X108465199Y-185089600D01*
G75*
G02*
X108215200Y-184839601I0J249999D01*
G01*
X108215200Y-184189599D01*
G75*
G02*
X108465199Y-183939600I249999J0D01*
G01*
G37*
G36*
G01*
X108465199Y-181889600D02*
X109365201Y-181889600D01*
G75*
G02*
X109615200Y-182139599I0J-249999D01*
G01*
X109615200Y-182789601D01*
G75*
G02*
X109365201Y-183039600I-249999J0D01*
G01*
X108465199Y-183039600D01*
G75*
G02*
X108215200Y-182789601I0J249999D01*
G01*
X108215200Y-182139599D01*
G75*
G02*
X108465199Y-181889600I249999J0D01*
G01*
G37*
G36*
G01*
X107384001Y-180855200D02*
X106483999Y-180855200D01*
G75*
G02*
X106234000Y-180605201I0J249999D01*
G01*
X106234000Y-179955199D01*
G75*
G02*
X106483999Y-179705200I249999J0D01*
G01*
X107384001Y-179705200D01*
G75*
G02*
X107634000Y-179955199I0J-249999D01*
G01*
X107634000Y-180605201D01*
G75*
G02*
X107384001Y-180855200I-249999J0D01*
G01*
G37*
G36*
G01*
X107384001Y-182905200D02*
X106483999Y-182905200D01*
G75*
G02*
X106234000Y-182655201I0J249999D01*
G01*
X106234000Y-182005199D01*
G75*
G02*
X106483999Y-181755200I249999J0D01*
G01*
X107384001Y-181755200D01*
G75*
G02*
X107634000Y-182005199I0J-249999D01*
G01*
X107634000Y-182655201D01*
G75*
G02*
X107384001Y-182905200I-249999J0D01*
G01*
G37*
G36*
G01*
X110127200Y-192016801D02*
X110127200Y-191116799D01*
G75*
G02*
X110377199Y-190866800I249999J0D01*
G01*
X111027201Y-190866800D01*
G75*
G02*
X111277200Y-191116799I0J-249999D01*
G01*
X111277200Y-192016801D01*
G75*
G02*
X111027201Y-192266800I-249999J0D01*
G01*
X110377199Y-192266800D01*
G75*
G02*
X110127200Y-192016801I0J249999D01*
G01*
G37*
G36*
G01*
X108077200Y-192016801D02*
X108077200Y-191116799D01*
G75*
G02*
X108327199Y-190866800I249999J0D01*
G01*
X108977201Y-190866800D01*
G75*
G02*
X109227200Y-191116799I0J-249999D01*
G01*
X109227200Y-192016801D01*
G75*
G02*
X108977201Y-192266800I-249999J0D01*
G01*
X108327199Y-192266800D01*
G75*
G02*
X108077200Y-192016801I0J249999D01*
G01*
G37*
G36*
G01*
X106179199Y-191102400D02*
X107079201Y-191102400D01*
G75*
G02*
X107329200Y-191352399I0J-249999D01*
G01*
X107329200Y-192002401D01*
G75*
G02*
X107079201Y-192252400I-249999J0D01*
G01*
X106179199Y-192252400D01*
G75*
G02*
X105929200Y-192002401I0J249999D01*
G01*
X105929200Y-191352399D01*
G75*
G02*
X106179199Y-191102400I249999J0D01*
G01*
G37*
G36*
G01*
X106179199Y-189052400D02*
X107079201Y-189052400D01*
G75*
G02*
X107329200Y-189302399I0J-249999D01*
G01*
X107329200Y-189952401D01*
G75*
G02*
X107079201Y-190202400I-249999J0D01*
G01*
X106179199Y-190202400D01*
G75*
G02*
X105929200Y-189952401I0J249999D01*
G01*
X105929200Y-189302399D01*
G75*
G02*
X106179199Y-189052400I249999J0D01*
G01*
G37*
G36*
G01*
X96614401Y-190253200D02*
X95714399Y-190253200D01*
G75*
G02*
X95464400Y-190003201I0J249999D01*
G01*
X95464400Y-189353199D01*
G75*
G02*
X95714399Y-189103200I249999J0D01*
G01*
X96614401Y-189103200D01*
G75*
G02*
X96864400Y-189353199I0J-249999D01*
G01*
X96864400Y-190003201D01*
G75*
G02*
X96614401Y-190253200I-249999J0D01*
G01*
G37*
G36*
G01*
X96614401Y-192303200D02*
X95714399Y-192303200D01*
G75*
G02*
X95464400Y-192053201I0J249999D01*
G01*
X95464400Y-191403199D01*
G75*
G02*
X95714399Y-191153200I249999J0D01*
G01*
X96614401Y-191153200D01*
G75*
G02*
X96864400Y-191403199I0J-249999D01*
G01*
X96864400Y-192053201D01*
G75*
G02*
X96614401Y-192303200I-249999J0D01*
G01*
G37*
G36*
G01*
X98849601Y-190253200D02*
X97949599Y-190253200D01*
G75*
G02*
X97699600Y-190003201I0J249999D01*
G01*
X97699600Y-189353199D01*
G75*
G02*
X97949599Y-189103200I249999J0D01*
G01*
X98849601Y-189103200D01*
G75*
G02*
X99099600Y-189353199I0J-249999D01*
G01*
X99099600Y-190003201D01*
G75*
G02*
X98849601Y-190253200I-249999J0D01*
G01*
G37*
G36*
G01*
X98849601Y-192303200D02*
X97949599Y-192303200D01*
G75*
G02*
X97699600Y-192053201I0J249999D01*
G01*
X97699600Y-191403199D01*
G75*
G02*
X97949599Y-191153200I249999J0D01*
G01*
X98849601Y-191153200D01*
G75*
G02*
X99099600Y-191403199I0J-249999D01*
G01*
X99099600Y-192053201D01*
G75*
G02*
X98849601Y-192303200I-249999J0D01*
G01*
G37*
G36*
G01*
X96462000Y-187089201D02*
X96462000Y-186189199D01*
G75*
G02*
X96711999Y-185939200I249999J0D01*
G01*
X97362001Y-185939200D01*
G75*
G02*
X97612000Y-186189199I0J-249999D01*
G01*
X97612000Y-187089201D01*
G75*
G02*
X97362001Y-187339200I-249999J0D01*
G01*
X96711999Y-187339200D01*
G75*
G02*
X96462000Y-187089201I0J249999D01*
G01*
G37*
G36*
G01*
X94412000Y-187089201D02*
X94412000Y-186189199D01*
G75*
G02*
X94661999Y-185939200I249999J0D01*
G01*
X95312001Y-185939200D01*
G75*
G02*
X95562000Y-186189199I0J-249999D01*
G01*
X95562000Y-187089201D01*
G75*
G02*
X95312001Y-187339200I-249999J0D01*
G01*
X94661999Y-187339200D01*
G75*
G02*
X94412000Y-187089201I0J249999D01*
G01*
G37*
G36*
G01*
X95612800Y-179788399D02*
X95612800Y-180688401D01*
G75*
G02*
X95362801Y-180938400I-249999J0D01*
G01*
X94712799Y-180938400D01*
G75*
G02*
X94462800Y-180688401I0J249999D01*
G01*
X94462800Y-179788399D01*
G75*
G02*
X94712799Y-179538400I249999J0D01*
G01*
X95362801Y-179538400D01*
G75*
G02*
X95612800Y-179788399I0J-249999D01*
G01*
G37*
G36*
G01*
X97662800Y-179788399D02*
X97662800Y-180688401D01*
G75*
G02*
X97412801Y-180938400I-249999J0D01*
G01*
X96762799Y-180938400D01*
G75*
G02*
X96512800Y-180688401I0J249999D01*
G01*
X96512800Y-179788399D01*
G75*
G02*
X96762799Y-179538400I249999J0D01*
G01*
X97412801Y-179538400D01*
G75*
G02*
X97662800Y-179788399I0J-249999D01*
G01*
G37*
D11*
X126884460Y-125658080D03*
X122284460Y-125658080D03*
X124584460Y-125658080D03*
D12*
X124584460Y-131958080D03*
D11*
X117717600Y-135025600D03*
X113117600Y-135025600D03*
X115417600Y-135025600D03*
D12*
X115417600Y-141325600D03*
D13*
X116337000Y-161943860D03*
X116337000Y-161443860D03*
X116337000Y-160943860D03*
X116337000Y-162443860D03*
D14*
X114312000Y-162968860D03*
X115312000Y-162968860D03*
X114812000Y-162968860D03*
X115812000Y-162968860D03*
D13*
X113787000Y-162443860D03*
X113787000Y-161943860D03*
X113787000Y-161443860D03*
X113787000Y-160943860D03*
D14*
X115312000Y-160418860D03*
X114812000Y-160418860D03*
X114312000Y-160418860D03*
X115812000Y-160418860D03*
G36*
G01*
X102208440Y-183111760D02*
X102718440Y-183111760D01*
G75*
G02*
X102968440Y-183361760I0J-250000D01*
G01*
X102968440Y-183871760D01*
G75*
G02*
X102718440Y-184121760I-250000J0D01*
G01*
X102208440Y-184121760D01*
G75*
G02*
X101958440Y-183871760I0J250000D01*
G01*
X101958440Y-183361760D01*
G75*
G02*
X102208440Y-183111760I250000J0D01*
G01*
G37*
G36*
G01*
X103458440Y-183111760D02*
X103968440Y-183111760D01*
G75*
G02*
X104218440Y-183361760I0J-250000D01*
G01*
X104218440Y-183871760D01*
G75*
G02*
X103968440Y-184121760I-250000J0D01*
G01*
X103458440Y-184121760D01*
G75*
G02*
X103208440Y-183871760I0J250000D01*
G01*
X103208440Y-183361760D01*
G75*
G02*
X103458440Y-183111760I250000J0D01*
G01*
G37*
G36*
G01*
X102208440Y-181861760D02*
X102718440Y-181861760D01*
G75*
G02*
X102968440Y-182111760I0J-250000D01*
G01*
X102968440Y-182621760D01*
G75*
G02*
X102718440Y-182871760I-250000J0D01*
G01*
X102208440Y-182871760D01*
G75*
G02*
X101958440Y-182621760I0J250000D01*
G01*
X101958440Y-182111760D01*
G75*
G02*
X102208440Y-181861760I250000J0D01*
G01*
G37*
G36*
G01*
X103458440Y-181861760D02*
X103968440Y-181861760D01*
G75*
G02*
X104218440Y-182111760I0J-250000D01*
G01*
X104218440Y-182621760D01*
G75*
G02*
X103968440Y-182871760I-250000J0D01*
G01*
X103458440Y-182871760D01*
G75*
G02*
X103208440Y-182621760I0J250000D01*
G01*
X103208440Y-182111760D01*
G75*
G02*
X103458440Y-181861760I250000J0D01*
G01*
G37*
G36*
G01*
X104675940Y-181866760D02*
X105375940Y-181866760D01*
G75*
G02*
X105438440Y-181929260I0J-62500D01*
G01*
X105438440Y-182054260D01*
G75*
G02*
X105375940Y-182116760I-62500J0D01*
G01*
X104675940Y-182116760D01*
G75*
G02*
X104613440Y-182054260I0J62500D01*
G01*
X104613440Y-181929260D01*
G75*
G02*
X104675940Y-181866760I62500J0D01*
G01*
G37*
G36*
G01*
X104675940Y-182366760D02*
X105375940Y-182366760D01*
G75*
G02*
X105438440Y-182429260I0J-62500D01*
G01*
X105438440Y-182554260D01*
G75*
G02*
X105375940Y-182616760I-62500J0D01*
G01*
X104675940Y-182616760D01*
G75*
G02*
X104613440Y-182554260I0J62500D01*
G01*
X104613440Y-182429260D01*
G75*
G02*
X104675940Y-182366760I62500J0D01*
G01*
G37*
G36*
G01*
X104675940Y-182866760D02*
X105375940Y-182866760D01*
G75*
G02*
X105438440Y-182929260I0J-62500D01*
G01*
X105438440Y-183054260D01*
G75*
G02*
X105375940Y-183116760I-62500J0D01*
G01*
X104675940Y-183116760D01*
G75*
G02*
X104613440Y-183054260I0J62500D01*
G01*
X104613440Y-182929260D01*
G75*
G02*
X104675940Y-182866760I62500J0D01*
G01*
G37*
G36*
G01*
X104675940Y-183366760D02*
X105375940Y-183366760D01*
G75*
G02*
X105438440Y-183429260I0J-62500D01*
G01*
X105438440Y-183554260D01*
G75*
G02*
X105375940Y-183616760I-62500J0D01*
G01*
X104675940Y-183616760D01*
G75*
G02*
X104613440Y-183554260I0J62500D01*
G01*
X104613440Y-183429260D01*
G75*
G02*
X104675940Y-183366760I62500J0D01*
G01*
G37*
G36*
G01*
X104675940Y-183866760D02*
X105375940Y-183866760D01*
G75*
G02*
X105438440Y-183929260I0J-62500D01*
G01*
X105438440Y-184054260D01*
G75*
G02*
X105375940Y-184116760I-62500J0D01*
G01*
X104675940Y-184116760D01*
G75*
G02*
X104613440Y-184054260I0J62500D01*
G01*
X104613440Y-183929260D01*
G75*
G02*
X104675940Y-183866760I62500J0D01*
G01*
G37*
G36*
G01*
X104025940Y-184516760D02*
X104150940Y-184516760D01*
G75*
G02*
X104213440Y-184579260I0J-62500D01*
G01*
X104213440Y-185279260D01*
G75*
G02*
X104150940Y-185341760I-62500J0D01*
G01*
X104025940Y-185341760D01*
G75*
G02*
X103963440Y-185279260I0J62500D01*
G01*
X103963440Y-184579260D01*
G75*
G02*
X104025940Y-184516760I62500J0D01*
G01*
G37*
G36*
G01*
X103525940Y-184516760D02*
X103650940Y-184516760D01*
G75*
G02*
X103713440Y-184579260I0J-62500D01*
G01*
X103713440Y-185279260D01*
G75*
G02*
X103650940Y-185341760I-62500J0D01*
G01*
X103525940Y-185341760D01*
G75*
G02*
X103463440Y-185279260I0J62500D01*
G01*
X103463440Y-184579260D01*
G75*
G02*
X103525940Y-184516760I62500J0D01*
G01*
G37*
G36*
G01*
X103025940Y-184516760D02*
X103150940Y-184516760D01*
G75*
G02*
X103213440Y-184579260I0J-62500D01*
G01*
X103213440Y-185279260D01*
G75*
G02*
X103150940Y-185341760I-62500J0D01*
G01*
X103025940Y-185341760D01*
G75*
G02*
X102963440Y-185279260I0J62500D01*
G01*
X102963440Y-184579260D01*
G75*
G02*
X103025940Y-184516760I62500J0D01*
G01*
G37*
G36*
G01*
X102525940Y-184516760D02*
X102650940Y-184516760D01*
G75*
G02*
X102713440Y-184579260I0J-62500D01*
G01*
X102713440Y-185279260D01*
G75*
G02*
X102650940Y-185341760I-62500J0D01*
G01*
X102525940Y-185341760D01*
G75*
G02*
X102463440Y-185279260I0J62500D01*
G01*
X102463440Y-184579260D01*
G75*
G02*
X102525940Y-184516760I62500J0D01*
G01*
G37*
G36*
G01*
X102025940Y-184516760D02*
X102150940Y-184516760D01*
G75*
G02*
X102213440Y-184579260I0J-62500D01*
G01*
X102213440Y-185279260D01*
G75*
G02*
X102150940Y-185341760I-62500J0D01*
G01*
X102025940Y-185341760D01*
G75*
G02*
X101963440Y-185279260I0J62500D01*
G01*
X101963440Y-184579260D01*
G75*
G02*
X102025940Y-184516760I62500J0D01*
G01*
G37*
G36*
G01*
X100800940Y-183866760D02*
X101500940Y-183866760D01*
G75*
G02*
X101563440Y-183929260I0J-62500D01*
G01*
X101563440Y-184054260D01*
G75*
G02*
X101500940Y-184116760I-62500J0D01*
G01*
X100800940Y-184116760D01*
G75*
G02*
X100738440Y-184054260I0J62500D01*
G01*
X100738440Y-183929260D01*
G75*
G02*
X100800940Y-183866760I62500J0D01*
G01*
G37*
G36*
G01*
X100800940Y-183366760D02*
X101500940Y-183366760D01*
G75*
G02*
X101563440Y-183429260I0J-62500D01*
G01*
X101563440Y-183554260D01*
G75*
G02*
X101500940Y-183616760I-62500J0D01*
G01*
X100800940Y-183616760D01*
G75*
G02*
X100738440Y-183554260I0J62500D01*
G01*
X100738440Y-183429260D01*
G75*
G02*
X100800940Y-183366760I62500J0D01*
G01*
G37*
G36*
G01*
X100800940Y-182866760D02*
X101500940Y-182866760D01*
G75*
G02*
X101563440Y-182929260I0J-62500D01*
G01*
X101563440Y-183054260D01*
G75*
G02*
X101500940Y-183116760I-62500J0D01*
G01*
X100800940Y-183116760D01*
G75*
G02*
X100738440Y-183054260I0J62500D01*
G01*
X100738440Y-182929260D01*
G75*
G02*
X100800940Y-182866760I62500J0D01*
G01*
G37*
G36*
G01*
X100800940Y-182366760D02*
X101500940Y-182366760D01*
G75*
G02*
X101563440Y-182429260I0J-62500D01*
G01*
X101563440Y-182554260D01*
G75*
G02*
X101500940Y-182616760I-62500J0D01*
G01*
X100800940Y-182616760D01*
G75*
G02*
X100738440Y-182554260I0J62500D01*
G01*
X100738440Y-182429260D01*
G75*
G02*
X100800940Y-182366760I62500J0D01*
G01*
G37*
G36*
G01*
X100800940Y-181866760D02*
X101500940Y-181866760D01*
G75*
G02*
X101563440Y-181929260I0J-62500D01*
G01*
X101563440Y-182054260D01*
G75*
G02*
X101500940Y-182116760I-62500J0D01*
G01*
X100800940Y-182116760D01*
G75*
G02*
X100738440Y-182054260I0J62500D01*
G01*
X100738440Y-181929260D01*
G75*
G02*
X100800940Y-181866760I62500J0D01*
G01*
G37*
G36*
G01*
X102025940Y-180641760D02*
X102150940Y-180641760D01*
G75*
G02*
X102213440Y-180704260I0J-62500D01*
G01*
X102213440Y-181404260D01*
G75*
G02*
X102150940Y-181466760I-62500J0D01*
G01*
X102025940Y-181466760D01*
G75*
G02*
X101963440Y-181404260I0J62500D01*
G01*
X101963440Y-180704260D01*
G75*
G02*
X102025940Y-180641760I62500J0D01*
G01*
G37*
G36*
G01*
X102525940Y-180641760D02*
X102650940Y-180641760D01*
G75*
G02*
X102713440Y-180704260I0J-62500D01*
G01*
X102713440Y-181404260D01*
G75*
G02*
X102650940Y-181466760I-62500J0D01*
G01*
X102525940Y-181466760D01*
G75*
G02*
X102463440Y-181404260I0J62500D01*
G01*
X102463440Y-180704260D01*
G75*
G02*
X102525940Y-180641760I62500J0D01*
G01*
G37*
G36*
G01*
X103025940Y-180641760D02*
X103150940Y-180641760D01*
G75*
G02*
X103213440Y-180704260I0J-62500D01*
G01*
X103213440Y-181404260D01*
G75*
G02*
X103150940Y-181466760I-62500J0D01*
G01*
X103025940Y-181466760D01*
G75*
G02*
X102963440Y-181404260I0J62500D01*
G01*
X102963440Y-180704260D01*
G75*
G02*
X103025940Y-180641760I62500J0D01*
G01*
G37*
G36*
G01*
X103525940Y-180641760D02*
X103650940Y-180641760D01*
G75*
G02*
X103713440Y-180704260I0J-62500D01*
G01*
X103713440Y-181404260D01*
G75*
G02*
X103650940Y-181466760I-62500J0D01*
G01*
X103525940Y-181466760D01*
G75*
G02*
X103463440Y-181404260I0J62500D01*
G01*
X103463440Y-180704260D01*
G75*
G02*
X103525940Y-180641760I62500J0D01*
G01*
G37*
G36*
G01*
X104025940Y-180641760D02*
X104150940Y-180641760D01*
G75*
G02*
X104213440Y-180704260I0J-62500D01*
G01*
X104213440Y-181404260D01*
G75*
G02*
X104150940Y-181466760I-62500J0D01*
G01*
X104025940Y-181466760D01*
G75*
G02*
X103963440Y-181404260I0J62500D01*
G01*
X103963440Y-180704260D01*
G75*
G02*
X104025940Y-180641760I62500J0D01*
G01*
G37*
D15*
X115783000Y-154391460D03*
X115133000Y-155991460D03*
X114483000Y-155991460D03*
X113833000Y-155991460D03*
X115133000Y-154391460D03*
X114483000Y-154391460D03*
X113833000Y-154391460D03*
X115783000Y-155991460D03*
D16*
G36*
X114574632Y-165982101D02*
G01*
X114588701Y-165986369D01*
X114601668Y-165993300D01*
X114613033Y-166002627D01*
X114622360Y-166013992D01*
X114629291Y-166026959D01*
X114633559Y-166041028D01*
X114635000Y-166055660D01*
X114635000Y-166530660D01*
X114633559Y-166545292D01*
X114629291Y-166559361D01*
X114622360Y-166572328D01*
X114613033Y-166583693D01*
X114601668Y-166593020D01*
X114588701Y-166599951D01*
X114574632Y-166604219D01*
X114560000Y-166605660D01*
X114516066Y-166605660D01*
X114501434Y-166604219D01*
X114487365Y-166599951D01*
X114474398Y-166593020D01*
X114463033Y-166583693D01*
X114256967Y-166377627D01*
X114247640Y-166366262D01*
X114240709Y-166353295D01*
X114236441Y-166339226D01*
X114235000Y-166324594D01*
X114235000Y-166055660D01*
X114236441Y-166041028D01*
X114240709Y-166026959D01*
X114247640Y-166013992D01*
X114256967Y-166002627D01*
X114268332Y-165993300D01*
X114281299Y-165986369D01*
X114295368Y-165982101D01*
X114310000Y-165980660D01*
X114560000Y-165980660D01*
X114574632Y-165982101D01*
G37*
G36*
G01*
X114735000Y-166505660D02*
X114735000Y-166080660D01*
G75*
G02*
X114835000Y-165980660I100000J0D01*
G01*
X115035000Y-165980660D01*
G75*
G02*
X115135000Y-166080660I0J-100000D01*
G01*
X115135000Y-166505660D01*
G75*
G02*
X115035000Y-166605660I-100000J0D01*
G01*
X114835000Y-166605660D01*
G75*
G02*
X114735000Y-166505660I0J100000D01*
G01*
G37*
G36*
X115574632Y-165982101D02*
G01*
X115588701Y-165986369D01*
X115601668Y-165993300D01*
X115613033Y-166002627D01*
X115622360Y-166013992D01*
X115629291Y-166026959D01*
X115633559Y-166041028D01*
X115635000Y-166055660D01*
X115635000Y-166324594D01*
X115633559Y-166339226D01*
X115629291Y-166353295D01*
X115622360Y-166366262D01*
X115613033Y-166377627D01*
X115406967Y-166583693D01*
X115395602Y-166593020D01*
X115382635Y-166599951D01*
X115368566Y-166604219D01*
X115353934Y-166605660D01*
X115310000Y-166605660D01*
X115295368Y-166604219D01*
X115281299Y-166599951D01*
X115268332Y-166593020D01*
X115256967Y-166583693D01*
X115247640Y-166572328D01*
X115240709Y-166559361D01*
X115236441Y-166545292D01*
X115235000Y-166530660D01*
X115235000Y-166055660D01*
X115236441Y-166041028D01*
X115240709Y-166026959D01*
X115247640Y-166013992D01*
X115256967Y-166002627D01*
X115268332Y-165993300D01*
X115281299Y-165986369D01*
X115295368Y-165982101D01*
X115310000Y-165980660D01*
X115560000Y-165980660D01*
X115574632Y-165982101D01*
G37*
G36*
X116349632Y-166257101D02*
G01*
X116363701Y-166261369D01*
X116376668Y-166268300D01*
X116388033Y-166277627D01*
X116397360Y-166288992D01*
X116404291Y-166301959D01*
X116408559Y-166316028D01*
X116410000Y-166330660D01*
X116410000Y-166580660D01*
X116408559Y-166595292D01*
X116404291Y-166609361D01*
X116397360Y-166622328D01*
X116388033Y-166633693D01*
X116376668Y-166643020D01*
X116363701Y-166649951D01*
X116349632Y-166654219D01*
X116335000Y-166655660D01*
X115860000Y-166655660D01*
X115845368Y-166654219D01*
X115831299Y-166649951D01*
X115818332Y-166643020D01*
X115806967Y-166633693D01*
X115797640Y-166622328D01*
X115790709Y-166609361D01*
X115786441Y-166595292D01*
X115785000Y-166580660D01*
X115785000Y-166536726D01*
X115786441Y-166522094D01*
X115790709Y-166508025D01*
X115797640Y-166495058D01*
X115806967Y-166483693D01*
X116013033Y-166277627D01*
X116024398Y-166268300D01*
X116037365Y-166261369D01*
X116051434Y-166257101D01*
X116066066Y-166255660D01*
X116335000Y-166255660D01*
X116349632Y-166257101D01*
G37*
G36*
G01*
X115785000Y-167055660D02*
X115785000Y-166855660D01*
G75*
G02*
X115885000Y-166755660I100000J0D01*
G01*
X116310000Y-166755660D01*
G75*
G02*
X116410000Y-166855660I0J-100000D01*
G01*
X116410000Y-167055660D01*
G75*
G02*
X116310000Y-167155660I-100000J0D01*
G01*
X115885000Y-167155660D01*
G75*
G02*
X115785000Y-167055660I0J100000D01*
G01*
G37*
G36*
G01*
X115785000Y-167555660D02*
X115785000Y-167355660D01*
G75*
G02*
X115885000Y-167255660I100000J0D01*
G01*
X116310000Y-167255660D01*
G75*
G02*
X116410000Y-167355660I0J-100000D01*
G01*
X116410000Y-167555660D01*
G75*
G02*
X116310000Y-167655660I-100000J0D01*
G01*
X115885000Y-167655660D01*
G75*
G02*
X115785000Y-167555660I0J100000D01*
G01*
G37*
G36*
X116349632Y-167757101D02*
G01*
X116363701Y-167761369D01*
X116376668Y-167768300D01*
X116388033Y-167777627D01*
X116397360Y-167788992D01*
X116404291Y-167801959D01*
X116408559Y-167816028D01*
X116410000Y-167830660D01*
X116410000Y-168080660D01*
X116408559Y-168095292D01*
X116404291Y-168109361D01*
X116397360Y-168122328D01*
X116388033Y-168133693D01*
X116376668Y-168143020D01*
X116363701Y-168149951D01*
X116349632Y-168154219D01*
X116335000Y-168155660D01*
X116066066Y-168155660D01*
X116051434Y-168154219D01*
X116037365Y-168149951D01*
X116024398Y-168143020D01*
X116013033Y-168133693D01*
X115806967Y-167927627D01*
X115797640Y-167916262D01*
X115790709Y-167903295D01*
X115786441Y-167889226D01*
X115785000Y-167874594D01*
X115785000Y-167830660D01*
X115786441Y-167816028D01*
X115790709Y-167801959D01*
X115797640Y-167788992D01*
X115806967Y-167777627D01*
X115818332Y-167768300D01*
X115831299Y-167761369D01*
X115845368Y-167757101D01*
X115860000Y-167755660D01*
X116335000Y-167755660D01*
X116349632Y-167757101D01*
G37*
G36*
X115368566Y-167807101D02*
G01*
X115382635Y-167811369D01*
X115395602Y-167818300D01*
X115406967Y-167827627D01*
X115613033Y-168033693D01*
X115622360Y-168045058D01*
X115629291Y-168058025D01*
X115633559Y-168072094D01*
X115635000Y-168086726D01*
X115635000Y-168355660D01*
X115633559Y-168370292D01*
X115629291Y-168384361D01*
X115622360Y-168397328D01*
X115613033Y-168408693D01*
X115601668Y-168418020D01*
X115588701Y-168424951D01*
X115574632Y-168429219D01*
X115560000Y-168430660D01*
X115310000Y-168430660D01*
X115295368Y-168429219D01*
X115281299Y-168424951D01*
X115268332Y-168418020D01*
X115256967Y-168408693D01*
X115247640Y-168397328D01*
X115240709Y-168384361D01*
X115236441Y-168370292D01*
X115235000Y-168355660D01*
X115235000Y-167880660D01*
X115236441Y-167866028D01*
X115240709Y-167851959D01*
X115247640Y-167838992D01*
X115256967Y-167827627D01*
X115268332Y-167818300D01*
X115281299Y-167811369D01*
X115295368Y-167807101D01*
X115310000Y-167805660D01*
X115353934Y-167805660D01*
X115368566Y-167807101D01*
G37*
G36*
G01*
X114735000Y-168330660D02*
X114735000Y-167905660D01*
G75*
G02*
X114835000Y-167805660I100000J0D01*
G01*
X115035000Y-167805660D01*
G75*
G02*
X115135000Y-167905660I0J-100000D01*
G01*
X115135000Y-168330660D01*
G75*
G02*
X115035000Y-168430660I-100000J0D01*
G01*
X114835000Y-168430660D01*
G75*
G02*
X114735000Y-168330660I0J100000D01*
G01*
G37*
G36*
X114574632Y-167807101D02*
G01*
X114588701Y-167811369D01*
X114601668Y-167818300D01*
X114613033Y-167827627D01*
X114622360Y-167838992D01*
X114629291Y-167851959D01*
X114633559Y-167866028D01*
X114635000Y-167880660D01*
X114635000Y-168355660D01*
X114633559Y-168370292D01*
X114629291Y-168384361D01*
X114622360Y-168397328D01*
X114613033Y-168408693D01*
X114601668Y-168418020D01*
X114588701Y-168424951D01*
X114574632Y-168429219D01*
X114560000Y-168430660D01*
X114310000Y-168430660D01*
X114295368Y-168429219D01*
X114281299Y-168424951D01*
X114268332Y-168418020D01*
X114256967Y-168408693D01*
X114247640Y-168397328D01*
X114240709Y-168384361D01*
X114236441Y-168370292D01*
X114235000Y-168355660D01*
X114235000Y-168086726D01*
X114236441Y-168072094D01*
X114240709Y-168058025D01*
X114247640Y-168045058D01*
X114256967Y-168033693D01*
X114463033Y-167827627D01*
X114474398Y-167818300D01*
X114487365Y-167811369D01*
X114501434Y-167807101D01*
X114516066Y-167805660D01*
X114560000Y-167805660D01*
X114574632Y-167807101D01*
G37*
G36*
X114024632Y-167757101D02*
G01*
X114038701Y-167761369D01*
X114051668Y-167768300D01*
X114063033Y-167777627D01*
X114072360Y-167788992D01*
X114079291Y-167801959D01*
X114083559Y-167816028D01*
X114085000Y-167830660D01*
X114085000Y-167874594D01*
X114083559Y-167889226D01*
X114079291Y-167903295D01*
X114072360Y-167916262D01*
X114063033Y-167927627D01*
X113856967Y-168133693D01*
X113845602Y-168143020D01*
X113832635Y-168149951D01*
X113818566Y-168154219D01*
X113803934Y-168155660D01*
X113535000Y-168155660D01*
X113520368Y-168154219D01*
X113506299Y-168149951D01*
X113493332Y-168143020D01*
X113481967Y-168133693D01*
X113472640Y-168122328D01*
X113465709Y-168109361D01*
X113461441Y-168095292D01*
X113460000Y-168080660D01*
X113460000Y-167830660D01*
X113461441Y-167816028D01*
X113465709Y-167801959D01*
X113472640Y-167788992D01*
X113481967Y-167777627D01*
X113493332Y-167768300D01*
X113506299Y-167761369D01*
X113520368Y-167757101D01*
X113535000Y-167755660D01*
X114010000Y-167755660D01*
X114024632Y-167757101D01*
G37*
G36*
G01*
X113460000Y-167555660D02*
X113460000Y-167355660D01*
G75*
G02*
X113560000Y-167255660I100000J0D01*
G01*
X113985000Y-167255660D01*
G75*
G02*
X114085000Y-167355660I0J-100000D01*
G01*
X114085000Y-167555660D01*
G75*
G02*
X113985000Y-167655660I-100000J0D01*
G01*
X113560000Y-167655660D01*
G75*
G02*
X113460000Y-167555660I0J100000D01*
G01*
G37*
G36*
G01*
X113460000Y-167055660D02*
X113460000Y-166855660D01*
G75*
G02*
X113560000Y-166755660I100000J0D01*
G01*
X113985000Y-166755660D01*
G75*
G02*
X114085000Y-166855660I0J-100000D01*
G01*
X114085000Y-167055660D01*
G75*
G02*
X113985000Y-167155660I-100000J0D01*
G01*
X113560000Y-167155660D01*
G75*
G02*
X113460000Y-167055660I0J100000D01*
G01*
G37*
G36*
X113818566Y-166257101D02*
G01*
X113832635Y-166261369D01*
X113845602Y-166268300D01*
X113856967Y-166277627D01*
X114063033Y-166483693D01*
X114072360Y-166495058D01*
X114079291Y-166508025D01*
X114083559Y-166522094D01*
X114085000Y-166536726D01*
X114085000Y-166580660D01*
X114083559Y-166595292D01*
X114079291Y-166609361D01*
X114072360Y-166622328D01*
X114063033Y-166633693D01*
X114051668Y-166643020D01*
X114038701Y-166649951D01*
X114024632Y-166654219D01*
X114010000Y-166655660D01*
X113535000Y-166655660D01*
X113520368Y-166654219D01*
X113506299Y-166649951D01*
X113493332Y-166643020D01*
X113481967Y-166633693D01*
X113472640Y-166622328D01*
X113465709Y-166609361D01*
X113461441Y-166595292D01*
X113460000Y-166580660D01*
X113460000Y-166330660D01*
X113461441Y-166316028D01*
X113465709Y-166301959D01*
X113472640Y-166288992D01*
X113481967Y-166277627D01*
X113493332Y-166268300D01*
X113506299Y-166261369D01*
X113520368Y-166257101D01*
X113535000Y-166255660D01*
X113803934Y-166255660D01*
X113818566Y-166257101D01*
G37*
D17*
X93666200Y-131657600D03*
X89366200Y-131657600D03*
X93666200Y-129657600D03*
X89366200Y-129657600D03*
D18*
X94466200Y-130657600D03*
X88566200Y-130657600D03*
D19*
X120384400Y-148437600D03*
X112584400Y-148437600D03*
D17*
X93818600Y-138820400D03*
X89518600Y-138820400D03*
X93818600Y-136820400D03*
X89518600Y-136820400D03*
D18*
X94618600Y-137820400D03*
X88718600Y-137820400D03*
G36*
G01*
X85500400Y-145069400D02*
X83200400Y-145069400D01*
G75*
G02*
X82950400Y-144819400I0J250000D01*
G01*
X82950400Y-144319400D01*
G75*
G02*
X83200400Y-144069400I250000J0D01*
G01*
X85500400Y-144069400D01*
G75*
G02*
X85750400Y-144319400I0J-250000D01*
G01*
X85750400Y-144819400D01*
G75*
G02*
X85500400Y-145069400I-250000J0D01*
G01*
G37*
G36*
G01*
X85500400Y-160019400D02*
X83200400Y-160019400D01*
G75*
G02*
X82950400Y-159769400I0J250000D01*
G01*
X82950400Y-159269400D01*
G75*
G02*
X83200400Y-159019400I250000J0D01*
G01*
X85500400Y-159019400D01*
G75*
G02*
X85750400Y-159269400I0J-250000D01*
G01*
X85750400Y-159769400D01*
G75*
G02*
X85500400Y-160019400I-250000J0D01*
G01*
G37*
G36*
G01*
X88400400Y-146719400D02*
X87000400Y-146719400D01*
G75*
G02*
X86850400Y-146569400I0J150000D01*
G01*
X86850400Y-146269400D01*
G75*
G02*
X87000400Y-146119400I150000J0D01*
G01*
X88400400Y-146119400D01*
G75*
G02*
X88550400Y-146269400I0J-150000D01*
G01*
X88550400Y-146569400D01*
G75*
G02*
X88400400Y-146719400I-150000J0D01*
G01*
G37*
G36*
G01*
X88400400Y-147969400D02*
X87000400Y-147969400D01*
G75*
G02*
X86850400Y-147819400I0J150000D01*
G01*
X86850400Y-147519400D01*
G75*
G02*
X87000400Y-147369400I150000J0D01*
G01*
X88400400Y-147369400D01*
G75*
G02*
X88550400Y-147519400I0J-150000D01*
G01*
X88550400Y-147819400D01*
G75*
G02*
X88400400Y-147969400I-150000J0D01*
G01*
G37*
G36*
G01*
X88400400Y-149219400D02*
X87000400Y-149219400D01*
G75*
G02*
X86850400Y-149069400I0J150000D01*
G01*
X86850400Y-148769400D01*
G75*
G02*
X87000400Y-148619400I150000J0D01*
G01*
X88400400Y-148619400D01*
G75*
G02*
X88550400Y-148769400I0J-150000D01*
G01*
X88550400Y-149069400D01*
G75*
G02*
X88400400Y-149219400I-150000J0D01*
G01*
G37*
G36*
G01*
X88400400Y-150469400D02*
X87000400Y-150469400D01*
G75*
G02*
X86850400Y-150319400I0J150000D01*
G01*
X86850400Y-150019400D01*
G75*
G02*
X87000400Y-149869400I150000J0D01*
G01*
X88400400Y-149869400D01*
G75*
G02*
X88550400Y-150019400I0J-150000D01*
G01*
X88550400Y-150319400D01*
G75*
G02*
X88400400Y-150469400I-150000J0D01*
G01*
G37*
G36*
G01*
X88400400Y-151719400D02*
X87000400Y-151719400D01*
G75*
G02*
X86850400Y-151569400I0J150000D01*
G01*
X86850400Y-151269400D01*
G75*
G02*
X87000400Y-151119400I150000J0D01*
G01*
X88400400Y-151119400D01*
G75*
G02*
X88550400Y-151269400I0J-150000D01*
G01*
X88550400Y-151569400D01*
G75*
G02*
X88400400Y-151719400I-150000J0D01*
G01*
G37*
G36*
G01*
X88400400Y-152969400D02*
X87000400Y-152969400D01*
G75*
G02*
X86850400Y-152819400I0J150000D01*
G01*
X86850400Y-152519400D01*
G75*
G02*
X87000400Y-152369400I150000J0D01*
G01*
X88400400Y-152369400D01*
G75*
G02*
X88550400Y-152519400I0J-150000D01*
G01*
X88550400Y-152819400D01*
G75*
G02*
X88400400Y-152969400I-150000J0D01*
G01*
G37*
G36*
G01*
X88400400Y-154219400D02*
X87000400Y-154219400D01*
G75*
G02*
X86850400Y-154069400I0J150000D01*
G01*
X86850400Y-153769400D01*
G75*
G02*
X87000400Y-153619400I150000J0D01*
G01*
X88400400Y-153619400D01*
G75*
G02*
X88550400Y-153769400I0J-150000D01*
G01*
X88550400Y-154069400D01*
G75*
G02*
X88400400Y-154219400I-150000J0D01*
G01*
G37*
G36*
G01*
X88400400Y-155469400D02*
X87000400Y-155469400D01*
G75*
G02*
X86850400Y-155319400I0J150000D01*
G01*
X86850400Y-155019400D01*
G75*
G02*
X87000400Y-154869400I150000J0D01*
G01*
X88400400Y-154869400D01*
G75*
G02*
X88550400Y-155019400I0J-150000D01*
G01*
X88550400Y-155319400D01*
G75*
G02*
X88400400Y-155469400I-150000J0D01*
G01*
G37*
G36*
G01*
X88400400Y-156719400D02*
X87000400Y-156719400D01*
G75*
G02*
X86850400Y-156569400I0J150000D01*
G01*
X86850400Y-156269400D01*
G75*
G02*
X87000400Y-156119400I150000J0D01*
G01*
X88400400Y-156119400D01*
G75*
G02*
X88550400Y-156269400I0J-150000D01*
G01*
X88550400Y-156569400D01*
G75*
G02*
X88400400Y-156719400I-150000J0D01*
G01*
G37*
G36*
G01*
X88400400Y-157969400D02*
X87000400Y-157969400D01*
G75*
G02*
X86850400Y-157819400I0J150000D01*
G01*
X86850400Y-157519400D01*
G75*
G02*
X87000400Y-157369400I150000J0D01*
G01*
X88400400Y-157369400D01*
G75*
G02*
X88550400Y-157519400I0J-150000D01*
G01*
X88550400Y-157819400D01*
G75*
G02*
X88400400Y-157969400I-150000J0D01*
G01*
G37*
M02*
