G04 #@! TF.GenerationSoftware,KiCad,Pcbnew,(5.1.6)-1*
G04 #@! TF.CreationDate,2021-10-25T07:34:01+01:00*
G04 #@! TF.ProjectId,Corinthians-Flight-Control-System,436f7269-6e74-4686-9961-6e732d466c69,1*
G04 #@! TF.SameCoordinates,Original*
G04 #@! TF.FileFunction,Copper,L1,Top*
G04 #@! TF.FilePolarity,Positive*
%FSLAX46Y46*%
G04 Gerber Fmt 4.6, Leading zero omitted, Abs format (unit mm)*
G04 Created by KiCad (PCBNEW (5.1.6)-1) date 2021-10-25 07:34:01*
%MOMM*%
%LPD*%
G01*
G04 APERTURE LIST*
G04 #@! TA.AperFunction,SMDPad,CuDef*
%ADD10R,1.200000X1.400000*%
G04 #@! TD*
G04 #@! TA.AperFunction,ComponentPad*
%ADD11O,1.700000X1.700000*%
G04 #@! TD*
G04 #@! TA.AperFunction,ComponentPad*
%ADD12R,1.700000X1.700000*%
G04 #@! TD*
G04 #@! TA.AperFunction,ComponentPad*
%ADD13C,2.250000*%
G04 #@! TD*
G04 #@! TA.AperFunction,SMDPad,CuDef*
%ADD14R,1.500000X2.000000*%
G04 #@! TD*
G04 #@! TA.AperFunction,SMDPad,CuDef*
%ADD15R,3.800000X2.000000*%
G04 #@! TD*
G04 #@! TA.AperFunction,SMDPad,CuDef*
%ADD16R,0.450000X0.300000*%
G04 #@! TD*
G04 #@! TA.AperFunction,SMDPad,CuDef*
%ADD17R,0.300000X0.450000*%
G04 #@! TD*
G04 #@! TA.AperFunction,SMDPad,CuDef*
%ADD18R,2.500000X2.500000*%
G04 #@! TD*
G04 #@! TA.AperFunction,SMDPad,CuDef*
%ADD19R,0.350000X0.500000*%
G04 #@! TD*
G04 #@! TA.AperFunction,SMDPad,CuDef*
%ADD20C,0.100000*%
G04 #@! TD*
G04 #@! TA.AperFunction,SMDPad,CuDef*
%ADD21R,0.700000X0.700000*%
G04 #@! TD*
G04 #@! TA.AperFunction,SMDPad,CuDef*
%ADD22R,1.200000X0.500000*%
G04 #@! TD*
G04 #@! TA.AperFunction,SMDPad,CuDef*
%ADD23R,1.500000X1.500000*%
G04 #@! TD*
G04 #@! TA.AperFunction,ViaPad*
%ADD24C,0.800000*%
G04 #@! TD*
G04 #@! TA.AperFunction,ViaPad*
%ADD25C,0.620000*%
G04 #@! TD*
G04 #@! TA.AperFunction,Conductor*
%ADD26C,0.320000*%
G04 #@! TD*
G04 #@! TA.AperFunction,Conductor*
%ADD27C,0.800000*%
G04 #@! TD*
G04 #@! TA.AperFunction,Conductor*
%ADD28C,0.293370*%
G04 #@! TD*
G04 #@! TA.AperFunction,Conductor*
%ADD29C,1.500000*%
G04 #@! TD*
G04 #@! TA.AperFunction,Conductor*
%ADD30C,0.500000*%
G04 #@! TD*
G04 APERTURE END LIST*
G04 #@! TA.AperFunction,SMDPad,CuDef*
G36*
G01*
X99793380Y-165452940D02*
X99793380Y-166777940D01*
G75*
G02*
X99718380Y-166852940I-75000J0D01*
G01*
X99568380Y-166852940D01*
G75*
G02*
X99493380Y-166777940I0J75000D01*
G01*
X99493380Y-165452940D01*
G75*
G02*
X99568380Y-165377940I75000J0D01*
G01*
X99718380Y-165377940D01*
G75*
G02*
X99793380Y-165452940I0J-75000D01*
G01*
G37*
G04 #@! TD.AperFunction*
G04 #@! TA.AperFunction,SMDPad,CuDef*
G36*
G01*
X99293380Y-165452940D02*
X99293380Y-166777940D01*
G75*
G02*
X99218380Y-166852940I-75000J0D01*
G01*
X99068380Y-166852940D01*
G75*
G02*
X98993380Y-166777940I0J75000D01*
G01*
X98993380Y-165452940D01*
G75*
G02*
X99068380Y-165377940I75000J0D01*
G01*
X99218380Y-165377940D01*
G75*
G02*
X99293380Y-165452940I0J-75000D01*
G01*
G37*
G04 #@! TD.AperFunction*
G04 #@! TA.AperFunction,SMDPad,CuDef*
G36*
G01*
X98793380Y-165452940D02*
X98793380Y-166777940D01*
G75*
G02*
X98718380Y-166852940I-75000J0D01*
G01*
X98568380Y-166852940D01*
G75*
G02*
X98493380Y-166777940I0J75000D01*
G01*
X98493380Y-165452940D01*
G75*
G02*
X98568380Y-165377940I75000J0D01*
G01*
X98718380Y-165377940D01*
G75*
G02*
X98793380Y-165452940I0J-75000D01*
G01*
G37*
G04 #@! TD.AperFunction*
G04 #@! TA.AperFunction,SMDPad,CuDef*
G36*
G01*
X98293380Y-165452940D02*
X98293380Y-166777940D01*
G75*
G02*
X98218380Y-166852940I-75000J0D01*
G01*
X98068380Y-166852940D01*
G75*
G02*
X97993380Y-166777940I0J75000D01*
G01*
X97993380Y-165452940D01*
G75*
G02*
X98068380Y-165377940I75000J0D01*
G01*
X98218380Y-165377940D01*
G75*
G02*
X98293380Y-165452940I0J-75000D01*
G01*
G37*
G04 #@! TD.AperFunction*
G04 #@! TA.AperFunction,SMDPad,CuDef*
G36*
G01*
X97793380Y-165452940D02*
X97793380Y-166777940D01*
G75*
G02*
X97718380Y-166852940I-75000J0D01*
G01*
X97568380Y-166852940D01*
G75*
G02*
X97493380Y-166777940I0J75000D01*
G01*
X97493380Y-165452940D01*
G75*
G02*
X97568380Y-165377940I75000J0D01*
G01*
X97718380Y-165377940D01*
G75*
G02*
X97793380Y-165452940I0J-75000D01*
G01*
G37*
G04 #@! TD.AperFunction*
G04 #@! TA.AperFunction,SMDPad,CuDef*
G36*
G01*
X97293380Y-165452940D02*
X97293380Y-166777940D01*
G75*
G02*
X97218380Y-166852940I-75000J0D01*
G01*
X97068380Y-166852940D01*
G75*
G02*
X96993380Y-166777940I0J75000D01*
G01*
X96993380Y-165452940D01*
G75*
G02*
X97068380Y-165377940I75000J0D01*
G01*
X97218380Y-165377940D01*
G75*
G02*
X97293380Y-165452940I0J-75000D01*
G01*
G37*
G04 #@! TD.AperFunction*
G04 #@! TA.AperFunction,SMDPad,CuDef*
G36*
G01*
X96793380Y-165452940D02*
X96793380Y-166777940D01*
G75*
G02*
X96718380Y-166852940I-75000J0D01*
G01*
X96568380Y-166852940D01*
G75*
G02*
X96493380Y-166777940I0J75000D01*
G01*
X96493380Y-165452940D01*
G75*
G02*
X96568380Y-165377940I75000J0D01*
G01*
X96718380Y-165377940D01*
G75*
G02*
X96793380Y-165452940I0J-75000D01*
G01*
G37*
G04 #@! TD.AperFunction*
G04 #@! TA.AperFunction,SMDPad,CuDef*
G36*
G01*
X96293380Y-165452940D02*
X96293380Y-166777940D01*
G75*
G02*
X96218380Y-166852940I-75000J0D01*
G01*
X96068380Y-166852940D01*
G75*
G02*
X95993380Y-166777940I0J75000D01*
G01*
X95993380Y-165452940D01*
G75*
G02*
X96068380Y-165377940I75000J0D01*
G01*
X96218380Y-165377940D01*
G75*
G02*
X96293380Y-165452940I0J-75000D01*
G01*
G37*
G04 #@! TD.AperFunction*
G04 #@! TA.AperFunction,SMDPad,CuDef*
G36*
G01*
X95793380Y-165452940D02*
X95793380Y-166777940D01*
G75*
G02*
X95718380Y-166852940I-75000J0D01*
G01*
X95568380Y-166852940D01*
G75*
G02*
X95493380Y-166777940I0J75000D01*
G01*
X95493380Y-165452940D01*
G75*
G02*
X95568380Y-165377940I75000J0D01*
G01*
X95718380Y-165377940D01*
G75*
G02*
X95793380Y-165452940I0J-75000D01*
G01*
G37*
G04 #@! TD.AperFunction*
G04 #@! TA.AperFunction,SMDPad,CuDef*
G36*
G01*
X95293380Y-165452940D02*
X95293380Y-166777940D01*
G75*
G02*
X95218380Y-166852940I-75000J0D01*
G01*
X95068380Y-166852940D01*
G75*
G02*
X94993380Y-166777940I0J75000D01*
G01*
X94993380Y-165452940D01*
G75*
G02*
X95068380Y-165377940I75000J0D01*
G01*
X95218380Y-165377940D01*
G75*
G02*
X95293380Y-165452940I0J-75000D01*
G01*
G37*
G04 #@! TD.AperFunction*
G04 #@! TA.AperFunction,SMDPad,CuDef*
G36*
G01*
X94793380Y-165452940D02*
X94793380Y-166777940D01*
G75*
G02*
X94718380Y-166852940I-75000J0D01*
G01*
X94568380Y-166852940D01*
G75*
G02*
X94493380Y-166777940I0J75000D01*
G01*
X94493380Y-165452940D01*
G75*
G02*
X94568380Y-165377940I75000J0D01*
G01*
X94718380Y-165377940D01*
G75*
G02*
X94793380Y-165452940I0J-75000D01*
G01*
G37*
G04 #@! TD.AperFunction*
G04 #@! TA.AperFunction,SMDPad,CuDef*
G36*
G01*
X94293380Y-165452940D02*
X94293380Y-166777940D01*
G75*
G02*
X94218380Y-166852940I-75000J0D01*
G01*
X94068380Y-166852940D01*
G75*
G02*
X93993380Y-166777940I0J75000D01*
G01*
X93993380Y-165452940D01*
G75*
G02*
X94068380Y-165377940I75000J0D01*
G01*
X94218380Y-165377940D01*
G75*
G02*
X94293380Y-165452940I0J-75000D01*
G01*
G37*
G04 #@! TD.AperFunction*
G04 #@! TA.AperFunction,SMDPad,CuDef*
G36*
G01*
X93468380Y-164627940D02*
X93468380Y-164777940D01*
G75*
G02*
X93393380Y-164852940I-75000J0D01*
G01*
X92068380Y-164852940D01*
G75*
G02*
X91993380Y-164777940I0J75000D01*
G01*
X91993380Y-164627940D01*
G75*
G02*
X92068380Y-164552940I75000J0D01*
G01*
X93393380Y-164552940D01*
G75*
G02*
X93468380Y-164627940I0J-75000D01*
G01*
G37*
G04 #@! TD.AperFunction*
G04 #@! TA.AperFunction,SMDPad,CuDef*
G36*
G01*
X93468380Y-164127940D02*
X93468380Y-164277940D01*
G75*
G02*
X93393380Y-164352940I-75000J0D01*
G01*
X92068380Y-164352940D01*
G75*
G02*
X91993380Y-164277940I0J75000D01*
G01*
X91993380Y-164127940D01*
G75*
G02*
X92068380Y-164052940I75000J0D01*
G01*
X93393380Y-164052940D01*
G75*
G02*
X93468380Y-164127940I0J-75000D01*
G01*
G37*
G04 #@! TD.AperFunction*
G04 #@! TA.AperFunction,SMDPad,CuDef*
G36*
G01*
X93468380Y-163627940D02*
X93468380Y-163777940D01*
G75*
G02*
X93393380Y-163852940I-75000J0D01*
G01*
X92068380Y-163852940D01*
G75*
G02*
X91993380Y-163777940I0J75000D01*
G01*
X91993380Y-163627940D01*
G75*
G02*
X92068380Y-163552940I75000J0D01*
G01*
X93393380Y-163552940D01*
G75*
G02*
X93468380Y-163627940I0J-75000D01*
G01*
G37*
G04 #@! TD.AperFunction*
G04 #@! TA.AperFunction,SMDPad,CuDef*
G36*
G01*
X93468380Y-163127940D02*
X93468380Y-163277940D01*
G75*
G02*
X93393380Y-163352940I-75000J0D01*
G01*
X92068380Y-163352940D01*
G75*
G02*
X91993380Y-163277940I0J75000D01*
G01*
X91993380Y-163127940D01*
G75*
G02*
X92068380Y-163052940I75000J0D01*
G01*
X93393380Y-163052940D01*
G75*
G02*
X93468380Y-163127940I0J-75000D01*
G01*
G37*
G04 #@! TD.AperFunction*
G04 #@! TA.AperFunction,SMDPad,CuDef*
G36*
G01*
X93468380Y-162627940D02*
X93468380Y-162777940D01*
G75*
G02*
X93393380Y-162852940I-75000J0D01*
G01*
X92068380Y-162852940D01*
G75*
G02*
X91993380Y-162777940I0J75000D01*
G01*
X91993380Y-162627940D01*
G75*
G02*
X92068380Y-162552940I75000J0D01*
G01*
X93393380Y-162552940D01*
G75*
G02*
X93468380Y-162627940I0J-75000D01*
G01*
G37*
G04 #@! TD.AperFunction*
G04 #@! TA.AperFunction,SMDPad,CuDef*
G36*
G01*
X93468380Y-162127940D02*
X93468380Y-162277940D01*
G75*
G02*
X93393380Y-162352940I-75000J0D01*
G01*
X92068380Y-162352940D01*
G75*
G02*
X91993380Y-162277940I0J75000D01*
G01*
X91993380Y-162127940D01*
G75*
G02*
X92068380Y-162052940I75000J0D01*
G01*
X93393380Y-162052940D01*
G75*
G02*
X93468380Y-162127940I0J-75000D01*
G01*
G37*
G04 #@! TD.AperFunction*
G04 #@! TA.AperFunction,SMDPad,CuDef*
G36*
G01*
X93468380Y-161627940D02*
X93468380Y-161777940D01*
G75*
G02*
X93393380Y-161852940I-75000J0D01*
G01*
X92068380Y-161852940D01*
G75*
G02*
X91993380Y-161777940I0J75000D01*
G01*
X91993380Y-161627940D01*
G75*
G02*
X92068380Y-161552940I75000J0D01*
G01*
X93393380Y-161552940D01*
G75*
G02*
X93468380Y-161627940I0J-75000D01*
G01*
G37*
G04 #@! TD.AperFunction*
G04 #@! TA.AperFunction,SMDPad,CuDef*
G36*
G01*
X93468380Y-161127940D02*
X93468380Y-161277940D01*
G75*
G02*
X93393380Y-161352940I-75000J0D01*
G01*
X92068380Y-161352940D01*
G75*
G02*
X91993380Y-161277940I0J75000D01*
G01*
X91993380Y-161127940D01*
G75*
G02*
X92068380Y-161052940I75000J0D01*
G01*
X93393380Y-161052940D01*
G75*
G02*
X93468380Y-161127940I0J-75000D01*
G01*
G37*
G04 #@! TD.AperFunction*
G04 #@! TA.AperFunction,SMDPad,CuDef*
G36*
G01*
X93468380Y-160627940D02*
X93468380Y-160777940D01*
G75*
G02*
X93393380Y-160852940I-75000J0D01*
G01*
X92068380Y-160852940D01*
G75*
G02*
X91993380Y-160777940I0J75000D01*
G01*
X91993380Y-160627940D01*
G75*
G02*
X92068380Y-160552940I75000J0D01*
G01*
X93393380Y-160552940D01*
G75*
G02*
X93468380Y-160627940I0J-75000D01*
G01*
G37*
G04 #@! TD.AperFunction*
G04 #@! TA.AperFunction,SMDPad,CuDef*
G36*
G01*
X93468380Y-160127940D02*
X93468380Y-160277940D01*
G75*
G02*
X93393380Y-160352940I-75000J0D01*
G01*
X92068380Y-160352940D01*
G75*
G02*
X91993380Y-160277940I0J75000D01*
G01*
X91993380Y-160127940D01*
G75*
G02*
X92068380Y-160052940I75000J0D01*
G01*
X93393380Y-160052940D01*
G75*
G02*
X93468380Y-160127940I0J-75000D01*
G01*
G37*
G04 #@! TD.AperFunction*
G04 #@! TA.AperFunction,SMDPad,CuDef*
G36*
G01*
X93468380Y-159627940D02*
X93468380Y-159777940D01*
G75*
G02*
X93393380Y-159852940I-75000J0D01*
G01*
X92068380Y-159852940D01*
G75*
G02*
X91993380Y-159777940I0J75000D01*
G01*
X91993380Y-159627940D01*
G75*
G02*
X92068380Y-159552940I75000J0D01*
G01*
X93393380Y-159552940D01*
G75*
G02*
X93468380Y-159627940I0J-75000D01*
G01*
G37*
G04 #@! TD.AperFunction*
G04 #@! TA.AperFunction,SMDPad,CuDef*
G36*
G01*
X93468380Y-159127940D02*
X93468380Y-159277940D01*
G75*
G02*
X93393380Y-159352940I-75000J0D01*
G01*
X92068380Y-159352940D01*
G75*
G02*
X91993380Y-159277940I0J75000D01*
G01*
X91993380Y-159127940D01*
G75*
G02*
X92068380Y-159052940I75000J0D01*
G01*
X93393380Y-159052940D01*
G75*
G02*
X93468380Y-159127940I0J-75000D01*
G01*
G37*
G04 #@! TD.AperFunction*
G04 #@! TA.AperFunction,SMDPad,CuDef*
G36*
G01*
X94293380Y-157127940D02*
X94293380Y-158452940D01*
G75*
G02*
X94218380Y-158527940I-75000J0D01*
G01*
X94068380Y-158527940D01*
G75*
G02*
X93993380Y-158452940I0J75000D01*
G01*
X93993380Y-157127940D01*
G75*
G02*
X94068380Y-157052940I75000J0D01*
G01*
X94218380Y-157052940D01*
G75*
G02*
X94293380Y-157127940I0J-75000D01*
G01*
G37*
G04 #@! TD.AperFunction*
G04 #@! TA.AperFunction,SMDPad,CuDef*
G36*
G01*
X94793380Y-157127940D02*
X94793380Y-158452940D01*
G75*
G02*
X94718380Y-158527940I-75000J0D01*
G01*
X94568380Y-158527940D01*
G75*
G02*
X94493380Y-158452940I0J75000D01*
G01*
X94493380Y-157127940D01*
G75*
G02*
X94568380Y-157052940I75000J0D01*
G01*
X94718380Y-157052940D01*
G75*
G02*
X94793380Y-157127940I0J-75000D01*
G01*
G37*
G04 #@! TD.AperFunction*
G04 #@! TA.AperFunction,SMDPad,CuDef*
G36*
G01*
X95293380Y-157127940D02*
X95293380Y-158452940D01*
G75*
G02*
X95218380Y-158527940I-75000J0D01*
G01*
X95068380Y-158527940D01*
G75*
G02*
X94993380Y-158452940I0J75000D01*
G01*
X94993380Y-157127940D01*
G75*
G02*
X95068380Y-157052940I75000J0D01*
G01*
X95218380Y-157052940D01*
G75*
G02*
X95293380Y-157127940I0J-75000D01*
G01*
G37*
G04 #@! TD.AperFunction*
G04 #@! TA.AperFunction,SMDPad,CuDef*
G36*
G01*
X95793380Y-157127940D02*
X95793380Y-158452940D01*
G75*
G02*
X95718380Y-158527940I-75000J0D01*
G01*
X95568380Y-158527940D01*
G75*
G02*
X95493380Y-158452940I0J75000D01*
G01*
X95493380Y-157127940D01*
G75*
G02*
X95568380Y-157052940I75000J0D01*
G01*
X95718380Y-157052940D01*
G75*
G02*
X95793380Y-157127940I0J-75000D01*
G01*
G37*
G04 #@! TD.AperFunction*
G04 #@! TA.AperFunction,SMDPad,CuDef*
G36*
G01*
X96293380Y-157127940D02*
X96293380Y-158452940D01*
G75*
G02*
X96218380Y-158527940I-75000J0D01*
G01*
X96068380Y-158527940D01*
G75*
G02*
X95993380Y-158452940I0J75000D01*
G01*
X95993380Y-157127940D01*
G75*
G02*
X96068380Y-157052940I75000J0D01*
G01*
X96218380Y-157052940D01*
G75*
G02*
X96293380Y-157127940I0J-75000D01*
G01*
G37*
G04 #@! TD.AperFunction*
G04 #@! TA.AperFunction,SMDPad,CuDef*
G36*
G01*
X96793380Y-157127940D02*
X96793380Y-158452940D01*
G75*
G02*
X96718380Y-158527940I-75000J0D01*
G01*
X96568380Y-158527940D01*
G75*
G02*
X96493380Y-158452940I0J75000D01*
G01*
X96493380Y-157127940D01*
G75*
G02*
X96568380Y-157052940I75000J0D01*
G01*
X96718380Y-157052940D01*
G75*
G02*
X96793380Y-157127940I0J-75000D01*
G01*
G37*
G04 #@! TD.AperFunction*
G04 #@! TA.AperFunction,SMDPad,CuDef*
G36*
G01*
X97293380Y-157127940D02*
X97293380Y-158452940D01*
G75*
G02*
X97218380Y-158527940I-75000J0D01*
G01*
X97068380Y-158527940D01*
G75*
G02*
X96993380Y-158452940I0J75000D01*
G01*
X96993380Y-157127940D01*
G75*
G02*
X97068380Y-157052940I75000J0D01*
G01*
X97218380Y-157052940D01*
G75*
G02*
X97293380Y-157127940I0J-75000D01*
G01*
G37*
G04 #@! TD.AperFunction*
G04 #@! TA.AperFunction,SMDPad,CuDef*
G36*
G01*
X97793380Y-157127940D02*
X97793380Y-158452940D01*
G75*
G02*
X97718380Y-158527940I-75000J0D01*
G01*
X97568380Y-158527940D01*
G75*
G02*
X97493380Y-158452940I0J75000D01*
G01*
X97493380Y-157127940D01*
G75*
G02*
X97568380Y-157052940I75000J0D01*
G01*
X97718380Y-157052940D01*
G75*
G02*
X97793380Y-157127940I0J-75000D01*
G01*
G37*
G04 #@! TD.AperFunction*
G04 #@! TA.AperFunction,SMDPad,CuDef*
G36*
G01*
X98293380Y-157127940D02*
X98293380Y-158452940D01*
G75*
G02*
X98218380Y-158527940I-75000J0D01*
G01*
X98068380Y-158527940D01*
G75*
G02*
X97993380Y-158452940I0J75000D01*
G01*
X97993380Y-157127940D01*
G75*
G02*
X98068380Y-157052940I75000J0D01*
G01*
X98218380Y-157052940D01*
G75*
G02*
X98293380Y-157127940I0J-75000D01*
G01*
G37*
G04 #@! TD.AperFunction*
G04 #@! TA.AperFunction,SMDPad,CuDef*
G36*
G01*
X98793380Y-157127940D02*
X98793380Y-158452940D01*
G75*
G02*
X98718380Y-158527940I-75000J0D01*
G01*
X98568380Y-158527940D01*
G75*
G02*
X98493380Y-158452940I0J75000D01*
G01*
X98493380Y-157127940D01*
G75*
G02*
X98568380Y-157052940I75000J0D01*
G01*
X98718380Y-157052940D01*
G75*
G02*
X98793380Y-157127940I0J-75000D01*
G01*
G37*
G04 #@! TD.AperFunction*
G04 #@! TA.AperFunction,SMDPad,CuDef*
G36*
G01*
X99293380Y-157127940D02*
X99293380Y-158452940D01*
G75*
G02*
X99218380Y-158527940I-75000J0D01*
G01*
X99068380Y-158527940D01*
G75*
G02*
X98993380Y-158452940I0J75000D01*
G01*
X98993380Y-157127940D01*
G75*
G02*
X99068380Y-157052940I75000J0D01*
G01*
X99218380Y-157052940D01*
G75*
G02*
X99293380Y-157127940I0J-75000D01*
G01*
G37*
G04 #@! TD.AperFunction*
G04 #@! TA.AperFunction,SMDPad,CuDef*
G36*
G01*
X99793380Y-157127940D02*
X99793380Y-158452940D01*
G75*
G02*
X99718380Y-158527940I-75000J0D01*
G01*
X99568380Y-158527940D01*
G75*
G02*
X99493380Y-158452940I0J75000D01*
G01*
X99493380Y-157127940D01*
G75*
G02*
X99568380Y-157052940I75000J0D01*
G01*
X99718380Y-157052940D01*
G75*
G02*
X99793380Y-157127940I0J-75000D01*
G01*
G37*
G04 #@! TD.AperFunction*
G04 #@! TA.AperFunction,SMDPad,CuDef*
G36*
G01*
X101793380Y-159127940D02*
X101793380Y-159277940D01*
G75*
G02*
X101718380Y-159352940I-75000J0D01*
G01*
X100393380Y-159352940D01*
G75*
G02*
X100318380Y-159277940I0J75000D01*
G01*
X100318380Y-159127940D01*
G75*
G02*
X100393380Y-159052940I75000J0D01*
G01*
X101718380Y-159052940D01*
G75*
G02*
X101793380Y-159127940I0J-75000D01*
G01*
G37*
G04 #@! TD.AperFunction*
G04 #@! TA.AperFunction,SMDPad,CuDef*
G36*
G01*
X101793380Y-159627940D02*
X101793380Y-159777940D01*
G75*
G02*
X101718380Y-159852940I-75000J0D01*
G01*
X100393380Y-159852940D01*
G75*
G02*
X100318380Y-159777940I0J75000D01*
G01*
X100318380Y-159627940D01*
G75*
G02*
X100393380Y-159552940I75000J0D01*
G01*
X101718380Y-159552940D01*
G75*
G02*
X101793380Y-159627940I0J-75000D01*
G01*
G37*
G04 #@! TD.AperFunction*
G04 #@! TA.AperFunction,SMDPad,CuDef*
G36*
G01*
X101793380Y-160127940D02*
X101793380Y-160277940D01*
G75*
G02*
X101718380Y-160352940I-75000J0D01*
G01*
X100393380Y-160352940D01*
G75*
G02*
X100318380Y-160277940I0J75000D01*
G01*
X100318380Y-160127940D01*
G75*
G02*
X100393380Y-160052940I75000J0D01*
G01*
X101718380Y-160052940D01*
G75*
G02*
X101793380Y-160127940I0J-75000D01*
G01*
G37*
G04 #@! TD.AperFunction*
G04 #@! TA.AperFunction,SMDPad,CuDef*
G36*
G01*
X101793380Y-160627940D02*
X101793380Y-160777940D01*
G75*
G02*
X101718380Y-160852940I-75000J0D01*
G01*
X100393380Y-160852940D01*
G75*
G02*
X100318380Y-160777940I0J75000D01*
G01*
X100318380Y-160627940D01*
G75*
G02*
X100393380Y-160552940I75000J0D01*
G01*
X101718380Y-160552940D01*
G75*
G02*
X101793380Y-160627940I0J-75000D01*
G01*
G37*
G04 #@! TD.AperFunction*
G04 #@! TA.AperFunction,SMDPad,CuDef*
G36*
G01*
X101793380Y-161127940D02*
X101793380Y-161277940D01*
G75*
G02*
X101718380Y-161352940I-75000J0D01*
G01*
X100393380Y-161352940D01*
G75*
G02*
X100318380Y-161277940I0J75000D01*
G01*
X100318380Y-161127940D01*
G75*
G02*
X100393380Y-161052940I75000J0D01*
G01*
X101718380Y-161052940D01*
G75*
G02*
X101793380Y-161127940I0J-75000D01*
G01*
G37*
G04 #@! TD.AperFunction*
G04 #@! TA.AperFunction,SMDPad,CuDef*
G36*
G01*
X101793380Y-161627940D02*
X101793380Y-161777940D01*
G75*
G02*
X101718380Y-161852940I-75000J0D01*
G01*
X100393380Y-161852940D01*
G75*
G02*
X100318380Y-161777940I0J75000D01*
G01*
X100318380Y-161627940D01*
G75*
G02*
X100393380Y-161552940I75000J0D01*
G01*
X101718380Y-161552940D01*
G75*
G02*
X101793380Y-161627940I0J-75000D01*
G01*
G37*
G04 #@! TD.AperFunction*
G04 #@! TA.AperFunction,SMDPad,CuDef*
G36*
G01*
X101793380Y-162127940D02*
X101793380Y-162277940D01*
G75*
G02*
X101718380Y-162352940I-75000J0D01*
G01*
X100393380Y-162352940D01*
G75*
G02*
X100318380Y-162277940I0J75000D01*
G01*
X100318380Y-162127940D01*
G75*
G02*
X100393380Y-162052940I75000J0D01*
G01*
X101718380Y-162052940D01*
G75*
G02*
X101793380Y-162127940I0J-75000D01*
G01*
G37*
G04 #@! TD.AperFunction*
G04 #@! TA.AperFunction,SMDPad,CuDef*
G36*
G01*
X101793380Y-162627940D02*
X101793380Y-162777940D01*
G75*
G02*
X101718380Y-162852940I-75000J0D01*
G01*
X100393380Y-162852940D01*
G75*
G02*
X100318380Y-162777940I0J75000D01*
G01*
X100318380Y-162627940D01*
G75*
G02*
X100393380Y-162552940I75000J0D01*
G01*
X101718380Y-162552940D01*
G75*
G02*
X101793380Y-162627940I0J-75000D01*
G01*
G37*
G04 #@! TD.AperFunction*
G04 #@! TA.AperFunction,SMDPad,CuDef*
G36*
G01*
X101793380Y-163127940D02*
X101793380Y-163277940D01*
G75*
G02*
X101718380Y-163352940I-75000J0D01*
G01*
X100393380Y-163352940D01*
G75*
G02*
X100318380Y-163277940I0J75000D01*
G01*
X100318380Y-163127940D01*
G75*
G02*
X100393380Y-163052940I75000J0D01*
G01*
X101718380Y-163052940D01*
G75*
G02*
X101793380Y-163127940I0J-75000D01*
G01*
G37*
G04 #@! TD.AperFunction*
G04 #@! TA.AperFunction,SMDPad,CuDef*
G36*
G01*
X101793380Y-163627940D02*
X101793380Y-163777940D01*
G75*
G02*
X101718380Y-163852940I-75000J0D01*
G01*
X100393380Y-163852940D01*
G75*
G02*
X100318380Y-163777940I0J75000D01*
G01*
X100318380Y-163627940D01*
G75*
G02*
X100393380Y-163552940I75000J0D01*
G01*
X101718380Y-163552940D01*
G75*
G02*
X101793380Y-163627940I0J-75000D01*
G01*
G37*
G04 #@! TD.AperFunction*
G04 #@! TA.AperFunction,SMDPad,CuDef*
G36*
G01*
X101793380Y-164127940D02*
X101793380Y-164277940D01*
G75*
G02*
X101718380Y-164352940I-75000J0D01*
G01*
X100393380Y-164352940D01*
G75*
G02*
X100318380Y-164277940I0J75000D01*
G01*
X100318380Y-164127940D01*
G75*
G02*
X100393380Y-164052940I75000J0D01*
G01*
X101718380Y-164052940D01*
G75*
G02*
X101793380Y-164127940I0J-75000D01*
G01*
G37*
G04 #@! TD.AperFunction*
G04 #@! TA.AperFunction,SMDPad,CuDef*
G36*
G01*
X101793380Y-164627940D02*
X101793380Y-164777940D01*
G75*
G02*
X101718380Y-164852940I-75000J0D01*
G01*
X100393380Y-164852940D01*
G75*
G02*
X100318380Y-164777940I0J75000D01*
G01*
X100318380Y-164627940D01*
G75*
G02*
X100393380Y-164552940I75000J0D01*
G01*
X101718380Y-164552940D01*
G75*
G02*
X101793380Y-164627940I0J-75000D01*
G01*
G37*
G04 #@! TD.AperFunction*
G04 #@! TA.AperFunction,SMDPad,CuDef*
G36*
G01*
X108755600Y-165600801D02*
X108755600Y-164700799D01*
G75*
G02*
X109005599Y-164450800I249999J0D01*
G01*
X109655601Y-164450800D01*
G75*
G02*
X109905600Y-164700799I0J-249999D01*
G01*
X109905600Y-165600801D01*
G75*
G02*
X109655601Y-165850800I-249999J0D01*
G01*
X109005599Y-165850800D01*
G75*
G02*
X108755600Y-165600801I0J249999D01*
G01*
G37*
G04 #@! TD.AperFunction*
G04 #@! TA.AperFunction,SMDPad,CuDef*
G36*
G01*
X106705600Y-165600801D02*
X106705600Y-164700799D01*
G75*
G02*
X106955599Y-164450800I249999J0D01*
G01*
X107605601Y-164450800D01*
G75*
G02*
X107855600Y-164700799I0J-249999D01*
G01*
X107855600Y-165600801D01*
G75*
G02*
X107605601Y-165850800I-249999J0D01*
G01*
X106955599Y-165850800D01*
G75*
G02*
X106705600Y-165600801I0J249999D01*
G01*
G37*
G04 #@! TD.AperFunction*
D10*
X96709600Y-182338800D03*
X96709600Y-184538800D03*
X95009600Y-184538800D03*
X95009600Y-182338800D03*
X107608000Y-163050400D03*
X107608000Y-160850400D03*
X109308000Y-160850400D03*
X109308000Y-163050400D03*
G04 #@! TA.AperFunction,SMDPad,CuDef*
G36*
G01*
X95104800Y-133001599D02*
X95104800Y-133901601D01*
G75*
G02*
X94854801Y-134151600I-249999J0D01*
G01*
X94204799Y-134151600D01*
G75*
G02*
X93954800Y-133901601I0J249999D01*
G01*
X93954800Y-133001599D01*
G75*
G02*
X94204799Y-132751600I249999J0D01*
G01*
X94854801Y-132751600D01*
G75*
G02*
X95104800Y-133001599I0J-249999D01*
G01*
G37*
G04 #@! TD.AperFunction*
G04 #@! TA.AperFunction,SMDPad,CuDef*
G36*
G01*
X97154800Y-133001599D02*
X97154800Y-133901601D01*
G75*
G02*
X96904801Y-134151600I-249999J0D01*
G01*
X96254799Y-134151600D01*
G75*
G02*
X96004800Y-133901601I0J249999D01*
G01*
X96004800Y-133001599D01*
G75*
G02*
X96254799Y-132751600I249999J0D01*
G01*
X96904801Y-132751600D01*
G75*
G02*
X97154800Y-133001599I0J-249999D01*
G01*
G37*
G04 #@! TD.AperFunction*
G04 #@! TA.AperFunction,SMDPad,CuDef*
G36*
G01*
X92906000Y-148684401D02*
X92906000Y-147784399D01*
G75*
G02*
X93155999Y-147534400I249999J0D01*
G01*
X93806001Y-147534400D01*
G75*
G02*
X94056000Y-147784399I0J-249999D01*
G01*
X94056000Y-148684401D01*
G75*
G02*
X93806001Y-148934400I-249999J0D01*
G01*
X93155999Y-148934400D01*
G75*
G02*
X92906000Y-148684401I0J249999D01*
G01*
G37*
G04 #@! TD.AperFunction*
G04 #@! TA.AperFunction,SMDPad,CuDef*
G36*
G01*
X90856000Y-148684401D02*
X90856000Y-147784399D01*
G75*
G02*
X91105999Y-147534400I249999J0D01*
G01*
X91756001Y-147534400D01*
G75*
G02*
X92006000Y-147784399I0J-249999D01*
G01*
X92006000Y-148684401D01*
G75*
G02*
X91756001Y-148934400I-249999J0D01*
G01*
X91105999Y-148934400D01*
G75*
G02*
X90856000Y-148684401I0J249999D01*
G01*
G37*
G04 #@! TD.AperFunction*
G04 #@! TA.AperFunction,SMDPad,CuDef*
G36*
G01*
X105656801Y-159366800D02*
X104756799Y-159366800D01*
G75*
G02*
X104506800Y-159116801I0J249999D01*
G01*
X104506800Y-158466799D01*
G75*
G02*
X104756799Y-158216800I249999J0D01*
G01*
X105656801Y-158216800D01*
G75*
G02*
X105906800Y-158466799I0J-249999D01*
G01*
X105906800Y-159116801D01*
G75*
G02*
X105656801Y-159366800I-249999J0D01*
G01*
G37*
G04 #@! TD.AperFunction*
G04 #@! TA.AperFunction,SMDPad,CuDef*
G36*
G01*
X105656801Y-161416800D02*
X104756799Y-161416800D01*
G75*
G02*
X104506800Y-161166801I0J249999D01*
G01*
X104506800Y-160516799D01*
G75*
G02*
X104756799Y-160266800I249999J0D01*
G01*
X105656801Y-160266800D01*
G75*
G02*
X105906800Y-160516799I0J-249999D01*
G01*
X105906800Y-161166801D01*
G75*
G02*
X105656801Y-161416800I-249999J0D01*
G01*
G37*
G04 #@! TD.AperFunction*
G04 #@! TA.AperFunction,SMDPad,CuDef*
G36*
G01*
X100041000Y-144772801D02*
X100041000Y-143872799D01*
G75*
G02*
X100290999Y-143622800I249999J0D01*
G01*
X100941001Y-143622800D01*
G75*
G02*
X101191000Y-143872799I0J-249999D01*
G01*
X101191000Y-144772801D01*
G75*
G02*
X100941001Y-145022800I-249999J0D01*
G01*
X100290999Y-145022800D01*
G75*
G02*
X100041000Y-144772801I0J249999D01*
G01*
G37*
G04 #@! TD.AperFunction*
G04 #@! TA.AperFunction,SMDPad,CuDef*
G36*
G01*
X97991000Y-144772801D02*
X97991000Y-143872799D01*
G75*
G02*
X98240999Y-143622800I249999J0D01*
G01*
X98891001Y-143622800D01*
G75*
G02*
X99141000Y-143872799I0J-249999D01*
G01*
X99141000Y-144772801D01*
G75*
G02*
X98891001Y-145022800I-249999J0D01*
G01*
X98240999Y-145022800D01*
G75*
G02*
X97991000Y-144772801I0J249999D01*
G01*
G37*
G04 #@! TD.AperFunction*
G04 #@! TA.AperFunction,SMDPad,CuDef*
G36*
G01*
X104740000Y-144849001D02*
X104740000Y-143948999D01*
G75*
G02*
X104989999Y-143699000I249999J0D01*
G01*
X105640001Y-143699000D01*
G75*
G02*
X105890000Y-143948999I0J-249999D01*
G01*
X105890000Y-144849001D01*
G75*
G02*
X105640001Y-145099000I-249999J0D01*
G01*
X104989999Y-145099000D01*
G75*
G02*
X104740000Y-144849001I0J249999D01*
G01*
G37*
G04 #@! TD.AperFunction*
G04 #@! TA.AperFunction,SMDPad,CuDef*
G36*
G01*
X102690000Y-144849001D02*
X102690000Y-143948999D01*
G75*
G02*
X102939999Y-143699000I249999J0D01*
G01*
X103590001Y-143699000D01*
G75*
G02*
X103840000Y-143948999I0J-249999D01*
G01*
X103840000Y-144849001D01*
G75*
G02*
X103590001Y-145099000I-249999J0D01*
G01*
X102939999Y-145099000D01*
G75*
G02*
X102690000Y-144849001I0J249999D01*
G01*
G37*
G04 #@! TD.AperFunction*
G04 #@! TA.AperFunction,SMDPad,CuDef*
G36*
G01*
X106672800Y-151351401D02*
X106672800Y-150451399D01*
G75*
G02*
X106922799Y-150201400I249999J0D01*
G01*
X107572801Y-150201400D01*
G75*
G02*
X107822800Y-150451399I0J-249999D01*
G01*
X107822800Y-151351401D01*
G75*
G02*
X107572801Y-151601400I-249999J0D01*
G01*
X106922799Y-151601400D01*
G75*
G02*
X106672800Y-151351401I0J249999D01*
G01*
G37*
G04 #@! TD.AperFunction*
G04 #@! TA.AperFunction,SMDPad,CuDef*
G36*
G01*
X104622800Y-151351401D02*
X104622800Y-150451399D01*
G75*
G02*
X104872799Y-150201400I249999J0D01*
G01*
X105522801Y-150201400D01*
G75*
G02*
X105772800Y-150451399I0J-249999D01*
G01*
X105772800Y-151351401D01*
G75*
G02*
X105522801Y-151601400I-249999J0D01*
G01*
X104872799Y-151601400D01*
G75*
G02*
X104622800Y-151351401I0J249999D01*
G01*
G37*
G04 #@! TD.AperFunction*
G04 #@! TA.AperFunction,SMDPad,CuDef*
G36*
G01*
X109439000Y-144874401D02*
X109439000Y-143974399D01*
G75*
G02*
X109688999Y-143724400I249999J0D01*
G01*
X110339001Y-143724400D01*
G75*
G02*
X110589000Y-143974399I0J-249999D01*
G01*
X110589000Y-144874401D01*
G75*
G02*
X110339001Y-145124400I-249999J0D01*
G01*
X109688999Y-145124400D01*
G75*
G02*
X109439000Y-144874401I0J249999D01*
G01*
G37*
G04 #@! TD.AperFunction*
G04 #@! TA.AperFunction,SMDPad,CuDef*
G36*
G01*
X107389000Y-144874401D02*
X107389000Y-143974399D01*
G75*
G02*
X107638999Y-143724400I249999J0D01*
G01*
X108289001Y-143724400D01*
G75*
G02*
X108539000Y-143974399I0J-249999D01*
G01*
X108539000Y-144874401D01*
G75*
G02*
X108289001Y-145124400I-249999J0D01*
G01*
X107638999Y-145124400D01*
G75*
G02*
X107389000Y-144874401I0J249999D01*
G01*
G37*
G04 #@! TD.AperFunction*
G04 #@! TA.AperFunction,SMDPad,CuDef*
G36*
G01*
X96665201Y-169628400D02*
X95765199Y-169628400D01*
G75*
G02*
X95515200Y-169378401I0J249999D01*
G01*
X95515200Y-168728399D01*
G75*
G02*
X95765199Y-168478400I249999J0D01*
G01*
X96665201Y-168478400D01*
G75*
G02*
X96915200Y-168728399I0J-249999D01*
G01*
X96915200Y-169378401D01*
G75*
G02*
X96665201Y-169628400I-249999J0D01*
G01*
G37*
G04 #@! TD.AperFunction*
G04 #@! TA.AperFunction,SMDPad,CuDef*
G36*
G01*
X96665201Y-171678400D02*
X95765199Y-171678400D01*
G75*
G02*
X95515200Y-171428401I0J249999D01*
G01*
X95515200Y-170778399D01*
G75*
G02*
X95765199Y-170528400I249999J0D01*
G01*
X96665201Y-170528400D01*
G75*
G02*
X96915200Y-170778399I0J-249999D01*
G01*
X96915200Y-171428401D01*
G75*
G02*
X96665201Y-171678400I-249999J0D01*
G01*
G37*
G04 #@! TD.AperFunction*
G04 #@! TA.AperFunction,SMDPad,CuDef*
G36*
G01*
X99103601Y-169679200D02*
X98203599Y-169679200D01*
G75*
G02*
X97953600Y-169429201I0J249999D01*
G01*
X97953600Y-168779199D01*
G75*
G02*
X98203599Y-168529200I249999J0D01*
G01*
X99103601Y-168529200D01*
G75*
G02*
X99353600Y-168779199I0J-249999D01*
G01*
X99353600Y-169429201D01*
G75*
G02*
X99103601Y-169679200I-249999J0D01*
G01*
G37*
G04 #@! TD.AperFunction*
G04 #@! TA.AperFunction,SMDPad,CuDef*
G36*
G01*
X99103601Y-171729200D02*
X98203599Y-171729200D01*
G75*
G02*
X97953600Y-171479201I0J249999D01*
G01*
X97953600Y-170829199D01*
G75*
G02*
X98203599Y-170579200I249999J0D01*
G01*
X99103601Y-170579200D01*
G75*
G02*
X99353600Y-170829199I0J-249999D01*
G01*
X99353600Y-171479201D01*
G75*
G02*
X99103601Y-171729200I-249999J0D01*
G01*
G37*
G04 #@! TD.AperFunction*
G04 #@! TA.AperFunction,SMDPad,CuDef*
G36*
G01*
X95192001Y-141028000D02*
X94291999Y-141028000D01*
G75*
G02*
X94042000Y-140778001I0J249999D01*
G01*
X94042000Y-140127999D01*
G75*
G02*
X94291999Y-139878000I249999J0D01*
G01*
X95192001Y-139878000D01*
G75*
G02*
X95442000Y-140127999I0J-249999D01*
G01*
X95442000Y-140778001D01*
G75*
G02*
X95192001Y-141028000I-249999J0D01*
G01*
G37*
G04 #@! TD.AperFunction*
G04 #@! TA.AperFunction,SMDPad,CuDef*
G36*
G01*
X95192001Y-143078000D02*
X94291999Y-143078000D01*
G75*
G02*
X94042000Y-142828001I0J249999D01*
G01*
X94042000Y-142177999D01*
G75*
G02*
X94291999Y-141928000I249999J0D01*
G01*
X95192001Y-141928000D01*
G75*
G02*
X95442000Y-142177999I0J-249999D01*
G01*
X95442000Y-142828001D01*
G75*
G02*
X95192001Y-143078000I-249999J0D01*
G01*
G37*
G04 #@! TD.AperFunction*
G04 #@! TA.AperFunction,SMDPad,CuDef*
G36*
G01*
X107993600Y-188003601D02*
X107993600Y-187103599D01*
G75*
G02*
X108243599Y-186853600I249999J0D01*
G01*
X108893601Y-186853600D01*
G75*
G02*
X109143600Y-187103599I0J-249999D01*
G01*
X109143600Y-188003601D01*
G75*
G02*
X108893601Y-188253600I-249999J0D01*
G01*
X108243599Y-188253600D01*
G75*
G02*
X107993600Y-188003601I0J249999D01*
G01*
G37*
G04 #@! TD.AperFunction*
G04 #@! TA.AperFunction,SMDPad,CuDef*
G36*
G01*
X105943600Y-188003601D02*
X105943600Y-187103599D01*
G75*
G02*
X106193599Y-186853600I249999J0D01*
G01*
X106843601Y-186853600D01*
G75*
G02*
X107093600Y-187103599I0J-249999D01*
G01*
X107093600Y-188003601D01*
G75*
G02*
X106843601Y-188253600I-249999J0D01*
G01*
X106193599Y-188253600D01*
G75*
G02*
X105943600Y-188003601I0J249999D01*
G01*
G37*
G04 #@! TD.AperFunction*
G04 #@! TA.AperFunction,SMDPad,CuDef*
G36*
G01*
X93210801Y-183039600D02*
X92310799Y-183039600D01*
G75*
G02*
X92060800Y-182789601I0J249999D01*
G01*
X92060800Y-182139599D01*
G75*
G02*
X92310799Y-181889600I249999J0D01*
G01*
X93210801Y-181889600D01*
G75*
G02*
X93460800Y-182139599I0J-249999D01*
G01*
X93460800Y-182789601D01*
G75*
G02*
X93210801Y-183039600I-249999J0D01*
G01*
G37*
G04 #@! TD.AperFunction*
G04 #@! TA.AperFunction,SMDPad,CuDef*
G36*
G01*
X93210801Y-185089600D02*
X92310799Y-185089600D01*
G75*
G02*
X92060800Y-184839601I0J249999D01*
G01*
X92060800Y-184189599D01*
G75*
G02*
X92310799Y-183939600I249999J0D01*
G01*
X93210801Y-183939600D01*
G75*
G02*
X93460800Y-184189599I0J-249999D01*
G01*
X93460800Y-184839601D01*
G75*
G02*
X93210801Y-185089600I-249999J0D01*
G01*
G37*
G04 #@! TD.AperFunction*
G04 #@! TA.AperFunction,SMDPad,CuDef*
G36*
G01*
X101454799Y-157269600D02*
X102354801Y-157269600D01*
G75*
G02*
X102604800Y-157519599I0J-249999D01*
G01*
X102604800Y-158169601D01*
G75*
G02*
X102354801Y-158419600I-249999J0D01*
G01*
X101454799Y-158419600D01*
G75*
G02*
X101204800Y-158169601I0J249999D01*
G01*
X101204800Y-157519599D01*
G75*
G02*
X101454799Y-157269600I249999J0D01*
G01*
G37*
G04 #@! TD.AperFunction*
G04 #@! TA.AperFunction,SMDPad,CuDef*
G36*
G01*
X101454799Y-155219600D02*
X102354801Y-155219600D01*
G75*
G02*
X102604800Y-155469599I0J-249999D01*
G01*
X102604800Y-156119601D01*
G75*
G02*
X102354801Y-156369600I-249999J0D01*
G01*
X101454799Y-156369600D01*
G75*
G02*
X101204800Y-156119601I0J249999D01*
G01*
X101204800Y-155469599D01*
G75*
G02*
X101454799Y-155219600I249999J0D01*
G01*
G37*
G04 #@! TD.AperFunction*
G04 #@! TA.AperFunction,SMDPad,CuDef*
G36*
G01*
X104096399Y-190340400D02*
X104996401Y-190340400D01*
G75*
G02*
X105246400Y-190590399I0J-249999D01*
G01*
X105246400Y-191240401D01*
G75*
G02*
X104996401Y-191490400I-249999J0D01*
G01*
X104096399Y-191490400D01*
G75*
G02*
X103846400Y-191240401I0J249999D01*
G01*
X103846400Y-190590399D01*
G75*
G02*
X104096399Y-190340400I249999J0D01*
G01*
G37*
G04 #@! TD.AperFunction*
G04 #@! TA.AperFunction,SMDPad,CuDef*
G36*
G01*
X104096399Y-188290400D02*
X104996401Y-188290400D01*
G75*
G02*
X105246400Y-188540399I0J-249999D01*
G01*
X105246400Y-189190401D01*
G75*
G02*
X104996401Y-189440400I-249999J0D01*
G01*
X104096399Y-189440400D01*
G75*
G02*
X103846400Y-189190401I0J249999D01*
G01*
X103846400Y-188540399D01*
G75*
G02*
X104096399Y-188290400I249999J0D01*
G01*
G37*
G04 #@! TD.AperFunction*
G04 #@! TA.AperFunction,SMDPad,CuDef*
G36*
G01*
X100997600Y-188373599D02*
X100997600Y-189273601D01*
G75*
G02*
X100747601Y-189523600I-249999J0D01*
G01*
X100097599Y-189523600D01*
G75*
G02*
X99847600Y-189273601I0J249999D01*
G01*
X99847600Y-188373599D01*
G75*
G02*
X100097599Y-188123600I249999J0D01*
G01*
X100747601Y-188123600D01*
G75*
G02*
X100997600Y-188373599I0J-249999D01*
G01*
G37*
G04 #@! TD.AperFunction*
G04 #@! TA.AperFunction,SMDPad,CuDef*
G36*
G01*
X103047600Y-188373599D02*
X103047600Y-189273601D01*
G75*
G02*
X102797601Y-189523600I-249999J0D01*
G01*
X102147599Y-189523600D01*
G75*
G02*
X101897600Y-189273601I0J249999D01*
G01*
X101897600Y-188373599D01*
G75*
G02*
X102147599Y-188123600I249999J0D01*
G01*
X102797601Y-188123600D01*
G75*
G02*
X103047600Y-188373599I0J-249999D01*
G01*
G37*
G04 #@! TD.AperFunction*
G04 #@! TA.AperFunction,SMDPad,CuDef*
G36*
G01*
X103523200Y-187190801D02*
X103523200Y-186290799D01*
G75*
G02*
X103773199Y-186040800I249999J0D01*
G01*
X104423201Y-186040800D01*
G75*
G02*
X104673200Y-186290799I0J-249999D01*
G01*
X104673200Y-187190801D01*
G75*
G02*
X104423201Y-187440800I-249999J0D01*
G01*
X103773199Y-187440800D01*
G75*
G02*
X103523200Y-187190801I0J249999D01*
G01*
G37*
G04 #@! TD.AperFunction*
G04 #@! TA.AperFunction,SMDPad,CuDef*
G36*
G01*
X101473200Y-187190801D02*
X101473200Y-186290799D01*
G75*
G02*
X101723199Y-186040800I249999J0D01*
G01*
X102373201Y-186040800D01*
G75*
G02*
X102623200Y-186290799I0J-249999D01*
G01*
X102623200Y-187190801D01*
G75*
G02*
X102373201Y-187440800I-249999J0D01*
G01*
X101723199Y-187440800D01*
G75*
G02*
X101473200Y-187190801I0J249999D01*
G01*
G37*
G04 #@! TD.AperFunction*
G04 #@! TA.AperFunction,SMDPad,CuDef*
G36*
G01*
X119169600Y-126230801D02*
X119169600Y-125330799D01*
G75*
G02*
X119419599Y-125080800I249999J0D01*
G01*
X120069601Y-125080800D01*
G75*
G02*
X120319600Y-125330799I0J-249999D01*
G01*
X120319600Y-126230801D01*
G75*
G02*
X120069601Y-126480800I-249999J0D01*
G01*
X119419599Y-126480800D01*
G75*
G02*
X119169600Y-126230801I0J249999D01*
G01*
G37*
G04 #@! TD.AperFunction*
G04 #@! TA.AperFunction,SMDPad,CuDef*
G36*
G01*
X117119600Y-126230801D02*
X117119600Y-125330799D01*
G75*
G02*
X117369599Y-125080800I249999J0D01*
G01*
X118019601Y-125080800D01*
G75*
G02*
X118269600Y-125330799I0J-249999D01*
G01*
X118269600Y-126230801D01*
G75*
G02*
X118019601Y-126480800I-249999J0D01*
G01*
X117369599Y-126480800D01*
G75*
G02*
X117119600Y-126230801I0J249999D01*
G01*
G37*
G04 #@! TD.AperFunction*
G04 #@! TA.AperFunction,SMDPad,CuDef*
G36*
G01*
X115105600Y-126230801D02*
X115105600Y-125330799D01*
G75*
G02*
X115355599Y-125080800I249999J0D01*
G01*
X116005601Y-125080800D01*
G75*
G02*
X116255600Y-125330799I0J-249999D01*
G01*
X116255600Y-126230801D01*
G75*
G02*
X116005601Y-126480800I-249999J0D01*
G01*
X115355599Y-126480800D01*
G75*
G02*
X115105600Y-126230801I0J249999D01*
G01*
G37*
G04 #@! TD.AperFunction*
G04 #@! TA.AperFunction,SMDPad,CuDef*
G36*
G01*
X113055600Y-126230801D02*
X113055600Y-125330799D01*
G75*
G02*
X113305599Y-125080800I249999J0D01*
G01*
X113955601Y-125080800D01*
G75*
G02*
X114205600Y-125330799I0J-249999D01*
G01*
X114205600Y-126230801D01*
G75*
G02*
X113955601Y-126480800I-249999J0D01*
G01*
X113305599Y-126480800D01*
G75*
G02*
X113055600Y-126230801I0J249999D01*
G01*
G37*
G04 #@! TD.AperFunction*
G04 #@! TA.AperFunction,SMDPad,CuDef*
G36*
G01*
X110141600Y-125330799D02*
X110141600Y-126230801D01*
G75*
G02*
X109891601Y-126480800I-249999J0D01*
G01*
X109241599Y-126480800D01*
G75*
G02*
X108991600Y-126230801I0J249999D01*
G01*
X108991600Y-125330799D01*
G75*
G02*
X109241599Y-125080800I249999J0D01*
G01*
X109891601Y-125080800D01*
G75*
G02*
X110141600Y-125330799I0J-249999D01*
G01*
G37*
G04 #@! TD.AperFunction*
G04 #@! TA.AperFunction,SMDPad,CuDef*
G36*
G01*
X112191600Y-125330799D02*
X112191600Y-126230801D01*
G75*
G02*
X111941601Y-126480800I-249999J0D01*
G01*
X111291599Y-126480800D01*
G75*
G02*
X111041600Y-126230801I0J249999D01*
G01*
X111041600Y-125330799D01*
G75*
G02*
X111291599Y-125080800I249999J0D01*
G01*
X111941601Y-125080800D01*
G75*
G02*
X112191600Y-125330799I0J-249999D01*
G01*
G37*
G04 #@! TD.AperFunction*
G04 #@! TA.AperFunction,SMDPad,CuDef*
G36*
G01*
X92855200Y-145077601D02*
X92855200Y-144177599D01*
G75*
G02*
X93105199Y-143927600I249999J0D01*
G01*
X93755201Y-143927600D01*
G75*
G02*
X94005200Y-144177599I0J-249999D01*
G01*
X94005200Y-145077601D01*
G75*
G02*
X93755201Y-145327600I-249999J0D01*
G01*
X93105199Y-145327600D01*
G75*
G02*
X92855200Y-145077601I0J249999D01*
G01*
G37*
G04 #@! TD.AperFunction*
G04 #@! TA.AperFunction,SMDPad,CuDef*
G36*
G01*
X90805200Y-145077601D02*
X90805200Y-144177599D01*
G75*
G02*
X91055199Y-143927600I249999J0D01*
G01*
X91705201Y-143927600D01*
G75*
G02*
X91955200Y-144177599I0J-249999D01*
G01*
X91955200Y-145077601D01*
G75*
G02*
X91705201Y-145327600I-249999J0D01*
G01*
X91055199Y-145327600D01*
G75*
G02*
X90805200Y-145077601I0J249999D01*
G01*
G37*
G04 #@! TD.AperFunction*
G04 #@! TA.AperFunction,SMDPad,CuDef*
G36*
G01*
X100068800Y-142334401D02*
X100068800Y-141434399D01*
G75*
G02*
X100318799Y-141184400I249999J0D01*
G01*
X100968801Y-141184400D01*
G75*
G02*
X101218800Y-141434399I0J-249999D01*
G01*
X101218800Y-142334401D01*
G75*
G02*
X100968801Y-142584400I-249999J0D01*
G01*
X100318799Y-142584400D01*
G75*
G02*
X100068800Y-142334401I0J249999D01*
G01*
G37*
G04 #@! TD.AperFunction*
G04 #@! TA.AperFunction,SMDPad,CuDef*
G36*
G01*
X98018800Y-142334401D02*
X98018800Y-141434399D01*
G75*
G02*
X98268799Y-141184400I249999J0D01*
G01*
X98918801Y-141184400D01*
G75*
G02*
X99168800Y-141434399I0J-249999D01*
G01*
X99168800Y-142334401D01*
G75*
G02*
X98918801Y-142584400I-249999J0D01*
G01*
X98268799Y-142584400D01*
G75*
G02*
X98018800Y-142334401I0J249999D01*
G01*
G37*
G04 #@! TD.AperFunction*
G04 #@! TA.AperFunction,SMDPad,CuDef*
G36*
G01*
X104742400Y-142385201D02*
X104742400Y-141485199D01*
G75*
G02*
X104992399Y-141235200I249999J0D01*
G01*
X105642401Y-141235200D01*
G75*
G02*
X105892400Y-141485199I0J-249999D01*
G01*
X105892400Y-142385201D01*
G75*
G02*
X105642401Y-142635200I-249999J0D01*
G01*
X104992399Y-142635200D01*
G75*
G02*
X104742400Y-142385201I0J249999D01*
G01*
G37*
G04 #@! TD.AperFunction*
G04 #@! TA.AperFunction,SMDPad,CuDef*
G36*
G01*
X102692400Y-142385201D02*
X102692400Y-141485199D01*
G75*
G02*
X102942399Y-141235200I249999J0D01*
G01*
X103592401Y-141235200D01*
G75*
G02*
X103842400Y-141485199I0J-249999D01*
G01*
X103842400Y-142385201D01*
G75*
G02*
X103592401Y-142635200I-249999J0D01*
G01*
X102942399Y-142635200D01*
G75*
G02*
X102692400Y-142385201I0J249999D01*
G01*
G37*
G04 #@! TD.AperFunction*
G04 #@! TA.AperFunction,SMDPad,CuDef*
G36*
G01*
X106723600Y-148887601D02*
X106723600Y-147987599D01*
G75*
G02*
X106973599Y-147737600I249999J0D01*
G01*
X107623601Y-147737600D01*
G75*
G02*
X107873600Y-147987599I0J-249999D01*
G01*
X107873600Y-148887601D01*
G75*
G02*
X107623601Y-149137600I-249999J0D01*
G01*
X106973599Y-149137600D01*
G75*
G02*
X106723600Y-148887601I0J249999D01*
G01*
G37*
G04 #@! TD.AperFunction*
G04 #@! TA.AperFunction,SMDPad,CuDef*
G36*
G01*
X104673600Y-148887601D02*
X104673600Y-147987599D01*
G75*
G02*
X104923599Y-147737600I249999J0D01*
G01*
X105573601Y-147737600D01*
G75*
G02*
X105823600Y-147987599I0J-249999D01*
G01*
X105823600Y-148887601D01*
G75*
G02*
X105573601Y-149137600I-249999J0D01*
G01*
X104923599Y-149137600D01*
G75*
G02*
X104673600Y-148887601I0J249999D01*
G01*
G37*
G04 #@! TD.AperFunction*
G04 #@! TA.AperFunction,SMDPad,CuDef*
G36*
G01*
X109466800Y-142436001D02*
X109466800Y-141535999D01*
G75*
G02*
X109716799Y-141286000I249999J0D01*
G01*
X110366801Y-141286000D01*
G75*
G02*
X110616800Y-141535999I0J-249999D01*
G01*
X110616800Y-142436001D01*
G75*
G02*
X110366801Y-142686000I-249999J0D01*
G01*
X109716799Y-142686000D01*
G75*
G02*
X109466800Y-142436001I0J249999D01*
G01*
G37*
G04 #@! TD.AperFunction*
G04 #@! TA.AperFunction,SMDPad,CuDef*
G36*
G01*
X107416800Y-142436001D02*
X107416800Y-141535999D01*
G75*
G02*
X107666799Y-141286000I249999J0D01*
G01*
X108316801Y-141286000D01*
G75*
G02*
X108566800Y-141535999I0J-249999D01*
G01*
X108566800Y-142436001D01*
G75*
G02*
X108316801Y-142686000I-249999J0D01*
G01*
X107666799Y-142686000D01*
G75*
G02*
X107416800Y-142436001I0J249999D01*
G01*
G37*
G04 #@! TD.AperFunction*
G04 #@! TA.AperFunction,SMDPad,CuDef*
G36*
G01*
X110787601Y-148292400D02*
X109887599Y-148292400D01*
G75*
G02*
X109637600Y-148042401I0J249999D01*
G01*
X109637600Y-147392399D01*
G75*
G02*
X109887599Y-147142400I249999J0D01*
G01*
X110787601Y-147142400D01*
G75*
G02*
X111037600Y-147392399I0J-249999D01*
G01*
X111037600Y-148042401D01*
G75*
G02*
X110787601Y-148292400I-249999J0D01*
G01*
G37*
G04 #@! TD.AperFunction*
G04 #@! TA.AperFunction,SMDPad,CuDef*
G36*
G01*
X110787601Y-150342400D02*
X109887599Y-150342400D01*
G75*
G02*
X109637600Y-150092401I0J249999D01*
G01*
X109637600Y-149442399D01*
G75*
G02*
X109887599Y-149192400I249999J0D01*
G01*
X110787601Y-149192400D01*
G75*
G02*
X111037600Y-149442399I0J-249999D01*
G01*
X111037600Y-150092401D01*
G75*
G02*
X110787601Y-150342400I-249999J0D01*
G01*
G37*
G04 #@! TD.AperFunction*
G04 #@! TA.AperFunction,SMDPad,CuDef*
G36*
G01*
X102354801Y-152407200D02*
X101454799Y-152407200D01*
G75*
G02*
X101204800Y-152157201I0J249999D01*
G01*
X101204800Y-151507199D01*
G75*
G02*
X101454799Y-151257200I249999J0D01*
G01*
X102354801Y-151257200D01*
G75*
G02*
X102604800Y-151507199I0J-249999D01*
G01*
X102604800Y-152157201D01*
G75*
G02*
X102354801Y-152407200I-249999J0D01*
G01*
G37*
G04 #@! TD.AperFunction*
G04 #@! TA.AperFunction,SMDPad,CuDef*
G36*
G01*
X102354801Y-154457200D02*
X101454799Y-154457200D01*
G75*
G02*
X101204800Y-154207201I0J249999D01*
G01*
X101204800Y-153557199D01*
G75*
G02*
X101454799Y-153307200I249999J0D01*
G01*
X102354801Y-153307200D01*
G75*
G02*
X102604800Y-153557199I0J-249999D01*
G01*
X102604800Y-154207201D01*
G75*
G02*
X102354801Y-154457200I-249999J0D01*
G01*
G37*
G04 #@! TD.AperFunction*
G04 #@! TA.AperFunction,SMDPad,CuDef*
G36*
G01*
X99611601Y-152407200D02*
X98711599Y-152407200D01*
G75*
G02*
X98461600Y-152157201I0J249999D01*
G01*
X98461600Y-151507199D01*
G75*
G02*
X98711599Y-151257200I249999J0D01*
G01*
X99611601Y-151257200D01*
G75*
G02*
X99861600Y-151507199I0J-249999D01*
G01*
X99861600Y-152157201D01*
G75*
G02*
X99611601Y-152407200I-249999J0D01*
G01*
G37*
G04 #@! TD.AperFunction*
G04 #@! TA.AperFunction,SMDPad,CuDef*
G36*
G01*
X99611601Y-154457200D02*
X98711599Y-154457200D01*
G75*
G02*
X98461600Y-154207201I0J249999D01*
G01*
X98461600Y-153557199D01*
G75*
G02*
X98711599Y-153307200I249999J0D01*
G01*
X99611601Y-153307200D01*
G75*
G02*
X99861600Y-153557199I0J-249999D01*
G01*
X99861600Y-154207201D01*
G75*
G02*
X99611601Y-154457200I-249999J0D01*
G01*
G37*
G04 #@! TD.AperFunction*
G04 #@! TA.AperFunction,SMDPad,CuDef*
G36*
G01*
X107855600Y-158299999D02*
X107855600Y-159200001D01*
G75*
G02*
X107605601Y-159450000I-249999J0D01*
G01*
X106955599Y-159450000D01*
G75*
G02*
X106705600Y-159200001I0J249999D01*
G01*
X106705600Y-158299999D01*
G75*
G02*
X106955599Y-158050000I249999J0D01*
G01*
X107605601Y-158050000D01*
G75*
G02*
X107855600Y-158299999I0J-249999D01*
G01*
G37*
G04 #@! TD.AperFunction*
G04 #@! TA.AperFunction,SMDPad,CuDef*
G36*
G01*
X109905600Y-158299999D02*
X109905600Y-159200001D01*
G75*
G02*
X109655601Y-159450000I-249999J0D01*
G01*
X109005599Y-159450000D01*
G75*
G02*
X108755600Y-159200001I0J249999D01*
G01*
X108755600Y-158299999D01*
G75*
G02*
X109005599Y-158050000I249999J0D01*
G01*
X109655601Y-158050000D01*
G75*
G02*
X109905600Y-158299999I0J-249999D01*
G01*
G37*
G04 #@! TD.AperFunction*
G04 #@! TA.AperFunction,SMDPad,CuDef*
G36*
G01*
X91737601Y-166986800D02*
X90837599Y-166986800D01*
G75*
G02*
X90587600Y-166736801I0J249999D01*
G01*
X90587600Y-166086799D01*
G75*
G02*
X90837599Y-165836800I249999J0D01*
G01*
X91737601Y-165836800D01*
G75*
G02*
X91987600Y-166086799I0J-249999D01*
G01*
X91987600Y-166736801D01*
G75*
G02*
X91737601Y-166986800I-249999J0D01*
G01*
G37*
G04 #@! TD.AperFunction*
G04 #@! TA.AperFunction,SMDPad,CuDef*
G36*
G01*
X91737601Y-169036800D02*
X90837599Y-169036800D01*
G75*
G02*
X90587600Y-168786801I0J249999D01*
G01*
X90587600Y-168136799D01*
G75*
G02*
X90837599Y-167886800I249999J0D01*
G01*
X91737601Y-167886800D01*
G75*
G02*
X91987600Y-168136799I0J-249999D01*
G01*
X91987600Y-168786801D01*
G75*
G02*
X91737601Y-169036800I-249999J0D01*
G01*
G37*
G04 #@! TD.AperFunction*
G04 #@! TA.AperFunction,SMDPad,CuDef*
G36*
G01*
X91599599Y-157269600D02*
X92499601Y-157269600D01*
G75*
G02*
X92749600Y-157519599I0J-249999D01*
G01*
X92749600Y-158169601D01*
G75*
G02*
X92499601Y-158419600I-249999J0D01*
G01*
X91599599Y-158419600D01*
G75*
G02*
X91349600Y-158169601I0J249999D01*
G01*
X91349600Y-157519599D01*
G75*
G02*
X91599599Y-157269600I249999J0D01*
G01*
G37*
G04 #@! TD.AperFunction*
G04 #@! TA.AperFunction,SMDPad,CuDef*
G36*
G01*
X91599599Y-155219600D02*
X92499601Y-155219600D01*
G75*
G02*
X92749600Y-155469599I0J-249999D01*
G01*
X92749600Y-156119601D01*
G75*
G02*
X92499601Y-156369600I-249999J0D01*
G01*
X91599599Y-156369600D01*
G75*
G02*
X91349600Y-156119601I0J249999D01*
G01*
X91349600Y-155469599D01*
G75*
G02*
X91599599Y-155219600I249999J0D01*
G01*
G37*
G04 #@! TD.AperFunction*
G04 #@! TA.AperFunction,SMDPad,CuDef*
G36*
G01*
X93414000Y-154374001D02*
X93414000Y-153473999D01*
G75*
G02*
X93663999Y-153224000I249999J0D01*
G01*
X94314001Y-153224000D01*
G75*
G02*
X94564000Y-153473999I0J-249999D01*
G01*
X94564000Y-154374001D01*
G75*
G02*
X94314001Y-154624000I-249999J0D01*
G01*
X93663999Y-154624000D01*
G75*
G02*
X93414000Y-154374001I0J249999D01*
G01*
G37*
G04 #@! TD.AperFunction*
G04 #@! TA.AperFunction,SMDPad,CuDef*
G36*
G01*
X91364000Y-154374001D02*
X91364000Y-153473999D01*
G75*
G02*
X91613999Y-153224000I249999J0D01*
G01*
X92264001Y-153224000D01*
G75*
G02*
X92514000Y-153473999I0J-249999D01*
G01*
X92514000Y-154374001D01*
G75*
G02*
X92264001Y-154624000I-249999J0D01*
G01*
X91613999Y-154624000D01*
G75*
G02*
X91364000Y-154374001I0J249999D01*
G01*
G37*
G04 #@! TD.AperFunction*
G04 #@! TA.AperFunction,SMDPad,CuDef*
G36*
G01*
X102775600Y-170136399D02*
X102775600Y-171036401D01*
G75*
G02*
X102525601Y-171286400I-249999J0D01*
G01*
X101875599Y-171286400D01*
G75*
G02*
X101625600Y-171036401I0J249999D01*
G01*
X101625600Y-170136399D01*
G75*
G02*
X101875599Y-169886400I249999J0D01*
G01*
X102525601Y-169886400D01*
G75*
G02*
X102775600Y-170136399I0J-249999D01*
G01*
G37*
G04 #@! TD.AperFunction*
G04 #@! TA.AperFunction,SMDPad,CuDef*
G36*
G01*
X104825600Y-170136399D02*
X104825600Y-171036401D01*
G75*
G02*
X104575601Y-171286400I-249999J0D01*
G01*
X103925599Y-171286400D01*
G75*
G02*
X103675600Y-171036401I0J249999D01*
G01*
X103675600Y-170136399D01*
G75*
G02*
X103925599Y-169886400I249999J0D01*
G01*
X104575601Y-169886400D01*
G75*
G02*
X104825600Y-170136399I0J-249999D01*
G01*
G37*
G04 #@! TD.AperFunction*
G04 #@! TA.AperFunction,SMDPad,CuDef*
G36*
G01*
X102812001Y-166682000D02*
X101911999Y-166682000D01*
G75*
G02*
X101662000Y-166432001I0J249999D01*
G01*
X101662000Y-165781999D01*
G75*
G02*
X101911999Y-165532000I249999J0D01*
G01*
X102812001Y-165532000D01*
G75*
G02*
X103062000Y-165781999I0J-249999D01*
G01*
X103062000Y-166432001D01*
G75*
G02*
X102812001Y-166682000I-249999J0D01*
G01*
G37*
G04 #@! TD.AperFunction*
G04 #@! TA.AperFunction,SMDPad,CuDef*
G36*
G01*
X102812001Y-168732000D02*
X101911999Y-168732000D01*
G75*
G02*
X101662000Y-168482001I0J249999D01*
G01*
X101662000Y-167831999D01*
G75*
G02*
X101911999Y-167582000I249999J0D01*
G01*
X102812001Y-167582000D01*
G75*
G02*
X103062000Y-167831999I0J-249999D01*
G01*
X103062000Y-168482001D01*
G75*
G02*
X102812001Y-168732000I-249999J0D01*
G01*
G37*
G04 #@! TD.AperFunction*
G04 #@! TA.AperFunction,SMDPad,CuDef*
G36*
G01*
X127274500Y-123487601D02*
X127274500Y-122587599D01*
G75*
G02*
X127524499Y-122337600I249999J0D01*
G01*
X128174501Y-122337600D01*
G75*
G02*
X128424500Y-122587599I0J-249999D01*
G01*
X128424500Y-123487601D01*
G75*
G02*
X128174501Y-123737600I-249999J0D01*
G01*
X127524499Y-123737600D01*
G75*
G02*
X127274500Y-123487601I0J249999D01*
G01*
G37*
G04 #@! TD.AperFunction*
G04 #@! TA.AperFunction,SMDPad,CuDef*
G36*
G01*
X125224500Y-123487601D02*
X125224500Y-122587599D01*
G75*
G02*
X125474499Y-122337600I249999J0D01*
G01*
X126124501Y-122337600D01*
G75*
G02*
X126374500Y-122587599I0J-249999D01*
G01*
X126374500Y-123487601D01*
G75*
G02*
X126124501Y-123737600I-249999J0D01*
G01*
X125474499Y-123737600D01*
G75*
G02*
X125224500Y-123487601I0J249999D01*
G01*
G37*
G04 #@! TD.AperFunction*
G04 #@! TA.AperFunction,SMDPad,CuDef*
G36*
G01*
X122776400Y-123487601D02*
X122776400Y-122587599D01*
G75*
G02*
X123026399Y-122337600I249999J0D01*
G01*
X123676401Y-122337600D01*
G75*
G02*
X123926400Y-122587599I0J-249999D01*
G01*
X123926400Y-123487601D01*
G75*
G02*
X123676401Y-123737600I-249999J0D01*
G01*
X123026399Y-123737600D01*
G75*
G02*
X122776400Y-123487601I0J249999D01*
G01*
G37*
G04 #@! TD.AperFunction*
G04 #@! TA.AperFunction,SMDPad,CuDef*
G36*
G01*
X120726400Y-123487601D02*
X120726400Y-122587599D01*
G75*
G02*
X120976399Y-122337600I249999J0D01*
G01*
X121626401Y-122337600D01*
G75*
G02*
X121876400Y-122587599I0J-249999D01*
G01*
X121876400Y-123487601D01*
G75*
G02*
X121626401Y-123737600I-249999J0D01*
G01*
X120976399Y-123737600D01*
G75*
G02*
X120726400Y-123487601I0J249999D01*
G01*
G37*
G04 #@! TD.AperFunction*
G04 #@! TA.AperFunction,SMDPad,CuDef*
G36*
G01*
X119169600Y-165143601D02*
X119169600Y-164243599D01*
G75*
G02*
X119419599Y-163993600I249999J0D01*
G01*
X120069601Y-163993600D01*
G75*
G02*
X120319600Y-164243599I0J-249999D01*
G01*
X120319600Y-165143601D01*
G75*
G02*
X120069601Y-165393600I-249999J0D01*
G01*
X119419599Y-165393600D01*
G75*
G02*
X119169600Y-165143601I0J249999D01*
G01*
G37*
G04 #@! TD.AperFunction*
G04 #@! TA.AperFunction,SMDPad,CuDef*
G36*
G01*
X117119600Y-165143601D02*
X117119600Y-164243599D01*
G75*
G02*
X117369599Y-163993600I249999J0D01*
G01*
X118019601Y-163993600D01*
G75*
G02*
X118269600Y-164243599I0J-249999D01*
G01*
X118269600Y-165143601D01*
G75*
G02*
X118019601Y-165393600I-249999J0D01*
G01*
X117369599Y-165393600D01*
G75*
G02*
X117119600Y-165143601I0J249999D01*
G01*
G37*
G04 #@! TD.AperFunction*
G04 #@! TA.AperFunction,SMDPad,CuDef*
G36*
G01*
X119728401Y-160078000D02*
X118828399Y-160078000D01*
G75*
G02*
X118578400Y-159828001I0J249999D01*
G01*
X118578400Y-159177999D01*
G75*
G02*
X118828399Y-158928000I249999J0D01*
G01*
X119728401Y-158928000D01*
G75*
G02*
X119978400Y-159177999I0J-249999D01*
G01*
X119978400Y-159828001D01*
G75*
G02*
X119728401Y-160078000I-249999J0D01*
G01*
G37*
G04 #@! TD.AperFunction*
G04 #@! TA.AperFunction,SMDPad,CuDef*
G36*
G01*
X119728401Y-162128000D02*
X118828399Y-162128000D01*
G75*
G02*
X118578400Y-161878001I0J249999D01*
G01*
X118578400Y-161227999D01*
G75*
G02*
X118828399Y-160978000I249999J0D01*
G01*
X119728401Y-160978000D01*
G75*
G02*
X119978400Y-161227999I0J-249999D01*
G01*
X119978400Y-161878001D01*
G75*
G02*
X119728401Y-162128000I-249999J0D01*
G01*
G37*
G04 #@! TD.AperFunction*
G04 #@! TA.AperFunction,SMDPad,CuDef*
G36*
G01*
X111716399Y-161384400D02*
X112616401Y-161384400D01*
G75*
G02*
X112866400Y-161634399I0J-249999D01*
G01*
X112866400Y-162284401D01*
G75*
G02*
X112616401Y-162534400I-249999J0D01*
G01*
X111716399Y-162534400D01*
G75*
G02*
X111466400Y-162284401I0J249999D01*
G01*
X111466400Y-161634399D01*
G75*
G02*
X111716399Y-161384400I249999J0D01*
G01*
G37*
G04 #@! TD.AperFunction*
G04 #@! TA.AperFunction,SMDPad,CuDef*
G36*
G01*
X111716399Y-159334400D02*
X112616401Y-159334400D01*
G75*
G02*
X112866400Y-159584399I0J-249999D01*
G01*
X112866400Y-160234401D01*
G75*
G02*
X112616401Y-160484400I-249999J0D01*
G01*
X111716399Y-160484400D01*
G75*
G02*
X111466400Y-160234401I0J249999D01*
G01*
X111466400Y-159584399D01*
G75*
G02*
X111716399Y-159334400I249999J0D01*
G01*
G37*
G04 #@! TD.AperFunction*
G04 #@! TA.AperFunction,SMDPad,CuDef*
G36*
G01*
X112529200Y-169831599D02*
X112529200Y-170731601D01*
G75*
G02*
X112279201Y-170981600I-249999J0D01*
G01*
X111629199Y-170981600D01*
G75*
G02*
X111379200Y-170731601I0J249999D01*
G01*
X111379200Y-169831599D01*
G75*
G02*
X111629199Y-169581600I249999J0D01*
G01*
X112279201Y-169581600D01*
G75*
G02*
X112529200Y-169831599I0J-249999D01*
G01*
G37*
G04 #@! TD.AperFunction*
G04 #@! TA.AperFunction,SMDPad,CuDef*
G36*
G01*
X114579200Y-169831599D02*
X114579200Y-170731601D01*
G75*
G02*
X114329201Y-170981600I-249999J0D01*
G01*
X113679199Y-170981600D01*
G75*
G02*
X113429200Y-170731601I0J249999D01*
G01*
X113429200Y-169831599D01*
G75*
G02*
X113679199Y-169581600I249999J0D01*
G01*
X114329201Y-169581600D01*
G75*
G02*
X114579200Y-169831599I0J-249999D01*
G01*
G37*
G04 #@! TD.AperFunction*
G04 #@! TA.AperFunction,SMDPad,CuDef*
G36*
G01*
X117456800Y-169882399D02*
X117456800Y-170782401D01*
G75*
G02*
X117206801Y-171032400I-249999J0D01*
G01*
X116556799Y-171032400D01*
G75*
G02*
X116306800Y-170782401I0J249999D01*
G01*
X116306800Y-169882399D01*
G75*
G02*
X116556799Y-169632400I249999J0D01*
G01*
X117206801Y-169632400D01*
G75*
G02*
X117456800Y-169882399I0J-249999D01*
G01*
G37*
G04 #@! TD.AperFunction*
G04 #@! TA.AperFunction,SMDPad,CuDef*
G36*
G01*
X119506800Y-169882399D02*
X119506800Y-170782401D01*
G75*
G02*
X119256801Y-171032400I-249999J0D01*
G01*
X118606799Y-171032400D01*
G75*
G02*
X118356800Y-170782401I0J249999D01*
G01*
X118356800Y-169882399D01*
G75*
G02*
X118606799Y-169632400I249999J0D01*
G01*
X119256801Y-169632400D01*
G75*
G02*
X119506800Y-169882399I0J-249999D01*
G01*
G37*
G04 #@! TD.AperFunction*
G04 #@! TA.AperFunction,SMDPad,CuDef*
G36*
G01*
X116426400Y-158031601D02*
X116426400Y-157131599D01*
G75*
G02*
X116676399Y-156881600I249999J0D01*
G01*
X117326401Y-156881600D01*
G75*
G02*
X117576400Y-157131599I0J-249999D01*
G01*
X117576400Y-158031601D01*
G75*
G02*
X117326401Y-158281600I-249999J0D01*
G01*
X116676399Y-158281600D01*
G75*
G02*
X116426400Y-158031601I0J249999D01*
G01*
G37*
G04 #@! TD.AperFunction*
G04 #@! TA.AperFunction,SMDPad,CuDef*
G36*
G01*
X114376400Y-158031601D02*
X114376400Y-157131599D01*
G75*
G02*
X114626399Y-156881600I249999J0D01*
G01*
X115276401Y-156881600D01*
G75*
G02*
X115526400Y-157131599I0J-249999D01*
G01*
X115526400Y-158031601D01*
G75*
G02*
X115276401Y-158281600I-249999J0D01*
G01*
X114626399Y-158281600D01*
G75*
G02*
X114376400Y-158031601I0J249999D01*
G01*
G37*
G04 #@! TD.AperFunction*
G04 #@! TA.AperFunction,SMDPad,CuDef*
G36*
G01*
X116172400Y-153256401D02*
X116172400Y-152356399D01*
G75*
G02*
X116422399Y-152106400I249999J0D01*
G01*
X117072401Y-152106400D01*
G75*
G02*
X117322400Y-152356399I0J-249999D01*
G01*
X117322400Y-153256401D01*
G75*
G02*
X117072401Y-153506400I-249999J0D01*
G01*
X116422399Y-153506400D01*
G75*
G02*
X116172400Y-153256401I0J249999D01*
G01*
G37*
G04 #@! TD.AperFunction*
G04 #@! TA.AperFunction,SMDPad,CuDef*
G36*
G01*
X114122400Y-153256401D02*
X114122400Y-152356399D01*
G75*
G02*
X114372399Y-152106400I249999J0D01*
G01*
X115022401Y-152106400D01*
G75*
G02*
X115272400Y-152356399I0J-249999D01*
G01*
X115272400Y-153256401D01*
G75*
G02*
X115022401Y-153506400I-249999J0D01*
G01*
X114372399Y-153506400D01*
G75*
G02*
X114122400Y-153256401I0J249999D01*
G01*
G37*
G04 #@! TD.AperFunction*
G04 #@! TA.AperFunction,SMDPad,CuDef*
G36*
G01*
X118024300Y-132733201D02*
X118024300Y-131833199D01*
G75*
G02*
X118274299Y-131583200I249999J0D01*
G01*
X118924301Y-131583200D01*
G75*
G02*
X119174300Y-131833199I0J-249999D01*
G01*
X119174300Y-132733201D01*
G75*
G02*
X118924301Y-132983200I-249999J0D01*
G01*
X118274299Y-132983200D01*
G75*
G02*
X118024300Y-132733201I0J249999D01*
G01*
G37*
G04 #@! TD.AperFunction*
G04 #@! TA.AperFunction,SMDPad,CuDef*
G36*
G01*
X115974300Y-132733201D02*
X115974300Y-131833199D01*
G75*
G02*
X116224299Y-131583200I249999J0D01*
G01*
X116874301Y-131583200D01*
G75*
G02*
X117124300Y-131833199I0J-249999D01*
G01*
X117124300Y-132733201D01*
G75*
G02*
X116874301Y-132983200I-249999J0D01*
G01*
X116224299Y-132983200D01*
G75*
G02*
X115974300Y-132733201I0J249999D01*
G01*
G37*
G04 #@! TD.AperFunction*
G04 #@! TA.AperFunction,SMDPad,CuDef*
G36*
G01*
X113710900Y-132733201D02*
X113710900Y-131833199D01*
G75*
G02*
X113960899Y-131583200I249999J0D01*
G01*
X114610901Y-131583200D01*
G75*
G02*
X114860900Y-131833199I0J-249999D01*
G01*
X114860900Y-132733201D01*
G75*
G02*
X114610901Y-132983200I-249999J0D01*
G01*
X113960899Y-132983200D01*
G75*
G02*
X113710900Y-132733201I0J249999D01*
G01*
G37*
G04 #@! TD.AperFunction*
G04 #@! TA.AperFunction,SMDPad,CuDef*
G36*
G01*
X111660900Y-132733201D02*
X111660900Y-131833199D01*
G75*
G02*
X111910899Y-131583200I249999J0D01*
G01*
X112560901Y-131583200D01*
G75*
G02*
X112810900Y-131833199I0J-249999D01*
G01*
X112810900Y-132733201D01*
G75*
G02*
X112560901Y-132983200I-249999J0D01*
G01*
X111910899Y-132983200D01*
G75*
G02*
X111660900Y-132733201I0J249999D01*
G01*
G37*
G04 #@! TD.AperFunction*
G04 #@! TA.AperFunction,SMDPad,CuDef*
G36*
G01*
X110649599Y-183939600D02*
X111549601Y-183939600D01*
G75*
G02*
X111799600Y-184189599I0J-249999D01*
G01*
X111799600Y-184839601D01*
G75*
G02*
X111549601Y-185089600I-249999J0D01*
G01*
X110649599Y-185089600D01*
G75*
G02*
X110399600Y-184839601I0J249999D01*
G01*
X110399600Y-184189599D01*
G75*
G02*
X110649599Y-183939600I249999J0D01*
G01*
G37*
G04 #@! TD.AperFunction*
G04 #@! TA.AperFunction,SMDPad,CuDef*
G36*
G01*
X110649599Y-181889600D02*
X111549601Y-181889600D01*
G75*
G02*
X111799600Y-182139599I0J-249999D01*
G01*
X111799600Y-182789601D01*
G75*
G02*
X111549601Y-183039600I-249999J0D01*
G01*
X110649599Y-183039600D01*
G75*
G02*
X110399600Y-182789601I0J249999D01*
G01*
X110399600Y-182139599D01*
G75*
G02*
X110649599Y-181889600I249999J0D01*
G01*
G37*
G04 #@! TD.AperFunction*
G04 #@! TA.AperFunction,SMDPad,CuDef*
G36*
G01*
X108465199Y-183939600D02*
X109365201Y-183939600D01*
G75*
G02*
X109615200Y-184189599I0J-249999D01*
G01*
X109615200Y-184839601D01*
G75*
G02*
X109365201Y-185089600I-249999J0D01*
G01*
X108465199Y-185089600D01*
G75*
G02*
X108215200Y-184839601I0J249999D01*
G01*
X108215200Y-184189599D01*
G75*
G02*
X108465199Y-183939600I249999J0D01*
G01*
G37*
G04 #@! TD.AperFunction*
G04 #@! TA.AperFunction,SMDPad,CuDef*
G36*
G01*
X108465199Y-181889600D02*
X109365201Y-181889600D01*
G75*
G02*
X109615200Y-182139599I0J-249999D01*
G01*
X109615200Y-182789601D01*
G75*
G02*
X109365201Y-183039600I-249999J0D01*
G01*
X108465199Y-183039600D01*
G75*
G02*
X108215200Y-182789601I0J249999D01*
G01*
X108215200Y-182139599D01*
G75*
G02*
X108465199Y-181889600I249999J0D01*
G01*
G37*
G04 #@! TD.AperFunction*
G04 #@! TA.AperFunction,SMDPad,CuDef*
G36*
G01*
X107384001Y-180855200D02*
X106483999Y-180855200D01*
G75*
G02*
X106234000Y-180605201I0J249999D01*
G01*
X106234000Y-179955199D01*
G75*
G02*
X106483999Y-179705200I249999J0D01*
G01*
X107384001Y-179705200D01*
G75*
G02*
X107634000Y-179955199I0J-249999D01*
G01*
X107634000Y-180605201D01*
G75*
G02*
X107384001Y-180855200I-249999J0D01*
G01*
G37*
G04 #@! TD.AperFunction*
G04 #@! TA.AperFunction,SMDPad,CuDef*
G36*
G01*
X107384001Y-182905200D02*
X106483999Y-182905200D01*
G75*
G02*
X106234000Y-182655201I0J249999D01*
G01*
X106234000Y-182005199D01*
G75*
G02*
X106483999Y-181755200I249999J0D01*
G01*
X107384001Y-181755200D01*
G75*
G02*
X107634000Y-182005199I0J-249999D01*
G01*
X107634000Y-182655201D01*
G75*
G02*
X107384001Y-182905200I-249999J0D01*
G01*
G37*
G04 #@! TD.AperFunction*
G04 #@! TA.AperFunction,SMDPad,CuDef*
G36*
G01*
X110127200Y-192016801D02*
X110127200Y-191116799D01*
G75*
G02*
X110377199Y-190866800I249999J0D01*
G01*
X111027201Y-190866800D01*
G75*
G02*
X111277200Y-191116799I0J-249999D01*
G01*
X111277200Y-192016801D01*
G75*
G02*
X111027201Y-192266800I-249999J0D01*
G01*
X110377199Y-192266800D01*
G75*
G02*
X110127200Y-192016801I0J249999D01*
G01*
G37*
G04 #@! TD.AperFunction*
G04 #@! TA.AperFunction,SMDPad,CuDef*
G36*
G01*
X108077200Y-192016801D02*
X108077200Y-191116799D01*
G75*
G02*
X108327199Y-190866800I249999J0D01*
G01*
X108977201Y-190866800D01*
G75*
G02*
X109227200Y-191116799I0J-249999D01*
G01*
X109227200Y-192016801D01*
G75*
G02*
X108977201Y-192266800I-249999J0D01*
G01*
X108327199Y-192266800D01*
G75*
G02*
X108077200Y-192016801I0J249999D01*
G01*
G37*
G04 #@! TD.AperFunction*
G04 #@! TA.AperFunction,SMDPad,CuDef*
G36*
G01*
X106179199Y-191102400D02*
X107079201Y-191102400D01*
G75*
G02*
X107329200Y-191352399I0J-249999D01*
G01*
X107329200Y-192002401D01*
G75*
G02*
X107079201Y-192252400I-249999J0D01*
G01*
X106179199Y-192252400D01*
G75*
G02*
X105929200Y-192002401I0J249999D01*
G01*
X105929200Y-191352399D01*
G75*
G02*
X106179199Y-191102400I249999J0D01*
G01*
G37*
G04 #@! TD.AperFunction*
G04 #@! TA.AperFunction,SMDPad,CuDef*
G36*
G01*
X106179199Y-189052400D02*
X107079201Y-189052400D01*
G75*
G02*
X107329200Y-189302399I0J-249999D01*
G01*
X107329200Y-189952401D01*
G75*
G02*
X107079201Y-190202400I-249999J0D01*
G01*
X106179199Y-190202400D01*
G75*
G02*
X105929200Y-189952401I0J249999D01*
G01*
X105929200Y-189302399D01*
G75*
G02*
X106179199Y-189052400I249999J0D01*
G01*
G37*
G04 #@! TD.AperFunction*
G04 #@! TA.AperFunction,SMDPad,CuDef*
G36*
G01*
X96614401Y-190253200D02*
X95714399Y-190253200D01*
G75*
G02*
X95464400Y-190003201I0J249999D01*
G01*
X95464400Y-189353199D01*
G75*
G02*
X95714399Y-189103200I249999J0D01*
G01*
X96614401Y-189103200D01*
G75*
G02*
X96864400Y-189353199I0J-249999D01*
G01*
X96864400Y-190003201D01*
G75*
G02*
X96614401Y-190253200I-249999J0D01*
G01*
G37*
G04 #@! TD.AperFunction*
G04 #@! TA.AperFunction,SMDPad,CuDef*
G36*
G01*
X96614401Y-192303200D02*
X95714399Y-192303200D01*
G75*
G02*
X95464400Y-192053201I0J249999D01*
G01*
X95464400Y-191403199D01*
G75*
G02*
X95714399Y-191153200I249999J0D01*
G01*
X96614401Y-191153200D01*
G75*
G02*
X96864400Y-191403199I0J-249999D01*
G01*
X96864400Y-192053201D01*
G75*
G02*
X96614401Y-192303200I-249999J0D01*
G01*
G37*
G04 #@! TD.AperFunction*
G04 #@! TA.AperFunction,SMDPad,CuDef*
G36*
G01*
X98849601Y-190253200D02*
X97949599Y-190253200D01*
G75*
G02*
X97699600Y-190003201I0J249999D01*
G01*
X97699600Y-189353199D01*
G75*
G02*
X97949599Y-189103200I249999J0D01*
G01*
X98849601Y-189103200D01*
G75*
G02*
X99099600Y-189353199I0J-249999D01*
G01*
X99099600Y-190003201D01*
G75*
G02*
X98849601Y-190253200I-249999J0D01*
G01*
G37*
G04 #@! TD.AperFunction*
G04 #@! TA.AperFunction,SMDPad,CuDef*
G36*
G01*
X98849601Y-192303200D02*
X97949599Y-192303200D01*
G75*
G02*
X97699600Y-192053201I0J249999D01*
G01*
X97699600Y-191403199D01*
G75*
G02*
X97949599Y-191153200I249999J0D01*
G01*
X98849601Y-191153200D01*
G75*
G02*
X99099600Y-191403199I0J-249999D01*
G01*
X99099600Y-192053201D01*
G75*
G02*
X98849601Y-192303200I-249999J0D01*
G01*
G37*
G04 #@! TD.AperFunction*
G04 #@! TA.AperFunction,SMDPad,CuDef*
G36*
G01*
X96462000Y-187089201D02*
X96462000Y-186189199D01*
G75*
G02*
X96711999Y-185939200I249999J0D01*
G01*
X97362001Y-185939200D01*
G75*
G02*
X97612000Y-186189199I0J-249999D01*
G01*
X97612000Y-187089201D01*
G75*
G02*
X97362001Y-187339200I-249999J0D01*
G01*
X96711999Y-187339200D01*
G75*
G02*
X96462000Y-187089201I0J249999D01*
G01*
G37*
G04 #@! TD.AperFunction*
G04 #@! TA.AperFunction,SMDPad,CuDef*
G36*
G01*
X94412000Y-187089201D02*
X94412000Y-186189199D01*
G75*
G02*
X94661999Y-185939200I249999J0D01*
G01*
X95312001Y-185939200D01*
G75*
G02*
X95562000Y-186189199I0J-249999D01*
G01*
X95562000Y-187089201D01*
G75*
G02*
X95312001Y-187339200I-249999J0D01*
G01*
X94661999Y-187339200D01*
G75*
G02*
X94412000Y-187089201I0J249999D01*
G01*
G37*
G04 #@! TD.AperFunction*
G04 #@! TA.AperFunction,SMDPad,CuDef*
G36*
G01*
X95612800Y-179788399D02*
X95612800Y-180688401D01*
G75*
G02*
X95362801Y-180938400I-249999J0D01*
G01*
X94712799Y-180938400D01*
G75*
G02*
X94462800Y-180688401I0J249999D01*
G01*
X94462800Y-179788399D01*
G75*
G02*
X94712799Y-179538400I249999J0D01*
G01*
X95362801Y-179538400D01*
G75*
G02*
X95612800Y-179788399I0J-249999D01*
G01*
G37*
G04 #@! TD.AperFunction*
G04 #@! TA.AperFunction,SMDPad,CuDef*
G36*
G01*
X97662800Y-179788399D02*
X97662800Y-180688401D01*
G75*
G02*
X97412801Y-180938400I-249999J0D01*
G01*
X96762799Y-180938400D01*
G75*
G02*
X96512800Y-180688401I0J249999D01*
G01*
X96512800Y-179788399D01*
G75*
G02*
X96762799Y-179538400I249999J0D01*
G01*
X97412801Y-179538400D01*
G75*
G02*
X97662800Y-179788399I0J-249999D01*
G01*
G37*
G04 #@! TD.AperFunction*
D11*
X119532400Y-174904400D03*
X119532400Y-177444400D03*
X116992400Y-174904400D03*
X116992400Y-177444400D03*
X114452400Y-174904400D03*
X114452400Y-177444400D03*
X111912400Y-174904400D03*
X111912400Y-177444400D03*
X109372400Y-174904400D03*
D12*
X109372400Y-177444400D03*
D13*
X119380000Y-185267600D03*
X119380000Y-190347600D03*
X114300000Y-190347600D03*
X114300000Y-185267600D03*
X116840000Y-187807600D03*
D14*
X126884460Y-125658080D03*
X122284460Y-125658080D03*
X124584460Y-125658080D03*
D15*
X124584460Y-131958080D03*
D14*
X117717600Y-135025600D03*
X113117600Y-135025600D03*
X115417600Y-135025600D03*
D15*
X115417600Y-141325600D03*
D16*
X116337000Y-161943860D03*
X116337000Y-161443860D03*
X116337000Y-160943860D03*
X116337000Y-162443860D03*
D17*
X114312000Y-162968860D03*
X115312000Y-162968860D03*
X114812000Y-162968860D03*
X115812000Y-162968860D03*
D16*
X113787000Y-162443860D03*
X113787000Y-161943860D03*
X113787000Y-161443860D03*
X113787000Y-160943860D03*
D17*
X115312000Y-160418860D03*
X114812000Y-160418860D03*
X114312000Y-160418860D03*
X115812000Y-160418860D03*
D18*
X103088440Y-182991760D03*
G04 #@! TA.AperFunction,SMDPad,CuDef*
G36*
G01*
X104675940Y-181866760D02*
X105375940Y-181866760D01*
G75*
G02*
X105438440Y-181929260I0J-62500D01*
G01*
X105438440Y-182054260D01*
G75*
G02*
X105375940Y-182116760I-62500J0D01*
G01*
X104675940Y-182116760D01*
G75*
G02*
X104613440Y-182054260I0J62500D01*
G01*
X104613440Y-181929260D01*
G75*
G02*
X104675940Y-181866760I62500J0D01*
G01*
G37*
G04 #@! TD.AperFunction*
G04 #@! TA.AperFunction,SMDPad,CuDef*
G36*
G01*
X104675940Y-182366760D02*
X105375940Y-182366760D01*
G75*
G02*
X105438440Y-182429260I0J-62500D01*
G01*
X105438440Y-182554260D01*
G75*
G02*
X105375940Y-182616760I-62500J0D01*
G01*
X104675940Y-182616760D01*
G75*
G02*
X104613440Y-182554260I0J62500D01*
G01*
X104613440Y-182429260D01*
G75*
G02*
X104675940Y-182366760I62500J0D01*
G01*
G37*
G04 #@! TD.AperFunction*
G04 #@! TA.AperFunction,SMDPad,CuDef*
G36*
G01*
X104675940Y-182866760D02*
X105375940Y-182866760D01*
G75*
G02*
X105438440Y-182929260I0J-62500D01*
G01*
X105438440Y-183054260D01*
G75*
G02*
X105375940Y-183116760I-62500J0D01*
G01*
X104675940Y-183116760D01*
G75*
G02*
X104613440Y-183054260I0J62500D01*
G01*
X104613440Y-182929260D01*
G75*
G02*
X104675940Y-182866760I62500J0D01*
G01*
G37*
G04 #@! TD.AperFunction*
G04 #@! TA.AperFunction,SMDPad,CuDef*
G36*
G01*
X104675940Y-183366760D02*
X105375940Y-183366760D01*
G75*
G02*
X105438440Y-183429260I0J-62500D01*
G01*
X105438440Y-183554260D01*
G75*
G02*
X105375940Y-183616760I-62500J0D01*
G01*
X104675940Y-183616760D01*
G75*
G02*
X104613440Y-183554260I0J62500D01*
G01*
X104613440Y-183429260D01*
G75*
G02*
X104675940Y-183366760I62500J0D01*
G01*
G37*
G04 #@! TD.AperFunction*
G04 #@! TA.AperFunction,SMDPad,CuDef*
G36*
G01*
X104675940Y-183866760D02*
X105375940Y-183866760D01*
G75*
G02*
X105438440Y-183929260I0J-62500D01*
G01*
X105438440Y-184054260D01*
G75*
G02*
X105375940Y-184116760I-62500J0D01*
G01*
X104675940Y-184116760D01*
G75*
G02*
X104613440Y-184054260I0J62500D01*
G01*
X104613440Y-183929260D01*
G75*
G02*
X104675940Y-183866760I62500J0D01*
G01*
G37*
G04 #@! TD.AperFunction*
G04 #@! TA.AperFunction,SMDPad,CuDef*
G36*
G01*
X104025940Y-184516760D02*
X104150940Y-184516760D01*
G75*
G02*
X104213440Y-184579260I0J-62500D01*
G01*
X104213440Y-185279260D01*
G75*
G02*
X104150940Y-185341760I-62500J0D01*
G01*
X104025940Y-185341760D01*
G75*
G02*
X103963440Y-185279260I0J62500D01*
G01*
X103963440Y-184579260D01*
G75*
G02*
X104025940Y-184516760I62500J0D01*
G01*
G37*
G04 #@! TD.AperFunction*
G04 #@! TA.AperFunction,SMDPad,CuDef*
G36*
G01*
X103525940Y-184516760D02*
X103650940Y-184516760D01*
G75*
G02*
X103713440Y-184579260I0J-62500D01*
G01*
X103713440Y-185279260D01*
G75*
G02*
X103650940Y-185341760I-62500J0D01*
G01*
X103525940Y-185341760D01*
G75*
G02*
X103463440Y-185279260I0J62500D01*
G01*
X103463440Y-184579260D01*
G75*
G02*
X103525940Y-184516760I62500J0D01*
G01*
G37*
G04 #@! TD.AperFunction*
G04 #@! TA.AperFunction,SMDPad,CuDef*
G36*
G01*
X103025940Y-184516760D02*
X103150940Y-184516760D01*
G75*
G02*
X103213440Y-184579260I0J-62500D01*
G01*
X103213440Y-185279260D01*
G75*
G02*
X103150940Y-185341760I-62500J0D01*
G01*
X103025940Y-185341760D01*
G75*
G02*
X102963440Y-185279260I0J62500D01*
G01*
X102963440Y-184579260D01*
G75*
G02*
X103025940Y-184516760I62500J0D01*
G01*
G37*
G04 #@! TD.AperFunction*
G04 #@! TA.AperFunction,SMDPad,CuDef*
G36*
G01*
X102525940Y-184516760D02*
X102650940Y-184516760D01*
G75*
G02*
X102713440Y-184579260I0J-62500D01*
G01*
X102713440Y-185279260D01*
G75*
G02*
X102650940Y-185341760I-62500J0D01*
G01*
X102525940Y-185341760D01*
G75*
G02*
X102463440Y-185279260I0J62500D01*
G01*
X102463440Y-184579260D01*
G75*
G02*
X102525940Y-184516760I62500J0D01*
G01*
G37*
G04 #@! TD.AperFunction*
G04 #@! TA.AperFunction,SMDPad,CuDef*
G36*
G01*
X102025940Y-184516760D02*
X102150940Y-184516760D01*
G75*
G02*
X102213440Y-184579260I0J-62500D01*
G01*
X102213440Y-185279260D01*
G75*
G02*
X102150940Y-185341760I-62500J0D01*
G01*
X102025940Y-185341760D01*
G75*
G02*
X101963440Y-185279260I0J62500D01*
G01*
X101963440Y-184579260D01*
G75*
G02*
X102025940Y-184516760I62500J0D01*
G01*
G37*
G04 #@! TD.AperFunction*
G04 #@! TA.AperFunction,SMDPad,CuDef*
G36*
G01*
X100800940Y-183866760D02*
X101500940Y-183866760D01*
G75*
G02*
X101563440Y-183929260I0J-62500D01*
G01*
X101563440Y-184054260D01*
G75*
G02*
X101500940Y-184116760I-62500J0D01*
G01*
X100800940Y-184116760D01*
G75*
G02*
X100738440Y-184054260I0J62500D01*
G01*
X100738440Y-183929260D01*
G75*
G02*
X100800940Y-183866760I62500J0D01*
G01*
G37*
G04 #@! TD.AperFunction*
G04 #@! TA.AperFunction,SMDPad,CuDef*
G36*
G01*
X100800940Y-183366760D02*
X101500940Y-183366760D01*
G75*
G02*
X101563440Y-183429260I0J-62500D01*
G01*
X101563440Y-183554260D01*
G75*
G02*
X101500940Y-183616760I-62500J0D01*
G01*
X100800940Y-183616760D01*
G75*
G02*
X100738440Y-183554260I0J62500D01*
G01*
X100738440Y-183429260D01*
G75*
G02*
X100800940Y-183366760I62500J0D01*
G01*
G37*
G04 #@! TD.AperFunction*
G04 #@! TA.AperFunction,SMDPad,CuDef*
G36*
G01*
X100800940Y-182866760D02*
X101500940Y-182866760D01*
G75*
G02*
X101563440Y-182929260I0J-62500D01*
G01*
X101563440Y-183054260D01*
G75*
G02*
X101500940Y-183116760I-62500J0D01*
G01*
X100800940Y-183116760D01*
G75*
G02*
X100738440Y-183054260I0J62500D01*
G01*
X100738440Y-182929260D01*
G75*
G02*
X100800940Y-182866760I62500J0D01*
G01*
G37*
G04 #@! TD.AperFunction*
G04 #@! TA.AperFunction,SMDPad,CuDef*
G36*
G01*
X100800940Y-182366760D02*
X101500940Y-182366760D01*
G75*
G02*
X101563440Y-182429260I0J-62500D01*
G01*
X101563440Y-182554260D01*
G75*
G02*
X101500940Y-182616760I-62500J0D01*
G01*
X100800940Y-182616760D01*
G75*
G02*
X100738440Y-182554260I0J62500D01*
G01*
X100738440Y-182429260D01*
G75*
G02*
X100800940Y-182366760I62500J0D01*
G01*
G37*
G04 #@! TD.AperFunction*
G04 #@! TA.AperFunction,SMDPad,CuDef*
G36*
G01*
X100800940Y-181866760D02*
X101500940Y-181866760D01*
G75*
G02*
X101563440Y-181929260I0J-62500D01*
G01*
X101563440Y-182054260D01*
G75*
G02*
X101500940Y-182116760I-62500J0D01*
G01*
X100800940Y-182116760D01*
G75*
G02*
X100738440Y-182054260I0J62500D01*
G01*
X100738440Y-181929260D01*
G75*
G02*
X100800940Y-181866760I62500J0D01*
G01*
G37*
G04 #@! TD.AperFunction*
G04 #@! TA.AperFunction,SMDPad,CuDef*
G36*
G01*
X102025940Y-180641760D02*
X102150940Y-180641760D01*
G75*
G02*
X102213440Y-180704260I0J-62500D01*
G01*
X102213440Y-181404260D01*
G75*
G02*
X102150940Y-181466760I-62500J0D01*
G01*
X102025940Y-181466760D01*
G75*
G02*
X101963440Y-181404260I0J62500D01*
G01*
X101963440Y-180704260D01*
G75*
G02*
X102025940Y-180641760I62500J0D01*
G01*
G37*
G04 #@! TD.AperFunction*
G04 #@! TA.AperFunction,SMDPad,CuDef*
G36*
G01*
X102525940Y-180641760D02*
X102650940Y-180641760D01*
G75*
G02*
X102713440Y-180704260I0J-62500D01*
G01*
X102713440Y-181404260D01*
G75*
G02*
X102650940Y-181466760I-62500J0D01*
G01*
X102525940Y-181466760D01*
G75*
G02*
X102463440Y-181404260I0J62500D01*
G01*
X102463440Y-180704260D01*
G75*
G02*
X102525940Y-180641760I62500J0D01*
G01*
G37*
G04 #@! TD.AperFunction*
G04 #@! TA.AperFunction,SMDPad,CuDef*
G36*
G01*
X103025940Y-180641760D02*
X103150940Y-180641760D01*
G75*
G02*
X103213440Y-180704260I0J-62500D01*
G01*
X103213440Y-181404260D01*
G75*
G02*
X103150940Y-181466760I-62500J0D01*
G01*
X103025940Y-181466760D01*
G75*
G02*
X102963440Y-181404260I0J62500D01*
G01*
X102963440Y-180704260D01*
G75*
G02*
X103025940Y-180641760I62500J0D01*
G01*
G37*
G04 #@! TD.AperFunction*
G04 #@! TA.AperFunction,SMDPad,CuDef*
G36*
G01*
X103525940Y-180641760D02*
X103650940Y-180641760D01*
G75*
G02*
X103713440Y-180704260I0J-62500D01*
G01*
X103713440Y-181404260D01*
G75*
G02*
X103650940Y-181466760I-62500J0D01*
G01*
X103525940Y-181466760D01*
G75*
G02*
X103463440Y-181404260I0J62500D01*
G01*
X103463440Y-180704260D01*
G75*
G02*
X103525940Y-180641760I62500J0D01*
G01*
G37*
G04 #@! TD.AperFunction*
G04 #@! TA.AperFunction,SMDPad,CuDef*
G36*
G01*
X104025940Y-180641760D02*
X104150940Y-180641760D01*
G75*
G02*
X104213440Y-180704260I0J-62500D01*
G01*
X104213440Y-181404260D01*
G75*
G02*
X104150940Y-181466760I-62500J0D01*
G01*
X104025940Y-181466760D01*
G75*
G02*
X103963440Y-181404260I0J62500D01*
G01*
X103963440Y-180704260D01*
G75*
G02*
X104025940Y-180641760I62500J0D01*
G01*
G37*
G04 #@! TD.AperFunction*
D19*
X115783000Y-154391460D03*
X115133000Y-155991460D03*
X114483000Y-155991460D03*
X113833000Y-155991460D03*
X115133000Y-154391460D03*
X114483000Y-154391460D03*
X113833000Y-154391460D03*
X115783000Y-155991460D03*
G04 #@! TA.AperFunction,SMDPad,CuDef*
D20*
G36*
X114574632Y-165982101D02*
G01*
X114588701Y-165986369D01*
X114601668Y-165993300D01*
X114613033Y-166002627D01*
X114622360Y-166013992D01*
X114629291Y-166026959D01*
X114633559Y-166041028D01*
X114635000Y-166055660D01*
X114635000Y-166530660D01*
X114633559Y-166545292D01*
X114629291Y-166559361D01*
X114622360Y-166572328D01*
X114613033Y-166583693D01*
X114601668Y-166593020D01*
X114588701Y-166599951D01*
X114574632Y-166604219D01*
X114560000Y-166605660D01*
X114516066Y-166605660D01*
X114501434Y-166604219D01*
X114487365Y-166599951D01*
X114474398Y-166593020D01*
X114463033Y-166583693D01*
X114256967Y-166377627D01*
X114247640Y-166366262D01*
X114240709Y-166353295D01*
X114236441Y-166339226D01*
X114235000Y-166324594D01*
X114235000Y-166055660D01*
X114236441Y-166041028D01*
X114240709Y-166026959D01*
X114247640Y-166013992D01*
X114256967Y-166002627D01*
X114268332Y-165993300D01*
X114281299Y-165986369D01*
X114295368Y-165982101D01*
X114310000Y-165980660D01*
X114560000Y-165980660D01*
X114574632Y-165982101D01*
G37*
G04 #@! TD.AperFunction*
G04 #@! TA.AperFunction,SMDPad,CuDef*
G36*
G01*
X114735000Y-166505660D02*
X114735000Y-166080660D01*
G75*
G02*
X114835000Y-165980660I100000J0D01*
G01*
X115035000Y-165980660D01*
G75*
G02*
X115135000Y-166080660I0J-100000D01*
G01*
X115135000Y-166505660D01*
G75*
G02*
X115035000Y-166605660I-100000J0D01*
G01*
X114835000Y-166605660D01*
G75*
G02*
X114735000Y-166505660I0J100000D01*
G01*
G37*
G04 #@! TD.AperFunction*
G04 #@! TA.AperFunction,SMDPad,CuDef*
G36*
X115574632Y-165982101D02*
G01*
X115588701Y-165986369D01*
X115601668Y-165993300D01*
X115613033Y-166002627D01*
X115622360Y-166013992D01*
X115629291Y-166026959D01*
X115633559Y-166041028D01*
X115635000Y-166055660D01*
X115635000Y-166324594D01*
X115633559Y-166339226D01*
X115629291Y-166353295D01*
X115622360Y-166366262D01*
X115613033Y-166377627D01*
X115406967Y-166583693D01*
X115395602Y-166593020D01*
X115382635Y-166599951D01*
X115368566Y-166604219D01*
X115353934Y-166605660D01*
X115310000Y-166605660D01*
X115295368Y-166604219D01*
X115281299Y-166599951D01*
X115268332Y-166593020D01*
X115256967Y-166583693D01*
X115247640Y-166572328D01*
X115240709Y-166559361D01*
X115236441Y-166545292D01*
X115235000Y-166530660D01*
X115235000Y-166055660D01*
X115236441Y-166041028D01*
X115240709Y-166026959D01*
X115247640Y-166013992D01*
X115256967Y-166002627D01*
X115268332Y-165993300D01*
X115281299Y-165986369D01*
X115295368Y-165982101D01*
X115310000Y-165980660D01*
X115560000Y-165980660D01*
X115574632Y-165982101D01*
G37*
G04 #@! TD.AperFunction*
G04 #@! TA.AperFunction,SMDPad,CuDef*
G36*
X116349632Y-166257101D02*
G01*
X116363701Y-166261369D01*
X116376668Y-166268300D01*
X116388033Y-166277627D01*
X116397360Y-166288992D01*
X116404291Y-166301959D01*
X116408559Y-166316028D01*
X116410000Y-166330660D01*
X116410000Y-166580660D01*
X116408559Y-166595292D01*
X116404291Y-166609361D01*
X116397360Y-166622328D01*
X116388033Y-166633693D01*
X116376668Y-166643020D01*
X116363701Y-166649951D01*
X116349632Y-166654219D01*
X116335000Y-166655660D01*
X115860000Y-166655660D01*
X115845368Y-166654219D01*
X115831299Y-166649951D01*
X115818332Y-166643020D01*
X115806967Y-166633693D01*
X115797640Y-166622328D01*
X115790709Y-166609361D01*
X115786441Y-166595292D01*
X115785000Y-166580660D01*
X115785000Y-166536726D01*
X115786441Y-166522094D01*
X115790709Y-166508025D01*
X115797640Y-166495058D01*
X115806967Y-166483693D01*
X116013033Y-166277627D01*
X116024398Y-166268300D01*
X116037365Y-166261369D01*
X116051434Y-166257101D01*
X116066066Y-166255660D01*
X116335000Y-166255660D01*
X116349632Y-166257101D01*
G37*
G04 #@! TD.AperFunction*
G04 #@! TA.AperFunction,SMDPad,CuDef*
G36*
G01*
X115785000Y-167055660D02*
X115785000Y-166855660D01*
G75*
G02*
X115885000Y-166755660I100000J0D01*
G01*
X116310000Y-166755660D01*
G75*
G02*
X116410000Y-166855660I0J-100000D01*
G01*
X116410000Y-167055660D01*
G75*
G02*
X116310000Y-167155660I-100000J0D01*
G01*
X115885000Y-167155660D01*
G75*
G02*
X115785000Y-167055660I0J100000D01*
G01*
G37*
G04 #@! TD.AperFunction*
G04 #@! TA.AperFunction,SMDPad,CuDef*
G36*
G01*
X115785000Y-167555660D02*
X115785000Y-167355660D01*
G75*
G02*
X115885000Y-167255660I100000J0D01*
G01*
X116310000Y-167255660D01*
G75*
G02*
X116410000Y-167355660I0J-100000D01*
G01*
X116410000Y-167555660D01*
G75*
G02*
X116310000Y-167655660I-100000J0D01*
G01*
X115885000Y-167655660D01*
G75*
G02*
X115785000Y-167555660I0J100000D01*
G01*
G37*
G04 #@! TD.AperFunction*
G04 #@! TA.AperFunction,SMDPad,CuDef*
G36*
X116349632Y-167757101D02*
G01*
X116363701Y-167761369D01*
X116376668Y-167768300D01*
X116388033Y-167777627D01*
X116397360Y-167788992D01*
X116404291Y-167801959D01*
X116408559Y-167816028D01*
X116410000Y-167830660D01*
X116410000Y-168080660D01*
X116408559Y-168095292D01*
X116404291Y-168109361D01*
X116397360Y-168122328D01*
X116388033Y-168133693D01*
X116376668Y-168143020D01*
X116363701Y-168149951D01*
X116349632Y-168154219D01*
X116335000Y-168155660D01*
X116066066Y-168155660D01*
X116051434Y-168154219D01*
X116037365Y-168149951D01*
X116024398Y-168143020D01*
X116013033Y-168133693D01*
X115806967Y-167927627D01*
X115797640Y-167916262D01*
X115790709Y-167903295D01*
X115786441Y-167889226D01*
X115785000Y-167874594D01*
X115785000Y-167830660D01*
X115786441Y-167816028D01*
X115790709Y-167801959D01*
X115797640Y-167788992D01*
X115806967Y-167777627D01*
X115818332Y-167768300D01*
X115831299Y-167761369D01*
X115845368Y-167757101D01*
X115860000Y-167755660D01*
X116335000Y-167755660D01*
X116349632Y-167757101D01*
G37*
G04 #@! TD.AperFunction*
G04 #@! TA.AperFunction,SMDPad,CuDef*
G36*
X115368566Y-167807101D02*
G01*
X115382635Y-167811369D01*
X115395602Y-167818300D01*
X115406967Y-167827627D01*
X115613033Y-168033693D01*
X115622360Y-168045058D01*
X115629291Y-168058025D01*
X115633559Y-168072094D01*
X115635000Y-168086726D01*
X115635000Y-168355660D01*
X115633559Y-168370292D01*
X115629291Y-168384361D01*
X115622360Y-168397328D01*
X115613033Y-168408693D01*
X115601668Y-168418020D01*
X115588701Y-168424951D01*
X115574632Y-168429219D01*
X115560000Y-168430660D01*
X115310000Y-168430660D01*
X115295368Y-168429219D01*
X115281299Y-168424951D01*
X115268332Y-168418020D01*
X115256967Y-168408693D01*
X115247640Y-168397328D01*
X115240709Y-168384361D01*
X115236441Y-168370292D01*
X115235000Y-168355660D01*
X115235000Y-167880660D01*
X115236441Y-167866028D01*
X115240709Y-167851959D01*
X115247640Y-167838992D01*
X115256967Y-167827627D01*
X115268332Y-167818300D01*
X115281299Y-167811369D01*
X115295368Y-167807101D01*
X115310000Y-167805660D01*
X115353934Y-167805660D01*
X115368566Y-167807101D01*
G37*
G04 #@! TD.AperFunction*
G04 #@! TA.AperFunction,SMDPad,CuDef*
G36*
G01*
X114735000Y-168330660D02*
X114735000Y-167905660D01*
G75*
G02*
X114835000Y-167805660I100000J0D01*
G01*
X115035000Y-167805660D01*
G75*
G02*
X115135000Y-167905660I0J-100000D01*
G01*
X115135000Y-168330660D01*
G75*
G02*
X115035000Y-168430660I-100000J0D01*
G01*
X114835000Y-168430660D01*
G75*
G02*
X114735000Y-168330660I0J100000D01*
G01*
G37*
G04 #@! TD.AperFunction*
G04 #@! TA.AperFunction,SMDPad,CuDef*
G36*
X114574632Y-167807101D02*
G01*
X114588701Y-167811369D01*
X114601668Y-167818300D01*
X114613033Y-167827627D01*
X114622360Y-167838992D01*
X114629291Y-167851959D01*
X114633559Y-167866028D01*
X114635000Y-167880660D01*
X114635000Y-168355660D01*
X114633559Y-168370292D01*
X114629291Y-168384361D01*
X114622360Y-168397328D01*
X114613033Y-168408693D01*
X114601668Y-168418020D01*
X114588701Y-168424951D01*
X114574632Y-168429219D01*
X114560000Y-168430660D01*
X114310000Y-168430660D01*
X114295368Y-168429219D01*
X114281299Y-168424951D01*
X114268332Y-168418020D01*
X114256967Y-168408693D01*
X114247640Y-168397328D01*
X114240709Y-168384361D01*
X114236441Y-168370292D01*
X114235000Y-168355660D01*
X114235000Y-168086726D01*
X114236441Y-168072094D01*
X114240709Y-168058025D01*
X114247640Y-168045058D01*
X114256967Y-168033693D01*
X114463033Y-167827627D01*
X114474398Y-167818300D01*
X114487365Y-167811369D01*
X114501434Y-167807101D01*
X114516066Y-167805660D01*
X114560000Y-167805660D01*
X114574632Y-167807101D01*
G37*
G04 #@! TD.AperFunction*
G04 #@! TA.AperFunction,SMDPad,CuDef*
G36*
X114024632Y-167757101D02*
G01*
X114038701Y-167761369D01*
X114051668Y-167768300D01*
X114063033Y-167777627D01*
X114072360Y-167788992D01*
X114079291Y-167801959D01*
X114083559Y-167816028D01*
X114085000Y-167830660D01*
X114085000Y-167874594D01*
X114083559Y-167889226D01*
X114079291Y-167903295D01*
X114072360Y-167916262D01*
X114063033Y-167927627D01*
X113856967Y-168133693D01*
X113845602Y-168143020D01*
X113832635Y-168149951D01*
X113818566Y-168154219D01*
X113803934Y-168155660D01*
X113535000Y-168155660D01*
X113520368Y-168154219D01*
X113506299Y-168149951D01*
X113493332Y-168143020D01*
X113481967Y-168133693D01*
X113472640Y-168122328D01*
X113465709Y-168109361D01*
X113461441Y-168095292D01*
X113460000Y-168080660D01*
X113460000Y-167830660D01*
X113461441Y-167816028D01*
X113465709Y-167801959D01*
X113472640Y-167788992D01*
X113481967Y-167777627D01*
X113493332Y-167768300D01*
X113506299Y-167761369D01*
X113520368Y-167757101D01*
X113535000Y-167755660D01*
X114010000Y-167755660D01*
X114024632Y-167757101D01*
G37*
G04 #@! TD.AperFunction*
G04 #@! TA.AperFunction,SMDPad,CuDef*
G36*
G01*
X113460000Y-167555660D02*
X113460000Y-167355660D01*
G75*
G02*
X113560000Y-167255660I100000J0D01*
G01*
X113985000Y-167255660D01*
G75*
G02*
X114085000Y-167355660I0J-100000D01*
G01*
X114085000Y-167555660D01*
G75*
G02*
X113985000Y-167655660I-100000J0D01*
G01*
X113560000Y-167655660D01*
G75*
G02*
X113460000Y-167555660I0J100000D01*
G01*
G37*
G04 #@! TD.AperFunction*
G04 #@! TA.AperFunction,SMDPad,CuDef*
G36*
G01*
X113460000Y-167055660D02*
X113460000Y-166855660D01*
G75*
G02*
X113560000Y-166755660I100000J0D01*
G01*
X113985000Y-166755660D01*
G75*
G02*
X114085000Y-166855660I0J-100000D01*
G01*
X114085000Y-167055660D01*
G75*
G02*
X113985000Y-167155660I-100000J0D01*
G01*
X113560000Y-167155660D01*
G75*
G02*
X113460000Y-167055660I0J100000D01*
G01*
G37*
G04 #@! TD.AperFunction*
G04 #@! TA.AperFunction,SMDPad,CuDef*
G36*
X113818566Y-166257101D02*
G01*
X113832635Y-166261369D01*
X113845602Y-166268300D01*
X113856967Y-166277627D01*
X114063033Y-166483693D01*
X114072360Y-166495058D01*
X114079291Y-166508025D01*
X114083559Y-166522094D01*
X114085000Y-166536726D01*
X114085000Y-166580660D01*
X114083559Y-166595292D01*
X114079291Y-166609361D01*
X114072360Y-166622328D01*
X114063033Y-166633693D01*
X114051668Y-166643020D01*
X114038701Y-166649951D01*
X114024632Y-166654219D01*
X114010000Y-166655660D01*
X113535000Y-166655660D01*
X113520368Y-166654219D01*
X113506299Y-166649951D01*
X113493332Y-166643020D01*
X113481967Y-166633693D01*
X113472640Y-166622328D01*
X113465709Y-166609361D01*
X113461441Y-166595292D01*
X113460000Y-166580660D01*
X113460000Y-166330660D01*
X113461441Y-166316028D01*
X113465709Y-166301959D01*
X113472640Y-166288992D01*
X113481967Y-166277627D01*
X113493332Y-166268300D01*
X113506299Y-166261369D01*
X113520368Y-166257101D01*
X113535000Y-166255660D01*
X113803934Y-166255660D01*
X113818566Y-166257101D01*
G37*
G04 #@! TD.AperFunction*
D21*
X93666200Y-131657600D03*
X89366200Y-131657600D03*
X93666200Y-129657600D03*
X89366200Y-129657600D03*
D22*
X94466200Y-130657600D03*
X88566200Y-130657600D03*
D23*
X120384400Y-148437600D03*
X112584400Y-148437600D03*
D21*
X93818600Y-138820400D03*
X89518600Y-138820400D03*
X93818600Y-136820400D03*
X89518600Y-136820400D03*
D22*
X94618600Y-137820400D03*
X88718600Y-137820400D03*
D11*
X88392000Y-190195200D03*
X88392000Y-187655200D03*
D12*
X88392000Y-185115200D03*
D11*
X83769200Y-190195200D03*
X83769200Y-187655200D03*
D12*
X83769200Y-185115200D03*
D11*
X88341200Y-179730400D03*
X88341200Y-177190400D03*
D12*
X88341200Y-174650400D03*
D11*
X83769200Y-179730400D03*
X83769200Y-177190400D03*
D12*
X83769200Y-174650400D03*
D11*
X88239600Y-169316400D03*
X88239600Y-166776400D03*
D12*
X88239600Y-164236400D03*
D11*
X83820000Y-169367200D03*
X83820000Y-166827200D03*
D12*
X83820000Y-164287200D03*
D11*
X83413600Y-139750800D03*
X83413600Y-137210800D03*
D12*
X83413600Y-134670800D03*
D11*
X83413600Y-129540000D03*
X83413600Y-127000000D03*
D12*
X83413600Y-124460000D03*
D11*
X90322400Y-123901200D03*
X92862400Y-123901200D03*
D12*
X95402400Y-123901200D03*
D11*
X101447600Y-123901200D03*
X103987600Y-123901200D03*
D12*
X106527600Y-123901200D03*
G04 #@! TA.AperFunction,SMDPad,CuDef*
G36*
G01*
X85500400Y-145069400D02*
X83200400Y-145069400D01*
G75*
G02*
X82950400Y-144819400I0J250000D01*
G01*
X82950400Y-144319400D01*
G75*
G02*
X83200400Y-144069400I250000J0D01*
G01*
X85500400Y-144069400D01*
G75*
G02*
X85750400Y-144319400I0J-250000D01*
G01*
X85750400Y-144819400D01*
G75*
G02*
X85500400Y-145069400I-250000J0D01*
G01*
G37*
G04 #@! TD.AperFunction*
G04 #@! TA.AperFunction,SMDPad,CuDef*
G36*
G01*
X85500400Y-160019400D02*
X83200400Y-160019400D01*
G75*
G02*
X82950400Y-159769400I0J250000D01*
G01*
X82950400Y-159269400D01*
G75*
G02*
X83200400Y-159019400I250000J0D01*
G01*
X85500400Y-159019400D01*
G75*
G02*
X85750400Y-159269400I0J-250000D01*
G01*
X85750400Y-159769400D01*
G75*
G02*
X85500400Y-160019400I-250000J0D01*
G01*
G37*
G04 #@! TD.AperFunction*
G04 #@! TA.AperFunction,SMDPad,CuDef*
G36*
G01*
X88400400Y-146719400D02*
X87000400Y-146719400D01*
G75*
G02*
X86850400Y-146569400I0J150000D01*
G01*
X86850400Y-146269400D01*
G75*
G02*
X87000400Y-146119400I150000J0D01*
G01*
X88400400Y-146119400D01*
G75*
G02*
X88550400Y-146269400I0J-150000D01*
G01*
X88550400Y-146569400D01*
G75*
G02*
X88400400Y-146719400I-150000J0D01*
G01*
G37*
G04 #@! TD.AperFunction*
G04 #@! TA.AperFunction,SMDPad,CuDef*
G36*
G01*
X88400400Y-147969400D02*
X87000400Y-147969400D01*
G75*
G02*
X86850400Y-147819400I0J150000D01*
G01*
X86850400Y-147519400D01*
G75*
G02*
X87000400Y-147369400I150000J0D01*
G01*
X88400400Y-147369400D01*
G75*
G02*
X88550400Y-147519400I0J-150000D01*
G01*
X88550400Y-147819400D01*
G75*
G02*
X88400400Y-147969400I-150000J0D01*
G01*
G37*
G04 #@! TD.AperFunction*
G04 #@! TA.AperFunction,SMDPad,CuDef*
G36*
G01*
X88400400Y-149219400D02*
X87000400Y-149219400D01*
G75*
G02*
X86850400Y-149069400I0J150000D01*
G01*
X86850400Y-148769400D01*
G75*
G02*
X87000400Y-148619400I150000J0D01*
G01*
X88400400Y-148619400D01*
G75*
G02*
X88550400Y-148769400I0J-150000D01*
G01*
X88550400Y-149069400D01*
G75*
G02*
X88400400Y-149219400I-150000J0D01*
G01*
G37*
G04 #@! TD.AperFunction*
G04 #@! TA.AperFunction,SMDPad,CuDef*
G36*
G01*
X88400400Y-150469400D02*
X87000400Y-150469400D01*
G75*
G02*
X86850400Y-150319400I0J150000D01*
G01*
X86850400Y-150019400D01*
G75*
G02*
X87000400Y-149869400I150000J0D01*
G01*
X88400400Y-149869400D01*
G75*
G02*
X88550400Y-150019400I0J-150000D01*
G01*
X88550400Y-150319400D01*
G75*
G02*
X88400400Y-150469400I-150000J0D01*
G01*
G37*
G04 #@! TD.AperFunction*
G04 #@! TA.AperFunction,SMDPad,CuDef*
G36*
G01*
X88400400Y-151719400D02*
X87000400Y-151719400D01*
G75*
G02*
X86850400Y-151569400I0J150000D01*
G01*
X86850400Y-151269400D01*
G75*
G02*
X87000400Y-151119400I150000J0D01*
G01*
X88400400Y-151119400D01*
G75*
G02*
X88550400Y-151269400I0J-150000D01*
G01*
X88550400Y-151569400D01*
G75*
G02*
X88400400Y-151719400I-150000J0D01*
G01*
G37*
G04 #@! TD.AperFunction*
G04 #@! TA.AperFunction,SMDPad,CuDef*
G36*
G01*
X88400400Y-152969400D02*
X87000400Y-152969400D01*
G75*
G02*
X86850400Y-152819400I0J150000D01*
G01*
X86850400Y-152519400D01*
G75*
G02*
X87000400Y-152369400I150000J0D01*
G01*
X88400400Y-152369400D01*
G75*
G02*
X88550400Y-152519400I0J-150000D01*
G01*
X88550400Y-152819400D01*
G75*
G02*
X88400400Y-152969400I-150000J0D01*
G01*
G37*
G04 #@! TD.AperFunction*
G04 #@! TA.AperFunction,SMDPad,CuDef*
G36*
G01*
X88400400Y-154219400D02*
X87000400Y-154219400D01*
G75*
G02*
X86850400Y-154069400I0J150000D01*
G01*
X86850400Y-153769400D01*
G75*
G02*
X87000400Y-153619400I150000J0D01*
G01*
X88400400Y-153619400D01*
G75*
G02*
X88550400Y-153769400I0J-150000D01*
G01*
X88550400Y-154069400D01*
G75*
G02*
X88400400Y-154219400I-150000J0D01*
G01*
G37*
G04 #@! TD.AperFunction*
G04 #@! TA.AperFunction,SMDPad,CuDef*
G36*
G01*
X88400400Y-155469400D02*
X87000400Y-155469400D01*
G75*
G02*
X86850400Y-155319400I0J150000D01*
G01*
X86850400Y-155019400D01*
G75*
G02*
X87000400Y-154869400I150000J0D01*
G01*
X88400400Y-154869400D01*
G75*
G02*
X88550400Y-155019400I0J-150000D01*
G01*
X88550400Y-155319400D01*
G75*
G02*
X88400400Y-155469400I-150000J0D01*
G01*
G37*
G04 #@! TD.AperFunction*
G04 #@! TA.AperFunction,SMDPad,CuDef*
G36*
G01*
X88400400Y-156719400D02*
X87000400Y-156719400D01*
G75*
G02*
X86850400Y-156569400I0J150000D01*
G01*
X86850400Y-156269400D01*
G75*
G02*
X87000400Y-156119400I150000J0D01*
G01*
X88400400Y-156119400D01*
G75*
G02*
X88550400Y-156269400I0J-150000D01*
G01*
X88550400Y-156569400D01*
G75*
G02*
X88400400Y-156719400I-150000J0D01*
G01*
G37*
G04 #@! TD.AperFunction*
G04 #@! TA.AperFunction,SMDPad,CuDef*
G36*
G01*
X88400400Y-157969400D02*
X87000400Y-157969400D01*
G75*
G02*
X86850400Y-157819400I0J150000D01*
G01*
X86850400Y-157519400D01*
G75*
G02*
X87000400Y-157369400I150000J0D01*
G01*
X88400400Y-157369400D01*
G75*
G02*
X88550400Y-157519400I0J-150000D01*
G01*
X88550400Y-157819400D01*
G75*
G02*
X88400400Y-157969400I-150000J0D01*
G01*
G37*
G04 #@! TD.AperFunction*
D11*
X126238000Y-189230000D03*
X123698000Y-189230000D03*
X126238000Y-186690000D03*
X123698000Y-186690000D03*
X126238000Y-184150000D03*
X123698000Y-184150000D03*
X126238000Y-181610000D03*
X123698000Y-181610000D03*
X126238000Y-179070000D03*
X123698000Y-179070000D03*
X126238000Y-176530000D03*
X123698000Y-176530000D03*
X126238000Y-173990000D03*
X123698000Y-173990000D03*
X126238000Y-171450000D03*
X123698000Y-171450000D03*
X126238000Y-168910000D03*
X123698000Y-168910000D03*
X126238000Y-166370000D03*
X123698000Y-166370000D03*
X126238000Y-163830000D03*
X123698000Y-163830000D03*
X126238000Y-161290000D03*
X123698000Y-161290000D03*
X126238000Y-158750000D03*
X123698000Y-158750000D03*
X126238000Y-156210000D03*
X123698000Y-156210000D03*
X126238000Y-153670000D03*
X123698000Y-153670000D03*
X126238000Y-151130000D03*
X123698000Y-151130000D03*
X126238000Y-148590000D03*
X123698000Y-148590000D03*
X126238000Y-146050000D03*
X123698000Y-146050000D03*
X126238000Y-143510000D03*
X123698000Y-143510000D03*
X126238000Y-140970000D03*
D12*
X123698000Y-140970000D03*
D24*
X105968800Y-164896800D03*
X98145600Y-180238400D03*
X98094800Y-186639200D03*
D25*
X116281200Y-155244800D03*
D24*
X108915200Y-181356000D03*
X99161600Y-150520400D03*
X91033600Y-164896800D03*
D25*
X100177600Y-165252400D03*
D24*
X94386400Y-156362400D03*
X107289600Y-157530800D03*
X86258400Y-146405600D03*
X84378800Y-145694400D03*
X84429600Y-158394400D03*
X114554000Y-151434800D03*
X119481600Y-162864800D03*
X110693200Y-170281600D03*
X117703600Y-165912800D03*
X112166400Y-158597600D03*
X110337600Y-151130000D03*
X118618000Y-129794000D03*
X114249200Y-130708400D03*
X118618000Y-130759200D03*
X114249200Y-129794000D03*
X127000000Y-127355600D03*
X127000000Y-128270000D03*
X127000000Y-129235200D03*
X124510800Y-121310400D03*
X124510800Y-122224800D03*
X111810800Y-191566800D03*
X94843600Y-191973200D03*
X99822000Y-191973200D03*
X91033600Y-146151600D03*
X98450400Y-140309600D03*
X102006400Y-141986000D03*
X104140000Y-148386800D03*
X106730800Y-142036800D03*
X89357200Y-128270000D03*
X93675200Y-128270000D03*
X89509600Y-135483600D03*
X93827600Y-135483600D03*
X99872800Y-182880000D03*
X106476800Y-184048400D03*
X111099600Y-181356000D03*
X106934000Y-179171600D03*
X109677200Y-187553600D03*
X105156000Y-185724800D03*
X105105200Y-181254400D03*
X92506800Y-152654000D03*
X93268800Y-155803600D03*
X90830400Y-169570400D03*
X105918000Y-169672000D03*
X104038400Y-168148000D03*
X101904800Y-150520400D03*
X89518600Y-140148200D03*
X93268800Y-140157200D03*
X92913200Y-133096000D03*
X89366200Y-133137800D03*
X117805200Y-156565600D03*
X116128800Y-171399200D03*
X110896400Y-135331200D03*
X98501200Y-145796000D03*
X85648800Y-155143200D03*
D25*
X96164400Y-167589200D03*
X98094800Y-173990000D03*
X105816400Y-173990000D03*
X119837200Y-145288000D03*
X105257600Y-153314400D03*
X97129600Y-167487600D03*
X99872800Y-173075600D03*
X104851200Y-173075600D03*
X90728800Y-160121600D03*
D24*
X90170000Y-149352000D03*
X89509600Y-150977600D03*
D25*
X114960400Y-161137600D03*
X114401600Y-164033200D03*
X97139201Y-162661600D03*
X93167200Y-149860000D03*
X115316000Y-162001200D03*
X115316000Y-164896800D03*
X114935000Y-167106600D03*
X110261400Y-169037000D03*
X94030800Y-150469600D03*
X97078800Y-163728400D03*
X90170000Y-154076400D03*
X90170000Y-156413200D03*
X89357200Y-160274000D03*
X94335600Y-162204400D03*
X94335600Y-161442400D03*
X93878400Y-163169600D03*
X86664800Y-164490400D03*
X86664800Y-161696400D03*
X86664800Y-160578800D03*
X96469200Y-145288000D03*
X85242400Y-164338000D03*
X85191600Y-161645600D03*
X85191600Y-160578800D03*
X96875600Y-143662400D03*
X96316800Y-144322800D03*
X86004400Y-163322000D03*
X85902800Y-161645600D03*
X85902800Y-160578800D03*
X94843600Y-169011600D03*
X94843600Y-163931600D03*
D24*
X114960400Y-158750000D03*
X118465600Y-168656000D03*
D25*
X98958400Y-161188400D03*
D24*
X86207600Y-148894800D03*
X116890800Y-151384000D03*
X119278400Y-158292800D03*
X115366800Y-170230800D03*
X112166400Y-163220400D03*
X116636800Y-130759200D03*
X116636800Y-129794000D03*
X87122000Y-130657600D03*
X87325200Y-137820400D03*
X100990400Y-181152800D03*
X111099600Y-185623200D03*
X108915200Y-185623200D03*
X104851200Y-184861200D03*
X90881200Y-157988000D03*
X93472000Y-152603200D03*
X92760800Y-166116000D03*
X99822000Y-171704000D03*
X100787200Y-169926000D03*
X94742000Y-171094400D03*
X100990400Y-166674800D03*
X114300000Y-143510000D03*
X116382800Y-143510000D03*
X117602000Y-143510000D03*
X113284000Y-138633200D03*
X114350800Y-138633200D03*
X116382800Y-138633200D03*
X117602000Y-138633200D03*
X113030000Y-143510000D03*
D25*
X96367600Y-156311600D03*
X96824800Y-164642800D03*
X100533200Y-152400000D03*
X99872800Y-164185600D03*
X103530400Y-155651200D03*
X102971600Y-161594800D03*
X102108000Y-179527200D03*
X98399600Y-160121600D03*
X101295200Y-178917600D03*
X98501200Y-159359600D03*
X103073200Y-178612800D03*
X99263200Y-159004000D03*
X94081600Y-164642800D03*
X94488000Y-160070800D03*
X96419160Y-177038760D03*
X94386400Y-159156400D03*
X114808000Y-159613600D03*
X102362000Y-159512000D03*
X119532400Y-168605200D03*
X102819200Y-163322000D03*
X112522000Y-167944800D03*
X107340400Y-167944800D03*
D26*
X99417384Y-184556400D02*
X100497014Y-183476770D01*
X100509844Y-183489600D02*
X101396800Y-183489600D01*
X100497014Y-183476770D02*
X100509844Y-183489600D01*
X95009600Y-180266600D02*
X95037800Y-180238400D01*
X95009600Y-182338800D02*
X95009600Y-180266600D01*
X92886600Y-182338800D02*
X92760800Y-182464600D01*
X95009600Y-182338800D02*
X92886600Y-182338800D01*
X95009600Y-182496802D02*
X95861599Y-183348801D01*
X95009600Y-182338800D02*
X95009600Y-182496802D01*
X95871201Y-183348801D02*
X95961200Y-183438800D01*
X95861599Y-183348801D02*
X95871201Y-183348801D01*
X98298000Y-183438800D02*
X98298892Y-183437908D01*
X95961200Y-183438800D02*
X98298000Y-183438800D01*
X98298892Y-183437908D02*
X99417384Y-184556400D01*
X115135800Y-154388660D02*
X115133000Y-154391460D01*
X115135800Y-153060400D02*
X115135800Y-154388660D01*
X116609000Y-162725861D02*
X116337000Y-162453861D01*
X114935000Y-168118160D02*
X115435000Y-168118160D01*
X113712490Y-167015670D02*
X113772500Y-167015670D01*
D27*
X112556600Y-148409800D02*
X112584400Y-148437600D01*
X110286800Y-148132800D02*
X112251800Y-148132800D01*
X110286800Y-148336000D02*
X110286800Y-149243399D01*
X127000000Y-125773620D02*
X126884460Y-125658080D01*
X127000000Y-127355600D02*
X127000000Y-125773620D01*
X127000000Y-128270000D02*
X127000000Y-127355600D01*
X127000000Y-129235200D02*
X127000000Y-128270000D01*
X127762000Y-124780540D02*
X126884460Y-125658080D01*
X127762000Y-123037600D02*
X127762000Y-124780540D01*
X124076700Y-122224800D02*
X123263900Y-123037600D01*
X124510800Y-122224800D02*
X124076700Y-122224800D01*
X124510800Y-121310400D02*
X124510800Y-122224800D01*
X118618000Y-129794000D02*
X118618000Y-130759200D01*
X118618000Y-132177000D02*
X118511800Y-132283200D01*
X118618000Y-130759200D02*
X118618000Y-132177000D01*
X114249200Y-132232400D02*
X114198400Y-132283200D01*
X114249200Y-130708400D02*
X114249200Y-132232400D01*
X114249200Y-129794000D02*
X114249200Y-130708400D01*
X118511800Y-134231400D02*
X117717600Y-135025600D01*
X118511800Y-132283200D02*
X118511800Y-134231400D01*
X93675200Y-128270000D02*
X93675200Y-129648600D01*
X89357200Y-128270000D02*
X89357200Y-129648600D01*
X89518600Y-135492600D02*
X89509600Y-135483600D01*
X89518600Y-136820400D02*
X89518600Y-135492600D01*
X93818600Y-135492600D02*
X93827600Y-135483600D01*
X93818600Y-136820400D02*
X93818600Y-135492600D01*
X102034200Y-141986000D02*
X103225600Y-141986000D01*
X106781600Y-142036800D02*
X107922200Y-142036800D01*
X104140000Y-148386800D02*
X105280600Y-148386800D01*
X116992400Y-157604600D02*
X116969400Y-157581600D01*
X114554000Y-151485600D02*
X114554000Y-152377000D01*
D26*
X99872800Y-182880000D02*
X99872800Y-182930800D01*
X101128770Y-182969590D02*
X101150940Y-182969590D01*
X99898760Y-182956760D02*
X101115940Y-182956760D01*
X99872800Y-182930800D02*
X99898760Y-182956760D01*
D27*
X84378800Y-145694400D02*
X84378800Y-144591800D01*
X84429600Y-158394400D02*
X84429600Y-159491000D01*
X86258400Y-146405600D02*
X87737400Y-146405600D01*
D26*
X113772500Y-167455660D02*
X113772500Y-167015670D01*
X114935000Y-167923304D02*
X114935000Y-168118160D01*
X94643380Y-156619380D02*
X94386400Y-156362400D01*
X94643380Y-157790440D02*
X94643380Y-156619380D01*
D27*
X89518600Y-138820400D02*
X89518600Y-140148200D01*
X93818600Y-138827400D02*
X93268800Y-139377200D01*
X93818600Y-138820400D02*
X93818600Y-138827400D01*
X93268800Y-139377200D02*
X93268800Y-140157200D01*
X89518600Y-140148200D02*
X89518600Y-140148200D01*
X93268800Y-140157200D02*
X93268800Y-140157200D01*
X89366200Y-131657600D02*
X89366200Y-133137800D01*
X93666200Y-131733400D02*
X92913200Y-132486400D01*
X89366200Y-133137800D02*
X89366200Y-133137800D01*
X92913200Y-132486400D02*
X92913200Y-133096000D01*
X98681300Y-140540500D02*
X98450400Y-140309600D01*
X98681300Y-141884400D02*
X98681300Y-140540500D01*
D26*
X99143380Y-165067420D02*
X99143380Y-166115440D01*
X100177600Y-165201600D02*
X99923600Y-164947600D01*
X100177600Y-165252400D02*
X100177600Y-165201600D01*
X99143820Y-162377500D02*
X99143820Y-162811460D01*
X100318380Y-161202940D02*
X99143820Y-162377500D01*
X101055880Y-161202940D02*
X100318380Y-161202940D01*
X99263200Y-164947600D02*
X99143820Y-164828220D01*
X99923600Y-164947600D02*
X99263200Y-164947600D01*
X99143820Y-162811460D02*
X99143820Y-164828220D01*
X99143820Y-164828220D02*
X99143820Y-165199060D01*
D28*
X103588440Y-184929260D02*
X103588440Y-185376440D01*
D26*
X91727460Y-164202940D02*
X91033600Y-164896800D01*
X92730880Y-164202940D02*
X91727460Y-164202940D01*
D27*
X105105200Y-181254400D02*
X105105200Y-181711600D01*
X91033600Y-146151600D02*
X91440000Y-145745200D01*
X91440000Y-144687400D02*
X91380200Y-144627600D01*
X91440000Y-145745200D02*
X91440000Y-144687400D01*
X101904800Y-151832200D02*
X101904800Y-150520400D01*
X110337600Y-151130000D02*
X110337600Y-149767400D01*
D26*
X113833000Y-153670800D02*
X114697400Y-152806400D01*
X113833000Y-154391460D02*
X113833000Y-153670800D01*
X116881800Y-169564960D02*
X115435000Y-168118160D01*
X116881800Y-170332400D02*
X116881800Y-169564960D01*
D27*
X116128800Y-171085400D02*
X116881800Y-170332400D01*
X116128800Y-171399200D02*
X116128800Y-171085400D01*
X110693200Y-170281600D02*
X111954200Y-170281600D01*
X112166400Y-158597600D02*
X112166400Y-159909400D01*
D26*
X114433540Y-167455660D02*
X114503200Y-167386000D01*
X113772500Y-167455660D02*
X114433540Y-167455660D01*
X114935000Y-167817800D02*
X114503200Y-167386000D01*
X114935000Y-168118160D02*
X114935000Y-167817800D01*
D27*
X99161600Y-151832200D02*
X99161600Y-150520400D01*
X99161600Y-150520400D02*
X99161600Y-150520400D01*
X117805200Y-156777800D02*
X117001400Y-157581600D01*
X117805200Y-156565600D02*
X117805200Y-156777800D01*
D26*
X119167800Y-161442400D02*
X119278400Y-161553000D01*
X116332000Y-161442400D02*
X119167800Y-161442400D01*
D27*
X119481600Y-161756200D02*
X119278400Y-161553000D01*
X119481600Y-162864800D02*
X119481600Y-161756200D01*
X93259800Y-155794600D02*
X93268800Y-155803600D01*
X92049600Y-155794600D02*
X93259800Y-155794600D01*
X92506800Y-153356200D02*
X91939000Y-153924000D01*
X92506800Y-152654000D02*
X92506800Y-153356200D01*
X104029400Y-168157000D02*
X104038400Y-168148000D01*
X101854000Y-168157000D02*
X104029400Y-168157000D01*
X105003600Y-170586400D02*
X105918000Y-169672000D01*
X104250600Y-170586400D02*
X105003600Y-170586400D01*
D28*
X110693200Y-191575800D02*
X110702200Y-191566800D01*
X111810800Y-191566800D02*
X110702200Y-191566800D01*
X103588440Y-185376440D02*
X103835200Y-185623200D01*
X105003600Y-185623200D02*
X105156000Y-185775600D01*
X103835200Y-185623200D02*
X105003600Y-185623200D01*
X108568600Y-187553600D02*
X109677200Y-187553600D01*
X105056560Y-183491760D02*
X105058720Y-183489600D01*
X105025940Y-183491760D02*
X105056560Y-183491760D01*
X105058720Y-183489600D02*
X105562400Y-183489600D01*
X105562400Y-183489600D02*
X105664000Y-183591200D01*
X105681434Y-183591200D02*
X105664000Y-183591200D01*
X106172000Y-184073800D02*
X105714800Y-183616600D01*
X111099600Y-181356000D02*
X111099600Y-182464600D01*
X106934000Y-179171600D02*
X106934000Y-180280200D01*
X108915200Y-182464600D02*
X108915200Y-181356000D01*
D27*
X90830400Y-169570400D02*
X91236800Y-169164000D01*
X91236800Y-168512600D02*
X91287600Y-168461800D01*
X91236800Y-169164000D02*
X91236800Y-168512600D01*
X116281200Y-155493260D02*
X115783000Y-155991460D01*
X116281200Y-155244800D02*
X116281200Y-155493260D01*
X98094800Y-186639200D02*
X97037000Y-186639200D01*
X98145600Y-180238400D02*
X97087800Y-180238400D01*
X106121200Y-165049200D02*
X105968800Y-164896800D01*
X107026600Y-165049200D02*
X106121200Y-165049200D01*
D28*
X95919400Y-191973200D02*
X96164400Y-191728200D01*
X94843600Y-191973200D02*
X95919400Y-191973200D01*
X98644600Y-191973200D02*
X98399600Y-191728200D01*
X99822000Y-191973200D02*
X98644600Y-191973200D01*
D26*
X116609000Y-162725861D02*
X116650261Y-162725861D01*
X117694600Y-163770200D02*
X117694600Y-164693600D01*
X116650261Y-162725861D02*
X117694600Y-163770200D01*
D27*
X117703600Y-164702600D02*
X117694600Y-164693600D01*
X117703600Y-165912800D02*
X117703600Y-164702600D01*
X107280600Y-157539800D02*
X107289600Y-157530800D01*
X107280600Y-158750000D02*
X107280600Y-157539800D01*
D26*
X100148900Y-184991500D02*
X101092000Y-184048400D01*
X95009600Y-186616600D02*
X94987000Y-186639200D01*
X95009600Y-184538800D02*
X95009600Y-186616600D01*
X94985400Y-184514600D02*
X95009600Y-184538800D01*
X92760800Y-184514600D02*
X94985400Y-184514600D01*
X99395040Y-185747660D02*
X100207840Y-184934860D01*
X99395040Y-186558160D02*
X99395040Y-185747660D01*
X95250000Y-187807600D02*
X98145600Y-187807600D01*
X95037800Y-187595400D02*
X95250000Y-187807600D01*
X98145600Y-187807600D02*
X99395040Y-186558160D01*
X95037800Y-186690000D02*
X94987000Y-186639200D01*
X95037800Y-187595400D02*
X95037800Y-186690000D01*
D28*
X108541600Y-191677400D02*
X108652200Y-191566800D01*
X106629200Y-191677400D02*
X108541600Y-191677400D01*
X108652200Y-191566800D02*
X108652200Y-190864600D01*
X108652200Y-190864600D02*
X109880400Y-189636400D01*
X109880400Y-189636400D02*
X112217200Y-189636400D01*
X114046000Y-187807600D02*
X116840000Y-187807600D01*
X112217200Y-189636400D02*
X114046000Y-187807600D01*
X104546400Y-190915400D02*
X104639000Y-190915400D01*
X105927000Y-189627400D02*
X106629200Y-189627400D01*
X104639000Y-190915400D02*
X105927000Y-189627400D01*
D26*
X105535960Y-182491760D02*
X105375746Y-182491760D01*
D28*
X105586380Y-182548380D02*
X106715820Y-182548380D01*
X106715820Y-182548380D02*
X106934000Y-182330200D01*
X105535960Y-182497960D02*
X105586380Y-182548380D01*
X105535960Y-182491760D02*
X105535960Y-182497960D01*
D26*
X117579000Y-162528000D02*
X119744600Y-164693600D01*
X116994860Y-161943860D02*
X117579000Y-162528000D01*
X116337000Y-161943860D02*
X116994860Y-161943860D01*
D29*
X122263340Y-125679200D02*
X122284460Y-125658080D01*
X121301400Y-124675020D02*
X122284460Y-125658080D01*
X121301400Y-123037600D02*
X121301400Y-124675020D01*
X122161740Y-125780800D02*
X122284460Y-125658080D01*
X119744600Y-125780800D02*
X122161740Y-125780800D01*
D27*
X112323400Y-131583200D02*
X112323400Y-132283200D01*
X112323400Y-134231400D02*
X113117600Y-135025600D01*
X112323400Y-132283200D02*
X112323400Y-134231400D01*
X124584460Y-128242060D02*
X114378740Y-128242060D01*
X112323400Y-130297400D02*
X112323400Y-132283200D01*
X114378740Y-128242060D02*
X112323400Y-130297400D01*
X111202000Y-135025600D02*
X110896400Y-135331200D01*
X113117600Y-135025600D02*
X111202000Y-135025600D01*
X85648800Y-156467800D02*
X86850400Y-157669400D01*
X86850400Y-157669400D02*
X87700400Y-157669400D01*
X85648800Y-155143200D02*
X85648800Y-156467800D01*
X98501200Y-144387600D02*
X98566000Y-144322800D01*
X98501200Y-145796000D02*
X98501200Y-144387600D01*
D29*
X126238000Y-143510000D02*
X126238000Y-140970000D01*
X124584460Y-131958080D02*
X124584460Y-135760460D01*
X126238000Y-137414000D02*
X126238000Y-140970000D01*
X124584460Y-135760460D02*
X126238000Y-137414000D01*
X124584460Y-125658080D02*
X124584460Y-131958080D01*
X124584460Y-125658080D02*
X124584460Y-124691140D01*
X125799500Y-123476100D02*
X125799500Y-123037600D01*
X124584460Y-124691140D02*
X125799500Y-123476100D01*
D26*
X109308000Y-158772600D02*
X109330600Y-158750000D01*
X109308000Y-160850400D02*
X109308000Y-158772600D01*
X109330600Y-157133400D02*
X109330600Y-158750000D01*
X105359200Y-156768800D02*
X108966000Y-156768800D01*
X108966000Y-156768800D02*
X109330600Y-157133400D01*
X105206800Y-158791800D02*
X105206800Y-156921200D01*
X105206800Y-156921200D02*
X105359200Y-156768800D01*
X109308000Y-165128200D02*
X109330600Y-165150800D01*
X109308000Y-163050400D02*
X109308000Y-165128200D01*
X109076600Y-165049200D02*
X109076600Y-166157800D01*
X103317740Y-162702940D02*
X101055880Y-162702940D01*
X103784400Y-163169600D02*
X103317740Y-162702940D01*
X108966000Y-166268400D02*
X106070400Y-166268400D01*
X109076600Y-166157800D02*
X108966000Y-166268400D01*
X106070400Y-166268400D02*
X103784400Y-163982400D01*
X103784400Y-163982400D02*
X103784400Y-163169600D01*
D27*
X101904800Y-155794600D02*
X101904800Y-153882200D01*
X99161600Y-153882200D02*
X101904800Y-153882200D01*
D26*
X109954300Y-144396600D02*
X109926500Y-144424400D01*
X109954300Y-141986000D02*
X109954300Y-144396600D01*
X107211100Y-150850600D02*
X107160300Y-150901400D01*
X107211100Y-148437600D02*
X107211100Y-150850600D01*
X105229900Y-144396600D02*
X105227500Y-144399000D01*
X105229900Y-141935200D02*
X105229900Y-144396600D01*
D27*
X100556300Y-144295000D02*
X100528500Y-144322800D01*
X100556300Y-141884400D02*
X100556300Y-144295000D01*
D26*
X93144200Y-144913600D02*
X93430200Y-144627600D01*
X93430200Y-148539200D02*
X93531800Y-148640800D01*
X93430200Y-144627600D02*
X93430200Y-148539200D01*
D29*
X115680600Y-125780800D02*
X117694600Y-125780800D01*
X103987600Y-123901200D02*
X103987600Y-126238000D01*
X103987600Y-126238000D02*
X105156000Y-127406400D01*
X107941000Y-127406400D02*
X109566600Y-125780800D01*
X105156000Y-127406400D02*
X107941000Y-127406400D01*
D26*
X96164400Y-167589200D02*
X96164400Y-167589200D01*
X98094800Y-173990000D02*
X105816400Y-173990000D01*
X127558800Y-149809200D02*
X126238000Y-151130000D01*
X127101600Y-144780000D02*
X127558800Y-145237200D01*
X127558800Y-145237200D02*
X127558800Y-149809200D01*
X127101600Y-144780000D02*
X120345200Y-144780000D01*
X120345200Y-144780000D02*
X119837200Y-145288000D01*
X119837200Y-145288000D02*
X119837200Y-145288000D01*
X105257600Y-150929100D02*
X105285300Y-150901400D01*
X105257600Y-153314400D02*
X105257600Y-150929100D01*
X96215200Y-167589200D02*
X96164400Y-167589200D01*
X96672400Y-166014400D02*
X96672400Y-167132000D01*
X96672400Y-167132000D02*
X96215200Y-167589200D01*
X97129600Y-167132000D02*
X97129600Y-166014400D01*
X97129600Y-167132000D02*
X97129600Y-167487600D01*
X97129600Y-167487600D02*
X97129600Y-167487600D01*
X99872800Y-173075600D02*
X104851200Y-173075600D01*
X104851200Y-173075600D02*
X104851200Y-173075600D01*
X124968000Y-147320000D02*
X126238000Y-148590000D01*
X108051500Y-145389500D02*
X109270800Y-146608800D01*
X108051500Y-144424400D02*
X108051500Y-145389500D01*
X109270800Y-146608800D02*
X120954800Y-146608800D01*
X121666000Y-147320000D02*
X124968000Y-147320000D01*
X120954800Y-146608800D02*
X121666000Y-147320000D01*
X87158530Y-159192930D02*
X92730880Y-159192930D01*
X84480400Y-148234400D02*
X84480400Y-156514800D01*
X87700400Y-147669400D02*
X85045400Y-147669400D01*
X84480400Y-156514800D02*
X87158530Y-159192930D01*
X85045400Y-147669400D02*
X84480400Y-148234400D01*
X91481400Y-148765800D02*
X91657200Y-148590000D01*
X90403402Y-150169400D02*
X87700400Y-150169400D01*
X91431000Y-149141802D02*
X90403402Y-150169400D01*
X91431000Y-148234400D02*
X91431000Y-149141802D01*
X87715800Y-151434800D02*
X87700400Y-151419400D01*
X93268800Y-160680400D02*
X91287600Y-160680400D01*
X91275590Y-160668390D02*
X91287600Y-160668390D01*
X90728800Y-160121600D02*
X91275590Y-160668390D01*
X89067800Y-151419400D02*
X89509600Y-150977600D01*
X87700400Y-151419400D02*
X89067800Y-151419400D01*
X95257801Y-134773599D02*
X96579800Y-133451600D01*
X90170000Y-149352000D02*
X90170000Y-141478000D01*
X90830400Y-135890000D02*
X91946801Y-134773599D01*
X90170000Y-141478000D02*
X90830400Y-140817600D01*
X90830400Y-140817600D02*
X90830400Y-135890000D01*
X91946801Y-134773599D02*
X95257801Y-134773599D01*
X114312000Y-160418860D02*
X114312000Y-160581862D01*
X114312000Y-160418860D02*
X114312000Y-160692400D01*
X114757200Y-161137600D02*
X114960400Y-161137600D01*
X114312000Y-160692400D02*
X114757200Y-161137600D01*
X114401600Y-166259760D02*
X114435000Y-166293160D01*
X114401600Y-164033200D02*
X114401600Y-166259760D01*
X98653600Y-167233600D02*
X98653600Y-165963600D01*
X114483000Y-156179400D02*
X114483000Y-155991460D01*
X113944400Y-156718000D02*
X114483000Y-156179400D01*
X113944400Y-159867600D02*
X113944400Y-156718000D01*
X114312000Y-160418860D02*
X114312000Y-160235200D01*
X114312000Y-160235200D02*
X113944400Y-159867600D01*
X98643380Y-164165779D02*
X97139201Y-162661600D01*
X98643380Y-166115440D02*
X98643380Y-164165779D01*
X93167200Y-149860000D02*
X91744800Y-149860000D01*
X88935400Y-152669400D02*
X87700400Y-152669400D01*
X91744800Y-149860000D02*
X88935400Y-152669400D01*
X98653600Y-169104200D02*
X98653600Y-167233600D01*
X113334800Y-164033200D02*
X114401600Y-164033200D01*
X112318800Y-165049200D02*
X113334800Y-164033200D01*
X112318800Y-166588798D02*
X112318800Y-165049200D01*
X111201200Y-167706398D02*
X112318800Y-166588798D01*
X98746200Y-169104200D02*
X101396800Y-171754800D01*
X98653600Y-169104200D02*
X98746200Y-169104200D01*
X111185602Y-167706398D02*
X111201200Y-167706398D01*
X109626400Y-168351200D02*
X110540800Y-168351200D01*
X101396800Y-171754800D02*
X106222800Y-171754800D01*
X110540800Y-168351200D02*
X111185602Y-167706398D01*
X106222800Y-171754800D02*
X109626400Y-168351200D01*
X114874990Y-165875472D02*
X114874990Y-166293160D01*
X115316000Y-164896800D02*
X115316000Y-165434462D01*
X115316000Y-165434462D02*
X114874990Y-165875472D01*
X114935000Y-166293160D02*
X114935000Y-167106600D01*
X114935000Y-167106600D02*
X114935000Y-167106600D01*
X98157610Y-164783005D02*
X98157610Y-166115440D01*
X97103005Y-163728400D02*
X98157610Y-164783005D01*
X97078800Y-163728400D02*
X97103005Y-163728400D01*
X114287199Y-161175599D02*
X114055460Y-160943860D01*
X114287199Y-161410805D02*
X114287199Y-161175599D01*
X114055460Y-160943860D02*
X113787000Y-160943860D01*
X115316000Y-162001200D02*
X114877594Y-162001200D01*
X114877594Y-162001200D02*
X114287199Y-161410805D01*
X113787000Y-160888600D02*
X113487200Y-160588800D01*
X113787000Y-160943860D02*
X113787000Y-160888600D01*
X113487200Y-156337260D02*
X113833000Y-155991460D01*
X113487200Y-160588800D02*
X113487200Y-156337260D01*
X92202000Y-150469600D02*
X94030800Y-150469600D01*
X87700400Y-153919400D02*
X88752200Y-153919400D01*
X88752200Y-153919400D02*
X92202000Y-150469600D01*
X98143380Y-167337420D02*
X98143380Y-166115440D01*
X97383600Y-168097200D02*
X98143380Y-167337420D01*
X96621600Y-168097200D02*
X97383600Y-168097200D01*
X96215200Y-169256600D02*
X96215200Y-168503600D01*
X96215200Y-168503600D02*
X96621600Y-168097200D01*
X106883200Y-172415200D02*
X110261400Y-169037000D01*
X97434400Y-172110400D02*
X97739200Y-172415200D01*
X96460200Y-169053400D02*
X97434400Y-170027600D01*
X106883200Y-172415200D02*
X97739200Y-172415200D01*
X96215200Y-169053400D02*
X96460200Y-169053400D01*
X97434400Y-170027600D02*
X97434400Y-172110400D01*
X90601000Y-155169400D02*
X87751200Y-155169400D01*
X90779600Y-154990800D02*
X90601000Y-155169400D01*
X95143380Y-153410980D02*
X93218000Y-151485600D01*
X93218000Y-151485600D02*
X92811600Y-151485600D01*
X95143380Y-157790440D02*
X95143380Y-153410980D01*
X92811600Y-151485600D02*
X90779600Y-153517600D01*
X90779600Y-153517600D02*
X90779600Y-154990800D01*
X87757400Y-156413200D02*
X87751200Y-156419400D01*
X90170000Y-156413200D02*
X87757400Y-156413200D01*
X92557600Y-150977600D02*
X90170000Y-153365200D01*
X95643380Y-153159960D02*
X94589600Y-152106180D01*
X95643380Y-157790440D02*
X95643380Y-153159960D01*
X94589600Y-152106180D02*
X94589600Y-152095200D01*
X90170000Y-153365200D02*
X90170000Y-154076400D01*
X93472000Y-150977600D02*
X92557600Y-150977600D01*
X94589600Y-152095200D02*
X93472000Y-150977600D01*
X91771202Y-161188400D02*
X92862400Y-161188400D01*
X90271600Y-161188400D02*
X90424000Y-161188400D01*
X89357200Y-160274000D02*
X90271600Y-161188400D01*
X91771395Y-161188400D02*
X90424000Y-161188400D01*
X91338400Y-161696400D02*
X93218000Y-161696400D01*
X95402400Y-123901200D02*
X95402400Y-124714000D01*
X83566000Y-156455984D02*
X85394800Y-158284784D01*
X83566000Y-147624800D02*
X83566000Y-156455984D01*
X85394800Y-145796000D02*
X83566000Y-147624800D01*
X85394800Y-145787688D02*
X85394800Y-145796000D01*
X95402400Y-125171200D02*
X94538800Y-126034800D01*
X86156800Y-145025688D02*
X85394800Y-145787688D01*
X94538800Y-126034800D02*
X88442800Y-126034800D01*
X85394800Y-158284784D02*
X85394800Y-158301112D01*
X95402400Y-123901200D02*
X95402400Y-125171200D01*
X88442800Y-126034800D02*
X86156800Y-128320800D01*
X86156800Y-128320800D02*
X86156800Y-145025688D01*
X87365224Y-160215184D02*
X88822420Y-161672380D01*
X87325200Y-160215184D02*
X87365224Y-160215184D01*
X85394800Y-158284784D02*
X87325200Y-160215184D01*
X88822420Y-161672380D02*
X91338400Y-161672380D01*
X91186000Y-162204400D02*
X93116400Y-162204400D01*
X83413600Y-124460000D02*
X85191600Y-124460000D01*
X82590390Y-160022078D02*
X84760702Y-162192390D01*
X85191600Y-124460000D02*
X85191600Y-140817600D01*
X82590390Y-143418810D02*
X82590390Y-160022078D01*
X85191600Y-140817600D02*
X82590390Y-143418810D01*
X84760702Y-162192390D02*
X90068400Y-162192390D01*
X90068400Y-162192390D02*
X91186000Y-162192390D01*
X91795600Y-162712400D02*
X92862400Y-162712400D01*
X83007200Y-162712400D02*
X91795600Y-162712400D01*
X83413600Y-134670800D02*
X82243600Y-134670800D01*
X81788000Y-135126400D02*
X81788000Y-161493200D01*
X82243600Y-134670800D02*
X81788000Y-135126400D01*
X81788000Y-161493200D02*
X83007200Y-162712400D01*
X95656400Y-165049200D02*
X95656400Y-166432995D01*
X95644390Y-163868605D02*
X95644390Y-165049200D01*
X95632380Y-162204400D02*
X95644390Y-162216410D01*
X94335600Y-162204400D02*
X95632380Y-162204400D01*
X95644390Y-162216410D02*
X95644390Y-163868605D01*
X96164400Y-164084000D02*
X96164400Y-166471600D01*
X94335600Y-161442400D02*
X95859600Y-161442400D01*
X96164400Y-161747200D02*
X96164400Y-164084000D01*
X95859600Y-161442400D02*
X96164400Y-161747200D01*
X93865599Y-163156799D02*
X93878400Y-163169600D01*
X97153390Y-159234210D02*
X97153390Y-157790440D01*
X97153390Y-159894610D02*
X97153390Y-159234210D01*
X93827600Y-163118800D02*
X93827600Y-160883600D01*
X96266000Y-160782000D02*
X97153390Y-159894610D01*
X93827600Y-160883600D02*
X93929200Y-160782000D01*
X93929200Y-160782000D02*
X96266000Y-160782000D01*
X88341200Y-174650400D02*
X87376000Y-174650400D01*
X87376000Y-174650400D02*
X86664800Y-173939200D01*
X86664800Y-161696400D02*
X86664800Y-161137600D01*
X86664800Y-172669200D02*
X86664800Y-164490400D01*
X86664800Y-173939200D02*
X86664800Y-172669200D01*
X86664800Y-161137600D02*
X86664800Y-160578800D01*
X97434400Y-147472400D02*
X96469200Y-146507200D01*
X97434400Y-155651200D02*
X97434400Y-147472400D01*
X97840800Y-156057600D02*
X97434400Y-155651200D01*
X101017340Y-159664400D02*
X100076000Y-159664400D01*
X100076000Y-156260800D02*
X99872800Y-156057600D01*
X96469200Y-146507200D02*
X96469200Y-145288000D01*
X101055880Y-159702940D02*
X101017340Y-159664400D01*
X99872800Y-156057600D02*
X97840800Y-156057600D01*
X100076000Y-159664400D02*
X100076000Y-156260800D01*
X83769200Y-185115200D02*
X83769200Y-184505600D01*
X83769200Y-183845200D02*
X85242400Y-182372000D01*
X83769200Y-185115200D02*
X83769200Y-183845200D01*
X85191600Y-161645600D02*
X85191600Y-160578800D01*
X85242400Y-182372000D02*
X85242400Y-164338000D01*
X97180400Y-146050000D02*
X97180400Y-143916400D01*
X97942400Y-146812000D02*
X97180400Y-146050000D01*
X97942400Y-155346400D02*
X97942400Y-146812000D01*
X96926400Y-143662400D02*
X96875600Y-143662400D01*
X97180400Y-143916400D02*
X96926400Y-143662400D01*
X101055880Y-159202940D02*
X100634800Y-158781860D01*
X100634800Y-155854400D02*
X100330000Y-155549600D01*
X100634800Y-158781860D02*
X100634800Y-155854400D01*
X98145600Y-155549600D02*
X97942400Y-155346400D01*
X100330000Y-155549600D02*
X98145600Y-155549600D01*
X88392000Y-185115200D02*
X88392000Y-184912000D01*
X88392000Y-184912000D02*
X86004400Y-182524400D01*
X86004400Y-182524400D02*
X86004400Y-163322000D01*
X86004400Y-163322000D02*
X86004400Y-163322000D01*
X85902800Y-161645600D02*
X85902800Y-160578800D01*
X85902800Y-160578800D02*
X85902800Y-160578800D01*
X97485200Y-156514800D02*
X96936001Y-155965601D01*
X99466400Y-156514800D02*
X97485200Y-156514800D01*
X95859600Y-144780000D02*
X96316800Y-144322800D01*
X99653390Y-157790440D02*
X99653390Y-156701790D01*
X95859600Y-147320000D02*
X95859600Y-144780000D01*
X96936001Y-155965601D02*
X96936001Y-153120801D01*
X99653390Y-156701790D02*
X99466400Y-156514800D01*
X96877992Y-153062792D02*
X96875600Y-153062792D01*
X96875600Y-153062792D02*
X96418400Y-152605592D01*
X96418400Y-147878800D02*
X95859600Y-147320000D01*
X96936001Y-153120801D02*
X96877992Y-153062792D01*
X96418400Y-152605592D02*
X96418400Y-147878800D01*
X111912400Y-174904400D02*
X110693200Y-176123600D01*
X92862400Y-175666400D02*
X93319600Y-176123600D01*
X110693200Y-176123600D02*
X93319600Y-176123600D01*
X94143380Y-166115440D02*
X94143380Y-168543420D01*
X94143380Y-168543420D02*
X92862400Y-169824400D01*
X92862400Y-169824400D02*
X92862400Y-175666400D01*
X94843600Y-169011600D02*
X94843600Y-169011600D01*
X94843600Y-163931600D02*
X94843600Y-163830000D01*
X94624950Y-163712950D02*
X92730880Y-163712950D01*
X94843600Y-163931600D02*
X94624950Y-163712950D01*
X93903800Y-169951400D02*
X94843600Y-169011600D01*
X93903800Y-174675800D02*
X94132400Y-174904400D01*
X93903800Y-169951400D02*
X93903800Y-174675800D01*
X109372400Y-174904400D02*
X94132400Y-174904400D01*
D28*
X103088440Y-185731040D02*
X104098200Y-186740800D01*
X103088440Y-184929260D02*
X103088440Y-185731040D01*
X104546400Y-187189000D02*
X104098200Y-186740800D01*
X104546400Y-188865400D02*
X104546400Y-187189000D01*
X102048200Y-186740800D02*
X102158800Y-186740800D01*
X102472600Y-187054600D02*
X102472600Y-188823600D01*
X102158800Y-186740800D02*
X102472600Y-187054600D01*
X102588440Y-186200560D02*
X102048200Y-186740800D01*
X102588440Y-184929260D02*
X102588440Y-186200560D01*
D27*
X115417600Y-133502400D02*
X115417600Y-135025600D01*
X116636800Y-132283200D02*
X115417600Y-133502400D01*
D26*
X116738400Y-152864940D02*
X116738400Y-153873200D01*
X115135800Y-155994260D02*
X115133000Y-155991460D01*
X115135800Y-157327600D02*
X115135800Y-155994260D01*
X115133000Y-155991460D02*
X115133000Y-155464462D01*
X115133000Y-155464462D02*
X115671600Y-154925862D01*
X114483000Y-154814462D02*
X114483000Y-154391460D01*
X115133000Y-155464462D02*
X114483000Y-154814462D01*
X114378600Y-168174560D02*
X114435000Y-168118160D01*
D27*
X115976400Y-141884400D02*
X115417600Y-141325600D01*
X114858800Y-141884400D02*
X115417600Y-141325600D01*
X116484400Y-141325600D02*
X115417600Y-141325600D01*
X115163600Y-138633200D02*
X115417600Y-138887200D01*
X115417600Y-135025600D02*
X115417600Y-138887200D01*
X114350800Y-138633200D02*
X115163600Y-138633200D01*
X115417600Y-138887200D02*
X115417600Y-141325600D01*
X115671600Y-138633200D02*
X115417600Y-138887200D01*
X116382800Y-138633200D02*
X115671600Y-138633200D01*
X117602000Y-138633200D02*
X116382800Y-138633200D01*
X113284000Y-138633200D02*
X114350800Y-138633200D01*
X113030000Y-143510000D02*
X114300000Y-143510000D01*
X116382800Y-143510000D02*
X117602000Y-143510000D01*
X115417600Y-141325600D02*
X115417600Y-143510000D01*
X116382800Y-143510000D02*
X115417600Y-143510000D01*
X115417600Y-143510000D02*
X114300000Y-143510000D01*
X116636800Y-129794000D02*
X116636800Y-130759200D01*
X116636800Y-130759200D02*
X116636800Y-132283200D01*
X87122000Y-130657600D02*
X88566200Y-130657600D01*
X88718600Y-137820400D02*
X87325200Y-137820400D01*
X116890800Y-151384000D02*
X116890800Y-152275400D01*
X86207600Y-148894800D02*
X87726600Y-148894800D01*
D30*
X101498400Y-158089600D02*
X102362000Y-158089600D01*
X102362000Y-158089600D02*
X103174800Y-158902400D01*
X103174800Y-158902400D02*
X103174800Y-160324800D01*
X103174800Y-160324800D02*
X102768400Y-160731200D01*
D26*
X101065890Y-160712950D02*
X101055880Y-160712950D01*
X101084140Y-160731200D02*
X101065890Y-160712950D01*
D30*
X102768400Y-160731200D02*
X102209600Y-160731200D01*
D26*
X102209600Y-160731200D02*
X101084140Y-160731200D01*
X98958400Y-161188400D02*
X98958400Y-161036000D01*
X99291460Y-160702940D02*
X101055880Y-160702940D01*
X98958400Y-161036000D02*
X99291460Y-160702940D01*
X116220140Y-154391460D02*
X116738400Y-153873200D01*
X115783000Y-154391460D02*
X116220140Y-154391460D01*
X115671600Y-154925862D02*
X115685738Y-154925862D01*
X115783000Y-154828600D02*
X115783000Y-154391460D01*
X115685738Y-154925862D02*
X115783000Y-154828600D01*
X116555060Y-167955660D02*
X118931800Y-170332400D01*
X116097500Y-167955660D02*
X116555060Y-167955660D01*
D27*
X118465600Y-168656000D02*
X119024400Y-169214800D01*
X119024400Y-170239800D02*
X118931800Y-170332400D01*
X119024400Y-169214800D02*
X119024400Y-170239800D01*
X114055000Y-170230800D02*
X114004200Y-170281600D01*
X115366800Y-170230800D02*
X114055000Y-170230800D01*
X112166400Y-163220400D02*
X112166400Y-161959400D01*
D26*
X112681940Y-161443860D02*
X112166400Y-161959400D01*
X113787000Y-161443860D02*
X112681940Y-161443860D01*
X114004200Y-170281600D02*
X114004200Y-169205800D01*
X114435000Y-168775000D02*
X114435000Y-168118160D01*
X114004200Y-169205800D02*
X114435000Y-168775000D01*
D27*
X114960400Y-157590600D02*
X114951400Y-157581600D01*
X114960400Y-158750000D02*
X114960400Y-157590600D01*
X119278400Y-159503000D02*
X119278400Y-158292800D01*
D26*
X118362540Y-160418860D02*
X119278400Y-159503000D01*
X115812000Y-160418860D02*
X118362540Y-160418860D01*
D27*
X92049600Y-157844600D02*
X93887400Y-157844600D01*
X91906200Y-157988000D02*
X92049600Y-157844600D01*
X90881200Y-157988000D02*
X91906200Y-157988000D01*
X93472000Y-153407000D02*
X93989000Y-153924000D01*
X93472000Y-152603200D02*
X93472000Y-153407000D01*
X96206200Y-171094400D02*
X96215200Y-171103400D01*
X94742000Y-171094400D02*
X96206200Y-171094400D01*
X101540200Y-169926000D02*
X102200600Y-170586400D01*
X100787200Y-169926000D02*
X101540200Y-169926000D01*
X99272200Y-171154200D02*
X99822000Y-171704000D01*
X98653600Y-171154200D02*
X99272200Y-171154200D01*
X101284495Y-164946410D02*
X101284495Y-165800495D01*
X101591000Y-166107000D02*
X102362000Y-166107000D01*
X101284495Y-165800495D02*
X101591000Y-166107000D01*
X100990400Y-166674800D02*
X100279200Y-166674800D01*
X100279200Y-166674800D02*
X99822000Y-166217600D01*
X101558200Y-166107000D02*
X101591000Y-166107000D01*
X100990400Y-166674800D02*
X101558200Y-166107000D01*
X100787200Y-166878000D02*
X100990400Y-166674800D01*
X100787200Y-169926000D02*
X100787200Y-166878000D01*
D28*
X104783140Y-184929260D02*
X104851200Y-184861200D01*
X104088440Y-184929260D02*
X104783140Y-184929260D01*
X105025940Y-182991760D02*
X105572560Y-182991760D01*
X105572560Y-182991760D02*
X106019600Y-183438800D01*
X107839400Y-183438800D02*
X108915200Y-184514600D01*
X106019600Y-183438800D02*
X107839400Y-183438800D01*
X108915200Y-185623200D02*
X108915200Y-184514600D01*
X111099600Y-185623200D02*
X111099600Y-184514600D01*
D27*
X92465000Y-166411800D02*
X92760800Y-166116000D01*
X91287600Y-166411800D02*
X92465000Y-166411800D01*
X92760800Y-166116000D02*
X92760800Y-164896800D01*
D26*
X101150940Y-182491760D02*
X100398960Y-182491760D01*
X100398960Y-181744240D02*
X100990400Y-181152800D01*
X100398960Y-182491760D02*
X100398960Y-181744240D01*
D28*
X105025940Y-183991760D02*
X105454960Y-183991760D01*
X105852686Y-186887686D02*
X106518600Y-187553600D01*
X105852686Y-184389486D02*
X105852686Y-186887686D01*
X105454960Y-183991760D02*
X105852686Y-184389486D01*
D26*
X94618600Y-140329000D02*
X94587200Y-140360400D01*
X94618600Y-137820400D02*
X94618600Y-140329000D01*
X97282000Y-164642800D02*
X96824800Y-164642800D01*
X97637600Y-166420800D02*
X97637600Y-164998400D01*
X97637600Y-164998400D02*
X97282000Y-164642800D01*
X95351600Y-143112600D02*
X94742000Y-142503000D01*
X95351600Y-152203486D02*
X95351600Y-143112600D01*
X96367600Y-153219486D02*
X95351600Y-152203486D01*
X96367600Y-156311600D02*
X96367600Y-153219486D01*
X99771200Y-164236400D02*
X100990400Y-164236400D01*
X103265000Y-147511800D02*
X103265000Y-144399000D01*
X103276400Y-147523200D02*
X103265000Y-147511800D01*
X100533200Y-152400000D02*
X100533200Y-150266400D01*
X100533200Y-150266400D02*
X103276400Y-147523200D01*
X101074430Y-161684390D02*
X101075889Y-161682931D01*
X101055880Y-161684390D02*
X101074430Y-161684390D01*
X102819200Y-161594800D02*
X102729610Y-161684390D01*
X102971600Y-161594800D02*
X102819200Y-161594800D01*
X102729610Y-161684390D02*
X102125432Y-161684390D01*
X102123973Y-161682931D02*
X101075889Y-161682931D01*
X102125432Y-161684390D02*
X102123973Y-161682931D01*
X120384400Y-148437600D02*
X120384400Y-149848400D01*
X114542400Y-150582800D02*
X120384400Y-150582800D01*
X111810800Y-153263600D02*
X114491600Y-150582800D01*
X110744000Y-154330400D02*
X111810800Y-153263600D01*
X120384400Y-148437600D02*
X120384400Y-150582800D01*
X103530400Y-155651200D02*
X104851200Y-154330400D01*
X104851200Y-154330400D02*
X110744000Y-154330400D01*
X120384400Y-154778373D02*
X120384400Y-150582800D01*
X115312000Y-160125600D02*
X116484400Y-158953200D01*
X115312000Y-160418860D02*
X115312000Y-160125600D01*
X116484400Y-158953200D02*
X117398800Y-158953200D01*
X117398800Y-158953200D02*
X120384400Y-155967600D01*
X120384400Y-155967600D02*
X120384400Y-154778373D01*
X102588440Y-181054260D02*
X102588440Y-180566440D01*
X102108000Y-180086000D02*
X102108000Y-179527200D01*
X102588440Y-180566440D02*
X102108000Y-180086000D01*
X97942400Y-160121600D02*
X98399600Y-160121600D01*
X97653390Y-157790440D02*
X97653390Y-159832590D01*
X97653390Y-159832590D02*
X97942400Y-160121600D01*
X102088440Y-181054260D02*
X101958660Y-181054260D01*
X101295200Y-180390800D02*
X101295200Y-178917600D01*
X101958660Y-181054260D02*
X101295200Y-180390800D01*
X98143380Y-159001780D02*
X98501200Y-159359600D01*
X98143380Y-157790440D02*
X98143380Y-159001780D01*
X103088440Y-178729640D02*
X103088440Y-178729640D01*
X103088440Y-178628040D02*
X103073200Y-178612800D01*
X103088440Y-181054260D02*
X103088440Y-178628040D01*
X98633370Y-158831370D02*
X99090570Y-158831370D01*
X99090570Y-158831370D02*
X99263200Y-159004000D01*
X98633370Y-158831370D02*
X98633370Y-157790440D01*
X94081600Y-164642800D02*
X94081600Y-164642800D01*
X94355860Y-160202940D02*
X94488000Y-160070800D01*
X92730880Y-160202940D02*
X94355860Y-160202940D01*
X104648000Y-178358800D02*
X104299640Y-178010440D01*
X104648000Y-178816000D02*
X104648000Y-178358800D01*
X103588440Y-179824760D02*
X103639240Y-179824760D01*
X103588440Y-181054260D02*
X103588440Y-179824760D01*
X103639240Y-179824760D02*
X104648000Y-178816000D01*
X91694000Y-170078400D02*
X91694000Y-177393600D01*
X91694000Y-177393600D02*
X92310840Y-178010440D01*
X93573600Y-168198800D02*
X91694000Y-170078400D01*
X104299640Y-178010440D02*
X92310840Y-178010440D01*
X94081600Y-164642800D02*
X93573600Y-165150800D01*
X93573600Y-165150800D02*
X93573600Y-168198800D01*
X104088440Y-177038760D02*
X104088440Y-177038760D01*
X104088440Y-177038760D02*
X96419160Y-177038760D01*
X96419160Y-177038760D02*
X96419160Y-177038760D01*
X93839860Y-159702940D02*
X94386400Y-159156400D01*
X92730880Y-159702940D02*
X93839860Y-159702940D01*
X104088440Y-177038760D02*
X105663240Y-177038760D01*
X106019600Y-177395120D02*
X105663240Y-177038760D01*
X104088440Y-181054260D02*
X104088440Y-180493160D01*
X106019600Y-178562000D02*
X106019600Y-177395120D01*
X104088440Y-180493160D02*
X106019600Y-178562000D01*
X102201056Y-160212950D02*
X101055880Y-160212950D01*
X102201056Y-159672944D02*
X102362000Y-159512000D01*
X102201056Y-160212950D02*
X102201056Y-159672944D01*
X114812000Y-159617600D02*
X114808000Y-159613600D01*
X114812000Y-160418860D02*
X114812000Y-159617600D01*
X116808390Y-167436800D02*
X116027200Y-167436800D01*
X116808390Y-167436800D02*
X116890800Y-167436800D01*
X102678810Y-163232410D02*
X101055880Y-163232410D01*
X102819200Y-163322000D02*
X102768400Y-163322000D01*
X102768400Y-163322000D02*
X102678810Y-163232410D01*
X118364000Y-167436800D02*
X119532400Y-168605200D01*
X116808390Y-167436800D02*
X118364000Y-167436800D01*
X113761640Y-167944800D02*
X113772500Y-167955660D01*
X112532860Y-167955660D02*
X112522000Y-167944800D01*
X113772500Y-167955660D02*
X112532860Y-167955660D01*
X102072530Y-163692930D02*
X101055880Y-163692930D01*
X103581200Y-165201600D02*
X102072530Y-163692930D01*
X103581200Y-167081200D02*
X103581200Y-165201600D01*
X103581200Y-167081200D02*
X103987600Y-167487600D01*
X106883200Y-167487600D02*
X107340400Y-167944800D01*
X103987600Y-167487600D02*
X106883200Y-167487600D01*
D29*
X111616600Y-125780800D02*
X113630600Y-125780800D01*
D28*
X102088440Y-184929260D02*
X102088440Y-185439560D01*
X102088440Y-185439560D02*
X101123240Y-185439560D01*
X100422600Y-186140200D02*
X100422600Y-188823600D01*
X101123240Y-185439560D02*
X100422600Y-186140200D01*
X100422600Y-188823600D02*
X100422600Y-189137400D01*
X99881800Y-189678200D02*
X98399600Y-189678200D01*
X100422600Y-189137400D02*
X99881800Y-189678200D01*
X96164400Y-189678200D02*
X98399600Y-189678200D01*
D26*
X101910038Y-162204400D02*
X101908578Y-162202940D01*
X100787200Y-162204400D02*
X103073200Y-162204400D01*
X105206800Y-160301800D02*
X105206800Y-160871590D01*
X103886000Y-162192390D02*
X103073200Y-162192390D01*
X105206800Y-160871590D02*
X103886000Y-162192390D01*
X94466200Y-133305200D02*
X94485600Y-133324600D01*
X94466200Y-130657600D02*
X94466200Y-133305200D01*
M02*
