G04 #@! TF.GenerationSoftware,KiCad,Pcbnew,(5.1.6)-1*
G04 #@! TF.CreationDate,2021-10-25T07:34:01+01:00*
G04 #@! TF.ProjectId,Corinthians-Flight-Control-System,436f7269-6e74-4686-9961-6e732d466c69,1*
G04 #@! TF.SameCoordinates,Original*
G04 #@! TF.FileFunction,Legend,Bot*
G04 #@! TF.FilePolarity,Positive*
%FSLAX46Y46*%
G04 Gerber Fmt 4.6, Leading zero omitted, Abs format (unit mm)*
G04 Created by KiCad (PCBNEW (5.1.6)-1) date 2021-10-25 07:34:01*
%MOMM*%
%LPD*%
G01*
G04 APERTURE LIST*
%ADD10C,0.010000*%
%ADD11C,0.120000*%
%ADD12C,0.150000*%
%ADD13C,3.300000*%
%ADD14O,1.800000X1.800000*%
%ADD15R,1.800000X1.800000*%
%ADD16C,2.350000*%
G04 APERTURE END LIST*
D10*
G36*
X90353011Y-133161314D02*
G01*
X90647647Y-133419848D01*
X90984493Y-133680790D01*
X91337701Y-133927760D01*
X91681423Y-134144381D01*
X91989812Y-134314272D01*
X92237019Y-134421056D01*
X92386149Y-134449645D01*
X92529042Y-134495740D01*
X92603863Y-134565104D01*
X92703601Y-134651142D01*
X92900063Y-134784437D01*
X93161650Y-134944435D01*
X93367057Y-135061572D01*
X93671675Y-135226526D01*
X93875122Y-135324907D01*
X94000649Y-135364873D01*
X94071509Y-135354582D01*
X94102339Y-135319561D01*
X94157178Y-135261352D01*
X94218812Y-135314411D01*
X94272124Y-135408165D01*
X94407187Y-135562009D01*
X94669704Y-135758292D01*
X95050584Y-135990236D01*
X95060842Y-135996036D01*
X95338047Y-136147656D01*
X95563534Y-136261716D01*
X95711241Y-136325634D01*
X95756075Y-136331672D01*
X95771032Y-136238056D01*
X95797036Y-136045779D01*
X95822244Y-135846457D01*
X95875823Y-135411028D01*
X95992863Y-135990170D01*
X96109902Y-136569312D01*
X96861463Y-136988027D01*
X97158175Y-137151230D01*
X97407566Y-137284447D01*
X97583117Y-137373783D01*
X97657969Y-137405367D01*
X97704774Y-137341217D01*
X97789205Y-137169653D01*
X97899628Y-136919789D01*
X98024409Y-136620736D01*
X98151912Y-136301609D01*
X98270503Y-135991522D01*
X98368547Y-135719586D01*
X98434409Y-135514916D01*
X98456496Y-135407226D01*
X98445867Y-135312654D01*
X98424085Y-135359267D01*
X98414308Y-135395903D01*
X98336002Y-135491070D01*
X98259440Y-135487339D01*
X98152531Y-135452248D01*
X97933633Y-135379655D01*
X97628405Y-135278095D01*
X97262506Y-135156104D01*
X96977200Y-135060845D01*
X95816057Y-134672931D01*
X95795372Y-133890376D01*
X95793010Y-133590367D01*
X95797713Y-133177545D01*
X95808688Y-132684031D01*
X95825146Y-132141941D01*
X95846297Y-131583395D01*
X95859496Y-131283996D01*
X95884485Y-130722828D01*
X95907832Y-130154082D01*
X95928293Y-129611577D01*
X95944623Y-129129132D01*
X95955577Y-128740566D01*
X95958694Y-128589314D01*
X95973082Y-127718457D01*
X95930855Y-128553028D01*
X95908677Y-128899862D01*
X95884476Y-129102599D01*
X95858181Y-129161061D01*
X95829718Y-129075071D01*
X95799016Y-128844451D01*
X95766002Y-128469023D01*
X95738972Y-128081314D01*
X95713263Y-127734216D01*
X95683289Y-127408192D01*
X95653829Y-127152598D01*
X95640552Y-127065314D01*
X95621037Y-126984841D01*
X95602038Y-126972949D01*
X95583009Y-127037596D01*
X95563408Y-127186737D01*
X95542689Y-127428328D01*
X95520309Y-127770324D01*
X95495724Y-128220683D01*
X95468389Y-128787360D01*
X95437761Y-129478310D01*
X95403296Y-130301490D01*
X95380021Y-130875314D01*
X95347094Y-131688401D01*
X95318905Y-132368049D01*
X95294822Y-132925866D01*
X95274210Y-133373457D01*
X95256436Y-133722427D01*
X95240866Y-133984383D01*
X95226867Y-134170930D01*
X95213805Y-134293673D01*
X95201047Y-134364219D01*
X95187959Y-134394174D01*
X95187931Y-134394202D01*
X95117103Y-134379977D01*
X94940637Y-134329321D01*
X94690320Y-134252506D01*
X94397938Y-134159802D01*
X94095278Y-134061479D01*
X93814125Y-133967808D01*
X93586267Y-133889059D01*
X93443491Y-133835503D01*
X93413013Y-133820715D01*
X93416134Y-133751404D01*
X93432035Y-133574831D01*
X93457359Y-133327979D01*
X93459675Y-133306457D01*
X93497407Y-132943821D01*
X93537015Y-132543020D01*
X93560761Y-132290457D01*
X93610964Y-131755460D01*
X93672927Y-131121618D01*
X93742131Y-130434310D01*
X93814061Y-129738920D01*
X93826205Y-129623457D01*
X93868153Y-129300275D01*
X93918416Y-129024827D01*
X93969560Y-128833497D01*
X94000388Y-128770743D01*
X94053260Y-128649857D01*
X94070505Y-128433350D01*
X94057692Y-128140581D01*
X94019247Y-127619277D01*
X94689737Y-127179010D01*
X94965084Y-127001399D01*
X95196507Y-126858090D01*
X95356974Y-126765443D01*
X95417092Y-126738743D01*
X95488996Y-126681087D01*
X95516661Y-126627456D01*
X95477306Y-126623841D01*
X95339537Y-126692056D01*
X95123736Y-126820545D01*
X94850291Y-126997753D01*
X94780569Y-127044742D01*
X94001771Y-127573314D01*
X93989676Y-127709006D01*
X93989676Y-128432076D01*
X94032820Y-128442038D01*
X94038057Y-128480457D01*
X94011504Y-128540191D01*
X93989676Y-128528838D01*
X93980991Y-128442713D01*
X93989676Y-128432076D01*
X93989676Y-127709006D01*
X93965079Y-127984959D01*
X93929748Y-128266722D01*
X93887747Y-128416833D01*
X93842456Y-128431426D01*
X93797258Y-128306633D01*
X93777189Y-128199860D01*
X93736228Y-128014975D01*
X93690751Y-127909389D01*
X93675946Y-127899885D01*
X93643012Y-127966067D01*
X93607433Y-128139773D01*
X93576794Y-128383747D01*
X93576221Y-128389743D01*
X93552251Y-128630782D01*
X93516944Y-128970075D01*
X93472442Y-129388306D01*
X93420888Y-129866161D01*
X93364423Y-130384325D01*
X93305189Y-130923485D01*
X93245329Y-131464325D01*
X93186985Y-131987532D01*
X93132298Y-132473790D01*
X93083411Y-132903786D01*
X93042467Y-133258206D01*
X93011606Y-133517733D01*
X92992972Y-133663056D01*
X92988681Y-133687345D01*
X92916746Y-133676084D01*
X92743672Y-133626638D01*
X92504553Y-133550889D01*
X92234486Y-133460720D01*
X91968563Y-133368016D01*
X91741881Y-133284658D01*
X91589534Y-133222529D01*
X91547048Y-133199210D01*
X91527190Y-133103039D01*
X91536837Y-132910880D01*
X91565014Y-132716819D01*
X91615772Y-132426076D01*
X91678999Y-132044909D01*
X91749598Y-131606137D01*
X91822471Y-131142581D01*
X91892521Y-130687062D01*
X91954652Y-130272401D01*
X92003765Y-129931417D01*
X92034763Y-129696931D01*
X92036981Y-129677886D01*
X92040683Y-129341673D01*
X91976061Y-129134724D01*
X91873877Y-128954419D01*
X91830905Y-129207295D01*
X91807353Y-129348423D01*
X91764164Y-129609673D01*
X91705144Y-129967928D01*
X91634098Y-130400072D01*
X91554832Y-130882990D01*
X91497546Y-131232431D01*
X91416165Y-131721859D01*
X91340638Y-132162439D01*
X91274549Y-132534342D01*
X91221482Y-132817744D01*
X91185021Y-132992817D01*
X91170570Y-133041278D01*
X91090281Y-133035756D01*
X90906309Y-132990103D01*
X90651648Y-132913032D01*
X90519934Y-132869456D01*
X90225069Y-132765142D01*
X90045182Y-132686933D01*
X89956024Y-132619925D01*
X89933345Y-132549213D01*
X89938406Y-132512037D01*
X89967553Y-132378208D01*
X90018852Y-132142417D01*
X90083631Y-131844532D01*
X90120791Y-131673600D01*
X90195199Y-131333016D01*
X90266837Y-131008041D01*
X90324254Y-130750515D01*
X90341911Y-130672586D01*
X90374456Y-130439940D01*
X90359606Y-130270667D01*
X90349801Y-130247775D01*
X90309269Y-130245982D01*
X90256194Y-130369992D01*
X90188391Y-130626332D01*
X90123898Y-130922218D01*
X90044269Y-131298999D01*
X89961564Y-131675292D01*
X89887822Y-131996968D01*
X89851865Y-132145314D01*
X89742370Y-132580743D01*
X90353011Y-133161314D01*
G37*
X90353011Y-133161314D02*
X90647647Y-133419848D01*
X90984493Y-133680790D01*
X91337701Y-133927760D01*
X91681423Y-134144381D01*
X91989812Y-134314272D01*
X92237019Y-134421056D01*
X92386149Y-134449645D01*
X92529042Y-134495740D01*
X92603863Y-134565104D01*
X92703601Y-134651142D01*
X92900063Y-134784437D01*
X93161650Y-134944435D01*
X93367057Y-135061572D01*
X93671675Y-135226526D01*
X93875122Y-135324907D01*
X94000649Y-135364873D01*
X94071509Y-135354582D01*
X94102339Y-135319561D01*
X94157178Y-135261352D01*
X94218812Y-135314411D01*
X94272124Y-135408165D01*
X94407187Y-135562009D01*
X94669704Y-135758292D01*
X95050584Y-135990236D01*
X95060842Y-135996036D01*
X95338047Y-136147656D01*
X95563534Y-136261716D01*
X95711241Y-136325634D01*
X95756075Y-136331672D01*
X95771032Y-136238056D01*
X95797036Y-136045779D01*
X95822244Y-135846457D01*
X95875823Y-135411028D01*
X95992863Y-135990170D01*
X96109902Y-136569312D01*
X96861463Y-136988027D01*
X97158175Y-137151230D01*
X97407566Y-137284447D01*
X97583117Y-137373783D01*
X97657969Y-137405367D01*
X97704774Y-137341217D01*
X97789205Y-137169653D01*
X97899628Y-136919789D01*
X98024409Y-136620736D01*
X98151912Y-136301609D01*
X98270503Y-135991522D01*
X98368547Y-135719586D01*
X98434409Y-135514916D01*
X98456496Y-135407226D01*
X98445867Y-135312654D01*
X98424085Y-135359267D01*
X98414308Y-135395903D01*
X98336002Y-135491070D01*
X98259440Y-135487339D01*
X98152531Y-135452248D01*
X97933633Y-135379655D01*
X97628405Y-135278095D01*
X97262506Y-135156104D01*
X96977200Y-135060845D01*
X95816057Y-134672931D01*
X95795372Y-133890376D01*
X95793010Y-133590367D01*
X95797713Y-133177545D01*
X95808688Y-132684031D01*
X95825146Y-132141941D01*
X95846297Y-131583395D01*
X95859496Y-131283996D01*
X95884485Y-130722828D01*
X95907832Y-130154082D01*
X95928293Y-129611577D01*
X95944623Y-129129132D01*
X95955577Y-128740566D01*
X95958694Y-128589314D01*
X95973082Y-127718457D01*
X95930855Y-128553028D01*
X95908677Y-128899862D01*
X95884476Y-129102599D01*
X95858181Y-129161061D01*
X95829718Y-129075071D01*
X95799016Y-128844451D01*
X95766002Y-128469023D01*
X95738972Y-128081314D01*
X95713263Y-127734216D01*
X95683289Y-127408192D01*
X95653829Y-127152598D01*
X95640552Y-127065314D01*
X95621037Y-126984841D01*
X95602038Y-126972949D01*
X95583009Y-127037596D01*
X95563408Y-127186737D01*
X95542689Y-127428328D01*
X95520309Y-127770324D01*
X95495724Y-128220683D01*
X95468389Y-128787360D01*
X95437761Y-129478310D01*
X95403296Y-130301490D01*
X95380021Y-130875314D01*
X95347094Y-131688401D01*
X95318905Y-132368049D01*
X95294822Y-132925866D01*
X95274210Y-133373457D01*
X95256436Y-133722427D01*
X95240866Y-133984383D01*
X95226867Y-134170930D01*
X95213805Y-134293673D01*
X95201047Y-134364219D01*
X95187959Y-134394174D01*
X95187931Y-134394202D01*
X95117103Y-134379977D01*
X94940637Y-134329321D01*
X94690320Y-134252506D01*
X94397938Y-134159802D01*
X94095278Y-134061479D01*
X93814125Y-133967808D01*
X93586267Y-133889059D01*
X93443491Y-133835503D01*
X93413013Y-133820715D01*
X93416134Y-133751404D01*
X93432035Y-133574831D01*
X93457359Y-133327979D01*
X93459675Y-133306457D01*
X93497407Y-132943821D01*
X93537015Y-132543020D01*
X93560761Y-132290457D01*
X93610964Y-131755460D01*
X93672927Y-131121618D01*
X93742131Y-130434310D01*
X93814061Y-129738920D01*
X93826205Y-129623457D01*
X93868153Y-129300275D01*
X93918416Y-129024827D01*
X93969560Y-128833497D01*
X94000388Y-128770743D01*
X94053260Y-128649857D01*
X94070505Y-128433350D01*
X94057692Y-128140581D01*
X94019247Y-127619277D01*
X94689737Y-127179010D01*
X94965084Y-127001399D01*
X95196507Y-126858090D01*
X95356974Y-126765443D01*
X95417092Y-126738743D01*
X95488996Y-126681087D01*
X95516661Y-126627456D01*
X95477306Y-126623841D01*
X95339537Y-126692056D01*
X95123736Y-126820545D01*
X94850291Y-126997753D01*
X94780569Y-127044742D01*
X94001771Y-127573314D01*
X93989676Y-127709006D01*
X93989676Y-128432076D01*
X94032820Y-128442038D01*
X94038057Y-128480457D01*
X94011504Y-128540191D01*
X93989676Y-128528838D01*
X93980991Y-128442713D01*
X93989676Y-128432076D01*
X93989676Y-127709006D01*
X93965079Y-127984959D01*
X93929748Y-128266722D01*
X93887747Y-128416833D01*
X93842456Y-128431426D01*
X93797258Y-128306633D01*
X93777189Y-128199860D01*
X93736228Y-128014975D01*
X93690751Y-127909389D01*
X93675946Y-127899885D01*
X93643012Y-127966067D01*
X93607433Y-128139773D01*
X93576794Y-128383747D01*
X93576221Y-128389743D01*
X93552251Y-128630782D01*
X93516944Y-128970075D01*
X93472442Y-129388306D01*
X93420888Y-129866161D01*
X93364423Y-130384325D01*
X93305189Y-130923485D01*
X93245329Y-131464325D01*
X93186985Y-131987532D01*
X93132298Y-132473790D01*
X93083411Y-132903786D01*
X93042467Y-133258206D01*
X93011606Y-133517733D01*
X92992972Y-133663056D01*
X92988681Y-133687345D01*
X92916746Y-133676084D01*
X92743672Y-133626638D01*
X92504553Y-133550889D01*
X92234486Y-133460720D01*
X91968563Y-133368016D01*
X91741881Y-133284658D01*
X91589534Y-133222529D01*
X91547048Y-133199210D01*
X91527190Y-133103039D01*
X91536837Y-132910880D01*
X91565014Y-132716819D01*
X91615772Y-132426076D01*
X91678999Y-132044909D01*
X91749598Y-131606137D01*
X91822471Y-131142581D01*
X91892521Y-130687062D01*
X91954652Y-130272401D01*
X92003765Y-129931417D01*
X92034763Y-129696931D01*
X92036981Y-129677886D01*
X92040683Y-129341673D01*
X91976061Y-129134724D01*
X91873877Y-128954419D01*
X91830905Y-129207295D01*
X91807353Y-129348423D01*
X91764164Y-129609673D01*
X91705144Y-129967928D01*
X91634098Y-130400072D01*
X91554832Y-130882990D01*
X91497546Y-131232431D01*
X91416165Y-131721859D01*
X91340638Y-132162439D01*
X91274549Y-132534342D01*
X91221482Y-132817744D01*
X91185021Y-132992817D01*
X91170570Y-133041278D01*
X91090281Y-133035756D01*
X90906309Y-132990103D01*
X90651648Y-132913032D01*
X90519934Y-132869456D01*
X90225069Y-132765142D01*
X90045182Y-132686933D01*
X89956024Y-132619925D01*
X89933345Y-132549213D01*
X89938406Y-132512037D01*
X89967553Y-132378208D01*
X90018852Y-132142417D01*
X90083631Y-131844532D01*
X90120791Y-131673600D01*
X90195199Y-131333016D01*
X90266837Y-131008041D01*
X90324254Y-130750515D01*
X90341911Y-130672586D01*
X90374456Y-130439940D01*
X90359606Y-130270667D01*
X90349801Y-130247775D01*
X90309269Y-130245982D01*
X90256194Y-130369992D01*
X90188391Y-130626332D01*
X90123898Y-130922218D01*
X90044269Y-131298999D01*
X89961564Y-131675292D01*
X89887822Y-131996968D01*
X89851865Y-132145314D01*
X89742370Y-132580743D01*
X90353011Y-133161314D01*
G36*
X97775485Y-125142171D02*
G01*
X97811771Y-125105885D01*
X97775485Y-125069600D01*
X97739200Y-125105885D01*
X97775485Y-125142171D01*
G37*
X97775485Y-125142171D02*
X97811771Y-125105885D01*
X97775485Y-125069600D01*
X97739200Y-125105885D01*
X97775485Y-125142171D01*
G36*
X90492932Y-142053648D02*
G01*
X90509863Y-142189047D01*
X90545593Y-142261220D01*
X90604537Y-142297439D01*
X90630976Y-142306513D01*
X90808250Y-142298078D01*
X90950599Y-142199437D01*
X91000273Y-142156141D01*
X91057559Y-142121889D01*
X91138481Y-142095806D01*
X91259068Y-142077020D01*
X91435343Y-142064655D01*
X91683333Y-142057837D01*
X92019065Y-142055693D01*
X92458564Y-142057348D01*
X93017856Y-142061927D01*
X93404351Y-142065587D01*
X94047335Y-142072413D01*
X94560849Y-142079814D01*
X94960567Y-142088751D01*
X95262159Y-142100185D01*
X95481301Y-142115080D01*
X95633663Y-142134397D01*
X95734918Y-142159097D01*
X95800740Y-142190142D01*
X95832412Y-142214600D01*
X96009110Y-142305375D01*
X96239057Y-142341600D01*
X96415465Y-142330302D01*
X96490010Y-142274918D01*
X96505484Y-142143209D01*
X96505486Y-142140896D01*
X96470866Y-141941758D01*
X96386021Y-141716863D01*
X96370977Y-141687325D01*
X96228022Y-141491265D01*
X96023290Y-141289920D01*
X95929490Y-141216743D01*
X95622511Y-140999028D01*
X93350009Y-140962743D01*
X92710873Y-140951948D01*
X92201018Y-140941466D01*
X91804589Y-140930186D01*
X91505731Y-140916995D01*
X91288588Y-140900782D01*
X91137306Y-140880436D01*
X91036030Y-140854845D01*
X90968904Y-140822897D01*
X90930324Y-140793096D01*
X90774376Y-140701533D01*
X90650742Y-140685099D01*
X90591038Y-140711967D01*
X90550755Y-140782564D01*
X90524949Y-140922717D01*
X90508675Y-141158254D01*
X90497802Y-141484094D01*
X90490384Y-141827754D01*
X90492932Y-142053648D01*
G37*
X90492932Y-142053648D02*
X90509863Y-142189047D01*
X90545593Y-142261220D01*
X90604537Y-142297439D01*
X90630976Y-142306513D01*
X90808250Y-142298078D01*
X90950599Y-142199437D01*
X91000273Y-142156141D01*
X91057559Y-142121889D01*
X91138481Y-142095806D01*
X91259068Y-142077020D01*
X91435343Y-142064655D01*
X91683333Y-142057837D01*
X92019065Y-142055693D01*
X92458564Y-142057348D01*
X93017856Y-142061927D01*
X93404351Y-142065587D01*
X94047335Y-142072413D01*
X94560849Y-142079814D01*
X94960567Y-142088751D01*
X95262159Y-142100185D01*
X95481301Y-142115080D01*
X95633663Y-142134397D01*
X95734918Y-142159097D01*
X95800740Y-142190142D01*
X95832412Y-142214600D01*
X96009110Y-142305375D01*
X96239057Y-142341600D01*
X96415465Y-142330302D01*
X96490010Y-142274918D01*
X96505484Y-142143209D01*
X96505486Y-142140896D01*
X96470866Y-141941758D01*
X96386021Y-141716863D01*
X96370977Y-141687325D01*
X96228022Y-141491265D01*
X96023290Y-141289920D01*
X95929490Y-141216743D01*
X95622511Y-140999028D01*
X93350009Y-140962743D01*
X92710873Y-140951948D01*
X92201018Y-140941466D01*
X91804589Y-140930186D01*
X91505731Y-140916995D01*
X91288588Y-140900782D01*
X91137306Y-140880436D01*
X91036030Y-140854845D01*
X90968904Y-140822897D01*
X90930324Y-140793096D01*
X90774376Y-140701533D01*
X90650742Y-140685099D01*
X90591038Y-140711967D01*
X90550755Y-140782564D01*
X90524949Y-140922717D01*
X90508675Y-141158254D01*
X90497802Y-141484094D01*
X90490384Y-141827754D01*
X90492932Y-142053648D01*
G36*
X90504550Y-143705643D02*
G01*
X90547731Y-143780476D01*
X90618442Y-143811766D01*
X90777850Y-143792598D01*
X90989229Y-143685421D01*
X91029696Y-143657756D01*
X91298356Y-143466457D01*
X93412064Y-143430171D01*
X94023810Y-143419226D01*
X94508621Y-143408766D01*
X94884693Y-143397268D01*
X95170220Y-143383208D01*
X95383396Y-143365062D01*
X95542417Y-143341308D01*
X95665476Y-143310422D01*
X95770769Y-143270881D01*
X95869979Y-143224371D01*
X96092488Y-143086904D01*
X96296460Y-142914404D01*
X96446062Y-142741930D01*
X96505464Y-142604544D01*
X96505486Y-142602540D01*
X96441244Y-142574922D01*
X96281666Y-142560110D01*
X96228847Y-142559314D01*
X96011589Y-142586810D01*
X95858601Y-142693728D01*
X95793858Y-142773496D01*
X95592426Y-142955858D01*
X95362924Y-143063377D01*
X95209770Y-143085487D01*
X94931490Y-143104736D01*
X94548089Y-143120420D01*
X94079568Y-143131838D01*
X93545931Y-143138287D01*
X93195470Y-143139481D01*
X91300597Y-143139886D01*
X91027851Y-142954795D01*
X90799934Y-142820084D01*
X90648705Y-142791682D01*
X90557842Y-142880039D01*
X90511025Y-143095608D01*
X90497095Y-143294646D01*
X90490369Y-143555192D01*
X90504550Y-143705643D01*
G37*
X90504550Y-143705643D02*
X90547731Y-143780476D01*
X90618442Y-143811766D01*
X90777850Y-143792598D01*
X90989229Y-143685421D01*
X91029696Y-143657756D01*
X91298356Y-143466457D01*
X93412064Y-143430171D01*
X94023810Y-143419226D01*
X94508621Y-143408766D01*
X94884693Y-143397268D01*
X95170220Y-143383208D01*
X95383396Y-143365062D01*
X95542417Y-143341308D01*
X95665476Y-143310422D01*
X95770769Y-143270881D01*
X95869979Y-143224371D01*
X96092488Y-143086904D01*
X96296460Y-142914404D01*
X96446062Y-142741930D01*
X96505464Y-142604544D01*
X96505486Y-142602540D01*
X96441244Y-142574922D01*
X96281666Y-142560110D01*
X96228847Y-142559314D01*
X96011589Y-142586810D01*
X95858601Y-142693728D01*
X95793858Y-142773496D01*
X95592426Y-142955858D01*
X95362924Y-143063377D01*
X95209770Y-143085487D01*
X94931490Y-143104736D01*
X94548089Y-143120420D01*
X94079568Y-143131838D01*
X93545931Y-143138287D01*
X93195470Y-143139481D01*
X91300597Y-143139886D01*
X91027851Y-142954795D01*
X90799934Y-142820084D01*
X90648705Y-142791682D01*
X90557842Y-142880039D01*
X90511025Y-143095608D01*
X90497095Y-143294646D01*
X90490369Y-143555192D01*
X90504550Y-143705643D01*
G36*
X94217636Y-151036013D02*
G01*
X94292849Y-151096010D01*
X94476215Y-151177766D01*
X94593491Y-151195314D01*
X94823638Y-151233231D01*
X95119559Y-151332030D01*
X95428175Y-151469285D01*
X95696409Y-151622571D01*
X95813443Y-151710754D01*
X96078464Y-151879144D01*
X96279209Y-151921028D01*
X96451894Y-151889995D01*
X96499821Y-151793293D01*
X96424136Y-151625523D01*
X96360343Y-151538369D01*
X96246863Y-151376256D01*
X96228542Y-151264768D01*
X96302156Y-151147816D01*
X96335707Y-151109869D01*
X96408072Y-150990516D01*
X96402298Y-150922726D01*
X96300051Y-150890997D01*
X96086576Y-150866841D01*
X95795603Y-150850506D01*
X95460861Y-150842239D01*
X95116081Y-150842285D01*
X94794992Y-150850894D01*
X94531323Y-150868310D01*
X94358806Y-150894782D01*
X94323705Y-150907511D01*
X94209769Y-150978749D01*
X94217636Y-151036013D01*
G37*
X94217636Y-151036013D02*
X94292849Y-151096010D01*
X94476215Y-151177766D01*
X94593491Y-151195314D01*
X94823638Y-151233231D01*
X95119559Y-151332030D01*
X95428175Y-151469285D01*
X95696409Y-151622571D01*
X95813443Y-151710754D01*
X96078464Y-151879144D01*
X96279209Y-151921028D01*
X96451894Y-151889995D01*
X96499821Y-151793293D01*
X96424136Y-151625523D01*
X96360343Y-151538369D01*
X96246863Y-151376256D01*
X96228542Y-151264768D01*
X96302156Y-151147816D01*
X96335707Y-151109869D01*
X96408072Y-150990516D01*
X96402298Y-150922726D01*
X96300051Y-150890997D01*
X96086576Y-150866841D01*
X95795603Y-150850506D01*
X95460861Y-150842239D01*
X95116081Y-150842285D01*
X94794992Y-150850894D01*
X94531323Y-150868310D01*
X94358806Y-150894782D01*
X94323705Y-150907511D01*
X94209769Y-150978749D01*
X94217636Y-151036013D01*
G36*
X90421633Y-152058481D02*
G01*
X90556184Y-152066171D01*
X90770933Y-152022122D01*
X90981541Y-151915809D01*
X90986234Y-151912380D01*
X91241386Y-151798544D01*
X91550852Y-151762368D01*
X91843256Y-151808930D01*
X91927782Y-151845405D01*
X92038826Y-151936052D01*
X92208263Y-152110017D01*
X92405949Y-152335605D01*
X92482281Y-152428365D01*
X92806823Y-152792049D01*
X93120958Y-153048222D01*
X93460430Y-153213160D01*
X93860982Y-153303140D01*
X94358358Y-153334437D01*
X94473486Y-153335086D01*
X94848954Y-153329240D01*
X95121712Y-153308781D01*
X95333951Y-153267448D01*
X95527863Y-153198978D01*
X95597439Y-153168255D01*
X96000598Y-152940352D01*
X96281594Y-152676162D01*
X96403524Y-152487061D01*
X96495940Y-152262586D01*
X96484390Y-152128893D01*
X96364569Y-152071249D01*
X96280602Y-152066171D01*
X96056388Y-152120961D01*
X95843837Y-152292990D01*
X95704499Y-152427010D01*
X95577038Y-152487908D01*
X95400728Y-152495511D01*
X95258902Y-152483964D01*
X95094708Y-152463478D01*
X94962681Y-152425713D01*
X94834954Y-152351560D01*
X94683657Y-152221909D01*
X94480924Y-152017653D01*
X94298666Y-151825546D01*
X94043737Y-151566493D01*
X93800318Y-151338891D01*
X93598217Y-151169495D01*
X93479805Y-151090583D01*
X93069886Y-150954553D01*
X92581168Y-150889821D01*
X92060416Y-150894881D01*
X91554394Y-150968226D01*
X91109866Y-151108351D01*
X90980768Y-151171088D01*
X90684404Y-151364253D01*
X90498461Y-151574743D01*
X90389784Y-151841155D01*
X90383297Y-151866600D01*
X90362779Y-152005747D01*
X90421633Y-152058481D01*
G37*
X90421633Y-152058481D02*
X90556184Y-152066171D01*
X90770933Y-152022122D01*
X90981541Y-151915809D01*
X90986234Y-151912380D01*
X91241386Y-151798544D01*
X91550852Y-151762368D01*
X91843256Y-151808930D01*
X91927782Y-151845405D01*
X92038826Y-151936052D01*
X92208263Y-152110017D01*
X92405949Y-152335605D01*
X92482281Y-152428365D01*
X92806823Y-152792049D01*
X93120958Y-153048222D01*
X93460430Y-153213160D01*
X93860982Y-153303140D01*
X94358358Y-153334437D01*
X94473486Y-153335086D01*
X94848954Y-153329240D01*
X95121712Y-153308781D01*
X95333951Y-153267448D01*
X95527863Y-153198978D01*
X95597439Y-153168255D01*
X96000598Y-152940352D01*
X96281594Y-152676162D01*
X96403524Y-152487061D01*
X96495940Y-152262586D01*
X96484390Y-152128893D01*
X96364569Y-152071249D01*
X96280602Y-152066171D01*
X96056388Y-152120961D01*
X95843837Y-152292990D01*
X95704499Y-152427010D01*
X95577038Y-152487908D01*
X95400728Y-152495511D01*
X95258902Y-152483964D01*
X95094708Y-152463478D01*
X94962681Y-152425713D01*
X94834954Y-152351560D01*
X94683657Y-152221909D01*
X94480924Y-152017653D01*
X94298666Y-151825546D01*
X94043737Y-151566493D01*
X93800318Y-151338891D01*
X93598217Y-151169495D01*
X93479805Y-151090583D01*
X93069886Y-150954553D01*
X92581168Y-150889821D01*
X92060416Y-150894881D01*
X91554394Y-150968226D01*
X91109866Y-151108351D01*
X90980768Y-151171088D01*
X90684404Y-151364253D01*
X90498461Y-151574743D01*
X90389784Y-151841155D01*
X90383297Y-151866600D01*
X90362779Y-152005747D01*
X90421633Y-152058481D01*
G36*
X90388708Y-161388560D02*
G01*
X90562481Y-161427871D01*
X90567057Y-161427886D01*
X90777688Y-161388175D01*
X90937429Y-161300886D01*
X90988132Y-161265302D01*
X91063708Y-161236645D01*
X91179742Y-161213976D01*
X91351820Y-161196353D01*
X91595527Y-161182835D01*
X91926448Y-161172482D01*
X92360170Y-161164352D01*
X92912277Y-161157505D01*
X93389549Y-161152862D01*
X94030077Y-161147343D01*
X94541293Y-161144250D01*
X94939015Y-161144401D01*
X95239067Y-161148613D01*
X95457267Y-161157701D01*
X95609437Y-161172484D01*
X95711397Y-161193778D01*
X95778969Y-161222399D01*
X95827973Y-161259165D01*
X95849462Y-161279862D01*
X96007788Y-161381149D01*
X96197267Y-161429268D01*
X96371870Y-161422821D01*
X96485570Y-161360414D01*
X96505486Y-161299753D01*
X96471897Y-161151537D01*
X96389888Y-160960019D01*
X96378486Y-160938581D01*
X96139897Y-160643766D01*
X95781470Y-160393869D01*
X95322558Y-160192675D01*
X94782513Y-160043965D01*
X94180688Y-159951522D01*
X93536436Y-159919130D01*
X92869111Y-159950570D01*
X92198064Y-160049626D01*
X92023552Y-160087344D01*
X91416412Y-160282899D01*
X90918445Y-160561873D01*
X90604452Y-160841886D01*
X90409894Y-161092420D01*
X90337913Y-161275694D01*
X90388708Y-161388560D01*
G37*
X90388708Y-161388560D02*
X90562481Y-161427871D01*
X90567057Y-161427886D01*
X90777688Y-161388175D01*
X90937429Y-161300886D01*
X90988132Y-161265302D01*
X91063708Y-161236645D01*
X91179742Y-161213976D01*
X91351820Y-161196353D01*
X91595527Y-161182835D01*
X91926448Y-161172482D01*
X92360170Y-161164352D01*
X92912277Y-161157505D01*
X93389549Y-161152862D01*
X94030077Y-161147343D01*
X94541293Y-161144250D01*
X94939015Y-161144401D01*
X95239067Y-161148613D01*
X95457267Y-161157701D01*
X95609437Y-161172484D01*
X95711397Y-161193778D01*
X95778969Y-161222399D01*
X95827973Y-161259165D01*
X95849462Y-161279862D01*
X96007788Y-161381149D01*
X96197267Y-161429268D01*
X96371870Y-161422821D01*
X96485570Y-161360414D01*
X96505486Y-161299753D01*
X96471897Y-161151537D01*
X96389888Y-160960019D01*
X96378486Y-160938581D01*
X96139897Y-160643766D01*
X95781470Y-160393869D01*
X95322558Y-160192675D01*
X94782513Y-160043965D01*
X94180688Y-159951522D01*
X93536436Y-159919130D01*
X92869111Y-159950570D01*
X92198064Y-160049626D01*
X92023552Y-160087344D01*
X91416412Y-160282899D01*
X90918445Y-160561873D01*
X90604452Y-160841886D01*
X90409894Y-161092420D01*
X90337913Y-161275694D01*
X90388708Y-161388560D01*
G36*
X94755966Y-162610252D02*
G01*
X94886512Y-162650802D01*
X95108152Y-162633882D01*
X95383176Y-162568920D01*
X95673870Y-162465342D01*
X95942524Y-162332575D01*
X95994539Y-162300634D01*
X96235568Y-162115160D01*
X96405559Y-161923459D01*
X96486730Y-161751644D01*
X96461297Y-161625828D01*
X96457105Y-161621409D01*
X96355490Y-161585832D01*
X96204968Y-161573028D01*
X96029679Y-161614935D01*
X95903222Y-161763482D01*
X95888997Y-161790031D01*
X95714648Y-161995946D01*
X95435935Y-162177204D01*
X95093632Y-162308943D01*
X95000461Y-162331755D01*
X94787589Y-162405940D01*
X94706694Y-162504022D01*
X94755966Y-162610252D01*
G37*
X94755966Y-162610252D02*
X94886512Y-162650802D01*
X95108152Y-162633882D01*
X95383176Y-162568920D01*
X95673870Y-162465342D01*
X95942524Y-162332575D01*
X95994539Y-162300634D01*
X96235568Y-162115160D01*
X96405559Y-161923459D01*
X96486730Y-161751644D01*
X96461297Y-161625828D01*
X96457105Y-161621409D01*
X96355490Y-161585832D01*
X96204968Y-161573028D01*
X96029679Y-161614935D01*
X95903222Y-161763482D01*
X95888997Y-161790031D01*
X95714648Y-161995946D01*
X95435935Y-162177204D01*
X95093632Y-162308943D01*
X95000461Y-162331755D01*
X94787589Y-162405940D01*
X94706694Y-162504022D01*
X94755966Y-162610252D01*
G36*
X90546564Y-170206384D02*
G01*
X90732492Y-170516111D01*
X91028450Y-170749394D01*
X91423046Y-170897282D01*
X91904892Y-170950825D01*
X91909699Y-170950852D01*
X92409943Y-170921712D01*
X92800314Y-170824120D01*
X93102614Y-170650688D01*
X93263692Y-170492024D01*
X93490506Y-170221863D01*
X93578748Y-170431731D01*
X93715937Y-170651128D01*
X93925316Y-170802196D01*
X94226852Y-170893033D01*
X94640513Y-170931740D01*
X94818200Y-170934471D01*
X95157659Y-170939660D01*
X95368229Y-170958586D01*
X95465934Y-170996785D01*
X95466796Y-171059792D01*
X95403609Y-171136733D01*
X95350579Y-171235470D01*
X95407590Y-171295227D01*
X95544709Y-171315407D01*
X95732001Y-171295415D01*
X95939533Y-171234656D01*
X96109067Y-171150773D01*
X96367389Y-170930734D01*
X96496599Y-170678561D01*
X96490590Y-170411291D01*
X96427100Y-170263455D01*
X96310181Y-170123883D01*
X96131005Y-170018811D01*
X95869737Y-169942772D01*
X95506542Y-169890295D01*
X95021586Y-169855910D01*
X94934462Y-169851858D01*
X94521195Y-169830093D01*
X94228332Y-169804632D01*
X94031134Y-169771654D01*
X93904862Y-169727339D01*
X93840176Y-169682885D01*
X93622674Y-169568906D01*
X93396005Y-169593346D01*
X93239771Y-169701028D01*
X93166226Y-169761124D01*
X93069365Y-169802040D01*
X92922198Y-169827377D01*
X92697738Y-169840732D01*
X92368993Y-169845704D01*
X92151200Y-169846171D01*
X91758511Y-169844102D01*
X91483947Y-169835495D01*
X91300516Y-169816752D01*
X91181231Y-169784274D01*
X91099101Y-169734463D01*
X91062628Y-169701028D01*
X90879561Y-169591776D01*
X90699771Y-169555885D01*
X90557177Y-169568505D01*
X90495979Y-169634838D01*
X90482150Y-169797593D01*
X90482057Y-169829161D01*
X90546564Y-170206384D01*
G37*
X90546564Y-170206384D02*
X90732492Y-170516111D01*
X91028450Y-170749394D01*
X91423046Y-170897282D01*
X91904892Y-170950825D01*
X91909699Y-170950852D01*
X92409943Y-170921712D01*
X92800314Y-170824120D01*
X93102614Y-170650688D01*
X93263692Y-170492024D01*
X93490506Y-170221863D01*
X93578748Y-170431731D01*
X93715937Y-170651128D01*
X93925316Y-170802196D01*
X94226852Y-170893033D01*
X94640513Y-170931740D01*
X94818200Y-170934471D01*
X95157659Y-170939660D01*
X95368229Y-170958586D01*
X95465934Y-170996785D01*
X95466796Y-171059792D01*
X95403609Y-171136733D01*
X95350579Y-171235470D01*
X95407590Y-171295227D01*
X95544709Y-171315407D01*
X95732001Y-171295415D01*
X95939533Y-171234656D01*
X96109067Y-171150773D01*
X96367389Y-170930734D01*
X96496599Y-170678561D01*
X96490590Y-170411291D01*
X96427100Y-170263455D01*
X96310181Y-170123883D01*
X96131005Y-170018811D01*
X95869737Y-169942772D01*
X95506542Y-169890295D01*
X95021586Y-169855910D01*
X94934462Y-169851858D01*
X94521195Y-169830093D01*
X94228332Y-169804632D01*
X94031134Y-169771654D01*
X93904862Y-169727339D01*
X93840176Y-169682885D01*
X93622674Y-169568906D01*
X93396005Y-169593346D01*
X93239771Y-169701028D01*
X93166226Y-169761124D01*
X93069365Y-169802040D01*
X92922198Y-169827377D01*
X92697738Y-169840732D01*
X92368993Y-169845704D01*
X92151200Y-169846171D01*
X91758511Y-169844102D01*
X91483947Y-169835495D01*
X91300516Y-169816752D01*
X91181231Y-169784274D01*
X91099101Y-169734463D01*
X91062628Y-169701028D01*
X90879561Y-169591776D01*
X90699771Y-169555885D01*
X90557177Y-169568505D01*
X90495979Y-169634838D01*
X90482150Y-169797593D01*
X90482057Y-169829161D01*
X90546564Y-170206384D01*
G36*
X90388708Y-188022275D02*
G01*
X90562481Y-188061585D01*
X90567057Y-188061600D01*
X90777688Y-188021889D01*
X90937429Y-187934600D01*
X90988132Y-187899016D01*
X91063708Y-187870360D01*
X91179742Y-187847691D01*
X91351820Y-187830067D01*
X91595527Y-187816550D01*
X91926448Y-187806196D01*
X92360170Y-187798066D01*
X92912277Y-187791219D01*
X93389549Y-187786576D01*
X94030077Y-187781057D01*
X94541293Y-187777964D01*
X94939015Y-187778115D01*
X95239067Y-187782327D01*
X95457267Y-187791416D01*
X95609437Y-187806198D01*
X95711397Y-187827492D01*
X95778969Y-187856114D01*
X95827973Y-187892879D01*
X95849462Y-187913576D01*
X96007788Y-188014864D01*
X96197267Y-188062982D01*
X96371870Y-188056535D01*
X96485570Y-187994128D01*
X96505486Y-187933468D01*
X96471897Y-187785251D01*
X96389888Y-187593733D01*
X96378486Y-187572295D01*
X96139897Y-187277480D01*
X95781470Y-187027584D01*
X95322558Y-186826389D01*
X94782513Y-186677679D01*
X94180688Y-186585236D01*
X93536436Y-186552844D01*
X92869111Y-186584284D01*
X92198064Y-186683341D01*
X92023552Y-186721058D01*
X91416412Y-186916613D01*
X90918445Y-187195587D01*
X90604452Y-187475600D01*
X90409894Y-187726135D01*
X90337913Y-187909409D01*
X90388708Y-188022275D01*
G37*
X90388708Y-188022275D02*
X90562481Y-188061585D01*
X90567057Y-188061600D01*
X90777688Y-188021889D01*
X90937429Y-187934600D01*
X90988132Y-187899016D01*
X91063708Y-187870360D01*
X91179742Y-187847691D01*
X91351820Y-187830067D01*
X91595527Y-187816550D01*
X91926448Y-187806196D01*
X92360170Y-187798066D01*
X92912277Y-187791219D01*
X93389549Y-187786576D01*
X94030077Y-187781057D01*
X94541293Y-187777964D01*
X94939015Y-187778115D01*
X95239067Y-187782327D01*
X95457267Y-187791416D01*
X95609437Y-187806198D01*
X95711397Y-187827492D01*
X95778969Y-187856114D01*
X95827973Y-187892879D01*
X95849462Y-187913576D01*
X96007788Y-188014864D01*
X96197267Y-188062982D01*
X96371870Y-188056535D01*
X96485570Y-187994128D01*
X96505486Y-187933468D01*
X96471897Y-187785251D01*
X96389888Y-187593733D01*
X96378486Y-187572295D01*
X96139897Y-187277480D01*
X95781470Y-187027584D01*
X95322558Y-186826389D01*
X94782513Y-186677679D01*
X94180688Y-186585236D01*
X93536436Y-186552844D01*
X92869111Y-186584284D01*
X92198064Y-186683341D01*
X92023552Y-186721058D01*
X91416412Y-186916613D01*
X90918445Y-187195587D01*
X90604452Y-187475600D01*
X90409894Y-187726135D01*
X90337913Y-187909409D01*
X90388708Y-188022275D01*
G36*
X94766517Y-189230754D02*
G01*
X94926570Y-189281887D01*
X94929418Y-189282219D01*
X95222281Y-189262341D01*
X95561039Y-189159410D01*
X95899666Y-188996190D01*
X96192135Y-188795445D01*
X96392418Y-188579939D01*
X96410619Y-188549640D01*
X96487926Y-188392666D01*
X96493244Y-188304769D01*
X96457105Y-188255124D01*
X96355490Y-188219546D01*
X96204968Y-188206743D01*
X96029420Y-188248799D01*
X95902897Y-188397753D01*
X95889264Y-188423229D01*
X95709329Y-188641955D01*
X95409488Y-188823342D01*
X95023859Y-188961889D01*
X94821653Y-189048740D01*
X94733708Y-189145700D01*
X94766517Y-189230754D01*
G37*
X94766517Y-189230754D02*
X94926570Y-189281887D01*
X94929418Y-189282219D01*
X95222281Y-189262341D01*
X95561039Y-189159410D01*
X95899666Y-188996190D01*
X96192135Y-188795445D01*
X96392418Y-188579939D01*
X96410619Y-188549640D01*
X96487926Y-188392666D01*
X96493244Y-188304769D01*
X96457105Y-188255124D01*
X96355490Y-188219546D01*
X96204968Y-188206743D01*
X96029420Y-188248799D01*
X95902897Y-188397753D01*
X95889264Y-188423229D01*
X95709329Y-188641955D01*
X95409488Y-188823342D01*
X95023859Y-188961889D01*
X94821653Y-189048740D01*
X94733708Y-189145700D01*
X94766517Y-189230754D01*
G36*
X94217636Y-189789156D02*
G01*
X94292849Y-189849153D01*
X94476215Y-189930909D01*
X94593491Y-189948457D01*
X94823638Y-189986374D01*
X95119559Y-190085173D01*
X95428175Y-190222428D01*
X95696409Y-190375714D01*
X95813443Y-190463897D01*
X96078464Y-190632287D01*
X96279209Y-190674171D01*
X96451894Y-190643137D01*
X96499821Y-190546436D01*
X96424136Y-190378666D01*
X96360343Y-190291511D01*
X96246863Y-190129399D01*
X96228542Y-190017910D01*
X96302156Y-189900959D01*
X96335707Y-189863012D01*
X96408072Y-189743659D01*
X96402298Y-189675869D01*
X96300051Y-189644140D01*
X96086576Y-189619984D01*
X95795603Y-189603649D01*
X95460861Y-189595381D01*
X95116081Y-189595428D01*
X94794992Y-189604036D01*
X94531323Y-189621453D01*
X94358806Y-189647924D01*
X94323705Y-189660653D01*
X94209769Y-189731892D01*
X94217636Y-189789156D01*
G37*
X94217636Y-189789156D02*
X94292849Y-189849153D01*
X94476215Y-189930909D01*
X94593491Y-189948457D01*
X94823638Y-189986374D01*
X95119559Y-190085173D01*
X95428175Y-190222428D01*
X95696409Y-190375714D01*
X95813443Y-190463897D01*
X96078464Y-190632287D01*
X96279209Y-190674171D01*
X96451894Y-190643137D01*
X96499821Y-190546436D01*
X96424136Y-190378666D01*
X96360343Y-190291511D01*
X96246863Y-190129399D01*
X96228542Y-190017910D01*
X96302156Y-189900959D01*
X96335707Y-189863012D01*
X96408072Y-189743659D01*
X96402298Y-189675869D01*
X96300051Y-189644140D01*
X96086576Y-189619984D01*
X95795603Y-189603649D01*
X95460861Y-189595381D01*
X95116081Y-189595428D01*
X94794992Y-189604036D01*
X94531323Y-189621453D01*
X94358806Y-189647924D01*
X94323705Y-189660653D01*
X94209769Y-189731892D01*
X94217636Y-189789156D01*
G36*
X90421633Y-190811624D02*
G01*
X90556184Y-190819314D01*
X90770933Y-190775265D01*
X90981541Y-190668951D01*
X90986234Y-190665523D01*
X91241398Y-190551682D01*
X91550876Y-190515513D01*
X91843297Y-190562092D01*
X91927819Y-190598567D01*
X92038953Y-190689716D01*
X92207534Y-190864351D01*
X92403256Y-191090352D01*
X92474017Y-191177466D01*
X92797665Y-191542684D01*
X93114868Y-191800403D01*
X93460584Y-191966544D01*
X93869770Y-192057032D01*
X94377386Y-192087791D01*
X94473486Y-192088229D01*
X94848954Y-192082382D01*
X95121712Y-192061924D01*
X95333951Y-192020591D01*
X95527863Y-191952121D01*
X95597439Y-191921398D01*
X96000598Y-191693494D01*
X96281594Y-191429305D01*
X96403524Y-191240204D01*
X96495940Y-191015729D01*
X96484390Y-190882036D01*
X96364569Y-190824392D01*
X96280602Y-190819314D01*
X96056388Y-190874104D01*
X95843837Y-191046133D01*
X95704499Y-191180153D01*
X95577038Y-191241051D01*
X95400728Y-191248654D01*
X95258902Y-191237106D01*
X95094708Y-191216621D01*
X94962681Y-191178856D01*
X94834954Y-191104703D01*
X94683657Y-190975052D01*
X94480924Y-190770796D01*
X94298666Y-190578689D01*
X94043737Y-190319636D01*
X93800318Y-190092034D01*
X93598217Y-189922638D01*
X93479805Y-189843726D01*
X93069886Y-189707696D01*
X92581168Y-189642964D01*
X92060416Y-189648024D01*
X91554394Y-189721369D01*
X91109866Y-189861494D01*
X90980768Y-189924231D01*
X90684404Y-190117395D01*
X90498461Y-190327886D01*
X90389784Y-190594298D01*
X90383297Y-190619743D01*
X90362779Y-190758890D01*
X90421633Y-190811624D01*
G37*
X90421633Y-190811624D02*
X90556184Y-190819314D01*
X90770933Y-190775265D01*
X90981541Y-190668951D01*
X90986234Y-190665523D01*
X91241398Y-190551682D01*
X91550876Y-190515513D01*
X91843297Y-190562092D01*
X91927819Y-190598567D01*
X92038953Y-190689716D01*
X92207534Y-190864351D01*
X92403256Y-191090352D01*
X92474017Y-191177466D01*
X92797665Y-191542684D01*
X93114868Y-191800403D01*
X93460584Y-191966544D01*
X93869770Y-192057032D01*
X94377386Y-192087791D01*
X94473486Y-192088229D01*
X94848954Y-192082382D01*
X95121712Y-192061924D01*
X95333951Y-192020591D01*
X95527863Y-191952121D01*
X95597439Y-191921398D01*
X96000598Y-191693494D01*
X96281594Y-191429305D01*
X96403524Y-191240204D01*
X96495940Y-191015729D01*
X96484390Y-190882036D01*
X96364569Y-190824392D01*
X96280602Y-190819314D01*
X96056388Y-190874104D01*
X95843837Y-191046133D01*
X95704499Y-191180153D01*
X95577038Y-191241051D01*
X95400728Y-191248654D01*
X95258902Y-191237106D01*
X95094708Y-191216621D01*
X94962681Y-191178856D01*
X94834954Y-191104703D01*
X94683657Y-190975052D01*
X94480924Y-190770796D01*
X94298666Y-190578689D01*
X94043737Y-190319636D01*
X93800318Y-190092034D01*
X93598217Y-189922638D01*
X93479805Y-189843726D01*
X93069886Y-189707696D01*
X92581168Y-189642964D01*
X92060416Y-189648024D01*
X91554394Y-189721369D01*
X91109866Y-189861494D01*
X90980768Y-189924231D01*
X90684404Y-190117395D01*
X90498461Y-190327886D01*
X90389784Y-190594298D01*
X90383297Y-190619743D01*
X90362779Y-190758890D01*
X90421633Y-190811624D01*
G36*
X91852657Y-157715700D02*
G01*
X91981364Y-157739956D01*
X92114914Y-157756909D01*
X92330187Y-157769646D01*
X92595649Y-157760892D01*
X92934338Y-157728448D01*
X93369298Y-157670118D01*
X93912953Y-157585431D01*
X94469737Y-157496407D01*
X94901946Y-157432157D01*
X95227893Y-157391973D01*
X95465889Y-157375146D01*
X95634249Y-157380968D01*
X95751284Y-157408732D01*
X95835309Y-157457728D01*
X95888628Y-157509028D01*
X96049833Y-157620668D01*
X96223211Y-157648813D01*
X96357005Y-157590323D01*
X96388864Y-157539379D01*
X96425671Y-157355834D01*
X96431337Y-157123069D01*
X96408989Y-156900252D01*
X96361754Y-156746551D01*
X96345828Y-156725257D01*
X96176901Y-156643171D01*
X95991561Y-156693704D01*
X95894630Y-156776683D01*
X95817365Y-156851215D01*
X95721198Y-156914972D01*
X95588656Y-156972308D01*
X95402265Y-157027572D01*
X95144550Y-157085116D01*
X94798039Y-157149293D01*
X94345258Y-157224453D01*
X93768733Y-157314947D01*
X93675200Y-157329389D01*
X93058037Y-157425584D01*
X92575282Y-157503870D01*
X92217652Y-157566790D01*
X91975859Y-157616889D01*
X91840620Y-157656711D01*
X91802647Y-157688800D01*
X91852657Y-157715700D01*
G37*
X91852657Y-157715700D02*
X91981364Y-157739956D01*
X92114914Y-157756909D01*
X92330187Y-157769646D01*
X92595649Y-157760892D01*
X92934338Y-157728448D01*
X93369298Y-157670118D01*
X93912953Y-157585431D01*
X94469737Y-157496407D01*
X94901946Y-157432157D01*
X95227893Y-157391973D01*
X95465889Y-157375146D01*
X95634249Y-157380968D01*
X95751284Y-157408732D01*
X95835309Y-157457728D01*
X95888628Y-157509028D01*
X96049833Y-157620668D01*
X96223211Y-157648813D01*
X96357005Y-157590323D01*
X96388864Y-157539379D01*
X96425671Y-157355834D01*
X96431337Y-157123069D01*
X96408989Y-156900252D01*
X96361754Y-156746551D01*
X96345828Y-156725257D01*
X96176901Y-156643171D01*
X95991561Y-156693704D01*
X95894630Y-156776683D01*
X95817365Y-156851215D01*
X95721198Y-156914972D01*
X95588656Y-156972308D01*
X95402265Y-157027572D01*
X95144550Y-157085116D01*
X94798039Y-157149293D01*
X94345258Y-157224453D01*
X93768733Y-157314947D01*
X93675200Y-157329389D01*
X93058037Y-157425584D01*
X92575282Y-157503870D01*
X92217652Y-157566790D01*
X91975859Y-157616889D01*
X91840620Y-157656711D01*
X91802647Y-157688800D01*
X91852657Y-157715700D01*
G36*
X90490702Y-158649563D02*
G01*
X90518268Y-158826017D01*
X90567204Y-158887656D01*
X90572771Y-158888074D01*
X90663406Y-158897656D01*
X90881037Y-158924832D01*
X91208875Y-158967383D01*
X91630131Y-159023091D01*
X92128017Y-159089735D01*
X92685745Y-159165096D01*
X93254779Y-159242613D01*
X93989812Y-159344673D01*
X94591063Y-159431794D01*
X95068927Y-159505784D01*
X95433795Y-159568452D01*
X95696059Y-159621608D01*
X95866114Y-159667061D01*
X95954350Y-159706620D01*
X95963249Y-159714139D01*
X96093027Y-159807986D01*
X96169583Y-159831314D01*
X96286802Y-159799996D01*
X96365349Y-159692858D01*
X96411376Y-159490127D01*
X96431033Y-159172029D01*
X96432914Y-158984782D01*
X96429846Y-158664407D01*
X96416545Y-158458296D01*
X96386869Y-158335630D01*
X96334674Y-158265587D01*
X96282905Y-158232138D01*
X96131992Y-158192056D01*
X95969961Y-158258707D01*
X95958887Y-158265871D01*
X95688067Y-158365058D01*
X95324144Y-158365027D01*
X95135700Y-158334528D01*
X94997630Y-158296254D01*
X94931211Y-158225002D01*
X94910381Y-158076580D01*
X94908914Y-157949958D01*
X94908914Y-157610745D01*
X94654914Y-157640398D01*
X94491590Y-157670025D01*
X94419415Y-157738216D01*
X94401332Y-157891421D01*
X94400914Y-157958776D01*
X94400914Y-158247500D01*
X94128771Y-158203186D01*
X93818481Y-158155869D01*
X93429575Y-158101412D01*
X92989466Y-158043136D01*
X92525567Y-157984367D01*
X92065293Y-157928427D01*
X91636056Y-157878641D01*
X91265271Y-157838332D01*
X90980351Y-157810823D01*
X90808710Y-157799439D01*
X90797675Y-157799314D01*
X90482057Y-157799314D01*
X90482057Y-158343600D01*
X90490702Y-158649563D01*
G37*
X90490702Y-158649563D02*
X90518268Y-158826017D01*
X90567204Y-158887656D01*
X90572771Y-158888074D01*
X90663406Y-158897656D01*
X90881037Y-158924832D01*
X91208875Y-158967383D01*
X91630131Y-159023091D01*
X92128017Y-159089735D01*
X92685745Y-159165096D01*
X93254779Y-159242613D01*
X93989812Y-159344673D01*
X94591063Y-159431794D01*
X95068927Y-159505784D01*
X95433795Y-159568452D01*
X95696059Y-159621608D01*
X95866114Y-159667061D01*
X95954350Y-159706620D01*
X95963249Y-159714139D01*
X96093027Y-159807986D01*
X96169583Y-159831314D01*
X96286802Y-159799996D01*
X96365349Y-159692858D01*
X96411376Y-159490127D01*
X96431033Y-159172029D01*
X96432914Y-158984782D01*
X96429846Y-158664407D01*
X96416545Y-158458296D01*
X96386869Y-158335630D01*
X96334674Y-158265587D01*
X96282905Y-158232138D01*
X96131992Y-158192056D01*
X95969961Y-158258707D01*
X95958887Y-158265871D01*
X95688067Y-158365058D01*
X95324144Y-158365027D01*
X95135700Y-158334528D01*
X94997630Y-158296254D01*
X94931211Y-158225002D01*
X94910381Y-158076580D01*
X94908914Y-157949958D01*
X94908914Y-157610745D01*
X94654914Y-157640398D01*
X94491590Y-157670025D01*
X94419415Y-157738216D01*
X94401332Y-157891421D01*
X94400914Y-157958776D01*
X94400914Y-158247500D01*
X94128771Y-158203186D01*
X93818481Y-158155869D01*
X93429575Y-158101412D01*
X92989466Y-158043136D01*
X92525567Y-157984367D01*
X92065293Y-157928427D01*
X91636056Y-157878641D01*
X91265271Y-157838332D01*
X90980351Y-157810823D01*
X90808710Y-157799439D01*
X90797675Y-157799314D01*
X90482057Y-157799314D01*
X90482057Y-158343600D01*
X90490702Y-158649563D01*
G36*
X90408278Y-172936020D02*
G01*
X90582028Y-172966743D01*
X90777043Y-172936249D01*
X90913522Y-172862408D01*
X90917485Y-172857885D01*
X90960397Y-172827561D01*
X91043064Y-172803290D01*
X91179947Y-172784433D01*
X91385507Y-172770356D01*
X91674205Y-172760419D01*
X92060503Y-172753988D01*
X92558862Y-172750423D01*
X93183742Y-172749089D01*
X93388616Y-172749028D01*
X94053886Y-172749865D01*
X94588574Y-172752798D01*
X95007235Y-172758464D01*
X95324421Y-172767500D01*
X95554687Y-172780541D01*
X95712587Y-172798225D01*
X95812674Y-172821187D01*
X95869502Y-172850064D01*
X95878261Y-172857885D01*
X96027221Y-172936892D01*
X96210016Y-172966743D01*
X96381517Y-172927644D01*
X96432309Y-172814343D01*
X96362662Y-172632830D01*
X96184703Y-172402135D01*
X95831094Y-172093074D01*
X95390081Y-171857852D01*
X94850685Y-171693177D01*
X94201930Y-171595755D01*
X93432838Y-171562295D01*
X93384914Y-171562247D01*
X92580727Y-171598147D01*
X91898271Y-171705177D01*
X91331789Y-171885088D01*
X90875524Y-172139634D01*
X90566238Y-172420321D01*
X90389036Y-172660351D01*
X90336408Y-172833119D01*
X90408278Y-172936020D01*
G37*
X90408278Y-172936020D02*
X90582028Y-172966743D01*
X90777043Y-172936249D01*
X90913522Y-172862408D01*
X90917485Y-172857885D01*
X90960397Y-172827561D01*
X91043064Y-172803290D01*
X91179947Y-172784433D01*
X91385507Y-172770356D01*
X91674205Y-172760419D01*
X92060503Y-172753988D01*
X92558862Y-172750423D01*
X93183742Y-172749089D01*
X93388616Y-172749028D01*
X94053886Y-172749865D01*
X94588574Y-172752798D01*
X95007235Y-172758464D01*
X95324421Y-172767500D01*
X95554687Y-172780541D01*
X95712587Y-172798225D01*
X95812674Y-172821187D01*
X95869502Y-172850064D01*
X95878261Y-172857885D01*
X96027221Y-172936892D01*
X96210016Y-172966743D01*
X96381517Y-172927644D01*
X96432309Y-172814343D01*
X96362662Y-172632830D01*
X96184703Y-172402135D01*
X95831094Y-172093074D01*
X95390081Y-171857852D01*
X94850685Y-171693177D01*
X94201930Y-171595755D01*
X93432838Y-171562295D01*
X93384914Y-171562247D01*
X92580727Y-171598147D01*
X91898271Y-171705177D01*
X91331789Y-171885088D01*
X90875524Y-172139634D01*
X90566238Y-172420321D01*
X90389036Y-172660351D01*
X90336408Y-172833119D01*
X90408278Y-172936020D01*
G36*
X90391458Y-173450070D02*
G01*
X90531356Y-173664703D01*
X90723760Y-173875338D01*
X90896602Y-174013822D01*
X91211166Y-174198114D01*
X91539642Y-174335403D01*
X91911842Y-174432738D01*
X92357580Y-174497169D01*
X92906672Y-174535743D01*
X93142884Y-174544903D01*
X93822894Y-174551420D01*
X94386977Y-174519652D01*
X94860310Y-174445310D01*
X95268074Y-174324103D01*
X95635445Y-174151742D01*
X95712318Y-174107149D01*
X95980363Y-173914501D01*
X96208977Y-173691981D01*
X96369382Y-173472518D01*
X96432801Y-173289041D01*
X96432914Y-173282582D01*
X96368228Y-173207652D01*
X96223495Y-173184457D01*
X96002784Y-173219415D01*
X95806209Y-173292867D01*
X95668885Y-173326689D01*
X95411807Y-173354988D01*
X95056910Y-173377752D01*
X94626129Y-173394969D01*
X94141395Y-173406626D01*
X93624645Y-173412711D01*
X93097811Y-173413211D01*
X92582827Y-173408114D01*
X92101627Y-173397407D01*
X91676145Y-173381078D01*
X91328316Y-173359115D01*
X91080071Y-173331505D01*
X90953347Y-173298235D01*
X90949499Y-173295622D01*
X90796353Y-173223586D01*
X90610889Y-173190268D01*
X90443804Y-173197361D01*
X90345795Y-173246558D01*
X90337185Y-173275171D01*
X90391458Y-173450070D01*
G37*
X90391458Y-173450070D02*
X90531356Y-173664703D01*
X90723760Y-173875338D01*
X90896602Y-174013822D01*
X91211166Y-174198114D01*
X91539642Y-174335403D01*
X91911842Y-174432738D01*
X92357580Y-174497169D01*
X92906672Y-174535743D01*
X93142884Y-174544903D01*
X93822894Y-174551420D01*
X94386977Y-174519652D01*
X94860310Y-174445310D01*
X95268074Y-174324103D01*
X95635445Y-174151742D01*
X95712318Y-174107149D01*
X95980363Y-173914501D01*
X96208977Y-173691981D01*
X96369382Y-173472518D01*
X96432801Y-173289041D01*
X96432914Y-173282582D01*
X96368228Y-173207652D01*
X96223495Y-173184457D01*
X96002784Y-173219415D01*
X95806209Y-173292867D01*
X95668885Y-173326689D01*
X95411807Y-173354988D01*
X95056910Y-173377752D01*
X94626129Y-173394969D01*
X94141395Y-173406626D01*
X93624645Y-173412711D01*
X93097811Y-173413211D01*
X92582827Y-173408114D01*
X92101627Y-173397407D01*
X91676145Y-173381078D01*
X91328316Y-173359115D01*
X91080071Y-173331505D01*
X90953347Y-173298235D01*
X90949499Y-173295622D01*
X90796353Y-173223586D01*
X90610889Y-173190268D01*
X90443804Y-173197361D01*
X90345795Y-173246558D01*
X90337185Y-173275171D01*
X90391458Y-173450070D01*
G36*
X90408278Y-179612591D02*
G01*
X90582028Y-179643314D01*
X90777043Y-179612820D01*
X90913522Y-179538980D01*
X90917485Y-179534457D01*
X90960397Y-179504133D01*
X91043064Y-179479861D01*
X91179947Y-179461005D01*
X91385507Y-179446927D01*
X91674205Y-179436991D01*
X92060503Y-179430559D01*
X92558862Y-179426995D01*
X93183742Y-179425660D01*
X93388616Y-179425600D01*
X94053886Y-179426436D01*
X94588574Y-179429369D01*
X95007235Y-179435035D01*
X95324421Y-179444071D01*
X95554687Y-179457113D01*
X95712587Y-179474796D01*
X95812674Y-179497758D01*
X95869502Y-179526636D01*
X95878261Y-179534457D01*
X96027221Y-179613464D01*
X96210016Y-179643314D01*
X96381517Y-179604216D01*
X96432309Y-179490915D01*
X96362662Y-179309401D01*
X96184703Y-179078707D01*
X95831094Y-178769645D01*
X95390081Y-178534423D01*
X94850685Y-178369748D01*
X94201930Y-178272327D01*
X93432838Y-178238866D01*
X93384914Y-178238818D01*
X92580727Y-178274719D01*
X91898271Y-178381748D01*
X91331789Y-178561660D01*
X90875524Y-178816205D01*
X90566238Y-179096893D01*
X90389036Y-179336923D01*
X90336408Y-179509691D01*
X90408278Y-179612591D01*
G37*
X90408278Y-179612591D02*
X90582028Y-179643314D01*
X90777043Y-179612820D01*
X90913522Y-179538980D01*
X90917485Y-179534457D01*
X90960397Y-179504133D01*
X91043064Y-179479861D01*
X91179947Y-179461005D01*
X91385507Y-179446927D01*
X91674205Y-179436991D01*
X92060503Y-179430559D01*
X92558862Y-179426995D01*
X93183742Y-179425660D01*
X93388616Y-179425600D01*
X94053886Y-179426436D01*
X94588574Y-179429369D01*
X95007235Y-179435035D01*
X95324421Y-179444071D01*
X95554687Y-179457113D01*
X95712587Y-179474796D01*
X95812674Y-179497758D01*
X95869502Y-179526636D01*
X95878261Y-179534457D01*
X96027221Y-179613464D01*
X96210016Y-179643314D01*
X96381517Y-179604216D01*
X96432309Y-179490915D01*
X96362662Y-179309401D01*
X96184703Y-179078707D01*
X95831094Y-178769645D01*
X95390081Y-178534423D01*
X94850685Y-178369748D01*
X94201930Y-178272327D01*
X93432838Y-178238866D01*
X93384914Y-178238818D01*
X92580727Y-178274719D01*
X91898271Y-178381748D01*
X91331789Y-178561660D01*
X90875524Y-178816205D01*
X90566238Y-179096893D01*
X90389036Y-179336923D01*
X90336408Y-179509691D01*
X90408278Y-179612591D01*
G36*
X90391458Y-180126642D02*
G01*
X90531356Y-180341274D01*
X90723760Y-180551910D01*
X90896602Y-180690394D01*
X91211166Y-180874685D01*
X91539642Y-181011974D01*
X91911842Y-181109310D01*
X92357580Y-181173740D01*
X92906672Y-181212315D01*
X93142884Y-181221474D01*
X93822894Y-181227991D01*
X94386977Y-181196224D01*
X94860310Y-181121881D01*
X95268074Y-181000674D01*
X95635445Y-180828314D01*
X95712318Y-180783720D01*
X95980363Y-180591073D01*
X96208977Y-180368552D01*
X96369382Y-180149089D01*
X96432801Y-179965613D01*
X96432914Y-179959153D01*
X96368228Y-179884224D01*
X96223495Y-179861028D01*
X96002784Y-179895986D01*
X95806209Y-179969438D01*
X95668885Y-180003260D01*
X95411807Y-180031560D01*
X95056910Y-180054324D01*
X94626129Y-180071541D01*
X94141395Y-180083198D01*
X93624645Y-180089283D01*
X93097811Y-180089783D01*
X92582827Y-180084686D01*
X92101627Y-180073979D01*
X91676145Y-180057650D01*
X91328316Y-180035686D01*
X91080071Y-180008076D01*
X90953347Y-179974806D01*
X90949499Y-179972194D01*
X90796353Y-179900158D01*
X90610889Y-179866839D01*
X90443804Y-179873932D01*
X90345795Y-179923130D01*
X90337185Y-179951743D01*
X90391458Y-180126642D01*
G37*
X90391458Y-180126642D02*
X90531356Y-180341274D01*
X90723760Y-180551910D01*
X90896602Y-180690394D01*
X91211166Y-180874685D01*
X91539642Y-181011974D01*
X91911842Y-181109310D01*
X92357580Y-181173740D01*
X92906672Y-181212315D01*
X93142884Y-181221474D01*
X93822894Y-181227991D01*
X94386977Y-181196224D01*
X94860310Y-181121881D01*
X95268074Y-181000674D01*
X95635445Y-180828314D01*
X95712318Y-180783720D01*
X95980363Y-180591073D01*
X96208977Y-180368552D01*
X96369382Y-180149089D01*
X96432801Y-179965613D01*
X96432914Y-179959153D01*
X96368228Y-179884224D01*
X96223495Y-179861028D01*
X96002784Y-179895986D01*
X95806209Y-179969438D01*
X95668885Y-180003260D01*
X95411807Y-180031560D01*
X95056910Y-180054324D01*
X94626129Y-180071541D01*
X94141395Y-180083198D01*
X93624645Y-180089283D01*
X93097811Y-180089783D01*
X92582827Y-180084686D01*
X92101627Y-180073979D01*
X91676145Y-180057650D01*
X91328316Y-180035686D01*
X91080071Y-180008076D01*
X90953347Y-179974806D01*
X90949499Y-179972194D01*
X90796353Y-179900158D01*
X90610889Y-179866839D01*
X90443804Y-179873932D01*
X90345795Y-179923130D01*
X90337185Y-179951743D01*
X90391458Y-180126642D01*
G36*
X93147020Y-139221028D02*
G01*
X93839732Y-139221239D01*
X94401607Y-139222387D01*
X94846948Y-139225248D01*
X95190059Y-139230596D01*
X95445247Y-139239207D01*
X95626814Y-139251855D01*
X95749067Y-139269316D01*
X95826308Y-139292364D01*
X95872844Y-139321774D01*
X95902978Y-139358321D01*
X95910939Y-139370762D01*
X96055589Y-139488623D01*
X96164253Y-139497762D01*
X96233713Y-139480065D01*
X96280420Y-139433404D01*
X96309882Y-139332149D01*
X96327608Y-139150664D01*
X96339106Y-138863317D01*
X96344577Y-138658600D01*
X96365096Y-137842171D01*
X96190177Y-137842171D01*
X96015959Y-137884925D01*
X95924914Y-137951028D01*
X95882260Y-137981156D01*
X95800034Y-138005312D01*
X95663878Y-138024121D01*
X95459435Y-138038206D01*
X95172347Y-138048193D01*
X94788255Y-138054703D01*
X94292803Y-138058363D01*
X93671632Y-138059795D01*
X93420078Y-138059885D01*
X92757375Y-138059235D01*
X92225461Y-138056839D01*
X91809987Y-138052036D01*
X91496604Y-138044160D01*
X91270962Y-138032549D01*
X91118712Y-138016538D01*
X91025504Y-137995463D01*
X90976989Y-137968661D01*
X90961948Y-137946168D01*
X90856237Y-137860524D01*
X90718327Y-137855454D01*
X90518343Y-137878457D01*
X90497476Y-138549743D01*
X90476610Y-139221028D01*
X93147020Y-139221028D01*
G37*
X93147020Y-139221028D02*
X93839732Y-139221239D01*
X94401607Y-139222387D01*
X94846948Y-139225248D01*
X95190059Y-139230596D01*
X95445247Y-139239207D01*
X95626814Y-139251855D01*
X95749067Y-139269316D01*
X95826308Y-139292364D01*
X95872844Y-139321774D01*
X95902978Y-139358321D01*
X95910939Y-139370762D01*
X96055589Y-139488623D01*
X96164253Y-139497762D01*
X96233713Y-139480065D01*
X96280420Y-139433404D01*
X96309882Y-139332149D01*
X96327608Y-139150664D01*
X96339106Y-138863317D01*
X96344577Y-138658600D01*
X96365096Y-137842171D01*
X96190177Y-137842171D01*
X96015959Y-137884925D01*
X95924914Y-137951028D01*
X95882260Y-137981156D01*
X95800034Y-138005312D01*
X95663878Y-138024121D01*
X95459435Y-138038206D01*
X95172347Y-138048193D01*
X94788255Y-138054703D01*
X94292803Y-138058363D01*
X93671632Y-138059795D01*
X93420078Y-138059885D01*
X92757375Y-138059235D01*
X92225461Y-138056839D01*
X91809987Y-138052036D01*
X91496604Y-138044160D01*
X91270962Y-138032549D01*
X91118712Y-138016538D01*
X91025504Y-137995463D01*
X90976989Y-137968661D01*
X90961948Y-137946168D01*
X90856237Y-137860524D01*
X90718327Y-137855454D01*
X90518343Y-137878457D01*
X90497476Y-138549743D01*
X90476610Y-139221028D01*
X93147020Y-139221028D01*
G36*
X90520058Y-145412888D02*
G01*
X90528338Y-145643450D01*
X90547884Y-145780550D01*
X90583396Y-145850020D01*
X90639576Y-145877696D01*
X90667490Y-145882652D01*
X90824966Y-145848204D01*
X90950880Y-145755652D01*
X90990367Y-145716942D01*
X91041351Y-145685624D01*
X91118453Y-145660917D01*
X91236294Y-145642037D01*
X91409496Y-145628202D01*
X91652682Y-145618630D01*
X91980471Y-145612538D01*
X92407486Y-145609143D01*
X92948349Y-145607664D01*
X93617680Y-145607317D01*
X93722733Y-145607314D01*
X96360343Y-145607314D01*
X96360343Y-144917886D01*
X96358885Y-144598444D01*
X96349977Y-144396969D01*
X96326819Y-144286287D01*
X96282610Y-144239223D01*
X96210548Y-144228602D01*
X96187800Y-144228457D01*
X96014261Y-144271802D01*
X95924914Y-144337314D01*
X95882260Y-144367441D01*
X95800034Y-144391598D01*
X95663878Y-144410407D01*
X95459435Y-144424492D01*
X95172347Y-144434478D01*
X94788255Y-144440989D01*
X94292803Y-144444649D01*
X93671632Y-144446081D01*
X93420078Y-144446171D01*
X92757375Y-144445520D01*
X92225461Y-144443125D01*
X91809987Y-144438322D01*
X91496604Y-144430446D01*
X91270962Y-144418835D01*
X91118712Y-144402824D01*
X91025504Y-144381749D01*
X90976989Y-144354947D01*
X90961948Y-144332454D01*
X90856237Y-144246810D01*
X90718327Y-144241740D01*
X90518343Y-144264743D01*
X90518343Y-145063028D01*
X90520058Y-145412888D01*
G37*
X90520058Y-145412888D02*
X90528338Y-145643450D01*
X90547884Y-145780550D01*
X90583396Y-145850020D01*
X90639576Y-145877696D01*
X90667490Y-145882652D01*
X90824966Y-145848204D01*
X90950880Y-145755652D01*
X90990367Y-145716942D01*
X91041351Y-145685624D01*
X91118453Y-145660917D01*
X91236294Y-145642037D01*
X91409496Y-145628202D01*
X91652682Y-145618630D01*
X91980471Y-145612538D01*
X92407486Y-145609143D01*
X92948349Y-145607664D01*
X93617680Y-145607317D01*
X93722733Y-145607314D01*
X96360343Y-145607314D01*
X96360343Y-144917886D01*
X96358885Y-144598444D01*
X96349977Y-144396969D01*
X96326819Y-144286287D01*
X96282610Y-144239223D01*
X96210548Y-144228602D01*
X96187800Y-144228457D01*
X96014261Y-144271802D01*
X95924914Y-144337314D01*
X95882260Y-144367441D01*
X95800034Y-144391598D01*
X95663878Y-144410407D01*
X95459435Y-144424492D01*
X95172347Y-144434478D01*
X94788255Y-144440989D01*
X94292803Y-144444649D01*
X93671632Y-144446081D01*
X93420078Y-144446171D01*
X92757375Y-144445520D01*
X92225461Y-144443125D01*
X91809987Y-144438322D01*
X91496604Y-144430446D01*
X91270962Y-144418835D01*
X91118712Y-144402824D01*
X91025504Y-144381749D01*
X90976989Y-144354947D01*
X90961948Y-144332454D01*
X90856237Y-144246810D01*
X90718327Y-144241740D01*
X90518343Y-144264743D01*
X90518343Y-145063028D01*
X90520058Y-145412888D01*
G36*
X94390537Y-146671762D02*
G01*
X94481474Y-146703196D01*
X94657261Y-146725401D01*
X94937717Y-146740836D01*
X95342661Y-146751957D01*
X95362486Y-146752362D01*
X96360343Y-146772553D01*
X96360343Y-145752457D01*
X96145182Y-145752457D01*
X95943253Y-145800989D01*
X95857843Y-145887322D01*
X95701109Y-146068307D01*
X95432121Y-146222644D01*
X95036763Y-146357742D01*
X94887535Y-146396580D01*
X94575502Y-146487497D01*
X94401852Y-146572333D01*
X94364628Y-146628644D01*
X94390537Y-146671762D01*
G37*
X94390537Y-146671762D02*
X94481474Y-146703196D01*
X94657261Y-146725401D01*
X94937717Y-146740836D01*
X95342661Y-146751957D01*
X95362486Y-146752362D01*
X96360343Y-146772553D01*
X96360343Y-145752457D01*
X96145182Y-145752457D01*
X95943253Y-145800989D01*
X95857843Y-145887322D01*
X95701109Y-146068307D01*
X95432121Y-146222644D01*
X95036763Y-146357742D01*
X94887535Y-146396580D01*
X94575502Y-146487497D01*
X94401852Y-146572333D01*
X94364628Y-146628644D01*
X94390537Y-146671762D01*
G36*
X90520058Y-148098031D02*
G01*
X90528338Y-148328593D01*
X90547884Y-148465693D01*
X90583396Y-148535163D01*
X90639576Y-148562839D01*
X90667490Y-148567794D01*
X90824966Y-148533347D01*
X90950880Y-148440794D01*
X90990367Y-148402085D01*
X91041351Y-148370767D01*
X91118453Y-148346060D01*
X91236294Y-148327180D01*
X91409496Y-148313345D01*
X91652682Y-148303773D01*
X91980471Y-148297681D01*
X92407486Y-148294286D01*
X92948349Y-148292807D01*
X93617680Y-148292460D01*
X93722733Y-148292457D01*
X96360343Y-148292457D01*
X96360343Y-147603028D01*
X96358885Y-147283587D01*
X96349977Y-147082112D01*
X96326819Y-146971430D01*
X96282610Y-146924366D01*
X96210548Y-146913745D01*
X96187800Y-146913600D01*
X96014261Y-146956945D01*
X95924914Y-147022457D01*
X95882260Y-147052584D01*
X95800034Y-147076741D01*
X95663878Y-147095549D01*
X95459435Y-147109635D01*
X95172347Y-147119621D01*
X94788255Y-147126132D01*
X94292803Y-147129792D01*
X93671632Y-147131224D01*
X93420078Y-147131314D01*
X92757375Y-147130663D01*
X92225461Y-147128268D01*
X91809987Y-147123464D01*
X91496604Y-147115589D01*
X91270962Y-147103978D01*
X91118712Y-147087966D01*
X91025504Y-147066892D01*
X90976989Y-147040090D01*
X90961948Y-147017597D01*
X90856237Y-146931953D01*
X90718327Y-146926882D01*
X90518343Y-146949885D01*
X90518343Y-147748171D01*
X90520058Y-148098031D01*
G37*
X90520058Y-148098031D02*
X90528338Y-148328593D01*
X90547884Y-148465693D01*
X90583396Y-148535163D01*
X90639576Y-148562839D01*
X90667490Y-148567794D01*
X90824966Y-148533347D01*
X90950880Y-148440794D01*
X90990367Y-148402085D01*
X91041351Y-148370767D01*
X91118453Y-148346060D01*
X91236294Y-148327180D01*
X91409496Y-148313345D01*
X91652682Y-148303773D01*
X91980471Y-148297681D01*
X92407486Y-148294286D01*
X92948349Y-148292807D01*
X93617680Y-148292460D01*
X93722733Y-148292457D01*
X96360343Y-148292457D01*
X96360343Y-147603028D01*
X96358885Y-147283587D01*
X96349977Y-147082112D01*
X96326819Y-146971430D01*
X96282610Y-146924366D01*
X96210548Y-146913745D01*
X96187800Y-146913600D01*
X96014261Y-146956945D01*
X95924914Y-147022457D01*
X95882260Y-147052584D01*
X95800034Y-147076741D01*
X95663878Y-147095549D01*
X95459435Y-147109635D01*
X95172347Y-147119621D01*
X94788255Y-147126132D01*
X94292803Y-147129792D01*
X93671632Y-147131224D01*
X93420078Y-147131314D01*
X92757375Y-147130663D01*
X92225461Y-147128268D01*
X91809987Y-147123464D01*
X91496604Y-147115589D01*
X91270962Y-147103978D01*
X91118712Y-147087966D01*
X91025504Y-147066892D01*
X90976989Y-147040090D01*
X90961948Y-147017597D01*
X90856237Y-146931953D01*
X90718327Y-146926882D01*
X90518343Y-146949885D01*
X90518343Y-147748171D01*
X90520058Y-148098031D01*
G36*
X94390537Y-149356905D02*
G01*
X94481474Y-149388339D01*
X94657261Y-149410544D01*
X94937717Y-149425978D01*
X95342661Y-149437100D01*
X95362486Y-149437505D01*
X96360343Y-149457696D01*
X96360343Y-148437600D01*
X96145182Y-148437600D01*
X95943253Y-148486132D01*
X95857843Y-148572465D01*
X95701109Y-148753450D01*
X95432121Y-148907787D01*
X95036763Y-149042885D01*
X94887535Y-149081722D01*
X94575502Y-149172640D01*
X94401852Y-149257476D01*
X94364628Y-149313786D01*
X94390537Y-149356905D01*
G37*
X94390537Y-149356905D02*
X94481474Y-149388339D01*
X94657261Y-149410544D01*
X94937717Y-149425978D01*
X95342661Y-149437100D01*
X95362486Y-149437505D01*
X96360343Y-149457696D01*
X96360343Y-148437600D01*
X96145182Y-148437600D01*
X95943253Y-148486132D01*
X95857843Y-148572465D01*
X95701109Y-148753450D01*
X95432121Y-148907787D01*
X95036763Y-149042885D01*
X94887535Y-149081722D01*
X94575502Y-149172640D01*
X94401852Y-149257476D01*
X94364628Y-149313786D01*
X94390537Y-149356905D01*
G36*
X93149743Y-155694743D02*
G01*
X93842069Y-155694954D01*
X94403565Y-155696104D01*
X94848542Y-155698969D01*
X95191314Y-155704327D01*
X95446193Y-155712951D01*
X95627491Y-155725620D01*
X95749521Y-155743108D01*
X95826594Y-155766193D01*
X95873024Y-155795650D01*
X95903123Y-155832255D01*
X95910939Y-155844477D01*
X96055589Y-155962337D01*
X96164253Y-155971477D01*
X96234230Y-155953553D01*
X96281095Y-155906269D01*
X96310500Y-155803755D01*
X96328096Y-155620138D01*
X96339535Y-155329550D01*
X96344442Y-155146652D01*
X96348339Y-154818727D01*
X96343245Y-154545902D01*
X96330284Y-154359873D01*
X96314204Y-154293938D01*
X96174516Y-154242474D01*
X96011468Y-154289190D01*
X95908072Y-154388457D01*
X95879964Y-154426135D01*
X95837950Y-154456660D01*
X95767738Y-154480783D01*
X95655035Y-154499258D01*
X95485548Y-154512836D01*
X95244983Y-154522269D01*
X94919047Y-154528309D01*
X94493447Y-154531709D01*
X93953890Y-154533220D01*
X93286083Y-154533595D01*
X93149743Y-154533600D01*
X90482057Y-154533600D01*
X90482057Y-155694743D01*
X93149743Y-155694743D01*
G37*
X93149743Y-155694743D02*
X93842069Y-155694954D01*
X94403565Y-155696104D01*
X94848542Y-155698969D01*
X95191314Y-155704327D01*
X95446193Y-155712951D01*
X95627491Y-155725620D01*
X95749521Y-155743108D01*
X95826594Y-155766193D01*
X95873024Y-155795650D01*
X95903123Y-155832255D01*
X95910939Y-155844477D01*
X96055589Y-155962337D01*
X96164253Y-155971477D01*
X96234230Y-155953553D01*
X96281095Y-155906269D01*
X96310500Y-155803755D01*
X96328096Y-155620138D01*
X96339535Y-155329550D01*
X96344442Y-155146652D01*
X96348339Y-154818727D01*
X96343245Y-154545902D01*
X96330284Y-154359873D01*
X96314204Y-154293938D01*
X96174516Y-154242474D01*
X96011468Y-154289190D01*
X95908072Y-154388457D01*
X95879964Y-154426135D01*
X95837950Y-154456660D01*
X95767738Y-154480783D01*
X95655035Y-154499258D01*
X95485548Y-154512836D01*
X95244983Y-154522269D01*
X94919047Y-154528309D01*
X94493447Y-154531709D01*
X93953890Y-154533220D01*
X93286083Y-154533595D01*
X93149743Y-154533600D01*
X90482057Y-154533600D01*
X90482057Y-155694743D01*
X93149743Y-155694743D01*
G36*
X90497833Y-163885844D02*
G01*
X90508903Y-164229010D01*
X90524043Y-164453318D01*
X90548949Y-164585042D01*
X90589320Y-164650459D01*
X90650854Y-164675843D01*
X90669836Y-164678959D01*
X90835886Y-164647584D01*
X90914579Y-164588245D01*
X90956003Y-164557259D01*
X91033087Y-164532426D01*
X91160397Y-164513093D01*
X91352498Y-164498606D01*
X91623955Y-164488313D01*
X91989335Y-164481560D01*
X92463202Y-164477696D01*
X93060122Y-164476066D01*
X93421200Y-164475886D01*
X94087342Y-164476617D01*
X94622913Y-164479246D01*
X95042476Y-164484426D01*
X95360599Y-164492810D01*
X95591847Y-164505051D01*
X95750784Y-164521801D01*
X95851976Y-164543713D01*
X95909990Y-164571441D01*
X95927821Y-164588245D01*
X96071282Y-164671591D01*
X96172564Y-164678959D01*
X96240161Y-164659383D01*
X96285197Y-164606221D01*
X96313369Y-164493197D01*
X96330377Y-164294037D01*
X96341919Y-163982464D01*
X96344567Y-163885844D01*
X96350582Y-163532517D01*
X96344343Y-163298840D01*
X96323043Y-163159627D01*
X96283877Y-163089694D01*
X96253853Y-163071693D01*
X96068585Y-163062350D01*
X95924445Y-163159821D01*
X95896517Y-163211497D01*
X95865427Y-163240428D01*
X95787490Y-163263591D01*
X95648846Y-163281578D01*
X95435637Y-163294987D01*
X95134003Y-163304411D01*
X94730088Y-163310447D01*
X94210030Y-163313691D01*
X93559973Y-163314736D01*
X93493110Y-163314743D01*
X92843619Y-163314384D01*
X92323297Y-163312694D01*
X91916171Y-163308746D01*
X91606267Y-163301619D01*
X91377612Y-163290388D01*
X91214233Y-163274130D01*
X91100156Y-163251920D01*
X91019408Y-163222834D01*
X90956017Y-163185950D01*
X90928727Y-163166436D01*
X90739620Y-163069209D01*
X90602727Y-163066252D01*
X90546782Y-163104181D01*
X90511876Y-163183847D01*
X90494599Y-163331892D01*
X90491542Y-163574960D01*
X90497833Y-163885844D01*
G37*
X90497833Y-163885844D02*
X90508903Y-164229010D01*
X90524043Y-164453318D01*
X90548949Y-164585042D01*
X90589320Y-164650459D01*
X90650854Y-164675843D01*
X90669836Y-164678959D01*
X90835886Y-164647584D01*
X90914579Y-164588245D01*
X90956003Y-164557259D01*
X91033087Y-164532426D01*
X91160397Y-164513093D01*
X91352498Y-164498606D01*
X91623955Y-164488313D01*
X91989335Y-164481560D01*
X92463202Y-164477696D01*
X93060122Y-164476066D01*
X93421200Y-164475886D01*
X94087342Y-164476617D01*
X94622913Y-164479246D01*
X95042476Y-164484426D01*
X95360599Y-164492810D01*
X95591847Y-164505051D01*
X95750784Y-164521801D01*
X95851976Y-164543713D01*
X95909990Y-164571441D01*
X95927821Y-164588245D01*
X96071282Y-164671591D01*
X96172564Y-164678959D01*
X96240161Y-164659383D01*
X96285197Y-164606221D01*
X96313369Y-164493197D01*
X96330377Y-164294037D01*
X96341919Y-163982464D01*
X96344567Y-163885844D01*
X96350582Y-163532517D01*
X96344343Y-163298840D01*
X96323043Y-163159627D01*
X96283877Y-163089694D01*
X96253853Y-163071693D01*
X96068585Y-163062350D01*
X95924445Y-163159821D01*
X95896517Y-163211497D01*
X95865427Y-163240428D01*
X95787490Y-163263591D01*
X95648846Y-163281578D01*
X95435637Y-163294987D01*
X95134003Y-163304411D01*
X94730088Y-163310447D01*
X94210030Y-163313691D01*
X93559973Y-163314736D01*
X93493110Y-163314743D01*
X92843619Y-163314384D01*
X92323297Y-163312694D01*
X91916171Y-163308746D01*
X91606267Y-163301619D01*
X91377612Y-163290388D01*
X91214233Y-163274130D01*
X91100156Y-163251920D01*
X91019408Y-163222834D01*
X90956017Y-163185950D01*
X90928727Y-163166436D01*
X90739620Y-163069209D01*
X90602727Y-163066252D01*
X90546782Y-163104181D01*
X90511876Y-163183847D01*
X90494599Y-163331892D01*
X90491542Y-163574960D01*
X90497833Y-163885844D01*
G36*
X90520441Y-165961628D02*
G01*
X90533016Y-166135543D01*
X90565493Y-166225797D01*
X90627294Y-166263129D01*
X90702913Y-166275401D01*
X90880561Y-166244757D01*
X91064811Y-166097178D01*
X91090700Y-166068841D01*
X91266759Y-165916344D01*
X91517957Y-165751529D01*
X91740701Y-165634073D01*
X92187485Y-165427381D01*
X94001771Y-165829275D01*
X94500694Y-165942888D01*
X94956722Y-166052610D01*
X95349334Y-166153033D01*
X95658007Y-166238744D01*
X95862218Y-166304336D01*
X95937657Y-166339602D01*
X96091546Y-166416996D01*
X96191657Y-166422672D01*
X96251361Y-166395804D01*
X96291645Y-166325207D01*
X96317451Y-166185054D01*
X96333724Y-165949517D01*
X96344598Y-165623677D01*
X96351993Y-165279945D01*
X96349396Y-165053994D01*
X96332424Y-164918569D01*
X96296693Y-164846418D01*
X96237822Y-164810286D01*
X96212397Y-164801567D01*
X96021666Y-164811620D01*
X95927821Y-164872398D01*
X95865113Y-164918655D01*
X95784862Y-164943412D01*
X95661588Y-164945140D01*
X95469813Y-164922307D01*
X95184058Y-164873382D01*
X94828545Y-164806368D01*
X94446940Y-164736906D01*
X94094264Y-164679305D01*
X93806415Y-164638988D01*
X93619292Y-164621377D01*
X93601523Y-164621028D01*
X93431510Y-164649051D01*
X93162677Y-164725999D01*
X92828545Y-164841190D01*
X92462777Y-164983886D01*
X92010627Y-165162559D01*
X91666660Y-165277039D01*
X91410391Y-165330289D01*
X91221332Y-165325276D01*
X91078998Y-165264965D01*
X91000055Y-165195613D01*
X90818792Y-165080729D01*
X90688799Y-165068613D01*
X90604094Y-165089189D01*
X90553395Y-165141860D01*
X90528009Y-165257463D01*
X90519244Y-165466834D01*
X90518343Y-165673314D01*
X90520441Y-165961628D01*
G37*
X90520441Y-165961628D02*
X90533016Y-166135543D01*
X90565493Y-166225797D01*
X90627294Y-166263129D01*
X90702913Y-166275401D01*
X90880561Y-166244757D01*
X91064811Y-166097178D01*
X91090700Y-166068841D01*
X91266759Y-165916344D01*
X91517957Y-165751529D01*
X91740701Y-165634073D01*
X92187485Y-165427381D01*
X94001771Y-165829275D01*
X94500694Y-165942888D01*
X94956722Y-166052610D01*
X95349334Y-166153033D01*
X95658007Y-166238744D01*
X95862218Y-166304336D01*
X95937657Y-166339602D01*
X96091546Y-166416996D01*
X96191657Y-166422672D01*
X96251361Y-166395804D01*
X96291645Y-166325207D01*
X96317451Y-166185054D01*
X96333724Y-165949517D01*
X96344598Y-165623677D01*
X96351993Y-165279945D01*
X96349396Y-165053994D01*
X96332424Y-164918569D01*
X96296693Y-164846418D01*
X96237822Y-164810286D01*
X96212397Y-164801567D01*
X96021666Y-164811620D01*
X95927821Y-164872398D01*
X95865113Y-164918655D01*
X95784862Y-164943412D01*
X95661588Y-164945140D01*
X95469813Y-164922307D01*
X95184058Y-164873382D01*
X94828545Y-164806368D01*
X94446940Y-164736906D01*
X94094264Y-164679305D01*
X93806415Y-164638988D01*
X93619292Y-164621377D01*
X93601523Y-164621028D01*
X93431510Y-164649051D01*
X93162677Y-164725999D01*
X92828545Y-164841190D01*
X92462777Y-164983886D01*
X92010627Y-165162559D01*
X91666660Y-165277039D01*
X91410391Y-165330289D01*
X91221332Y-165325276D01*
X91078998Y-165264965D01*
X91000055Y-165195613D01*
X90818792Y-165080729D01*
X90688799Y-165068613D01*
X90604094Y-165089189D01*
X90553395Y-165141860D01*
X90528009Y-165257463D01*
X90519244Y-165466834D01*
X90518343Y-165673314D01*
X90520441Y-165961628D01*
G36*
X93147020Y-169410743D02*
G01*
X93839732Y-169410953D01*
X94401607Y-169412101D01*
X94846948Y-169414962D01*
X95190059Y-169420310D01*
X95445247Y-169428921D01*
X95626814Y-169441569D01*
X95749067Y-169459030D01*
X95826308Y-169482078D01*
X95872844Y-169511488D01*
X95902978Y-169548035D01*
X95910939Y-169560477D01*
X96055589Y-169678337D01*
X96164253Y-169687477D01*
X96233713Y-169669779D01*
X96280420Y-169623119D01*
X96309882Y-169521863D01*
X96327608Y-169340378D01*
X96339106Y-169053031D01*
X96344577Y-168848314D01*
X96365096Y-168031885D01*
X96190177Y-168031885D01*
X96015959Y-168074639D01*
X95924914Y-168140743D01*
X95882260Y-168170870D01*
X95800034Y-168195026D01*
X95663878Y-168213835D01*
X95459435Y-168227921D01*
X95172347Y-168237907D01*
X94788255Y-168244418D01*
X94292803Y-168248077D01*
X93671632Y-168249509D01*
X93420078Y-168249600D01*
X92757375Y-168248949D01*
X92225461Y-168246554D01*
X91809987Y-168241750D01*
X91496604Y-168233875D01*
X91270962Y-168222263D01*
X91118712Y-168206252D01*
X91025504Y-168185178D01*
X90976989Y-168158376D01*
X90961948Y-168135882D01*
X90856237Y-168050238D01*
X90718327Y-168045168D01*
X90518343Y-168068171D01*
X90497476Y-168739457D01*
X90476610Y-169410743D01*
X93147020Y-169410743D01*
G37*
X93147020Y-169410743D02*
X93839732Y-169410953D01*
X94401607Y-169412101D01*
X94846948Y-169414962D01*
X95190059Y-169420310D01*
X95445247Y-169428921D01*
X95626814Y-169441569D01*
X95749067Y-169459030D01*
X95826308Y-169482078D01*
X95872844Y-169511488D01*
X95902978Y-169548035D01*
X95910939Y-169560477D01*
X96055589Y-169678337D01*
X96164253Y-169687477D01*
X96233713Y-169669779D01*
X96280420Y-169623119D01*
X96309882Y-169521863D01*
X96327608Y-169340378D01*
X96339106Y-169053031D01*
X96344577Y-168848314D01*
X96365096Y-168031885D01*
X96190177Y-168031885D01*
X96015959Y-168074639D01*
X95924914Y-168140743D01*
X95882260Y-168170870D01*
X95800034Y-168195026D01*
X95663878Y-168213835D01*
X95459435Y-168227921D01*
X95172347Y-168237907D01*
X94788255Y-168244418D01*
X94292803Y-168248077D01*
X93671632Y-168249509D01*
X93420078Y-168249600D01*
X92757375Y-168248949D01*
X92225461Y-168246554D01*
X91809987Y-168241750D01*
X91496604Y-168233875D01*
X91270962Y-168222263D01*
X91118712Y-168206252D01*
X91025504Y-168185178D01*
X90976989Y-168158376D01*
X90961948Y-168135882D01*
X90856237Y-168050238D01*
X90718327Y-168045168D01*
X90518343Y-168068171D01*
X90497476Y-168739457D01*
X90476610Y-169410743D01*
X93147020Y-169410743D01*
G36*
X96360343Y-176305028D02*
G01*
X96360343Y-175615600D01*
X96358885Y-175296158D01*
X96349977Y-175094684D01*
X96326819Y-174984002D01*
X96282610Y-174936937D01*
X96210548Y-174926317D01*
X96187800Y-174926171D01*
X96014261Y-174969516D01*
X95924914Y-175035028D01*
X95882260Y-175065156D01*
X95800034Y-175089312D01*
X95663878Y-175108121D01*
X95459435Y-175122206D01*
X95172347Y-175132193D01*
X94788255Y-175138703D01*
X94292803Y-175142363D01*
X93671632Y-175143795D01*
X93420078Y-175143885D01*
X92757375Y-175143235D01*
X92225461Y-175140839D01*
X91809987Y-175136036D01*
X91496604Y-175128160D01*
X91270962Y-175116549D01*
X91118712Y-175100538D01*
X91025504Y-175079463D01*
X90976989Y-175052661D01*
X90961948Y-175030168D01*
X90856237Y-174944524D01*
X90718327Y-174939454D01*
X90518343Y-174962457D01*
X90497476Y-175633743D01*
X90476610Y-176305028D01*
X96360343Y-176305028D01*
G37*
X96360343Y-176305028D02*
X96360343Y-175615600D01*
X96358885Y-175296158D01*
X96349977Y-175094684D01*
X96326819Y-174984002D01*
X96282610Y-174936937D01*
X96210548Y-174926317D01*
X96187800Y-174926171D01*
X96014261Y-174969516D01*
X95924914Y-175035028D01*
X95882260Y-175065156D01*
X95800034Y-175089312D01*
X95663878Y-175108121D01*
X95459435Y-175122206D01*
X95172347Y-175132193D01*
X94788255Y-175138703D01*
X94292803Y-175142363D01*
X93671632Y-175143795D01*
X93420078Y-175143885D01*
X92757375Y-175143235D01*
X92225461Y-175140839D01*
X91809987Y-175136036D01*
X91496604Y-175128160D01*
X91270962Y-175116549D01*
X91118712Y-175100538D01*
X91025504Y-175079463D01*
X90976989Y-175052661D01*
X90961948Y-175030168D01*
X90856237Y-174944524D01*
X90718327Y-174939454D01*
X90518343Y-174962457D01*
X90497476Y-175633743D01*
X90476610Y-176305028D01*
X96360343Y-176305028D01*
G36*
X90543559Y-177157294D02*
G01*
X90723251Y-177475944D01*
X91013913Y-177709836D01*
X91408323Y-177853126D01*
X91890471Y-177900006D01*
X92375348Y-177856628D01*
X92765324Y-177733335D01*
X93046971Y-177535491D01*
X93150859Y-177396800D01*
X93243523Y-177250871D01*
X93307232Y-177180378D01*
X93312343Y-177179140D01*
X93370270Y-177236056D01*
X93468045Y-177374077D01*
X93493771Y-177414538D01*
X93736844Y-177669283D01*
X94097173Y-177847705D01*
X94566238Y-177945921D01*
X94682197Y-177956310D01*
X95191829Y-177952383D01*
X95606803Y-177856232D01*
X95949731Y-177661152D01*
X96085569Y-177540306D01*
X96245861Y-177366232D01*
X96327751Y-177217380D01*
X96357133Y-177029433D01*
X96360343Y-176857852D01*
X96355748Y-176626132D01*
X96331732Y-176504374D01*
X96272948Y-176457452D01*
X96182213Y-176450171D01*
X96011386Y-176500142D01*
X95832865Y-176621986D01*
X95816935Y-176637319D01*
X95736073Y-176713310D01*
X95654292Y-176764609D01*
X95543800Y-176795206D01*
X95376805Y-176809089D01*
X95125512Y-176810248D01*
X94762131Y-176802672D01*
X94679346Y-176800605D01*
X94289900Y-176789303D01*
X94019667Y-176775326D01*
X93842728Y-176754093D01*
X93733166Y-176721021D01*
X93665062Y-176671529D01*
X93620629Y-176613457D01*
X93458615Y-176477350D01*
X93256099Y-176468973D01*
X93040046Y-176587549D01*
X92992369Y-176631600D01*
X92901315Y-176713162D01*
X92802643Y-176765784D01*
X92663689Y-176795760D01*
X92451791Y-176809389D01*
X92134287Y-176812965D01*
X92051209Y-176813028D01*
X91705152Y-176810460D01*
X91470081Y-176798523D01*
X91311872Y-176770870D01*
X91196399Y-176721153D01*
X91089537Y-176643025D01*
X91075863Y-176631600D01*
X90884481Y-176511032D01*
X90695679Y-176451508D01*
X90671152Y-176450171D01*
X90552306Y-176463612D01*
X90497558Y-176530583D01*
X90482491Y-176691057D01*
X90482057Y-176759732D01*
X90543559Y-177157294D01*
G37*
X90543559Y-177157294D02*
X90723251Y-177475944D01*
X91013913Y-177709836D01*
X91408323Y-177853126D01*
X91890471Y-177900006D01*
X92375348Y-177856628D01*
X92765324Y-177733335D01*
X93046971Y-177535491D01*
X93150859Y-177396800D01*
X93243523Y-177250871D01*
X93307232Y-177180378D01*
X93312343Y-177179140D01*
X93370270Y-177236056D01*
X93468045Y-177374077D01*
X93493771Y-177414538D01*
X93736844Y-177669283D01*
X94097173Y-177847705D01*
X94566238Y-177945921D01*
X94682197Y-177956310D01*
X95191829Y-177952383D01*
X95606803Y-177856232D01*
X95949731Y-177661152D01*
X96085569Y-177540306D01*
X96245861Y-177366232D01*
X96327751Y-177217380D01*
X96357133Y-177029433D01*
X96360343Y-176857852D01*
X96355748Y-176626132D01*
X96331732Y-176504374D01*
X96272948Y-176457452D01*
X96182213Y-176450171D01*
X96011386Y-176500142D01*
X95832865Y-176621986D01*
X95816935Y-176637319D01*
X95736073Y-176713310D01*
X95654292Y-176764609D01*
X95543800Y-176795206D01*
X95376805Y-176809089D01*
X95125512Y-176810248D01*
X94762131Y-176802672D01*
X94679346Y-176800605D01*
X94289900Y-176789303D01*
X94019667Y-176775326D01*
X93842728Y-176754093D01*
X93733166Y-176721021D01*
X93665062Y-176671529D01*
X93620629Y-176613457D01*
X93458615Y-176477350D01*
X93256099Y-176468973D01*
X93040046Y-176587549D01*
X92992369Y-176631600D01*
X92901315Y-176713162D01*
X92802643Y-176765784D01*
X92663689Y-176795760D01*
X92451791Y-176809389D01*
X92134287Y-176812965D01*
X92051209Y-176813028D01*
X91705152Y-176810460D01*
X91470081Y-176798523D01*
X91311872Y-176770870D01*
X91196399Y-176721153D01*
X91089537Y-176643025D01*
X91075863Y-176631600D01*
X90884481Y-176511032D01*
X90695679Y-176451508D01*
X90671152Y-176450171D01*
X90552306Y-176463612D01*
X90497558Y-176530583D01*
X90482491Y-176691057D01*
X90482057Y-176759732D01*
X90543559Y-177157294D01*
G36*
X93149743Y-183489600D02*
G01*
X93842069Y-183489811D01*
X94403565Y-183490961D01*
X94848542Y-183493827D01*
X95191314Y-183499184D01*
X95446193Y-183507808D01*
X95627491Y-183520477D01*
X95749521Y-183537966D01*
X95826594Y-183561050D01*
X95873024Y-183590507D01*
X95903123Y-183627112D01*
X95910939Y-183639334D01*
X96055589Y-183757194D01*
X96164253Y-183766334D01*
X96234230Y-183748410D01*
X96281095Y-183701126D01*
X96310500Y-183598612D01*
X96328096Y-183414996D01*
X96339535Y-183124407D01*
X96344442Y-182941509D01*
X96348339Y-182613584D01*
X96343245Y-182340759D01*
X96330284Y-182154730D01*
X96314204Y-182088795D01*
X96174516Y-182037332D01*
X96011468Y-182084047D01*
X95908072Y-182183314D01*
X95879964Y-182220992D01*
X95837950Y-182251517D01*
X95767738Y-182275640D01*
X95655035Y-182294115D01*
X95485548Y-182307693D01*
X95244983Y-182317126D01*
X94919047Y-182323166D01*
X94493447Y-182326566D01*
X93953890Y-182328077D01*
X93286083Y-182328452D01*
X93149743Y-182328457D01*
X90482057Y-182328457D01*
X90482057Y-183489600D01*
X93149743Y-183489600D01*
G37*
X93149743Y-183489600D02*
X93842069Y-183489811D01*
X94403565Y-183490961D01*
X94848542Y-183493827D01*
X95191314Y-183499184D01*
X95446193Y-183507808D01*
X95627491Y-183520477D01*
X95749521Y-183537966D01*
X95826594Y-183561050D01*
X95873024Y-183590507D01*
X95903123Y-183627112D01*
X95910939Y-183639334D01*
X96055589Y-183757194D01*
X96164253Y-183766334D01*
X96234230Y-183748410D01*
X96281095Y-183701126D01*
X96310500Y-183598612D01*
X96328096Y-183414996D01*
X96339535Y-183124407D01*
X96344442Y-182941509D01*
X96348339Y-182613584D01*
X96343245Y-182340759D01*
X96330284Y-182154730D01*
X96314204Y-182088795D01*
X96174516Y-182037332D01*
X96011468Y-182084047D01*
X95908072Y-182183314D01*
X95879964Y-182220992D01*
X95837950Y-182251517D01*
X95767738Y-182275640D01*
X95655035Y-182294115D01*
X95485548Y-182307693D01*
X95244983Y-182317126D01*
X94919047Y-182323166D01*
X94493447Y-182326566D01*
X93953890Y-182328077D01*
X93286083Y-182328452D01*
X93149743Y-182328457D01*
X90482057Y-182328457D01*
X90482057Y-183489600D01*
X93149743Y-183489600D01*
G36*
X90718327Y-186234031D02*
G01*
X90898277Y-186213307D01*
X90961948Y-186143317D01*
X90987741Y-186112117D01*
X91048196Y-186087108D01*
X91157661Y-186067627D01*
X91330486Y-186053010D01*
X91581021Y-186042592D01*
X91923615Y-186035711D01*
X92372617Y-186031702D01*
X92942378Y-186029902D01*
X93420078Y-186029600D01*
X94088976Y-186030396D01*
X94627095Y-186033199D01*
X95048794Y-186038634D01*
X95368429Y-186047324D01*
X95600360Y-186059894D01*
X95758943Y-186076967D01*
X95858536Y-186099167D01*
X95913498Y-186127119D01*
X95924914Y-186138457D01*
X96065647Y-186225247D01*
X96187800Y-186247314D01*
X96263135Y-186242538D01*
X96312558Y-186211367D01*
X96341532Y-186128538D01*
X96355515Y-185968786D01*
X96359970Y-185706848D01*
X96360343Y-185449028D01*
X96359310Y-185100486D01*
X96352573Y-184871822D01*
X96334670Y-184737773D01*
X96300141Y-184673076D01*
X96243525Y-184652466D01*
X96187800Y-184650743D01*
X96014261Y-184694088D01*
X95924914Y-184759600D01*
X95882260Y-184789727D01*
X95800034Y-184813883D01*
X95663878Y-184832692D01*
X95459435Y-184846778D01*
X95172347Y-184856764D01*
X94788255Y-184863275D01*
X94292803Y-184866934D01*
X93671632Y-184868366D01*
X93420078Y-184868457D01*
X92757375Y-184867806D01*
X92225461Y-184865411D01*
X91809987Y-184860607D01*
X91496604Y-184852732D01*
X91270962Y-184841120D01*
X91118712Y-184825109D01*
X91025504Y-184804035D01*
X90976989Y-184777233D01*
X90961948Y-184754740D01*
X90856237Y-184669096D01*
X90718327Y-184664025D01*
X90518343Y-184687028D01*
X90518343Y-186211028D01*
X90718327Y-186234031D01*
G37*
X90718327Y-186234031D02*
X90898277Y-186213307D01*
X90961948Y-186143317D01*
X90987741Y-186112117D01*
X91048196Y-186087108D01*
X91157661Y-186067627D01*
X91330486Y-186053010D01*
X91581021Y-186042592D01*
X91923615Y-186035711D01*
X92372617Y-186031702D01*
X92942378Y-186029902D01*
X93420078Y-186029600D01*
X94088976Y-186030396D01*
X94627095Y-186033199D01*
X95048794Y-186038634D01*
X95368429Y-186047324D01*
X95600360Y-186059894D01*
X95758943Y-186076967D01*
X95858536Y-186099167D01*
X95913498Y-186127119D01*
X95924914Y-186138457D01*
X96065647Y-186225247D01*
X96187800Y-186247314D01*
X96263135Y-186242538D01*
X96312558Y-186211367D01*
X96341532Y-186128538D01*
X96355515Y-185968786D01*
X96359970Y-185706848D01*
X96360343Y-185449028D01*
X96359310Y-185100486D01*
X96352573Y-184871822D01*
X96334670Y-184737773D01*
X96300141Y-184673076D01*
X96243525Y-184652466D01*
X96187800Y-184650743D01*
X96014261Y-184694088D01*
X95924914Y-184759600D01*
X95882260Y-184789727D01*
X95800034Y-184813883D01*
X95663878Y-184832692D01*
X95459435Y-184846778D01*
X95172347Y-184856764D01*
X94788255Y-184863275D01*
X94292803Y-184866934D01*
X93671632Y-184868366D01*
X93420078Y-184868457D01*
X92757375Y-184867806D01*
X92225461Y-184865411D01*
X91809987Y-184860607D01*
X91496604Y-184852732D01*
X91270962Y-184841120D01*
X91118712Y-184825109D01*
X91025504Y-184804035D01*
X90976989Y-184777233D01*
X90961948Y-184754740D01*
X90856237Y-184669096D01*
X90718327Y-184664025D01*
X90518343Y-184687028D01*
X90518343Y-186211028D01*
X90718327Y-186234031D01*
G36*
X92189718Y-139930997D02*
G01*
X92309330Y-139983074D01*
X92479185Y-140005290D01*
X92739713Y-140016206D01*
X93060220Y-140017079D01*
X93410015Y-140009163D01*
X93758405Y-139993714D01*
X94074696Y-139971985D01*
X94328198Y-139945233D01*
X94488216Y-139914713D01*
X94528001Y-139892352D01*
X94500303Y-139792129D01*
X94461378Y-139768935D01*
X94333127Y-139731110D01*
X94131579Y-139676814D01*
X94064654Y-139659519D01*
X93854913Y-139586614D01*
X93700437Y-139499042D01*
X93674768Y-139474508D01*
X93520834Y-139387863D01*
X93306393Y-139373030D01*
X93096412Y-139428864D01*
X93009673Y-139486236D01*
X92859868Y-139576438D01*
X92636906Y-139663786D01*
X92535927Y-139692903D01*
X92298414Y-139772662D01*
X92180318Y-139855476D01*
X92189718Y-139930997D01*
G37*
X92189718Y-139930997D02*
X92309330Y-139983074D01*
X92479185Y-140005290D01*
X92739713Y-140016206D01*
X93060220Y-140017079D01*
X93410015Y-140009163D01*
X93758405Y-139993714D01*
X94074696Y-139971985D01*
X94328198Y-139945233D01*
X94488216Y-139914713D01*
X94528001Y-139892352D01*
X94500303Y-139792129D01*
X94461378Y-139768935D01*
X94333127Y-139731110D01*
X94131579Y-139676814D01*
X94064654Y-139659519D01*
X93854913Y-139586614D01*
X93700437Y-139499042D01*
X93674768Y-139474508D01*
X93520834Y-139387863D01*
X93306393Y-139373030D01*
X93096412Y-139428864D01*
X93009673Y-139486236D01*
X92859868Y-139576438D01*
X92636906Y-139663786D01*
X92535927Y-139692903D01*
X92298414Y-139772662D01*
X92180318Y-139855476D01*
X92189718Y-139930997D01*
G36*
X90367129Y-161694752D02*
G01*
X90443613Y-161858698D01*
X90489691Y-161950849D01*
X90642467Y-162250316D01*
X90471548Y-162379468D01*
X90365461Y-162477164D01*
X90347519Y-162550318D01*
X90428244Y-162601477D01*
X90618158Y-162633190D01*
X90927783Y-162648001D01*
X91367641Y-162648459D01*
X91570252Y-162645415D01*
X92035754Y-162633239D01*
X92369385Y-162615211D01*
X92584347Y-162590057D01*
X92693838Y-162556502D01*
X92713564Y-162535046D01*
X92676331Y-162447847D01*
X92551517Y-162371761D01*
X92362547Y-162316577D01*
X92233138Y-162298743D01*
X92010783Y-162262724D01*
X91720731Y-162169567D01*
X91416728Y-162041618D01*
X91152520Y-161901224D01*
X90994009Y-161783530D01*
X90745202Y-161609762D01*
X90560211Y-161573028D01*
X90404839Y-161584133D01*
X90337023Y-161610977D01*
X90336914Y-161612205D01*
X90367129Y-161694752D01*
G37*
X90367129Y-161694752D02*
X90443613Y-161858698D01*
X90489691Y-161950849D01*
X90642467Y-162250316D01*
X90471548Y-162379468D01*
X90365461Y-162477164D01*
X90347519Y-162550318D01*
X90428244Y-162601477D01*
X90618158Y-162633190D01*
X90927783Y-162648001D01*
X91367641Y-162648459D01*
X91570252Y-162645415D01*
X92035754Y-162633239D01*
X92369385Y-162615211D01*
X92584347Y-162590057D01*
X92693838Y-162556502D01*
X92713564Y-162535046D01*
X92676331Y-162447847D01*
X92551517Y-162371761D01*
X92362547Y-162316577D01*
X92233138Y-162298743D01*
X92010783Y-162262724D01*
X91720731Y-162169567D01*
X91416728Y-162041618D01*
X91152520Y-161901224D01*
X90994009Y-161783530D01*
X90745202Y-161609762D01*
X90560211Y-161573028D01*
X90404839Y-161584133D01*
X90337023Y-161610977D01*
X90336914Y-161612205D01*
X90367129Y-161694752D01*
G36*
X90367129Y-188328466D02*
G01*
X90443613Y-188492412D01*
X90489691Y-188584563D01*
X90642467Y-188884030D01*
X90471548Y-189013183D01*
X90365461Y-189110878D01*
X90347519Y-189184032D01*
X90428244Y-189235192D01*
X90618158Y-189266904D01*
X90927783Y-189281715D01*
X91367641Y-189282173D01*
X91570252Y-189279129D01*
X92058371Y-189265540D01*
X92407194Y-189244634D01*
X92622407Y-189215894D01*
X92709697Y-189178801D01*
X92711496Y-189174965D01*
X92689518Y-189065775D01*
X92667230Y-189046277D01*
X92560740Y-189009716D01*
X92360121Y-188961381D01*
X92173542Y-188924001D01*
X91838057Y-188840676D01*
X91506652Y-188721785D01*
X91216022Y-188584161D01*
X91002860Y-188444638D01*
X90914574Y-188346446D01*
X90786409Y-188235948D01*
X90588361Y-188206743D01*
X90421394Y-188216689D01*
X90338813Y-188241110D01*
X90336914Y-188245919D01*
X90367129Y-188328466D01*
G37*
X90367129Y-188328466D02*
X90443613Y-188492412D01*
X90489691Y-188584563D01*
X90642467Y-188884030D01*
X90471548Y-189013183D01*
X90365461Y-189110878D01*
X90347519Y-189184032D01*
X90428244Y-189235192D01*
X90618158Y-189266904D01*
X90927783Y-189281715D01*
X91367641Y-189282173D01*
X91570252Y-189279129D01*
X92058371Y-189265540D01*
X92407194Y-189244634D01*
X92622407Y-189215894D01*
X92709697Y-189178801D01*
X92711496Y-189174965D01*
X92689518Y-189065775D01*
X92667230Y-189046277D01*
X92560740Y-189009716D01*
X92360121Y-188961381D01*
X92173542Y-188924001D01*
X91838057Y-188840676D01*
X91506652Y-188721785D01*
X91216022Y-188584161D01*
X91002860Y-188444638D01*
X90914574Y-188346446D01*
X90786409Y-188235948D01*
X90588361Y-188206743D01*
X90421394Y-188216689D01*
X90338813Y-188241110D01*
X90336914Y-188245919D01*
X90367129Y-188328466D01*
G36*
X90486807Y-154240401D02*
G01*
X90516050Y-154347514D01*
X90592279Y-154384381D01*
X90700034Y-154388457D01*
X90909059Y-154353340D01*
X91142743Y-154266884D01*
X91181300Y-154247343D01*
X91410007Y-154156894D01*
X91698737Y-154083989D01*
X91852323Y-154059969D01*
X92101901Y-154028078D01*
X92305918Y-153995746D01*
X92387057Y-153978479D01*
X92497670Y-153896059D01*
X92493774Y-153782219D01*
X92399264Y-153706793D01*
X92285178Y-153689831D01*
X92058407Y-153675898D01*
X91751397Y-153666401D01*
X91396599Y-153662747D01*
X91383264Y-153662743D01*
X90482057Y-153662743D01*
X90482057Y-154025600D01*
X90486807Y-154240401D01*
G37*
X90486807Y-154240401D02*
X90516050Y-154347514D01*
X90592279Y-154384381D01*
X90700034Y-154388457D01*
X90909059Y-154353340D01*
X91142743Y-154266884D01*
X91181300Y-154247343D01*
X91410007Y-154156894D01*
X91698737Y-154083989D01*
X91852323Y-154059969D01*
X92101901Y-154028078D01*
X92305918Y-153995746D01*
X92387057Y-153978479D01*
X92497670Y-153896059D01*
X92493774Y-153782219D01*
X92399264Y-153706793D01*
X92285178Y-153689831D01*
X92058407Y-153675898D01*
X91751397Y-153666401D01*
X91396599Y-153662747D01*
X91383264Y-153662743D01*
X90482057Y-153662743D01*
X90482057Y-154025600D01*
X90486807Y-154240401D01*
G36*
X91383264Y-156565600D02*
G01*
X91739185Y-156562184D01*
X92048492Y-156552874D01*
X92278736Y-156539078D01*
X92397470Y-156522201D01*
X92399264Y-156521550D01*
X92502923Y-156431759D01*
X92487810Y-156323571D01*
X92362810Y-156247657D01*
X92350771Y-156244981D01*
X92176328Y-156214397D01*
X91939691Y-156178355D01*
X91863997Y-156167761D01*
X91585533Y-156107365D01*
X91291625Y-156011483D01*
X91219772Y-155981763D01*
X90980218Y-155895119D01*
X90756872Y-155844918D01*
X90690546Y-155839885D01*
X90567086Y-155848604D01*
X90505517Y-155899693D01*
X90484348Y-156030554D01*
X90482057Y-156202743D01*
X90482057Y-156565600D01*
X91383264Y-156565600D01*
G37*
X91383264Y-156565600D02*
X91739185Y-156562184D01*
X92048492Y-156552874D01*
X92278736Y-156539078D01*
X92397470Y-156522201D01*
X92399264Y-156521550D01*
X92502923Y-156431759D01*
X92487810Y-156323571D01*
X92362810Y-156247657D01*
X92350771Y-156244981D01*
X92176328Y-156214397D01*
X91939691Y-156178355D01*
X91863997Y-156167761D01*
X91585533Y-156107365D01*
X91291625Y-156011483D01*
X91219772Y-155981763D01*
X90980218Y-155895119D01*
X90756872Y-155844918D01*
X90690546Y-155839885D01*
X90567086Y-155848604D01*
X90505517Y-155899693D01*
X90484348Y-156030554D01*
X90482057Y-156202743D01*
X90482057Y-156565600D01*
X91383264Y-156565600D01*
G36*
X90486807Y-182035258D02*
G01*
X90516050Y-182142371D01*
X90592279Y-182179238D01*
X90700034Y-182183314D01*
X90909059Y-182148197D01*
X91142743Y-182061741D01*
X91181300Y-182042200D01*
X91410007Y-181951751D01*
X91698737Y-181878847D01*
X91852323Y-181854827D01*
X92101901Y-181822935D01*
X92305918Y-181790603D01*
X92387057Y-181773336D01*
X92497670Y-181690916D01*
X92493774Y-181577076D01*
X92399264Y-181501650D01*
X92285178Y-181484688D01*
X92058407Y-181470755D01*
X91751397Y-181461258D01*
X91396599Y-181457605D01*
X91383264Y-181457600D01*
X90482057Y-181457600D01*
X90482057Y-181820457D01*
X90486807Y-182035258D01*
G37*
X90486807Y-182035258D02*
X90516050Y-182142371D01*
X90592279Y-182179238D01*
X90700034Y-182183314D01*
X90909059Y-182148197D01*
X91142743Y-182061741D01*
X91181300Y-182042200D01*
X91410007Y-181951751D01*
X91698737Y-181878847D01*
X91852323Y-181854827D01*
X92101901Y-181822935D01*
X92305918Y-181790603D01*
X92387057Y-181773336D01*
X92497670Y-181690916D01*
X92493774Y-181577076D01*
X92399264Y-181501650D01*
X92285178Y-181484688D01*
X92058407Y-181470755D01*
X91751397Y-181461258D01*
X91396599Y-181457605D01*
X91383264Y-181457600D01*
X90482057Y-181457600D01*
X90482057Y-181820457D01*
X90486807Y-182035258D01*
G36*
X91383264Y-184360457D02*
G01*
X91739185Y-184357041D01*
X92048492Y-184347731D01*
X92278736Y-184333935D01*
X92397470Y-184317058D01*
X92399264Y-184316407D01*
X92502917Y-184226591D01*
X92487762Y-184118243D01*
X92362643Y-184041909D01*
X92350771Y-184039230D01*
X92181763Y-184009778D01*
X91941994Y-183974038D01*
X91826332Y-183958364D01*
X91545411Y-183899628D01*
X91272647Y-183808696D01*
X91194223Y-183772974D01*
X90963024Y-183682591D01*
X90739023Y-183636322D01*
X90702662Y-183634743D01*
X90572078Y-183642442D01*
X90506962Y-183690505D01*
X90484546Y-183816382D01*
X90482057Y-183997600D01*
X90482057Y-184360457D01*
X91383264Y-184360457D01*
G37*
X91383264Y-184360457D02*
X91739185Y-184357041D01*
X92048492Y-184347731D01*
X92278736Y-184333935D01*
X92397470Y-184317058D01*
X92399264Y-184316407D01*
X92502917Y-184226591D01*
X92487762Y-184118243D01*
X92362643Y-184041909D01*
X92350771Y-184039230D01*
X92181763Y-184009778D01*
X91941994Y-183974038D01*
X91826332Y-183958364D01*
X91545411Y-183899628D01*
X91272647Y-183808696D01*
X91194223Y-183772974D01*
X90963024Y-183682591D01*
X90739023Y-183636322D01*
X90702662Y-183634743D01*
X90572078Y-183642442D01*
X90506962Y-183690505D01*
X90484546Y-183816382D01*
X90482057Y-183997600D01*
X90482057Y-184360457D01*
X91383264Y-184360457D01*
G36*
X90481263Y-152553715D02*
G01*
X90557890Y-152688306D01*
X90706295Y-152928430D01*
X90557890Y-153007854D01*
X90439159Y-153086089D01*
X90421330Y-153144544D01*
X90513603Y-153185545D01*
X90725183Y-153211421D01*
X91065270Y-153224500D01*
X91425485Y-153227314D01*
X91844736Y-153224430D01*
X92137435Y-153214604D01*
X92322083Y-153196074D01*
X92417178Y-153167078D01*
X92441485Y-153130552D01*
X92409249Y-153007127D01*
X92393105Y-152985409D01*
X92289066Y-152946995D01*
X92178113Y-152937028D01*
X91931570Y-152896444D01*
X91628386Y-152791529D01*
X91326113Y-152647541D01*
X91082305Y-152489740D01*
X91010337Y-152424526D01*
X90788965Y-152256693D01*
X90609293Y-152211314D01*
X90455935Y-152246707D01*
X90413544Y-152358190D01*
X90481263Y-152553715D01*
G37*
X90481263Y-152553715D02*
X90557890Y-152688306D01*
X90706295Y-152928430D01*
X90557890Y-153007854D01*
X90439159Y-153086089D01*
X90421330Y-153144544D01*
X90513603Y-153185545D01*
X90725183Y-153211421D01*
X91065270Y-153224500D01*
X91425485Y-153227314D01*
X91844736Y-153224430D01*
X92137435Y-153214604D01*
X92322083Y-153196074D01*
X92417178Y-153167078D01*
X92441485Y-153130552D01*
X92409249Y-153007127D01*
X92393105Y-152985409D01*
X92289066Y-152946995D01*
X92178113Y-152937028D01*
X91931570Y-152896444D01*
X91628386Y-152791529D01*
X91326113Y-152647541D01*
X91082305Y-152489740D01*
X91010337Y-152424526D01*
X90788965Y-152256693D01*
X90609293Y-152211314D01*
X90455935Y-152246707D01*
X90413544Y-152358190D01*
X90481263Y-152553715D01*
G36*
X90481263Y-191306858D02*
G01*
X90557890Y-191441449D01*
X90706295Y-191681573D01*
X90557890Y-191760997D01*
X90439159Y-191839232D01*
X90421330Y-191897687D01*
X90513603Y-191938688D01*
X90725183Y-191964564D01*
X91065270Y-191977643D01*
X91425485Y-191980457D01*
X91844736Y-191977573D01*
X92137435Y-191967747D01*
X92322083Y-191949217D01*
X92417178Y-191920221D01*
X92441485Y-191883695D01*
X92409249Y-191760270D01*
X92393105Y-191738552D01*
X92289066Y-191700138D01*
X92178113Y-191690171D01*
X91931570Y-191649587D01*
X91628386Y-191544671D01*
X91326113Y-191400684D01*
X91082305Y-191242883D01*
X91010337Y-191177669D01*
X90788965Y-191009836D01*
X90609293Y-190964457D01*
X90455935Y-190999850D01*
X90413544Y-191111333D01*
X90481263Y-191306858D01*
G37*
X90481263Y-191306858D02*
X90557890Y-191441449D01*
X90706295Y-191681573D01*
X90557890Y-191760997D01*
X90439159Y-191839232D01*
X90421330Y-191897687D01*
X90513603Y-191938688D01*
X90725183Y-191964564D01*
X91065270Y-191977643D01*
X91425485Y-191980457D01*
X91844736Y-191977573D01*
X92137435Y-191967747D01*
X92322083Y-191949217D01*
X92417178Y-191920221D01*
X92441485Y-191883695D01*
X92409249Y-191760270D01*
X92393105Y-191738552D01*
X92289066Y-191700138D01*
X92178113Y-191690171D01*
X91931570Y-191649587D01*
X91628386Y-191544671D01*
X91326113Y-191400684D01*
X91082305Y-191242883D01*
X91010337Y-191177669D01*
X90788965Y-191009836D01*
X90609293Y-190964457D01*
X90455935Y-190999850D01*
X90413544Y-191111333D01*
X90481263Y-191306858D01*
G36*
X91307742Y-140454743D02*
G01*
X91698696Y-140449751D01*
X91966101Y-140433180D01*
X92131261Y-140402633D01*
X92215480Y-140355716D01*
X92218409Y-140352346D01*
X92263214Y-140251966D01*
X92245438Y-140215738D01*
X92140542Y-140179088D01*
X91960182Y-140134475D01*
X91933485Y-140128816D01*
X91627585Y-140031786D01*
X91349411Y-139885047D01*
X91143342Y-139715262D01*
X91071658Y-139611008D01*
X90976241Y-139486447D01*
X90812376Y-139441043D01*
X90737613Y-139438743D01*
X90482057Y-139438743D01*
X90482057Y-140454743D01*
X91307742Y-140454743D01*
G37*
X91307742Y-140454743D02*
X91698696Y-140449751D01*
X91966101Y-140433180D01*
X92131261Y-140402633D01*
X92215480Y-140355716D01*
X92218409Y-140352346D01*
X92263214Y-140251966D01*
X92245438Y-140215738D01*
X92140542Y-140179088D01*
X91960182Y-140134475D01*
X91933485Y-140128816D01*
X91627585Y-140031786D01*
X91349411Y-139885047D01*
X91143342Y-139715262D01*
X91071658Y-139611008D01*
X90976241Y-139486447D01*
X90812376Y-139441043D01*
X90737613Y-139438743D01*
X90482057Y-139438743D01*
X90482057Y-140454743D01*
X91307742Y-140454743D01*
G36*
X87732834Y-131943471D02*
G01*
X87879781Y-132043265D01*
X88147860Y-132198686D01*
X88343314Y-132305551D01*
X88621515Y-132451122D01*
X88845683Y-132560376D01*
X88989995Y-132621252D01*
X89030628Y-132626540D01*
X88985108Y-132545971D01*
X88873927Y-132414380D01*
X88858083Y-132397665D01*
X88685537Y-132217885D01*
X88811608Y-131709885D01*
X88876443Y-131395765D01*
X88890428Y-131187702D01*
X88869990Y-131115485D01*
X88777235Y-131066199D01*
X88674904Y-131078995D01*
X88625710Y-131138051D01*
X88636862Y-131174299D01*
X88645440Y-131281928D01*
X88620039Y-131475297D01*
X88572235Y-131702968D01*
X88513604Y-131913502D01*
X88455721Y-132055460D01*
X88432191Y-132083785D01*
X88330850Y-132083805D01*
X88148201Y-132037726D01*
X88040928Y-132000215D01*
X87811193Y-131919710D01*
X87709233Y-131901541D01*
X87732834Y-131943471D01*
G37*
X87732834Y-131943471D02*
X87879781Y-132043265D01*
X88147860Y-132198686D01*
X88343314Y-132305551D01*
X88621515Y-132451122D01*
X88845683Y-132560376D01*
X88989995Y-132621252D01*
X89030628Y-132626540D01*
X88985108Y-132545971D01*
X88873927Y-132414380D01*
X88858083Y-132397665D01*
X88685537Y-132217885D01*
X88811608Y-131709885D01*
X88876443Y-131395765D01*
X88890428Y-131187702D01*
X88869990Y-131115485D01*
X88777235Y-131066199D01*
X88674904Y-131078995D01*
X88625710Y-131138051D01*
X88636862Y-131174299D01*
X88645440Y-131281928D01*
X88620039Y-131475297D01*
X88572235Y-131702968D01*
X88513604Y-131913502D01*
X88455721Y-132055460D01*
X88432191Y-132083785D01*
X88330850Y-132083805D01*
X88148201Y-132037726D01*
X88040928Y-132000215D01*
X87811193Y-131919710D01*
X87709233Y-131901541D01*
X87732834Y-131943471D01*
G36*
X87542914Y-131891314D02*
G01*
X87579200Y-131855028D01*
X87542914Y-131818743D01*
X87506628Y-131855028D01*
X87542914Y-131891314D01*
G37*
X87542914Y-131891314D02*
X87579200Y-131855028D01*
X87542914Y-131818743D01*
X87506628Y-131855028D01*
X87542914Y-131891314D01*
D11*
X127568000Y-139640000D02*
X124968000Y-139640000D01*
X127568000Y-139640000D02*
X127568000Y-190560000D01*
X127568000Y-190560000D02*
X122368000Y-190560000D01*
X122368000Y-142240000D02*
X122368000Y-190560000D01*
X124968000Y-142240000D02*
X122368000Y-142240000D01*
X124968000Y-139640000D02*
X124968000Y-142240000D01*
X122368000Y-139640000D02*
X122368000Y-140970000D01*
X123698000Y-139640000D02*
X122368000Y-139640000D01*
D12*
X125301333Y-137652380D02*
X125301333Y-138366666D01*
X125348952Y-138509523D01*
X125444190Y-138604761D01*
X125587047Y-138652380D01*
X125682285Y-138652380D01*
X124634666Y-137652380D02*
X124539428Y-137652380D01*
X124444190Y-137700000D01*
X124396571Y-137747619D01*
X124348952Y-137842857D01*
X124301333Y-138033333D01*
X124301333Y-138271428D01*
X124348952Y-138461904D01*
X124396571Y-138557142D01*
X124444190Y-138604761D01*
X124539428Y-138652380D01*
X124634666Y-138652380D01*
X124729904Y-138604761D01*
X124777523Y-138557142D01*
X124825142Y-138461904D01*
X124872761Y-138271428D01*
X124872761Y-138033333D01*
X124825142Y-137842857D01*
X124777523Y-137747619D01*
X124729904Y-137700000D01*
X124634666Y-137652380D01*
%LPC*%
D13*
X102006400Y-135534400D03*
D14*
X119532400Y-174904400D03*
X119532400Y-177444400D03*
X116992400Y-174904400D03*
X116992400Y-177444400D03*
X114452400Y-174904400D03*
X114452400Y-177444400D03*
X111912400Y-174904400D03*
X111912400Y-177444400D03*
X109372400Y-174904400D03*
D15*
X109372400Y-177444400D03*
D16*
X119380000Y-185267600D03*
X119380000Y-190347600D03*
X114300000Y-190347600D03*
X114300000Y-185267600D03*
X116840000Y-187807600D03*
D14*
X88392000Y-190195200D03*
X88392000Y-187655200D03*
D15*
X88392000Y-185115200D03*
D14*
X83769200Y-190195200D03*
X83769200Y-187655200D03*
D15*
X83769200Y-185115200D03*
D14*
X88341200Y-179730400D03*
X88341200Y-177190400D03*
D15*
X88341200Y-174650400D03*
D14*
X83769200Y-179730400D03*
X83769200Y-177190400D03*
D15*
X83769200Y-174650400D03*
D14*
X88239600Y-169316400D03*
X88239600Y-166776400D03*
D15*
X88239600Y-164236400D03*
D14*
X83820000Y-169367200D03*
X83820000Y-166827200D03*
D15*
X83820000Y-164287200D03*
D14*
X83413600Y-139750800D03*
X83413600Y-137210800D03*
D15*
X83413600Y-134670800D03*
D14*
X83413600Y-129540000D03*
X83413600Y-127000000D03*
D15*
X83413600Y-124460000D03*
D14*
X90322400Y-123901200D03*
X92862400Y-123901200D03*
D15*
X95402400Y-123901200D03*
D14*
X101447600Y-123901200D03*
X103987600Y-123901200D03*
D15*
X106527600Y-123901200D03*
D14*
X126238000Y-189230000D03*
X123698000Y-189230000D03*
X126238000Y-186690000D03*
X123698000Y-186690000D03*
X126238000Y-184150000D03*
X123698000Y-184150000D03*
X126238000Y-181610000D03*
X123698000Y-181610000D03*
X126238000Y-179070000D03*
X123698000Y-179070000D03*
X126238000Y-176530000D03*
X123698000Y-176530000D03*
X126238000Y-173990000D03*
X123698000Y-173990000D03*
X126238000Y-171450000D03*
X123698000Y-171450000D03*
X126238000Y-168910000D03*
X123698000Y-168910000D03*
X126238000Y-166370000D03*
X123698000Y-166370000D03*
X126238000Y-163830000D03*
X123698000Y-163830000D03*
X126238000Y-161290000D03*
X123698000Y-161290000D03*
X126238000Y-158750000D03*
X123698000Y-158750000D03*
X126238000Y-156210000D03*
X123698000Y-156210000D03*
X126238000Y-153670000D03*
X123698000Y-153670000D03*
X126238000Y-151130000D03*
X123698000Y-151130000D03*
X126238000Y-148590000D03*
X123698000Y-148590000D03*
X126238000Y-146050000D03*
X123698000Y-146050000D03*
X126238000Y-143510000D03*
X123698000Y-143510000D03*
X126238000Y-140970000D03*
D15*
X123698000Y-140970000D03*
M02*
