%FSLAX45Y45*%
G04 Gerber Fmt 4.5, Leading zero omitted, Abs format (unit mm)*
G04 Created by KiCad (PCBNEW (5.1.6)-1) date 2021-10-25 07:35:55*
%MOMM*%
%LPD*%
G01*
G04 APERTURE LIST*
%TA.AperFunction,Profile*%
%ADD10C,0.050000*%
%TD*%
%TA.AperFunction,Profile*%
%ADD11C,0.100000*%
%TD*%
%ADD12C,0.200000*%
%ADD13C,0.300000*%
G04 APERTURE END LIST*
D10*
X12984480Y-19050000D02*
G75*
G02*
X12730480Y-19304000I-254000J0D01*
G01*
X8280400Y-19304000D02*
G75*
G02*
X8097520Y-19121120I0J182880D01*
G01*
X8097595Y-12242943D02*
G75*
G02*
X8280400Y-12054840I182805J5223D01*
G01*
X12801600Y-12054840D02*
G75*
G02*
X12984480Y-12237720I0J-182880D01*
G01*
D11*
X12984480Y-12237720D02*
X12984480Y-19050000D01*
X8280400Y-12054840D02*
X12801600Y-12054840D01*
X8097520Y-19121120D02*
X8097595Y-12242943D01*
X12730480Y-19304000D02*
X8280400Y-19304000D01*
D12*
X10040640Y-13393440D02*
X10360640Y-13713440D01*
X10360640Y-13393440D02*
X10040640Y-13713440D01*
D13*
X8378948Y-19774714D02*
X8378948Y-19474714D01*
X8450377Y-19474714D01*
X8493234Y-19489000D01*
X8521806Y-19517572D01*
X8536091Y-19546143D01*
X8550377Y-19603286D01*
X8550377Y-19646143D01*
X8536091Y-19703286D01*
X8521806Y-19731857D01*
X8493234Y-19760429D01*
X8450377Y-19774714D01*
X8378948Y-19774714D01*
X8678948Y-19774714D02*
X8678948Y-19574714D01*
X8678948Y-19631857D02*
X8693234Y-19603286D01*
X8707520Y-19589000D01*
X8736091Y-19574714D01*
X8764663Y-19574714D01*
X8864663Y-19774714D02*
X8864663Y-19574714D01*
X8864663Y-19474714D02*
X8850377Y-19489000D01*
X8864663Y-19503286D01*
X8878948Y-19489000D01*
X8864663Y-19474714D01*
X8864663Y-19503286D01*
X9050377Y-19774714D02*
X9021806Y-19760429D01*
X9007520Y-19731857D01*
X9007520Y-19474714D01*
X9207520Y-19774714D02*
X9178948Y-19760429D01*
X9164663Y-19731857D01*
X9164663Y-19474714D01*
X9550377Y-19774714D02*
X9550377Y-19474714D01*
X9650377Y-19689000D01*
X9750377Y-19474714D01*
X9750377Y-19774714D01*
X10021806Y-19774714D02*
X10021806Y-19617572D01*
X10007520Y-19589000D01*
X9978948Y-19574714D01*
X9921806Y-19574714D01*
X9893234Y-19589000D01*
X10021806Y-19760429D02*
X9993234Y-19774714D01*
X9921806Y-19774714D01*
X9893234Y-19760429D01*
X9878948Y-19731857D01*
X9878948Y-19703286D01*
X9893234Y-19674714D01*
X9921806Y-19660429D01*
X9993234Y-19660429D01*
X10021806Y-19646143D01*
X10164663Y-19574714D02*
X10164663Y-19874714D01*
X10164663Y-19589000D02*
X10193234Y-19574714D01*
X10250377Y-19574714D01*
X10278948Y-19589000D01*
X10293234Y-19603286D01*
X10307520Y-19631857D01*
X10307520Y-19717572D01*
X10293234Y-19746143D01*
X10278948Y-19760429D01*
X10250377Y-19774714D01*
X10193234Y-19774714D01*
X10164663Y-19760429D01*
X10436091Y-19746143D02*
X10450377Y-19760429D01*
X10436091Y-19774714D01*
X10421806Y-19760429D01*
X10436091Y-19746143D01*
X10436091Y-19774714D01*
X10436091Y-19589000D02*
X10450377Y-19603286D01*
X10436091Y-19617572D01*
X10421806Y-19603286D01*
X10436091Y-19589000D01*
X10436091Y-19617572D01*
X7772520Y-20109000D02*
X8092520Y-20429000D01*
X8092520Y-20109000D02*
X7772520Y-20429000D01*
X8350377Y-20104714D02*
X8536091Y-20104714D01*
X8436091Y-20219000D01*
X8478948Y-20219000D01*
X8507520Y-20233286D01*
X8521806Y-20247572D01*
X8536091Y-20276143D01*
X8536091Y-20347572D01*
X8521806Y-20376143D01*
X8507520Y-20390429D01*
X8478948Y-20404714D01*
X8393234Y-20404714D01*
X8364663Y-20390429D01*
X8350377Y-20376143D01*
X8664663Y-20376143D02*
X8678948Y-20390429D01*
X8664663Y-20404714D01*
X8650377Y-20390429D01*
X8664663Y-20376143D01*
X8664663Y-20404714D01*
X8793234Y-20133286D02*
X8807520Y-20119000D01*
X8836091Y-20104714D01*
X8907520Y-20104714D01*
X8936091Y-20119000D01*
X8950377Y-20133286D01*
X8964663Y-20161857D01*
X8964663Y-20190429D01*
X8950377Y-20233286D01*
X8778948Y-20404714D01*
X8964663Y-20404714D01*
X9150377Y-20104714D02*
X9178948Y-20104714D01*
X9207520Y-20119000D01*
X9221806Y-20133286D01*
X9236091Y-20161857D01*
X9250377Y-20219000D01*
X9250377Y-20290429D01*
X9236091Y-20347572D01*
X9221806Y-20376143D01*
X9207520Y-20390429D01*
X9178948Y-20404714D01*
X9150377Y-20404714D01*
X9121806Y-20390429D01*
X9107520Y-20376143D01*
X9093234Y-20347572D01*
X9078948Y-20290429D01*
X9078948Y-20219000D01*
X9093234Y-20161857D01*
X9107520Y-20133286D01*
X9121806Y-20119000D01*
X9150377Y-20104714D01*
X9378948Y-20404714D02*
X9378948Y-20204714D01*
X9378948Y-20233286D02*
X9393234Y-20219000D01*
X9421806Y-20204714D01*
X9464663Y-20204714D01*
X9493234Y-20219000D01*
X9507520Y-20247572D01*
X9507520Y-20404714D01*
X9507520Y-20247572D02*
X9521806Y-20219000D01*
X9550377Y-20204714D01*
X9593234Y-20204714D01*
X9621806Y-20219000D01*
X9636091Y-20247572D01*
X9636091Y-20404714D01*
X9778948Y-20404714D02*
X9778948Y-20204714D01*
X9778948Y-20233286D02*
X9793234Y-20219000D01*
X9821806Y-20204714D01*
X9864663Y-20204714D01*
X9893234Y-20219000D01*
X9907520Y-20247572D01*
X9907520Y-20404714D01*
X9907520Y-20247572D02*
X9921806Y-20219000D01*
X9950377Y-20204714D01*
X9993234Y-20204714D01*
X10021806Y-20219000D01*
X10036091Y-20247572D01*
X10036091Y-20404714D01*
X10621806Y-20090429D02*
X10364663Y-20476143D01*
X11007520Y-20104714D02*
X11036091Y-20104714D01*
X11064663Y-20119000D01*
X11078948Y-20133286D01*
X11093234Y-20161857D01*
X11107520Y-20219000D01*
X11107520Y-20290429D01*
X11093234Y-20347572D01*
X11078948Y-20376143D01*
X11064663Y-20390429D01*
X11036091Y-20404714D01*
X11007520Y-20404714D01*
X10978948Y-20390429D01*
X10964663Y-20376143D01*
X10950377Y-20347572D01*
X10936091Y-20290429D01*
X10936091Y-20219000D01*
X10950377Y-20161857D01*
X10964663Y-20133286D01*
X10978948Y-20119000D01*
X11007520Y-20104714D01*
X11236091Y-20376143D02*
X11250377Y-20390429D01*
X11236091Y-20404714D01*
X11221806Y-20390429D01*
X11236091Y-20376143D01*
X11236091Y-20404714D01*
X11536091Y-20404714D02*
X11364663Y-20404714D01*
X11450377Y-20404714D02*
X11450377Y-20104714D01*
X11421806Y-20147572D01*
X11393234Y-20176143D01*
X11364663Y-20190429D01*
X11650377Y-20133286D02*
X11664663Y-20119000D01*
X11693234Y-20104714D01*
X11764663Y-20104714D01*
X11793234Y-20119000D01*
X11807520Y-20133286D01*
X11821806Y-20161857D01*
X11821806Y-20190429D01*
X11807520Y-20233286D01*
X11636091Y-20404714D01*
X11821806Y-20404714D01*
X12078948Y-20104714D02*
X12021806Y-20104714D01*
X11993234Y-20119000D01*
X11978948Y-20133286D01*
X11950377Y-20176143D01*
X11936091Y-20233286D01*
X11936091Y-20347572D01*
X11950377Y-20376143D01*
X11964663Y-20390429D01*
X11993234Y-20404714D01*
X12050377Y-20404714D01*
X12078948Y-20390429D01*
X12093234Y-20376143D01*
X12107520Y-20347572D01*
X12107520Y-20276143D01*
X12093234Y-20247572D01*
X12078948Y-20233286D01*
X12050377Y-20219000D01*
X11993234Y-20219000D01*
X11964663Y-20233286D01*
X11950377Y-20247572D01*
X11936091Y-20276143D01*
X12221806Y-20104714D02*
X12221806Y-20161857D01*
X12336091Y-20104714D02*
X12336091Y-20161857D01*
X12778948Y-20519000D02*
X12764663Y-20504714D01*
X12736091Y-20461857D01*
X12721806Y-20433286D01*
X12707520Y-20390429D01*
X12693234Y-20319000D01*
X12693234Y-20261857D01*
X12707520Y-20190429D01*
X12721806Y-20147572D01*
X12736091Y-20119000D01*
X12764663Y-20076143D01*
X12778948Y-20061857D01*
X13050377Y-20404714D02*
X12878948Y-20404714D01*
X12964663Y-20404714D02*
X12964663Y-20104714D01*
X12936091Y-20147572D01*
X12907520Y-20176143D01*
X12878948Y-20190429D01*
X13407520Y-20404714D02*
X13407520Y-20104714D01*
X13536091Y-20404714D02*
X13536091Y-20247572D01*
X13521806Y-20219000D01*
X13493234Y-20204714D01*
X13450377Y-20204714D01*
X13421806Y-20219000D01*
X13407520Y-20233286D01*
X13721806Y-20404714D02*
X13693234Y-20390429D01*
X13678948Y-20376143D01*
X13664663Y-20347572D01*
X13664663Y-20261857D01*
X13678948Y-20233286D01*
X13693234Y-20219000D01*
X13721806Y-20204714D01*
X13764663Y-20204714D01*
X13793234Y-20219000D01*
X13807520Y-20233286D01*
X13821806Y-20261857D01*
X13821806Y-20347572D01*
X13807520Y-20376143D01*
X13793234Y-20390429D01*
X13764663Y-20404714D01*
X13721806Y-20404714D01*
X13993234Y-20404714D02*
X13964663Y-20390429D01*
X13950377Y-20361857D01*
X13950377Y-20104714D01*
X14221806Y-20390429D02*
X14193234Y-20404714D01*
X14136091Y-20404714D01*
X14107520Y-20390429D01*
X14093234Y-20361857D01*
X14093234Y-20247572D01*
X14107520Y-20219000D01*
X14136091Y-20204714D01*
X14193234Y-20204714D01*
X14221806Y-20219000D01*
X14236091Y-20247572D01*
X14236091Y-20276143D01*
X14093234Y-20304714D01*
X14336091Y-20519000D02*
X14350377Y-20504714D01*
X14378948Y-20461857D01*
X14393234Y-20433286D01*
X14407520Y-20390429D01*
X14421806Y-20319000D01*
X14421806Y-20261857D01*
X14407520Y-20190429D01*
X14393234Y-20147572D01*
X14378948Y-20119000D01*
X14350377Y-20076143D01*
X14336091Y-20061857D01*
X14878948Y-20519000D02*
X14864663Y-20504714D01*
X14836091Y-20461857D01*
X14821806Y-20433286D01*
X14807520Y-20390429D01*
X14793234Y-20319000D01*
X14793234Y-20261857D01*
X14807520Y-20190429D01*
X14821806Y-20147572D01*
X14836091Y-20119000D01*
X14864663Y-20076143D01*
X14878948Y-20061857D01*
X14993234Y-20204714D02*
X14993234Y-20404714D01*
X14993234Y-20233286D02*
X15007520Y-20219000D01*
X15036091Y-20204714D01*
X15078948Y-20204714D01*
X15107520Y-20219000D01*
X15121806Y-20247572D01*
X15121806Y-20404714D01*
X15307520Y-20404714D02*
X15278948Y-20390429D01*
X15264663Y-20376143D01*
X15250377Y-20347572D01*
X15250377Y-20261857D01*
X15264663Y-20233286D01*
X15278948Y-20219000D01*
X15307520Y-20204714D01*
X15350377Y-20204714D01*
X15378948Y-20219000D01*
X15393234Y-20233286D01*
X15407520Y-20261857D01*
X15407520Y-20347572D01*
X15393234Y-20376143D01*
X15378948Y-20390429D01*
X15350377Y-20404714D01*
X15307520Y-20404714D01*
X15493234Y-20204714D02*
X15607520Y-20204714D01*
X15536091Y-20104714D02*
X15536091Y-20361857D01*
X15550377Y-20390429D01*
X15578948Y-20404714D01*
X15607520Y-20404714D01*
X15936091Y-20204714D02*
X15936091Y-20504714D01*
X15936091Y-20219000D02*
X15964663Y-20204714D01*
X16021806Y-20204714D01*
X16050377Y-20219000D01*
X16064663Y-20233286D01*
X16078948Y-20261857D01*
X16078948Y-20347572D01*
X16064663Y-20376143D01*
X16050377Y-20390429D01*
X16021806Y-20404714D01*
X15964663Y-20404714D01*
X15936091Y-20390429D01*
X16250377Y-20404714D02*
X16221806Y-20390429D01*
X16207520Y-20361857D01*
X16207520Y-20104714D01*
X16493234Y-20404714D02*
X16493234Y-20247572D01*
X16478948Y-20219000D01*
X16450377Y-20204714D01*
X16393234Y-20204714D01*
X16364663Y-20219000D01*
X16493234Y-20390429D02*
X16464663Y-20404714D01*
X16393234Y-20404714D01*
X16364663Y-20390429D01*
X16350377Y-20361857D01*
X16350377Y-20333286D01*
X16364663Y-20304714D01*
X16393234Y-20290429D01*
X16464663Y-20290429D01*
X16493234Y-20276143D01*
X16593234Y-20204714D02*
X16707520Y-20204714D01*
X16636091Y-20104714D02*
X16636091Y-20361857D01*
X16650377Y-20390429D01*
X16678948Y-20404714D01*
X16707520Y-20404714D01*
X16921806Y-20390429D02*
X16893234Y-20404714D01*
X16836091Y-20404714D01*
X16807520Y-20390429D01*
X16793234Y-20361857D01*
X16793234Y-20247572D01*
X16807520Y-20219000D01*
X16836091Y-20204714D01*
X16893234Y-20204714D01*
X16921806Y-20219000D01*
X16936091Y-20247572D01*
X16936091Y-20276143D01*
X16793234Y-20304714D01*
X17193234Y-20404714D02*
X17193234Y-20104714D01*
X17193234Y-20390429D02*
X17164663Y-20404714D01*
X17107520Y-20404714D01*
X17078948Y-20390429D01*
X17064663Y-20376143D01*
X17050377Y-20347572D01*
X17050377Y-20261857D01*
X17064663Y-20233286D01*
X17078948Y-20219000D01*
X17107520Y-20204714D01*
X17164663Y-20204714D01*
X17193234Y-20219000D01*
X17307520Y-20519000D02*
X17321806Y-20504714D01*
X17350377Y-20461857D01*
X17364663Y-20433286D01*
X17378948Y-20390429D01*
X17393234Y-20319000D01*
X17393234Y-20261857D01*
X17378948Y-20190429D01*
X17364663Y-20147572D01*
X17350377Y-20119000D01*
X17321806Y-20076143D01*
X17307520Y-20061857D01*
M02*
