G04 #@! TF.GenerationSoftware,KiCad,Pcbnew,(5.1.6)-1*
G04 #@! TF.CreationDate,2021-10-25T07:34:01+01:00*
G04 #@! TF.ProjectId,Corinthians-Flight-Control-System,436f7269-6e74-4686-9961-6e732d466c69,1*
G04 #@! TF.SameCoordinates,Original*
G04 #@! TF.FileFunction,Soldermask,Top*
G04 #@! TF.FilePolarity,Negative*
%FSLAX46Y46*%
G04 Gerber Fmt 4.6, Leading zero omitted, Abs format (unit mm)*
G04 Created by KiCad (PCBNEW (5.1.6)-1) date 2021-10-25 07:34:01*
%MOMM*%
%LPD*%
G01*
G04 APERTURE LIST*
%ADD10R,1.300000X1.500000*%
%ADD11C,3.300000*%
%ADD12O,1.800000X1.800000*%
%ADD13R,1.800000X1.800000*%
%ADD14C,2.350000*%
%ADD15R,1.600000X2.100000*%
%ADD16R,3.900000X2.100000*%
%ADD17R,0.550000X0.400000*%
%ADD18R,0.400000X0.550000*%
%ADD19R,2.600000X2.600000*%
%ADD20R,0.450000X0.600000*%
%ADD21C,0.100000*%
%ADD22R,0.800000X0.800000*%
%ADD23R,1.300000X0.600000*%
%ADD24R,1.600000X1.600000*%
G04 APERTURE END LIST*
G36*
G01*
X99843380Y-165427940D02*
X99843380Y-166802940D01*
G75*
G02*
X99743380Y-166902940I-100000J0D01*
G01*
X99543380Y-166902940D01*
G75*
G02*
X99443380Y-166802940I0J100000D01*
G01*
X99443380Y-165427940D01*
G75*
G02*
X99543380Y-165327940I100000J0D01*
G01*
X99743380Y-165327940D01*
G75*
G02*
X99843380Y-165427940I0J-100000D01*
G01*
G37*
G36*
G01*
X99343380Y-165427940D02*
X99343380Y-166802940D01*
G75*
G02*
X99243380Y-166902940I-100000J0D01*
G01*
X99043380Y-166902940D01*
G75*
G02*
X98943380Y-166802940I0J100000D01*
G01*
X98943380Y-165427940D01*
G75*
G02*
X99043380Y-165327940I100000J0D01*
G01*
X99243380Y-165327940D01*
G75*
G02*
X99343380Y-165427940I0J-100000D01*
G01*
G37*
G36*
G01*
X98843380Y-165427940D02*
X98843380Y-166802940D01*
G75*
G02*
X98743380Y-166902940I-100000J0D01*
G01*
X98543380Y-166902940D01*
G75*
G02*
X98443380Y-166802940I0J100000D01*
G01*
X98443380Y-165427940D01*
G75*
G02*
X98543380Y-165327940I100000J0D01*
G01*
X98743380Y-165327940D01*
G75*
G02*
X98843380Y-165427940I0J-100000D01*
G01*
G37*
G36*
G01*
X98343380Y-165427940D02*
X98343380Y-166802940D01*
G75*
G02*
X98243380Y-166902940I-100000J0D01*
G01*
X98043380Y-166902940D01*
G75*
G02*
X97943380Y-166802940I0J100000D01*
G01*
X97943380Y-165427940D01*
G75*
G02*
X98043380Y-165327940I100000J0D01*
G01*
X98243380Y-165327940D01*
G75*
G02*
X98343380Y-165427940I0J-100000D01*
G01*
G37*
G36*
G01*
X97843380Y-165427940D02*
X97843380Y-166802940D01*
G75*
G02*
X97743380Y-166902940I-100000J0D01*
G01*
X97543380Y-166902940D01*
G75*
G02*
X97443380Y-166802940I0J100000D01*
G01*
X97443380Y-165427940D01*
G75*
G02*
X97543380Y-165327940I100000J0D01*
G01*
X97743380Y-165327940D01*
G75*
G02*
X97843380Y-165427940I0J-100000D01*
G01*
G37*
G36*
G01*
X97343380Y-165427940D02*
X97343380Y-166802940D01*
G75*
G02*
X97243380Y-166902940I-100000J0D01*
G01*
X97043380Y-166902940D01*
G75*
G02*
X96943380Y-166802940I0J100000D01*
G01*
X96943380Y-165427940D01*
G75*
G02*
X97043380Y-165327940I100000J0D01*
G01*
X97243380Y-165327940D01*
G75*
G02*
X97343380Y-165427940I0J-100000D01*
G01*
G37*
G36*
G01*
X96843380Y-165427940D02*
X96843380Y-166802940D01*
G75*
G02*
X96743380Y-166902940I-100000J0D01*
G01*
X96543380Y-166902940D01*
G75*
G02*
X96443380Y-166802940I0J100000D01*
G01*
X96443380Y-165427940D01*
G75*
G02*
X96543380Y-165327940I100000J0D01*
G01*
X96743380Y-165327940D01*
G75*
G02*
X96843380Y-165427940I0J-100000D01*
G01*
G37*
G36*
G01*
X96343380Y-165427940D02*
X96343380Y-166802940D01*
G75*
G02*
X96243380Y-166902940I-100000J0D01*
G01*
X96043380Y-166902940D01*
G75*
G02*
X95943380Y-166802940I0J100000D01*
G01*
X95943380Y-165427940D01*
G75*
G02*
X96043380Y-165327940I100000J0D01*
G01*
X96243380Y-165327940D01*
G75*
G02*
X96343380Y-165427940I0J-100000D01*
G01*
G37*
G36*
G01*
X95843380Y-165427940D02*
X95843380Y-166802940D01*
G75*
G02*
X95743380Y-166902940I-100000J0D01*
G01*
X95543380Y-166902940D01*
G75*
G02*
X95443380Y-166802940I0J100000D01*
G01*
X95443380Y-165427940D01*
G75*
G02*
X95543380Y-165327940I100000J0D01*
G01*
X95743380Y-165327940D01*
G75*
G02*
X95843380Y-165427940I0J-100000D01*
G01*
G37*
G36*
G01*
X95343380Y-165427940D02*
X95343380Y-166802940D01*
G75*
G02*
X95243380Y-166902940I-100000J0D01*
G01*
X95043380Y-166902940D01*
G75*
G02*
X94943380Y-166802940I0J100000D01*
G01*
X94943380Y-165427940D01*
G75*
G02*
X95043380Y-165327940I100000J0D01*
G01*
X95243380Y-165327940D01*
G75*
G02*
X95343380Y-165427940I0J-100000D01*
G01*
G37*
G36*
G01*
X94843380Y-165427940D02*
X94843380Y-166802940D01*
G75*
G02*
X94743380Y-166902940I-100000J0D01*
G01*
X94543380Y-166902940D01*
G75*
G02*
X94443380Y-166802940I0J100000D01*
G01*
X94443380Y-165427940D01*
G75*
G02*
X94543380Y-165327940I100000J0D01*
G01*
X94743380Y-165327940D01*
G75*
G02*
X94843380Y-165427940I0J-100000D01*
G01*
G37*
G36*
G01*
X94343380Y-165427940D02*
X94343380Y-166802940D01*
G75*
G02*
X94243380Y-166902940I-100000J0D01*
G01*
X94043380Y-166902940D01*
G75*
G02*
X93943380Y-166802940I0J100000D01*
G01*
X93943380Y-165427940D01*
G75*
G02*
X94043380Y-165327940I100000J0D01*
G01*
X94243380Y-165327940D01*
G75*
G02*
X94343380Y-165427940I0J-100000D01*
G01*
G37*
G36*
G01*
X93518380Y-164602940D02*
X93518380Y-164802940D01*
G75*
G02*
X93418380Y-164902940I-100000J0D01*
G01*
X92043380Y-164902940D01*
G75*
G02*
X91943380Y-164802940I0J100000D01*
G01*
X91943380Y-164602940D01*
G75*
G02*
X92043380Y-164502940I100000J0D01*
G01*
X93418380Y-164502940D01*
G75*
G02*
X93518380Y-164602940I0J-100000D01*
G01*
G37*
G36*
G01*
X93518380Y-164102940D02*
X93518380Y-164302940D01*
G75*
G02*
X93418380Y-164402940I-100000J0D01*
G01*
X92043380Y-164402940D01*
G75*
G02*
X91943380Y-164302940I0J100000D01*
G01*
X91943380Y-164102940D01*
G75*
G02*
X92043380Y-164002940I100000J0D01*
G01*
X93418380Y-164002940D01*
G75*
G02*
X93518380Y-164102940I0J-100000D01*
G01*
G37*
G36*
G01*
X93518380Y-163602940D02*
X93518380Y-163802940D01*
G75*
G02*
X93418380Y-163902940I-100000J0D01*
G01*
X92043380Y-163902940D01*
G75*
G02*
X91943380Y-163802940I0J100000D01*
G01*
X91943380Y-163602940D01*
G75*
G02*
X92043380Y-163502940I100000J0D01*
G01*
X93418380Y-163502940D01*
G75*
G02*
X93518380Y-163602940I0J-100000D01*
G01*
G37*
G36*
G01*
X93518380Y-163102940D02*
X93518380Y-163302940D01*
G75*
G02*
X93418380Y-163402940I-100000J0D01*
G01*
X92043380Y-163402940D01*
G75*
G02*
X91943380Y-163302940I0J100000D01*
G01*
X91943380Y-163102940D01*
G75*
G02*
X92043380Y-163002940I100000J0D01*
G01*
X93418380Y-163002940D01*
G75*
G02*
X93518380Y-163102940I0J-100000D01*
G01*
G37*
G36*
G01*
X93518380Y-162602940D02*
X93518380Y-162802940D01*
G75*
G02*
X93418380Y-162902940I-100000J0D01*
G01*
X92043380Y-162902940D01*
G75*
G02*
X91943380Y-162802940I0J100000D01*
G01*
X91943380Y-162602940D01*
G75*
G02*
X92043380Y-162502940I100000J0D01*
G01*
X93418380Y-162502940D01*
G75*
G02*
X93518380Y-162602940I0J-100000D01*
G01*
G37*
G36*
G01*
X93518380Y-162102940D02*
X93518380Y-162302940D01*
G75*
G02*
X93418380Y-162402940I-100000J0D01*
G01*
X92043380Y-162402940D01*
G75*
G02*
X91943380Y-162302940I0J100000D01*
G01*
X91943380Y-162102940D01*
G75*
G02*
X92043380Y-162002940I100000J0D01*
G01*
X93418380Y-162002940D01*
G75*
G02*
X93518380Y-162102940I0J-100000D01*
G01*
G37*
G36*
G01*
X93518380Y-161602940D02*
X93518380Y-161802940D01*
G75*
G02*
X93418380Y-161902940I-100000J0D01*
G01*
X92043380Y-161902940D01*
G75*
G02*
X91943380Y-161802940I0J100000D01*
G01*
X91943380Y-161602940D01*
G75*
G02*
X92043380Y-161502940I100000J0D01*
G01*
X93418380Y-161502940D01*
G75*
G02*
X93518380Y-161602940I0J-100000D01*
G01*
G37*
G36*
G01*
X93518380Y-161102940D02*
X93518380Y-161302940D01*
G75*
G02*
X93418380Y-161402940I-100000J0D01*
G01*
X92043380Y-161402940D01*
G75*
G02*
X91943380Y-161302940I0J100000D01*
G01*
X91943380Y-161102940D01*
G75*
G02*
X92043380Y-161002940I100000J0D01*
G01*
X93418380Y-161002940D01*
G75*
G02*
X93518380Y-161102940I0J-100000D01*
G01*
G37*
G36*
G01*
X93518380Y-160602940D02*
X93518380Y-160802940D01*
G75*
G02*
X93418380Y-160902940I-100000J0D01*
G01*
X92043380Y-160902940D01*
G75*
G02*
X91943380Y-160802940I0J100000D01*
G01*
X91943380Y-160602940D01*
G75*
G02*
X92043380Y-160502940I100000J0D01*
G01*
X93418380Y-160502940D01*
G75*
G02*
X93518380Y-160602940I0J-100000D01*
G01*
G37*
G36*
G01*
X93518380Y-160102940D02*
X93518380Y-160302940D01*
G75*
G02*
X93418380Y-160402940I-100000J0D01*
G01*
X92043380Y-160402940D01*
G75*
G02*
X91943380Y-160302940I0J100000D01*
G01*
X91943380Y-160102940D01*
G75*
G02*
X92043380Y-160002940I100000J0D01*
G01*
X93418380Y-160002940D01*
G75*
G02*
X93518380Y-160102940I0J-100000D01*
G01*
G37*
G36*
G01*
X93518380Y-159602940D02*
X93518380Y-159802940D01*
G75*
G02*
X93418380Y-159902940I-100000J0D01*
G01*
X92043380Y-159902940D01*
G75*
G02*
X91943380Y-159802940I0J100000D01*
G01*
X91943380Y-159602940D01*
G75*
G02*
X92043380Y-159502940I100000J0D01*
G01*
X93418380Y-159502940D01*
G75*
G02*
X93518380Y-159602940I0J-100000D01*
G01*
G37*
G36*
G01*
X93518380Y-159102940D02*
X93518380Y-159302940D01*
G75*
G02*
X93418380Y-159402940I-100000J0D01*
G01*
X92043380Y-159402940D01*
G75*
G02*
X91943380Y-159302940I0J100000D01*
G01*
X91943380Y-159102940D01*
G75*
G02*
X92043380Y-159002940I100000J0D01*
G01*
X93418380Y-159002940D01*
G75*
G02*
X93518380Y-159102940I0J-100000D01*
G01*
G37*
G36*
G01*
X94343380Y-157102940D02*
X94343380Y-158477940D01*
G75*
G02*
X94243380Y-158577940I-100000J0D01*
G01*
X94043380Y-158577940D01*
G75*
G02*
X93943380Y-158477940I0J100000D01*
G01*
X93943380Y-157102940D01*
G75*
G02*
X94043380Y-157002940I100000J0D01*
G01*
X94243380Y-157002940D01*
G75*
G02*
X94343380Y-157102940I0J-100000D01*
G01*
G37*
G36*
G01*
X94843380Y-157102940D02*
X94843380Y-158477940D01*
G75*
G02*
X94743380Y-158577940I-100000J0D01*
G01*
X94543380Y-158577940D01*
G75*
G02*
X94443380Y-158477940I0J100000D01*
G01*
X94443380Y-157102940D01*
G75*
G02*
X94543380Y-157002940I100000J0D01*
G01*
X94743380Y-157002940D01*
G75*
G02*
X94843380Y-157102940I0J-100000D01*
G01*
G37*
G36*
G01*
X95343380Y-157102940D02*
X95343380Y-158477940D01*
G75*
G02*
X95243380Y-158577940I-100000J0D01*
G01*
X95043380Y-158577940D01*
G75*
G02*
X94943380Y-158477940I0J100000D01*
G01*
X94943380Y-157102940D01*
G75*
G02*
X95043380Y-157002940I100000J0D01*
G01*
X95243380Y-157002940D01*
G75*
G02*
X95343380Y-157102940I0J-100000D01*
G01*
G37*
G36*
G01*
X95843380Y-157102940D02*
X95843380Y-158477940D01*
G75*
G02*
X95743380Y-158577940I-100000J0D01*
G01*
X95543380Y-158577940D01*
G75*
G02*
X95443380Y-158477940I0J100000D01*
G01*
X95443380Y-157102940D01*
G75*
G02*
X95543380Y-157002940I100000J0D01*
G01*
X95743380Y-157002940D01*
G75*
G02*
X95843380Y-157102940I0J-100000D01*
G01*
G37*
G36*
G01*
X96343380Y-157102940D02*
X96343380Y-158477940D01*
G75*
G02*
X96243380Y-158577940I-100000J0D01*
G01*
X96043380Y-158577940D01*
G75*
G02*
X95943380Y-158477940I0J100000D01*
G01*
X95943380Y-157102940D01*
G75*
G02*
X96043380Y-157002940I100000J0D01*
G01*
X96243380Y-157002940D01*
G75*
G02*
X96343380Y-157102940I0J-100000D01*
G01*
G37*
G36*
G01*
X96843380Y-157102940D02*
X96843380Y-158477940D01*
G75*
G02*
X96743380Y-158577940I-100000J0D01*
G01*
X96543380Y-158577940D01*
G75*
G02*
X96443380Y-158477940I0J100000D01*
G01*
X96443380Y-157102940D01*
G75*
G02*
X96543380Y-157002940I100000J0D01*
G01*
X96743380Y-157002940D01*
G75*
G02*
X96843380Y-157102940I0J-100000D01*
G01*
G37*
G36*
G01*
X97343380Y-157102940D02*
X97343380Y-158477940D01*
G75*
G02*
X97243380Y-158577940I-100000J0D01*
G01*
X97043380Y-158577940D01*
G75*
G02*
X96943380Y-158477940I0J100000D01*
G01*
X96943380Y-157102940D01*
G75*
G02*
X97043380Y-157002940I100000J0D01*
G01*
X97243380Y-157002940D01*
G75*
G02*
X97343380Y-157102940I0J-100000D01*
G01*
G37*
G36*
G01*
X97843380Y-157102940D02*
X97843380Y-158477940D01*
G75*
G02*
X97743380Y-158577940I-100000J0D01*
G01*
X97543380Y-158577940D01*
G75*
G02*
X97443380Y-158477940I0J100000D01*
G01*
X97443380Y-157102940D01*
G75*
G02*
X97543380Y-157002940I100000J0D01*
G01*
X97743380Y-157002940D01*
G75*
G02*
X97843380Y-157102940I0J-100000D01*
G01*
G37*
G36*
G01*
X98343380Y-157102940D02*
X98343380Y-158477940D01*
G75*
G02*
X98243380Y-158577940I-100000J0D01*
G01*
X98043380Y-158577940D01*
G75*
G02*
X97943380Y-158477940I0J100000D01*
G01*
X97943380Y-157102940D01*
G75*
G02*
X98043380Y-157002940I100000J0D01*
G01*
X98243380Y-157002940D01*
G75*
G02*
X98343380Y-157102940I0J-100000D01*
G01*
G37*
G36*
G01*
X98843380Y-157102940D02*
X98843380Y-158477940D01*
G75*
G02*
X98743380Y-158577940I-100000J0D01*
G01*
X98543380Y-158577940D01*
G75*
G02*
X98443380Y-158477940I0J100000D01*
G01*
X98443380Y-157102940D01*
G75*
G02*
X98543380Y-157002940I100000J0D01*
G01*
X98743380Y-157002940D01*
G75*
G02*
X98843380Y-157102940I0J-100000D01*
G01*
G37*
G36*
G01*
X99343380Y-157102940D02*
X99343380Y-158477940D01*
G75*
G02*
X99243380Y-158577940I-100000J0D01*
G01*
X99043380Y-158577940D01*
G75*
G02*
X98943380Y-158477940I0J100000D01*
G01*
X98943380Y-157102940D01*
G75*
G02*
X99043380Y-157002940I100000J0D01*
G01*
X99243380Y-157002940D01*
G75*
G02*
X99343380Y-157102940I0J-100000D01*
G01*
G37*
G36*
G01*
X99843380Y-157102940D02*
X99843380Y-158477940D01*
G75*
G02*
X99743380Y-158577940I-100000J0D01*
G01*
X99543380Y-158577940D01*
G75*
G02*
X99443380Y-158477940I0J100000D01*
G01*
X99443380Y-157102940D01*
G75*
G02*
X99543380Y-157002940I100000J0D01*
G01*
X99743380Y-157002940D01*
G75*
G02*
X99843380Y-157102940I0J-100000D01*
G01*
G37*
G36*
G01*
X101843380Y-159102940D02*
X101843380Y-159302940D01*
G75*
G02*
X101743380Y-159402940I-100000J0D01*
G01*
X100368380Y-159402940D01*
G75*
G02*
X100268380Y-159302940I0J100000D01*
G01*
X100268380Y-159102940D01*
G75*
G02*
X100368380Y-159002940I100000J0D01*
G01*
X101743380Y-159002940D01*
G75*
G02*
X101843380Y-159102940I0J-100000D01*
G01*
G37*
G36*
G01*
X101843380Y-159602940D02*
X101843380Y-159802940D01*
G75*
G02*
X101743380Y-159902940I-100000J0D01*
G01*
X100368380Y-159902940D01*
G75*
G02*
X100268380Y-159802940I0J100000D01*
G01*
X100268380Y-159602940D01*
G75*
G02*
X100368380Y-159502940I100000J0D01*
G01*
X101743380Y-159502940D01*
G75*
G02*
X101843380Y-159602940I0J-100000D01*
G01*
G37*
G36*
G01*
X101843380Y-160102940D02*
X101843380Y-160302940D01*
G75*
G02*
X101743380Y-160402940I-100000J0D01*
G01*
X100368380Y-160402940D01*
G75*
G02*
X100268380Y-160302940I0J100000D01*
G01*
X100268380Y-160102940D01*
G75*
G02*
X100368380Y-160002940I100000J0D01*
G01*
X101743380Y-160002940D01*
G75*
G02*
X101843380Y-160102940I0J-100000D01*
G01*
G37*
G36*
G01*
X101843380Y-160602940D02*
X101843380Y-160802940D01*
G75*
G02*
X101743380Y-160902940I-100000J0D01*
G01*
X100368380Y-160902940D01*
G75*
G02*
X100268380Y-160802940I0J100000D01*
G01*
X100268380Y-160602940D01*
G75*
G02*
X100368380Y-160502940I100000J0D01*
G01*
X101743380Y-160502940D01*
G75*
G02*
X101843380Y-160602940I0J-100000D01*
G01*
G37*
G36*
G01*
X101843380Y-161102940D02*
X101843380Y-161302940D01*
G75*
G02*
X101743380Y-161402940I-100000J0D01*
G01*
X100368380Y-161402940D01*
G75*
G02*
X100268380Y-161302940I0J100000D01*
G01*
X100268380Y-161102940D01*
G75*
G02*
X100368380Y-161002940I100000J0D01*
G01*
X101743380Y-161002940D01*
G75*
G02*
X101843380Y-161102940I0J-100000D01*
G01*
G37*
G36*
G01*
X101843380Y-161602940D02*
X101843380Y-161802940D01*
G75*
G02*
X101743380Y-161902940I-100000J0D01*
G01*
X100368380Y-161902940D01*
G75*
G02*
X100268380Y-161802940I0J100000D01*
G01*
X100268380Y-161602940D01*
G75*
G02*
X100368380Y-161502940I100000J0D01*
G01*
X101743380Y-161502940D01*
G75*
G02*
X101843380Y-161602940I0J-100000D01*
G01*
G37*
G36*
G01*
X101843380Y-162102940D02*
X101843380Y-162302940D01*
G75*
G02*
X101743380Y-162402940I-100000J0D01*
G01*
X100368380Y-162402940D01*
G75*
G02*
X100268380Y-162302940I0J100000D01*
G01*
X100268380Y-162102940D01*
G75*
G02*
X100368380Y-162002940I100000J0D01*
G01*
X101743380Y-162002940D01*
G75*
G02*
X101843380Y-162102940I0J-100000D01*
G01*
G37*
G36*
G01*
X101843380Y-162602940D02*
X101843380Y-162802940D01*
G75*
G02*
X101743380Y-162902940I-100000J0D01*
G01*
X100368380Y-162902940D01*
G75*
G02*
X100268380Y-162802940I0J100000D01*
G01*
X100268380Y-162602940D01*
G75*
G02*
X100368380Y-162502940I100000J0D01*
G01*
X101743380Y-162502940D01*
G75*
G02*
X101843380Y-162602940I0J-100000D01*
G01*
G37*
G36*
G01*
X101843380Y-163102940D02*
X101843380Y-163302940D01*
G75*
G02*
X101743380Y-163402940I-100000J0D01*
G01*
X100368380Y-163402940D01*
G75*
G02*
X100268380Y-163302940I0J100000D01*
G01*
X100268380Y-163102940D01*
G75*
G02*
X100368380Y-163002940I100000J0D01*
G01*
X101743380Y-163002940D01*
G75*
G02*
X101843380Y-163102940I0J-100000D01*
G01*
G37*
G36*
G01*
X101843380Y-163602940D02*
X101843380Y-163802940D01*
G75*
G02*
X101743380Y-163902940I-100000J0D01*
G01*
X100368380Y-163902940D01*
G75*
G02*
X100268380Y-163802940I0J100000D01*
G01*
X100268380Y-163602940D01*
G75*
G02*
X100368380Y-163502940I100000J0D01*
G01*
X101743380Y-163502940D01*
G75*
G02*
X101843380Y-163602940I0J-100000D01*
G01*
G37*
G36*
G01*
X101843380Y-164102940D02*
X101843380Y-164302940D01*
G75*
G02*
X101743380Y-164402940I-100000J0D01*
G01*
X100368380Y-164402940D01*
G75*
G02*
X100268380Y-164302940I0J100000D01*
G01*
X100268380Y-164102940D01*
G75*
G02*
X100368380Y-164002940I100000J0D01*
G01*
X101743380Y-164002940D01*
G75*
G02*
X101843380Y-164102940I0J-100000D01*
G01*
G37*
G36*
G01*
X101843380Y-164602940D02*
X101843380Y-164802940D01*
G75*
G02*
X101743380Y-164902940I-100000J0D01*
G01*
X100368380Y-164902940D01*
G75*
G02*
X100268380Y-164802940I0J100000D01*
G01*
X100268380Y-164602940D01*
G75*
G02*
X100368380Y-164502940I100000J0D01*
G01*
X101743380Y-164502940D01*
G75*
G02*
X101843380Y-164602940I0J-100000D01*
G01*
G37*
G36*
G01*
X108705600Y-165629062D02*
X108705600Y-164672538D01*
G75*
G02*
X108977338Y-164400800I271738J0D01*
G01*
X109683862Y-164400800D01*
G75*
G02*
X109955600Y-164672538I0J-271738D01*
G01*
X109955600Y-165629062D01*
G75*
G02*
X109683862Y-165900800I-271738J0D01*
G01*
X108977338Y-165900800D01*
G75*
G02*
X108705600Y-165629062I0J271738D01*
G01*
G37*
G36*
G01*
X106655600Y-165629062D02*
X106655600Y-164672538D01*
G75*
G02*
X106927338Y-164400800I271738J0D01*
G01*
X107633862Y-164400800D01*
G75*
G02*
X107905600Y-164672538I0J-271738D01*
G01*
X107905600Y-165629062D01*
G75*
G02*
X107633862Y-165900800I-271738J0D01*
G01*
X106927338Y-165900800D01*
G75*
G02*
X106655600Y-165629062I0J271738D01*
G01*
G37*
D10*
X96709600Y-182338800D03*
X96709600Y-184538800D03*
X95009600Y-184538800D03*
X95009600Y-182338800D03*
X107608000Y-163050400D03*
X107608000Y-160850400D03*
X109308000Y-160850400D03*
X109308000Y-163050400D03*
G36*
G01*
X95154800Y-132973338D02*
X95154800Y-133929862D01*
G75*
G02*
X94883062Y-134201600I-271738J0D01*
G01*
X94176538Y-134201600D01*
G75*
G02*
X93904800Y-133929862I0J271738D01*
G01*
X93904800Y-132973338D01*
G75*
G02*
X94176538Y-132701600I271738J0D01*
G01*
X94883062Y-132701600D01*
G75*
G02*
X95154800Y-132973338I0J-271738D01*
G01*
G37*
G36*
G01*
X97204800Y-132973338D02*
X97204800Y-133929862D01*
G75*
G02*
X96933062Y-134201600I-271738J0D01*
G01*
X96226538Y-134201600D01*
G75*
G02*
X95954800Y-133929862I0J271738D01*
G01*
X95954800Y-132973338D01*
G75*
G02*
X96226538Y-132701600I271738J0D01*
G01*
X96933062Y-132701600D01*
G75*
G02*
X97204800Y-132973338I0J-271738D01*
G01*
G37*
G36*
G01*
X92856000Y-148712662D02*
X92856000Y-147756138D01*
G75*
G02*
X93127738Y-147484400I271738J0D01*
G01*
X93834262Y-147484400D01*
G75*
G02*
X94106000Y-147756138I0J-271738D01*
G01*
X94106000Y-148712662D01*
G75*
G02*
X93834262Y-148984400I-271738J0D01*
G01*
X93127738Y-148984400D01*
G75*
G02*
X92856000Y-148712662I0J271738D01*
G01*
G37*
G36*
G01*
X90806000Y-148712662D02*
X90806000Y-147756138D01*
G75*
G02*
X91077738Y-147484400I271738J0D01*
G01*
X91784262Y-147484400D01*
G75*
G02*
X92056000Y-147756138I0J-271738D01*
G01*
X92056000Y-148712662D01*
G75*
G02*
X91784262Y-148984400I-271738J0D01*
G01*
X91077738Y-148984400D01*
G75*
G02*
X90806000Y-148712662I0J271738D01*
G01*
G37*
G36*
G01*
X105685062Y-159416800D02*
X104728538Y-159416800D01*
G75*
G02*
X104456800Y-159145062I0J271738D01*
G01*
X104456800Y-158438538D01*
G75*
G02*
X104728538Y-158166800I271738J0D01*
G01*
X105685062Y-158166800D01*
G75*
G02*
X105956800Y-158438538I0J-271738D01*
G01*
X105956800Y-159145062D01*
G75*
G02*
X105685062Y-159416800I-271738J0D01*
G01*
G37*
G36*
G01*
X105685062Y-161466800D02*
X104728538Y-161466800D01*
G75*
G02*
X104456800Y-161195062I0J271738D01*
G01*
X104456800Y-160488538D01*
G75*
G02*
X104728538Y-160216800I271738J0D01*
G01*
X105685062Y-160216800D01*
G75*
G02*
X105956800Y-160488538I0J-271738D01*
G01*
X105956800Y-161195062D01*
G75*
G02*
X105685062Y-161466800I-271738J0D01*
G01*
G37*
G36*
G01*
X99991000Y-144801062D02*
X99991000Y-143844538D01*
G75*
G02*
X100262738Y-143572800I271738J0D01*
G01*
X100969262Y-143572800D01*
G75*
G02*
X101241000Y-143844538I0J-271738D01*
G01*
X101241000Y-144801062D01*
G75*
G02*
X100969262Y-145072800I-271738J0D01*
G01*
X100262738Y-145072800D01*
G75*
G02*
X99991000Y-144801062I0J271738D01*
G01*
G37*
G36*
G01*
X97941000Y-144801062D02*
X97941000Y-143844538D01*
G75*
G02*
X98212738Y-143572800I271738J0D01*
G01*
X98919262Y-143572800D01*
G75*
G02*
X99191000Y-143844538I0J-271738D01*
G01*
X99191000Y-144801062D01*
G75*
G02*
X98919262Y-145072800I-271738J0D01*
G01*
X98212738Y-145072800D01*
G75*
G02*
X97941000Y-144801062I0J271738D01*
G01*
G37*
G36*
G01*
X104690000Y-144877262D02*
X104690000Y-143920738D01*
G75*
G02*
X104961738Y-143649000I271738J0D01*
G01*
X105668262Y-143649000D01*
G75*
G02*
X105940000Y-143920738I0J-271738D01*
G01*
X105940000Y-144877262D01*
G75*
G02*
X105668262Y-145149000I-271738J0D01*
G01*
X104961738Y-145149000D01*
G75*
G02*
X104690000Y-144877262I0J271738D01*
G01*
G37*
G36*
G01*
X102640000Y-144877262D02*
X102640000Y-143920738D01*
G75*
G02*
X102911738Y-143649000I271738J0D01*
G01*
X103618262Y-143649000D01*
G75*
G02*
X103890000Y-143920738I0J-271738D01*
G01*
X103890000Y-144877262D01*
G75*
G02*
X103618262Y-145149000I-271738J0D01*
G01*
X102911738Y-145149000D01*
G75*
G02*
X102640000Y-144877262I0J271738D01*
G01*
G37*
G36*
G01*
X106622800Y-151379662D02*
X106622800Y-150423138D01*
G75*
G02*
X106894538Y-150151400I271738J0D01*
G01*
X107601062Y-150151400D01*
G75*
G02*
X107872800Y-150423138I0J-271738D01*
G01*
X107872800Y-151379662D01*
G75*
G02*
X107601062Y-151651400I-271738J0D01*
G01*
X106894538Y-151651400D01*
G75*
G02*
X106622800Y-151379662I0J271738D01*
G01*
G37*
G36*
G01*
X104572800Y-151379662D02*
X104572800Y-150423138D01*
G75*
G02*
X104844538Y-150151400I271738J0D01*
G01*
X105551062Y-150151400D01*
G75*
G02*
X105822800Y-150423138I0J-271738D01*
G01*
X105822800Y-151379662D01*
G75*
G02*
X105551062Y-151651400I-271738J0D01*
G01*
X104844538Y-151651400D01*
G75*
G02*
X104572800Y-151379662I0J271738D01*
G01*
G37*
G36*
G01*
X109389000Y-144902662D02*
X109389000Y-143946138D01*
G75*
G02*
X109660738Y-143674400I271738J0D01*
G01*
X110367262Y-143674400D01*
G75*
G02*
X110639000Y-143946138I0J-271738D01*
G01*
X110639000Y-144902662D01*
G75*
G02*
X110367262Y-145174400I-271738J0D01*
G01*
X109660738Y-145174400D01*
G75*
G02*
X109389000Y-144902662I0J271738D01*
G01*
G37*
G36*
G01*
X107339000Y-144902662D02*
X107339000Y-143946138D01*
G75*
G02*
X107610738Y-143674400I271738J0D01*
G01*
X108317262Y-143674400D01*
G75*
G02*
X108589000Y-143946138I0J-271738D01*
G01*
X108589000Y-144902662D01*
G75*
G02*
X108317262Y-145174400I-271738J0D01*
G01*
X107610738Y-145174400D01*
G75*
G02*
X107339000Y-144902662I0J271738D01*
G01*
G37*
G36*
G01*
X96693462Y-169678400D02*
X95736938Y-169678400D01*
G75*
G02*
X95465200Y-169406662I0J271738D01*
G01*
X95465200Y-168700138D01*
G75*
G02*
X95736938Y-168428400I271738J0D01*
G01*
X96693462Y-168428400D01*
G75*
G02*
X96965200Y-168700138I0J-271738D01*
G01*
X96965200Y-169406662D01*
G75*
G02*
X96693462Y-169678400I-271738J0D01*
G01*
G37*
G36*
G01*
X96693462Y-171728400D02*
X95736938Y-171728400D01*
G75*
G02*
X95465200Y-171456662I0J271738D01*
G01*
X95465200Y-170750138D01*
G75*
G02*
X95736938Y-170478400I271738J0D01*
G01*
X96693462Y-170478400D01*
G75*
G02*
X96965200Y-170750138I0J-271738D01*
G01*
X96965200Y-171456662D01*
G75*
G02*
X96693462Y-171728400I-271738J0D01*
G01*
G37*
G36*
G01*
X99131862Y-169729200D02*
X98175338Y-169729200D01*
G75*
G02*
X97903600Y-169457462I0J271738D01*
G01*
X97903600Y-168750938D01*
G75*
G02*
X98175338Y-168479200I271738J0D01*
G01*
X99131862Y-168479200D01*
G75*
G02*
X99403600Y-168750938I0J-271738D01*
G01*
X99403600Y-169457462D01*
G75*
G02*
X99131862Y-169729200I-271738J0D01*
G01*
G37*
G36*
G01*
X99131862Y-171779200D02*
X98175338Y-171779200D01*
G75*
G02*
X97903600Y-171507462I0J271738D01*
G01*
X97903600Y-170800938D01*
G75*
G02*
X98175338Y-170529200I271738J0D01*
G01*
X99131862Y-170529200D01*
G75*
G02*
X99403600Y-170800938I0J-271738D01*
G01*
X99403600Y-171507462D01*
G75*
G02*
X99131862Y-171779200I-271738J0D01*
G01*
G37*
G36*
G01*
X95220262Y-141078000D02*
X94263738Y-141078000D01*
G75*
G02*
X93992000Y-140806262I0J271738D01*
G01*
X93992000Y-140099738D01*
G75*
G02*
X94263738Y-139828000I271738J0D01*
G01*
X95220262Y-139828000D01*
G75*
G02*
X95492000Y-140099738I0J-271738D01*
G01*
X95492000Y-140806262D01*
G75*
G02*
X95220262Y-141078000I-271738J0D01*
G01*
G37*
G36*
G01*
X95220262Y-143128000D02*
X94263738Y-143128000D01*
G75*
G02*
X93992000Y-142856262I0J271738D01*
G01*
X93992000Y-142149738D01*
G75*
G02*
X94263738Y-141878000I271738J0D01*
G01*
X95220262Y-141878000D01*
G75*
G02*
X95492000Y-142149738I0J-271738D01*
G01*
X95492000Y-142856262D01*
G75*
G02*
X95220262Y-143128000I-271738J0D01*
G01*
G37*
G36*
G01*
X107943600Y-188031862D02*
X107943600Y-187075338D01*
G75*
G02*
X108215338Y-186803600I271738J0D01*
G01*
X108921862Y-186803600D01*
G75*
G02*
X109193600Y-187075338I0J-271738D01*
G01*
X109193600Y-188031862D01*
G75*
G02*
X108921862Y-188303600I-271738J0D01*
G01*
X108215338Y-188303600D01*
G75*
G02*
X107943600Y-188031862I0J271738D01*
G01*
G37*
G36*
G01*
X105893600Y-188031862D02*
X105893600Y-187075338D01*
G75*
G02*
X106165338Y-186803600I271738J0D01*
G01*
X106871862Y-186803600D01*
G75*
G02*
X107143600Y-187075338I0J-271738D01*
G01*
X107143600Y-188031862D01*
G75*
G02*
X106871862Y-188303600I-271738J0D01*
G01*
X106165338Y-188303600D01*
G75*
G02*
X105893600Y-188031862I0J271738D01*
G01*
G37*
G36*
G01*
X93239062Y-183089600D02*
X92282538Y-183089600D01*
G75*
G02*
X92010800Y-182817862I0J271738D01*
G01*
X92010800Y-182111338D01*
G75*
G02*
X92282538Y-181839600I271738J0D01*
G01*
X93239062Y-181839600D01*
G75*
G02*
X93510800Y-182111338I0J-271738D01*
G01*
X93510800Y-182817862D01*
G75*
G02*
X93239062Y-183089600I-271738J0D01*
G01*
G37*
G36*
G01*
X93239062Y-185139600D02*
X92282538Y-185139600D01*
G75*
G02*
X92010800Y-184867862I0J271738D01*
G01*
X92010800Y-184161338D01*
G75*
G02*
X92282538Y-183889600I271738J0D01*
G01*
X93239062Y-183889600D01*
G75*
G02*
X93510800Y-184161338I0J-271738D01*
G01*
X93510800Y-184867862D01*
G75*
G02*
X93239062Y-185139600I-271738J0D01*
G01*
G37*
G36*
G01*
X101426538Y-157219600D02*
X102383062Y-157219600D01*
G75*
G02*
X102654800Y-157491338I0J-271738D01*
G01*
X102654800Y-158197862D01*
G75*
G02*
X102383062Y-158469600I-271738J0D01*
G01*
X101426538Y-158469600D01*
G75*
G02*
X101154800Y-158197862I0J271738D01*
G01*
X101154800Y-157491338D01*
G75*
G02*
X101426538Y-157219600I271738J0D01*
G01*
G37*
G36*
G01*
X101426538Y-155169600D02*
X102383062Y-155169600D01*
G75*
G02*
X102654800Y-155441338I0J-271738D01*
G01*
X102654800Y-156147862D01*
G75*
G02*
X102383062Y-156419600I-271738J0D01*
G01*
X101426538Y-156419600D01*
G75*
G02*
X101154800Y-156147862I0J271738D01*
G01*
X101154800Y-155441338D01*
G75*
G02*
X101426538Y-155169600I271738J0D01*
G01*
G37*
G36*
G01*
X104068138Y-190290400D02*
X105024662Y-190290400D01*
G75*
G02*
X105296400Y-190562138I0J-271738D01*
G01*
X105296400Y-191268662D01*
G75*
G02*
X105024662Y-191540400I-271738J0D01*
G01*
X104068138Y-191540400D01*
G75*
G02*
X103796400Y-191268662I0J271738D01*
G01*
X103796400Y-190562138D01*
G75*
G02*
X104068138Y-190290400I271738J0D01*
G01*
G37*
G36*
G01*
X104068138Y-188240400D02*
X105024662Y-188240400D01*
G75*
G02*
X105296400Y-188512138I0J-271738D01*
G01*
X105296400Y-189218662D01*
G75*
G02*
X105024662Y-189490400I-271738J0D01*
G01*
X104068138Y-189490400D01*
G75*
G02*
X103796400Y-189218662I0J271738D01*
G01*
X103796400Y-188512138D01*
G75*
G02*
X104068138Y-188240400I271738J0D01*
G01*
G37*
G36*
G01*
X101047600Y-188345338D02*
X101047600Y-189301862D01*
G75*
G02*
X100775862Y-189573600I-271738J0D01*
G01*
X100069338Y-189573600D01*
G75*
G02*
X99797600Y-189301862I0J271738D01*
G01*
X99797600Y-188345338D01*
G75*
G02*
X100069338Y-188073600I271738J0D01*
G01*
X100775862Y-188073600D01*
G75*
G02*
X101047600Y-188345338I0J-271738D01*
G01*
G37*
G36*
G01*
X103097600Y-188345338D02*
X103097600Y-189301862D01*
G75*
G02*
X102825862Y-189573600I-271738J0D01*
G01*
X102119338Y-189573600D01*
G75*
G02*
X101847600Y-189301862I0J271738D01*
G01*
X101847600Y-188345338D01*
G75*
G02*
X102119338Y-188073600I271738J0D01*
G01*
X102825862Y-188073600D01*
G75*
G02*
X103097600Y-188345338I0J-271738D01*
G01*
G37*
G36*
G01*
X103473200Y-187219062D02*
X103473200Y-186262538D01*
G75*
G02*
X103744938Y-185990800I271738J0D01*
G01*
X104451462Y-185990800D01*
G75*
G02*
X104723200Y-186262538I0J-271738D01*
G01*
X104723200Y-187219062D01*
G75*
G02*
X104451462Y-187490800I-271738J0D01*
G01*
X103744938Y-187490800D01*
G75*
G02*
X103473200Y-187219062I0J271738D01*
G01*
G37*
G36*
G01*
X101423200Y-187219062D02*
X101423200Y-186262538D01*
G75*
G02*
X101694938Y-185990800I271738J0D01*
G01*
X102401462Y-185990800D01*
G75*
G02*
X102673200Y-186262538I0J-271738D01*
G01*
X102673200Y-187219062D01*
G75*
G02*
X102401462Y-187490800I-271738J0D01*
G01*
X101694938Y-187490800D01*
G75*
G02*
X101423200Y-187219062I0J271738D01*
G01*
G37*
G36*
G01*
X119119600Y-126259062D02*
X119119600Y-125302538D01*
G75*
G02*
X119391338Y-125030800I271738J0D01*
G01*
X120097862Y-125030800D01*
G75*
G02*
X120369600Y-125302538I0J-271738D01*
G01*
X120369600Y-126259062D01*
G75*
G02*
X120097862Y-126530800I-271738J0D01*
G01*
X119391338Y-126530800D01*
G75*
G02*
X119119600Y-126259062I0J271738D01*
G01*
G37*
G36*
G01*
X117069600Y-126259062D02*
X117069600Y-125302538D01*
G75*
G02*
X117341338Y-125030800I271738J0D01*
G01*
X118047862Y-125030800D01*
G75*
G02*
X118319600Y-125302538I0J-271738D01*
G01*
X118319600Y-126259062D01*
G75*
G02*
X118047862Y-126530800I-271738J0D01*
G01*
X117341338Y-126530800D01*
G75*
G02*
X117069600Y-126259062I0J271738D01*
G01*
G37*
G36*
G01*
X115055600Y-126259062D02*
X115055600Y-125302538D01*
G75*
G02*
X115327338Y-125030800I271738J0D01*
G01*
X116033862Y-125030800D01*
G75*
G02*
X116305600Y-125302538I0J-271738D01*
G01*
X116305600Y-126259062D01*
G75*
G02*
X116033862Y-126530800I-271738J0D01*
G01*
X115327338Y-126530800D01*
G75*
G02*
X115055600Y-126259062I0J271738D01*
G01*
G37*
G36*
G01*
X113005600Y-126259062D02*
X113005600Y-125302538D01*
G75*
G02*
X113277338Y-125030800I271738J0D01*
G01*
X113983862Y-125030800D01*
G75*
G02*
X114255600Y-125302538I0J-271738D01*
G01*
X114255600Y-126259062D01*
G75*
G02*
X113983862Y-126530800I-271738J0D01*
G01*
X113277338Y-126530800D01*
G75*
G02*
X113005600Y-126259062I0J271738D01*
G01*
G37*
G36*
G01*
X110191600Y-125302538D02*
X110191600Y-126259062D01*
G75*
G02*
X109919862Y-126530800I-271738J0D01*
G01*
X109213338Y-126530800D01*
G75*
G02*
X108941600Y-126259062I0J271738D01*
G01*
X108941600Y-125302538D01*
G75*
G02*
X109213338Y-125030800I271738J0D01*
G01*
X109919862Y-125030800D01*
G75*
G02*
X110191600Y-125302538I0J-271738D01*
G01*
G37*
G36*
G01*
X112241600Y-125302538D02*
X112241600Y-126259062D01*
G75*
G02*
X111969862Y-126530800I-271738J0D01*
G01*
X111263338Y-126530800D01*
G75*
G02*
X110991600Y-126259062I0J271738D01*
G01*
X110991600Y-125302538D01*
G75*
G02*
X111263338Y-125030800I271738J0D01*
G01*
X111969862Y-125030800D01*
G75*
G02*
X112241600Y-125302538I0J-271738D01*
G01*
G37*
G36*
G01*
X92805200Y-145105862D02*
X92805200Y-144149338D01*
G75*
G02*
X93076938Y-143877600I271738J0D01*
G01*
X93783462Y-143877600D01*
G75*
G02*
X94055200Y-144149338I0J-271738D01*
G01*
X94055200Y-145105862D01*
G75*
G02*
X93783462Y-145377600I-271738J0D01*
G01*
X93076938Y-145377600D01*
G75*
G02*
X92805200Y-145105862I0J271738D01*
G01*
G37*
G36*
G01*
X90755200Y-145105862D02*
X90755200Y-144149338D01*
G75*
G02*
X91026938Y-143877600I271738J0D01*
G01*
X91733462Y-143877600D01*
G75*
G02*
X92005200Y-144149338I0J-271738D01*
G01*
X92005200Y-145105862D01*
G75*
G02*
X91733462Y-145377600I-271738J0D01*
G01*
X91026938Y-145377600D01*
G75*
G02*
X90755200Y-145105862I0J271738D01*
G01*
G37*
G36*
G01*
X100018800Y-142362662D02*
X100018800Y-141406138D01*
G75*
G02*
X100290538Y-141134400I271738J0D01*
G01*
X100997062Y-141134400D01*
G75*
G02*
X101268800Y-141406138I0J-271738D01*
G01*
X101268800Y-142362662D01*
G75*
G02*
X100997062Y-142634400I-271738J0D01*
G01*
X100290538Y-142634400D01*
G75*
G02*
X100018800Y-142362662I0J271738D01*
G01*
G37*
G36*
G01*
X97968800Y-142362662D02*
X97968800Y-141406138D01*
G75*
G02*
X98240538Y-141134400I271738J0D01*
G01*
X98947062Y-141134400D01*
G75*
G02*
X99218800Y-141406138I0J-271738D01*
G01*
X99218800Y-142362662D01*
G75*
G02*
X98947062Y-142634400I-271738J0D01*
G01*
X98240538Y-142634400D01*
G75*
G02*
X97968800Y-142362662I0J271738D01*
G01*
G37*
G36*
G01*
X104692400Y-142413462D02*
X104692400Y-141456938D01*
G75*
G02*
X104964138Y-141185200I271738J0D01*
G01*
X105670662Y-141185200D01*
G75*
G02*
X105942400Y-141456938I0J-271738D01*
G01*
X105942400Y-142413462D01*
G75*
G02*
X105670662Y-142685200I-271738J0D01*
G01*
X104964138Y-142685200D01*
G75*
G02*
X104692400Y-142413462I0J271738D01*
G01*
G37*
G36*
G01*
X102642400Y-142413462D02*
X102642400Y-141456938D01*
G75*
G02*
X102914138Y-141185200I271738J0D01*
G01*
X103620662Y-141185200D01*
G75*
G02*
X103892400Y-141456938I0J-271738D01*
G01*
X103892400Y-142413462D01*
G75*
G02*
X103620662Y-142685200I-271738J0D01*
G01*
X102914138Y-142685200D01*
G75*
G02*
X102642400Y-142413462I0J271738D01*
G01*
G37*
G36*
G01*
X106673600Y-148915862D02*
X106673600Y-147959338D01*
G75*
G02*
X106945338Y-147687600I271738J0D01*
G01*
X107651862Y-147687600D01*
G75*
G02*
X107923600Y-147959338I0J-271738D01*
G01*
X107923600Y-148915862D01*
G75*
G02*
X107651862Y-149187600I-271738J0D01*
G01*
X106945338Y-149187600D01*
G75*
G02*
X106673600Y-148915862I0J271738D01*
G01*
G37*
G36*
G01*
X104623600Y-148915862D02*
X104623600Y-147959338D01*
G75*
G02*
X104895338Y-147687600I271738J0D01*
G01*
X105601862Y-147687600D01*
G75*
G02*
X105873600Y-147959338I0J-271738D01*
G01*
X105873600Y-148915862D01*
G75*
G02*
X105601862Y-149187600I-271738J0D01*
G01*
X104895338Y-149187600D01*
G75*
G02*
X104623600Y-148915862I0J271738D01*
G01*
G37*
G36*
G01*
X109416800Y-142464262D02*
X109416800Y-141507738D01*
G75*
G02*
X109688538Y-141236000I271738J0D01*
G01*
X110395062Y-141236000D01*
G75*
G02*
X110666800Y-141507738I0J-271738D01*
G01*
X110666800Y-142464262D01*
G75*
G02*
X110395062Y-142736000I-271738J0D01*
G01*
X109688538Y-142736000D01*
G75*
G02*
X109416800Y-142464262I0J271738D01*
G01*
G37*
G36*
G01*
X107366800Y-142464262D02*
X107366800Y-141507738D01*
G75*
G02*
X107638538Y-141236000I271738J0D01*
G01*
X108345062Y-141236000D01*
G75*
G02*
X108616800Y-141507738I0J-271738D01*
G01*
X108616800Y-142464262D01*
G75*
G02*
X108345062Y-142736000I-271738J0D01*
G01*
X107638538Y-142736000D01*
G75*
G02*
X107366800Y-142464262I0J271738D01*
G01*
G37*
G36*
G01*
X110815862Y-148342400D02*
X109859338Y-148342400D01*
G75*
G02*
X109587600Y-148070662I0J271738D01*
G01*
X109587600Y-147364138D01*
G75*
G02*
X109859338Y-147092400I271738J0D01*
G01*
X110815862Y-147092400D01*
G75*
G02*
X111087600Y-147364138I0J-271738D01*
G01*
X111087600Y-148070662D01*
G75*
G02*
X110815862Y-148342400I-271738J0D01*
G01*
G37*
G36*
G01*
X110815862Y-150392400D02*
X109859338Y-150392400D01*
G75*
G02*
X109587600Y-150120662I0J271738D01*
G01*
X109587600Y-149414138D01*
G75*
G02*
X109859338Y-149142400I271738J0D01*
G01*
X110815862Y-149142400D01*
G75*
G02*
X111087600Y-149414138I0J-271738D01*
G01*
X111087600Y-150120662D01*
G75*
G02*
X110815862Y-150392400I-271738J0D01*
G01*
G37*
G36*
G01*
X102383062Y-152457200D02*
X101426538Y-152457200D01*
G75*
G02*
X101154800Y-152185462I0J271738D01*
G01*
X101154800Y-151478938D01*
G75*
G02*
X101426538Y-151207200I271738J0D01*
G01*
X102383062Y-151207200D01*
G75*
G02*
X102654800Y-151478938I0J-271738D01*
G01*
X102654800Y-152185462D01*
G75*
G02*
X102383062Y-152457200I-271738J0D01*
G01*
G37*
G36*
G01*
X102383062Y-154507200D02*
X101426538Y-154507200D01*
G75*
G02*
X101154800Y-154235462I0J271738D01*
G01*
X101154800Y-153528938D01*
G75*
G02*
X101426538Y-153257200I271738J0D01*
G01*
X102383062Y-153257200D01*
G75*
G02*
X102654800Y-153528938I0J-271738D01*
G01*
X102654800Y-154235462D01*
G75*
G02*
X102383062Y-154507200I-271738J0D01*
G01*
G37*
G36*
G01*
X99639862Y-152457200D02*
X98683338Y-152457200D01*
G75*
G02*
X98411600Y-152185462I0J271738D01*
G01*
X98411600Y-151478938D01*
G75*
G02*
X98683338Y-151207200I271738J0D01*
G01*
X99639862Y-151207200D01*
G75*
G02*
X99911600Y-151478938I0J-271738D01*
G01*
X99911600Y-152185462D01*
G75*
G02*
X99639862Y-152457200I-271738J0D01*
G01*
G37*
G36*
G01*
X99639862Y-154507200D02*
X98683338Y-154507200D01*
G75*
G02*
X98411600Y-154235462I0J271738D01*
G01*
X98411600Y-153528938D01*
G75*
G02*
X98683338Y-153257200I271738J0D01*
G01*
X99639862Y-153257200D01*
G75*
G02*
X99911600Y-153528938I0J-271738D01*
G01*
X99911600Y-154235462D01*
G75*
G02*
X99639862Y-154507200I-271738J0D01*
G01*
G37*
G36*
G01*
X107905600Y-158271738D02*
X107905600Y-159228262D01*
G75*
G02*
X107633862Y-159500000I-271738J0D01*
G01*
X106927338Y-159500000D01*
G75*
G02*
X106655600Y-159228262I0J271738D01*
G01*
X106655600Y-158271738D01*
G75*
G02*
X106927338Y-158000000I271738J0D01*
G01*
X107633862Y-158000000D01*
G75*
G02*
X107905600Y-158271738I0J-271738D01*
G01*
G37*
G36*
G01*
X109955600Y-158271738D02*
X109955600Y-159228262D01*
G75*
G02*
X109683862Y-159500000I-271738J0D01*
G01*
X108977338Y-159500000D01*
G75*
G02*
X108705600Y-159228262I0J271738D01*
G01*
X108705600Y-158271738D01*
G75*
G02*
X108977338Y-158000000I271738J0D01*
G01*
X109683862Y-158000000D01*
G75*
G02*
X109955600Y-158271738I0J-271738D01*
G01*
G37*
G36*
G01*
X91765862Y-167036800D02*
X90809338Y-167036800D01*
G75*
G02*
X90537600Y-166765062I0J271738D01*
G01*
X90537600Y-166058538D01*
G75*
G02*
X90809338Y-165786800I271738J0D01*
G01*
X91765862Y-165786800D01*
G75*
G02*
X92037600Y-166058538I0J-271738D01*
G01*
X92037600Y-166765062D01*
G75*
G02*
X91765862Y-167036800I-271738J0D01*
G01*
G37*
G36*
G01*
X91765862Y-169086800D02*
X90809338Y-169086800D01*
G75*
G02*
X90537600Y-168815062I0J271738D01*
G01*
X90537600Y-168108538D01*
G75*
G02*
X90809338Y-167836800I271738J0D01*
G01*
X91765862Y-167836800D01*
G75*
G02*
X92037600Y-168108538I0J-271738D01*
G01*
X92037600Y-168815062D01*
G75*
G02*
X91765862Y-169086800I-271738J0D01*
G01*
G37*
G36*
G01*
X91571338Y-157219600D02*
X92527862Y-157219600D01*
G75*
G02*
X92799600Y-157491338I0J-271738D01*
G01*
X92799600Y-158197862D01*
G75*
G02*
X92527862Y-158469600I-271738J0D01*
G01*
X91571338Y-158469600D01*
G75*
G02*
X91299600Y-158197862I0J271738D01*
G01*
X91299600Y-157491338D01*
G75*
G02*
X91571338Y-157219600I271738J0D01*
G01*
G37*
G36*
G01*
X91571338Y-155169600D02*
X92527862Y-155169600D01*
G75*
G02*
X92799600Y-155441338I0J-271738D01*
G01*
X92799600Y-156147862D01*
G75*
G02*
X92527862Y-156419600I-271738J0D01*
G01*
X91571338Y-156419600D01*
G75*
G02*
X91299600Y-156147862I0J271738D01*
G01*
X91299600Y-155441338D01*
G75*
G02*
X91571338Y-155169600I271738J0D01*
G01*
G37*
G36*
G01*
X93364000Y-154402262D02*
X93364000Y-153445738D01*
G75*
G02*
X93635738Y-153174000I271738J0D01*
G01*
X94342262Y-153174000D01*
G75*
G02*
X94614000Y-153445738I0J-271738D01*
G01*
X94614000Y-154402262D01*
G75*
G02*
X94342262Y-154674000I-271738J0D01*
G01*
X93635738Y-154674000D01*
G75*
G02*
X93364000Y-154402262I0J271738D01*
G01*
G37*
G36*
G01*
X91314000Y-154402262D02*
X91314000Y-153445738D01*
G75*
G02*
X91585738Y-153174000I271738J0D01*
G01*
X92292262Y-153174000D01*
G75*
G02*
X92564000Y-153445738I0J-271738D01*
G01*
X92564000Y-154402262D01*
G75*
G02*
X92292262Y-154674000I-271738J0D01*
G01*
X91585738Y-154674000D01*
G75*
G02*
X91314000Y-154402262I0J271738D01*
G01*
G37*
G36*
G01*
X102825600Y-170108138D02*
X102825600Y-171064662D01*
G75*
G02*
X102553862Y-171336400I-271738J0D01*
G01*
X101847338Y-171336400D01*
G75*
G02*
X101575600Y-171064662I0J271738D01*
G01*
X101575600Y-170108138D01*
G75*
G02*
X101847338Y-169836400I271738J0D01*
G01*
X102553862Y-169836400D01*
G75*
G02*
X102825600Y-170108138I0J-271738D01*
G01*
G37*
G36*
G01*
X104875600Y-170108138D02*
X104875600Y-171064662D01*
G75*
G02*
X104603862Y-171336400I-271738J0D01*
G01*
X103897338Y-171336400D01*
G75*
G02*
X103625600Y-171064662I0J271738D01*
G01*
X103625600Y-170108138D01*
G75*
G02*
X103897338Y-169836400I271738J0D01*
G01*
X104603862Y-169836400D01*
G75*
G02*
X104875600Y-170108138I0J-271738D01*
G01*
G37*
G36*
G01*
X102840262Y-166732000D02*
X101883738Y-166732000D01*
G75*
G02*
X101612000Y-166460262I0J271738D01*
G01*
X101612000Y-165753738D01*
G75*
G02*
X101883738Y-165482000I271738J0D01*
G01*
X102840262Y-165482000D01*
G75*
G02*
X103112000Y-165753738I0J-271738D01*
G01*
X103112000Y-166460262D01*
G75*
G02*
X102840262Y-166732000I-271738J0D01*
G01*
G37*
G36*
G01*
X102840262Y-168782000D02*
X101883738Y-168782000D01*
G75*
G02*
X101612000Y-168510262I0J271738D01*
G01*
X101612000Y-167803738D01*
G75*
G02*
X101883738Y-167532000I271738J0D01*
G01*
X102840262Y-167532000D01*
G75*
G02*
X103112000Y-167803738I0J-271738D01*
G01*
X103112000Y-168510262D01*
G75*
G02*
X102840262Y-168782000I-271738J0D01*
G01*
G37*
G36*
G01*
X127224500Y-123515862D02*
X127224500Y-122559338D01*
G75*
G02*
X127496238Y-122287600I271738J0D01*
G01*
X128202762Y-122287600D01*
G75*
G02*
X128474500Y-122559338I0J-271738D01*
G01*
X128474500Y-123515862D01*
G75*
G02*
X128202762Y-123787600I-271738J0D01*
G01*
X127496238Y-123787600D01*
G75*
G02*
X127224500Y-123515862I0J271738D01*
G01*
G37*
G36*
G01*
X125174500Y-123515862D02*
X125174500Y-122559338D01*
G75*
G02*
X125446238Y-122287600I271738J0D01*
G01*
X126152762Y-122287600D01*
G75*
G02*
X126424500Y-122559338I0J-271738D01*
G01*
X126424500Y-123515862D01*
G75*
G02*
X126152762Y-123787600I-271738J0D01*
G01*
X125446238Y-123787600D01*
G75*
G02*
X125174500Y-123515862I0J271738D01*
G01*
G37*
G36*
G01*
X122726400Y-123515862D02*
X122726400Y-122559338D01*
G75*
G02*
X122998138Y-122287600I271738J0D01*
G01*
X123704662Y-122287600D01*
G75*
G02*
X123976400Y-122559338I0J-271738D01*
G01*
X123976400Y-123515862D01*
G75*
G02*
X123704662Y-123787600I-271738J0D01*
G01*
X122998138Y-123787600D01*
G75*
G02*
X122726400Y-123515862I0J271738D01*
G01*
G37*
G36*
G01*
X120676400Y-123515862D02*
X120676400Y-122559338D01*
G75*
G02*
X120948138Y-122287600I271738J0D01*
G01*
X121654662Y-122287600D01*
G75*
G02*
X121926400Y-122559338I0J-271738D01*
G01*
X121926400Y-123515862D01*
G75*
G02*
X121654662Y-123787600I-271738J0D01*
G01*
X120948138Y-123787600D01*
G75*
G02*
X120676400Y-123515862I0J271738D01*
G01*
G37*
G36*
G01*
X119119600Y-165171862D02*
X119119600Y-164215338D01*
G75*
G02*
X119391338Y-163943600I271738J0D01*
G01*
X120097862Y-163943600D01*
G75*
G02*
X120369600Y-164215338I0J-271738D01*
G01*
X120369600Y-165171862D01*
G75*
G02*
X120097862Y-165443600I-271738J0D01*
G01*
X119391338Y-165443600D01*
G75*
G02*
X119119600Y-165171862I0J271738D01*
G01*
G37*
G36*
G01*
X117069600Y-165171862D02*
X117069600Y-164215338D01*
G75*
G02*
X117341338Y-163943600I271738J0D01*
G01*
X118047862Y-163943600D01*
G75*
G02*
X118319600Y-164215338I0J-271738D01*
G01*
X118319600Y-165171862D01*
G75*
G02*
X118047862Y-165443600I-271738J0D01*
G01*
X117341338Y-165443600D01*
G75*
G02*
X117069600Y-165171862I0J271738D01*
G01*
G37*
G36*
G01*
X119756662Y-160128000D02*
X118800138Y-160128000D01*
G75*
G02*
X118528400Y-159856262I0J271738D01*
G01*
X118528400Y-159149738D01*
G75*
G02*
X118800138Y-158878000I271738J0D01*
G01*
X119756662Y-158878000D01*
G75*
G02*
X120028400Y-159149738I0J-271738D01*
G01*
X120028400Y-159856262D01*
G75*
G02*
X119756662Y-160128000I-271738J0D01*
G01*
G37*
G36*
G01*
X119756662Y-162178000D02*
X118800138Y-162178000D01*
G75*
G02*
X118528400Y-161906262I0J271738D01*
G01*
X118528400Y-161199738D01*
G75*
G02*
X118800138Y-160928000I271738J0D01*
G01*
X119756662Y-160928000D01*
G75*
G02*
X120028400Y-161199738I0J-271738D01*
G01*
X120028400Y-161906262D01*
G75*
G02*
X119756662Y-162178000I-271738J0D01*
G01*
G37*
G36*
G01*
X111688138Y-161334400D02*
X112644662Y-161334400D01*
G75*
G02*
X112916400Y-161606138I0J-271738D01*
G01*
X112916400Y-162312662D01*
G75*
G02*
X112644662Y-162584400I-271738J0D01*
G01*
X111688138Y-162584400D01*
G75*
G02*
X111416400Y-162312662I0J271738D01*
G01*
X111416400Y-161606138D01*
G75*
G02*
X111688138Y-161334400I271738J0D01*
G01*
G37*
G36*
G01*
X111688138Y-159284400D02*
X112644662Y-159284400D01*
G75*
G02*
X112916400Y-159556138I0J-271738D01*
G01*
X112916400Y-160262662D01*
G75*
G02*
X112644662Y-160534400I-271738J0D01*
G01*
X111688138Y-160534400D01*
G75*
G02*
X111416400Y-160262662I0J271738D01*
G01*
X111416400Y-159556138D01*
G75*
G02*
X111688138Y-159284400I271738J0D01*
G01*
G37*
G36*
G01*
X112579200Y-169803338D02*
X112579200Y-170759862D01*
G75*
G02*
X112307462Y-171031600I-271738J0D01*
G01*
X111600938Y-171031600D01*
G75*
G02*
X111329200Y-170759862I0J271738D01*
G01*
X111329200Y-169803338D01*
G75*
G02*
X111600938Y-169531600I271738J0D01*
G01*
X112307462Y-169531600D01*
G75*
G02*
X112579200Y-169803338I0J-271738D01*
G01*
G37*
G36*
G01*
X114629200Y-169803338D02*
X114629200Y-170759862D01*
G75*
G02*
X114357462Y-171031600I-271738J0D01*
G01*
X113650938Y-171031600D01*
G75*
G02*
X113379200Y-170759862I0J271738D01*
G01*
X113379200Y-169803338D01*
G75*
G02*
X113650938Y-169531600I271738J0D01*
G01*
X114357462Y-169531600D01*
G75*
G02*
X114629200Y-169803338I0J-271738D01*
G01*
G37*
G36*
G01*
X117506800Y-169854138D02*
X117506800Y-170810662D01*
G75*
G02*
X117235062Y-171082400I-271738J0D01*
G01*
X116528538Y-171082400D01*
G75*
G02*
X116256800Y-170810662I0J271738D01*
G01*
X116256800Y-169854138D01*
G75*
G02*
X116528538Y-169582400I271738J0D01*
G01*
X117235062Y-169582400D01*
G75*
G02*
X117506800Y-169854138I0J-271738D01*
G01*
G37*
G36*
G01*
X119556800Y-169854138D02*
X119556800Y-170810662D01*
G75*
G02*
X119285062Y-171082400I-271738J0D01*
G01*
X118578538Y-171082400D01*
G75*
G02*
X118306800Y-170810662I0J271738D01*
G01*
X118306800Y-169854138D01*
G75*
G02*
X118578538Y-169582400I271738J0D01*
G01*
X119285062Y-169582400D01*
G75*
G02*
X119556800Y-169854138I0J-271738D01*
G01*
G37*
G36*
G01*
X116376400Y-158059862D02*
X116376400Y-157103338D01*
G75*
G02*
X116648138Y-156831600I271738J0D01*
G01*
X117354662Y-156831600D01*
G75*
G02*
X117626400Y-157103338I0J-271738D01*
G01*
X117626400Y-158059862D01*
G75*
G02*
X117354662Y-158331600I-271738J0D01*
G01*
X116648138Y-158331600D01*
G75*
G02*
X116376400Y-158059862I0J271738D01*
G01*
G37*
G36*
G01*
X114326400Y-158059862D02*
X114326400Y-157103338D01*
G75*
G02*
X114598138Y-156831600I271738J0D01*
G01*
X115304662Y-156831600D01*
G75*
G02*
X115576400Y-157103338I0J-271738D01*
G01*
X115576400Y-158059862D01*
G75*
G02*
X115304662Y-158331600I-271738J0D01*
G01*
X114598138Y-158331600D01*
G75*
G02*
X114326400Y-158059862I0J271738D01*
G01*
G37*
G36*
G01*
X116122400Y-153284662D02*
X116122400Y-152328138D01*
G75*
G02*
X116394138Y-152056400I271738J0D01*
G01*
X117100662Y-152056400D01*
G75*
G02*
X117372400Y-152328138I0J-271738D01*
G01*
X117372400Y-153284662D01*
G75*
G02*
X117100662Y-153556400I-271738J0D01*
G01*
X116394138Y-153556400D01*
G75*
G02*
X116122400Y-153284662I0J271738D01*
G01*
G37*
G36*
G01*
X114072400Y-153284662D02*
X114072400Y-152328138D01*
G75*
G02*
X114344138Y-152056400I271738J0D01*
G01*
X115050662Y-152056400D01*
G75*
G02*
X115322400Y-152328138I0J-271738D01*
G01*
X115322400Y-153284662D01*
G75*
G02*
X115050662Y-153556400I-271738J0D01*
G01*
X114344138Y-153556400D01*
G75*
G02*
X114072400Y-153284662I0J271738D01*
G01*
G37*
G36*
G01*
X117974300Y-132761462D02*
X117974300Y-131804938D01*
G75*
G02*
X118246038Y-131533200I271738J0D01*
G01*
X118952562Y-131533200D01*
G75*
G02*
X119224300Y-131804938I0J-271738D01*
G01*
X119224300Y-132761462D01*
G75*
G02*
X118952562Y-133033200I-271738J0D01*
G01*
X118246038Y-133033200D01*
G75*
G02*
X117974300Y-132761462I0J271738D01*
G01*
G37*
G36*
G01*
X115924300Y-132761462D02*
X115924300Y-131804938D01*
G75*
G02*
X116196038Y-131533200I271738J0D01*
G01*
X116902562Y-131533200D01*
G75*
G02*
X117174300Y-131804938I0J-271738D01*
G01*
X117174300Y-132761462D01*
G75*
G02*
X116902562Y-133033200I-271738J0D01*
G01*
X116196038Y-133033200D01*
G75*
G02*
X115924300Y-132761462I0J271738D01*
G01*
G37*
G36*
G01*
X113660900Y-132761462D02*
X113660900Y-131804938D01*
G75*
G02*
X113932638Y-131533200I271738J0D01*
G01*
X114639162Y-131533200D01*
G75*
G02*
X114910900Y-131804938I0J-271738D01*
G01*
X114910900Y-132761462D01*
G75*
G02*
X114639162Y-133033200I-271738J0D01*
G01*
X113932638Y-133033200D01*
G75*
G02*
X113660900Y-132761462I0J271738D01*
G01*
G37*
G36*
G01*
X111610900Y-132761462D02*
X111610900Y-131804938D01*
G75*
G02*
X111882638Y-131533200I271738J0D01*
G01*
X112589162Y-131533200D01*
G75*
G02*
X112860900Y-131804938I0J-271738D01*
G01*
X112860900Y-132761462D01*
G75*
G02*
X112589162Y-133033200I-271738J0D01*
G01*
X111882638Y-133033200D01*
G75*
G02*
X111610900Y-132761462I0J271738D01*
G01*
G37*
G36*
G01*
X110621338Y-183889600D02*
X111577862Y-183889600D01*
G75*
G02*
X111849600Y-184161338I0J-271738D01*
G01*
X111849600Y-184867862D01*
G75*
G02*
X111577862Y-185139600I-271738J0D01*
G01*
X110621338Y-185139600D01*
G75*
G02*
X110349600Y-184867862I0J271738D01*
G01*
X110349600Y-184161338D01*
G75*
G02*
X110621338Y-183889600I271738J0D01*
G01*
G37*
G36*
G01*
X110621338Y-181839600D02*
X111577862Y-181839600D01*
G75*
G02*
X111849600Y-182111338I0J-271738D01*
G01*
X111849600Y-182817862D01*
G75*
G02*
X111577862Y-183089600I-271738J0D01*
G01*
X110621338Y-183089600D01*
G75*
G02*
X110349600Y-182817862I0J271738D01*
G01*
X110349600Y-182111338D01*
G75*
G02*
X110621338Y-181839600I271738J0D01*
G01*
G37*
G36*
G01*
X108436938Y-183889600D02*
X109393462Y-183889600D01*
G75*
G02*
X109665200Y-184161338I0J-271738D01*
G01*
X109665200Y-184867862D01*
G75*
G02*
X109393462Y-185139600I-271738J0D01*
G01*
X108436938Y-185139600D01*
G75*
G02*
X108165200Y-184867862I0J271738D01*
G01*
X108165200Y-184161338D01*
G75*
G02*
X108436938Y-183889600I271738J0D01*
G01*
G37*
G36*
G01*
X108436938Y-181839600D02*
X109393462Y-181839600D01*
G75*
G02*
X109665200Y-182111338I0J-271738D01*
G01*
X109665200Y-182817862D01*
G75*
G02*
X109393462Y-183089600I-271738J0D01*
G01*
X108436938Y-183089600D01*
G75*
G02*
X108165200Y-182817862I0J271738D01*
G01*
X108165200Y-182111338D01*
G75*
G02*
X108436938Y-181839600I271738J0D01*
G01*
G37*
G36*
G01*
X107412262Y-180905200D02*
X106455738Y-180905200D01*
G75*
G02*
X106184000Y-180633462I0J271738D01*
G01*
X106184000Y-179926938D01*
G75*
G02*
X106455738Y-179655200I271738J0D01*
G01*
X107412262Y-179655200D01*
G75*
G02*
X107684000Y-179926938I0J-271738D01*
G01*
X107684000Y-180633462D01*
G75*
G02*
X107412262Y-180905200I-271738J0D01*
G01*
G37*
G36*
G01*
X107412262Y-182955200D02*
X106455738Y-182955200D01*
G75*
G02*
X106184000Y-182683462I0J271738D01*
G01*
X106184000Y-181976938D01*
G75*
G02*
X106455738Y-181705200I271738J0D01*
G01*
X107412262Y-181705200D01*
G75*
G02*
X107684000Y-181976938I0J-271738D01*
G01*
X107684000Y-182683462D01*
G75*
G02*
X107412262Y-182955200I-271738J0D01*
G01*
G37*
G36*
G01*
X110077200Y-192045062D02*
X110077200Y-191088538D01*
G75*
G02*
X110348938Y-190816800I271738J0D01*
G01*
X111055462Y-190816800D01*
G75*
G02*
X111327200Y-191088538I0J-271738D01*
G01*
X111327200Y-192045062D01*
G75*
G02*
X111055462Y-192316800I-271738J0D01*
G01*
X110348938Y-192316800D01*
G75*
G02*
X110077200Y-192045062I0J271738D01*
G01*
G37*
G36*
G01*
X108027200Y-192045062D02*
X108027200Y-191088538D01*
G75*
G02*
X108298938Y-190816800I271738J0D01*
G01*
X109005462Y-190816800D01*
G75*
G02*
X109277200Y-191088538I0J-271738D01*
G01*
X109277200Y-192045062D01*
G75*
G02*
X109005462Y-192316800I-271738J0D01*
G01*
X108298938Y-192316800D01*
G75*
G02*
X108027200Y-192045062I0J271738D01*
G01*
G37*
G36*
G01*
X106150938Y-191052400D02*
X107107462Y-191052400D01*
G75*
G02*
X107379200Y-191324138I0J-271738D01*
G01*
X107379200Y-192030662D01*
G75*
G02*
X107107462Y-192302400I-271738J0D01*
G01*
X106150938Y-192302400D01*
G75*
G02*
X105879200Y-192030662I0J271738D01*
G01*
X105879200Y-191324138D01*
G75*
G02*
X106150938Y-191052400I271738J0D01*
G01*
G37*
G36*
G01*
X106150938Y-189002400D02*
X107107462Y-189002400D01*
G75*
G02*
X107379200Y-189274138I0J-271738D01*
G01*
X107379200Y-189980662D01*
G75*
G02*
X107107462Y-190252400I-271738J0D01*
G01*
X106150938Y-190252400D01*
G75*
G02*
X105879200Y-189980662I0J271738D01*
G01*
X105879200Y-189274138D01*
G75*
G02*
X106150938Y-189002400I271738J0D01*
G01*
G37*
G36*
G01*
X96642662Y-190303200D02*
X95686138Y-190303200D01*
G75*
G02*
X95414400Y-190031462I0J271738D01*
G01*
X95414400Y-189324938D01*
G75*
G02*
X95686138Y-189053200I271738J0D01*
G01*
X96642662Y-189053200D01*
G75*
G02*
X96914400Y-189324938I0J-271738D01*
G01*
X96914400Y-190031462D01*
G75*
G02*
X96642662Y-190303200I-271738J0D01*
G01*
G37*
G36*
G01*
X96642662Y-192353200D02*
X95686138Y-192353200D01*
G75*
G02*
X95414400Y-192081462I0J271738D01*
G01*
X95414400Y-191374938D01*
G75*
G02*
X95686138Y-191103200I271738J0D01*
G01*
X96642662Y-191103200D01*
G75*
G02*
X96914400Y-191374938I0J-271738D01*
G01*
X96914400Y-192081462D01*
G75*
G02*
X96642662Y-192353200I-271738J0D01*
G01*
G37*
G36*
G01*
X98877862Y-190303200D02*
X97921338Y-190303200D01*
G75*
G02*
X97649600Y-190031462I0J271738D01*
G01*
X97649600Y-189324938D01*
G75*
G02*
X97921338Y-189053200I271738J0D01*
G01*
X98877862Y-189053200D01*
G75*
G02*
X99149600Y-189324938I0J-271738D01*
G01*
X99149600Y-190031462D01*
G75*
G02*
X98877862Y-190303200I-271738J0D01*
G01*
G37*
G36*
G01*
X98877862Y-192353200D02*
X97921338Y-192353200D01*
G75*
G02*
X97649600Y-192081462I0J271738D01*
G01*
X97649600Y-191374938D01*
G75*
G02*
X97921338Y-191103200I271738J0D01*
G01*
X98877862Y-191103200D01*
G75*
G02*
X99149600Y-191374938I0J-271738D01*
G01*
X99149600Y-192081462D01*
G75*
G02*
X98877862Y-192353200I-271738J0D01*
G01*
G37*
G36*
G01*
X96412000Y-187117462D02*
X96412000Y-186160938D01*
G75*
G02*
X96683738Y-185889200I271738J0D01*
G01*
X97390262Y-185889200D01*
G75*
G02*
X97662000Y-186160938I0J-271738D01*
G01*
X97662000Y-187117462D01*
G75*
G02*
X97390262Y-187389200I-271738J0D01*
G01*
X96683738Y-187389200D01*
G75*
G02*
X96412000Y-187117462I0J271738D01*
G01*
G37*
G36*
G01*
X94362000Y-187117462D02*
X94362000Y-186160938D01*
G75*
G02*
X94633738Y-185889200I271738J0D01*
G01*
X95340262Y-185889200D01*
G75*
G02*
X95612000Y-186160938I0J-271738D01*
G01*
X95612000Y-187117462D01*
G75*
G02*
X95340262Y-187389200I-271738J0D01*
G01*
X94633738Y-187389200D01*
G75*
G02*
X94362000Y-187117462I0J271738D01*
G01*
G37*
G36*
G01*
X95662800Y-179760138D02*
X95662800Y-180716662D01*
G75*
G02*
X95391062Y-180988400I-271738J0D01*
G01*
X94684538Y-180988400D01*
G75*
G02*
X94412800Y-180716662I0J271738D01*
G01*
X94412800Y-179760138D01*
G75*
G02*
X94684538Y-179488400I271738J0D01*
G01*
X95391062Y-179488400D01*
G75*
G02*
X95662800Y-179760138I0J-271738D01*
G01*
G37*
G36*
G01*
X97712800Y-179760138D02*
X97712800Y-180716662D01*
G75*
G02*
X97441062Y-180988400I-271738J0D01*
G01*
X96734538Y-180988400D01*
G75*
G02*
X96462800Y-180716662I0J271738D01*
G01*
X96462800Y-179760138D01*
G75*
G02*
X96734538Y-179488400I271738J0D01*
G01*
X97441062Y-179488400D01*
G75*
G02*
X97712800Y-179760138I0J-271738D01*
G01*
G37*
D11*
X102006400Y-135534400D03*
D12*
X119532400Y-174904400D03*
X119532400Y-177444400D03*
X116992400Y-174904400D03*
X116992400Y-177444400D03*
X114452400Y-174904400D03*
X114452400Y-177444400D03*
X111912400Y-174904400D03*
X111912400Y-177444400D03*
X109372400Y-174904400D03*
D13*
X109372400Y-177444400D03*
D14*
X119380000Y-185267600D03*
X119380000Y-190347600D03*
X114300000Y-190347600D03*
X114300000Y-185267600D03*
X116840000Y-187807600D03*
D15*
X126884460Y-125658080D03*
X122284460Y-125658080D03*
X124584460Y-125658080D03*
D16*
X124584460Y-131958080D03*
D15*
X117717600Y-135025600D03*
X113117600Y-135025600D03*
X115417600Y-135025600D03*
D16*
X115417600Y-141325600D03*
D17*
X116337000Y-161943860D03*
X116337000Y-161443860D03*
X116337000Y-160943860D03*
X116337000Y-162443860D03*
D18*
X114312000Y-162968860D03*
X115312000Y-162968860D03*
X114812000Y-162968860D03*
X115812000Y-162968860D03*
D17*
X113787000Y-162443860D03*
X113787000Y-161943860D03*
X113787000Y-161443860D03*
X113787000Y-160943860D03*
D18*
X115312000Y-160418860D03*
X114812000Y-160418860D03*
X114312000Y-160418860D03*
X115812000Y-160418860D03*
D19*
X103088440Y-182991760D03*
G36*
G01*
X104650940Y-181816760D02*
X105400940Y-181816760D01*
G75*
G02*
X105488440Y-181904260I0J-87500D01*
G01*
X105488440Y-182079260D01*
G75*
G02*
X105400940Y-182166760I-87500J0D01*
G01*
X104650940Y-182166760D01*
G75*
G02*
X104563440Y-182079260I0J87500D01*
G01*
X104563440Y-181904260D01*
G75*
G02*
X104650940Y-181816760I87500J0D01*
G01*
G37*
G36*
G01*
X104650940Y-182316760D02*
X105400940Y-182316760D01*
G75*
G02*
X105488440Y-182404260I0J-87500D01*
G01*
X105488440Y-182579260D01*
G75*
G02*
X105400940Y-182666760I-87500J0D01*
G01*
X104650940Y-182666760D01*
G75*
G02*
X104563440Y-182579260I0J87500D01*
G01*
X104563440Y-182404260D01*
G75*
G02*
X104650940Y-182316760I87500J0D01*
G01*
G37*
G36*
G01*
X104650940Y-182816760D02*
X105400940Y-182816760D01*
G75*
G02*
X105488440Y-182904260I0J-87500D01*
G01*
X105488440Y-183079260D01*
G75*
G02*
X105400940Y-183166760I-87500J0D01*
G01*
X104650940Y-183166760D01*
G75*
G02*
X104563440Y-183079260I0J87500D01*
G01*
X104563440Y-182904260D01*
G75*
G02*
X104650940Y-182816760I87500J0D01*
G01*
G37*
G36*
G01*
X104650940Y-183316760D02*
X105400940Y-183316760D01*
G75*
G02*
X105488440Y-183404260I0J-87500D01*
G01*
X105488440Y-183579260D01*
G75*
G02*
X105400940Y-183666760I-87500J0D01*
G01*
X104650940Y-183666760D01*
G75*
G02*
X104563440Y-183579260I0J87500D01*
G01*
X104563440Y-183404260D01*
G75*
G02*
X104650940Y-183316760I87500J0D01*
G01*
G37*
G36*
G01*
X104650940Y-183816760D02*
X105400940Y-183816760D01*
G75*
G02*
X105488440Y-183904260I0J-87500D01*
G01*
X105488440Y-184079260D01*
G75*
G02*
X105400940Y-184166760I-87500J0D01*
G01*
X104650940Y-184166760D01*
G75*
G02*
X104563440Y-184079260I0J87500D01*
G01*
X104563440Y-183904260D01*
G75*
G02*
X104650940Y-183816760I87500J0D01*
G01*
G37*
G36*
G01*
X104000940Y-184466760D02*
X104175940Y-184466760D01*
G75*
G02*
X104263440Y-184554260I0J-87500D01*
G01*
X104263440Y-185304260D01*
G75*
G02*
X104175940Y-185391760I-87500J0D01*
G01*
X104000940Y-185391760D01*
G75*
G02*
X103913440Y-185304260I0J87500D01*
G01*
X103913440Y-184554260D01*
G75*
G02*
X104000940Y-184466760I87500J0D01*
G01*
G37*
G36*
G01*
X103500940Y-184466760D02*
X103675940Y-184466760D01*
G75*
G02*
X103763440Y-184554260I0J-87500D01*
G01*
X103763440Y-185304260D01*
G75*
G02*
X103675940Y-185391760I-87500J0D01*
G01*
X103500940Y-185391760D01*
G75*
G02*
X103413440Y-185304260I0J87500D01*
G01*
X103413440Y-184554260D01*
G75*
G02*
X103500940Y-184466760I87500J0D01*
G01*
G37*
G36*
G01*
X103000940Y-184466760D02*
X103175940Y-184466760D01*
G75*
G02*
X103263440Y-184554260I0J-87500D01*
G01*
X103263440Y-185304260D01*
G75*
G02*
X103175940Y-185391760I-87500J0D01*
G01*
X103000940Y-185391760D01*
G75*
G02*
X102913440Y-185304260I0J87500D01*
G01*
X102913440Y-184554260D01*
G75*
G02*
X103000940Y-184466760I87500J0D01*
G01*
G37*
G36*
G01*
X102500940Y-184466760D02*
X102675940Y-184466760D01*
G75*
G02*
X102763440Y-184554260I0J-87500D01*
G01*
X102763440Y-185304260D01*
G75*
G02*
X102675940Y-185391760I-87500J0D01*
G01*
X102500940Y-185391760D01*
G75*
G02*
X102413440Y-185304260I0J87500D01*
G01*
X102413440Y-184554260D01*
G75*
G02*
X102500940Y-184466760I87500J0D01*
G01*
G37*
G36*
G01*
X102000940Y-184466760D02*
X102175940Y-184466760D01*
G75*
G02*
X102263440Y-184554260I0J-87500D01*
G01*
X102263440Y-185304260D01*
G75*
G02*
X102175940Y-185391760I-87500J0D01*
G01*
X102000940Y-185391760D01*
G75*
G02*
X101913440Y-185304260I0J87500D01*
G01*
X101913440Y-184554260D01*
G75*
G02*
X102000940Y-184466760I87500J0D01*
G01*
G37*
G36*
G01*
X100775940Y-183816760D02*
X101525940Y-183816760D01*
G75*
G02*
X101613440Y-183904260I0J-87500D01*
G01*
X101613440Y-184079260D01*
G75*
G02*
X101525940Y-184166760I-87500J0D01*
G01*
X100775940Y-184166760D01*
G75*
G02*
X100688440Y-184079260I0J87500D01*
G01*
X100688440Y-183904260D01*
G75*
G02*
X100775940Y-183816760I87500J0D01*
G01*
G37*
G36*
G01*
X100775940Y-183316760D02*
X101525940Y-183316760D01*
G75*
G02*
X101613440Y-183404260I0J-87500D01*
G01*
X101613440Y-183579260D01*
G75*
G02*
X101525940Y-183666760I-87500J0D01*
G01*
X100775940Y-183666760D01*
G75*
G02*
X100688440Y-183579260I0J87500D01*
G01*
X100688440Y-183404260D01*
G75*
G02*
X100775940Y-183316760I87500J0D01*
G01*
G37*
G36*
G01*
X100775940Y-182816760D02*
X101525940Y-182816760D01*
G75*
G02*
X101613440Y-182904260I0J-87500D01*
G01*
X101613440Y-183079260D01*
G75*
G02*
X101525940Y-183166760I-87500J0D01*
G01*
X100775940Y-183166760D01*
G75*
G02*
X100688440Y-183079260I0J87500D01*
G01*
X100688440Y-182904260D01*
G75*
G02*
X100775940Y-182816760I87500J0D01*
G01*
G37*
G36*
G01*
X100775940Y-182316760D02*
X101525940Y-182316760D01*
G75*
G02*
X101613440Y-182404260I0J-87500D01*
G01*
X101613440Y-182579260D01*
G75*
G02*
X101525940Y-182666760I-87500J0D01*
G01*
X100775940Y-182666760D01*
G75*
G02*
X100688440Y-182579260I0J87500D01*
G01*
X100688440Y-182404260D01*
G75*
G02*
X100775940Y-182316760I87500J0D01*
G01*
G37*
G36*
G01*
X100775940Y-181816760D02*
X101525940Y-181816760D01*
G75*
G02*
X101613440Y-181904260I0J-87500D01*
G01*
X101613440Y-182079260D01*
G75*
G02*
X101525940Y-182166760I-87500J0D01*
G01*
X100775940Y-182166760D01*
G75*
G02*
X100688440Y-182079260I0J87500D01*
G01*
X100688440Y-181904260D01*
G75*
G02*
X100775940Y-181816760I87500J0D01*
G01*
G37*
G36*
G01*
X102000940Y-180591760D02*
X102175940Y-180591760D01*
G75*
G02*
X102263440Y-180679260I0J-87500D01*
G01*
X102263440Y-181429260D01*
G75*
G02*
X102175940Y-181516760I-87500J0D01*
G01*
X102000940Y-181516760D01*
G75*
G02*
X101913440Y-181429260I0J87500D01*
G01*
X101913440Y-180679260D01*
G75*
G02*
X102000940Y-180591760I87500J0D01*
G01*
G37*
G36*
G01*
X102500940Y-180591760D02*
X102675940Y-180591760D01*
G75*
G02*
X102763440Y-180679260I0J-87500D01*
G01*
X102763440Y-181429260D01*
G75*
G02*
X102675940Y-181516760I-87500J0D01*
G01*
X102500940Y-181516760D01*
G75*
G02*
X102413440Y-181429260I0J87500D01*
G01*
X102413440Y-180679260D01*
G75*
G02*
X102500940Y-180591760I87500J0D01*
G01*
G37*
G36*
G01*
X103000940Y-180591760D02*
X103175940Y-180591760D01*
G75*
G02*
X103263440Y-180679260I0J-87500D01*
G01*
X103263440Y-181429260D01*
G75*
G02*
X103175940Y-181516760I-87500J0D01*
G01*
X103000940Y-181516760D01*
G75*
G02*
X102913440Y-181429260I0J87500D01*
G01*
X102913440Y-180679260D01*
G75*
G02*
X103000940Y-180591760I87500J0D01*
G01*
G37*
G36*
G01*
X103500940Y-180591760D02*
X103675940Y-180591760D01*
G75*
G02*
X103763440Y-180679260I0J-87500D01*
G01*
X103763440Y-181429260D01*
G75*
G02*
X103675940Y-181516760I-87500J0D01*
G01*
X103500940Y-181516760D01*
G75*
G02*
X103413440Y-181429260I0J87500D01*
G01*
X103413440Y-180679260D01*
G75*
G02*
X103500940Y-180591760I87500J0D01*
G01*
G37*
G36*
G01*
X104000940Y-180591760D02*
X104175940Y-180591760D01*
G75*
G02*
X104263440Y-180679260I0J-87500D01*
G01*
X104263440Y-181429260D01*
G75*
G02*
X104175940Y-181516760I-87500J0D01*
G01*
X104000940Y-181516760D01*
G75*
G02*
X103913440Y-181429260I0J87500D01*
G01*
X103913440Y-180679260D01*
G75*
G02*
X104000940Y-180591760I87500J0D01*
G01*
G37*
D20*
X115783000Y-154391460D03*
X115133000Y-155991460D03*
X114483000Y-155991460D03*
X113833000Y-155991460D03*
X115133000Y-154391460D03*
X114483000Y-154391460D03*
X113833000Y-154391460D03*
X115783000Y-155991460D03*
D21*
G36*
X114564900Y-165930901D02*
G01*
X114579532Y-165932342D01*
X114589147Y-165934254D01*
X114603216Y-165938522D01*
X114612271Y-165942273D01*
X114625238Y-165949204D01*
X114633388Y-165954649D01*
X114644753Y-165963976D01*
X114651684Y-165970907D01*
X114661011Y-165982272D01*
X114666456Y-165990422D01*
X114673387Y-166003389D01*
X114677138Y-166012444D01*
X114681406Y-166026513D01*
X114683318Y-166036128D01*
X114684759Y-166050760D01*
X114685000Y-166055660D01*
X114685000Y-166530660D01*
X114684759Y-166535560D01*
X114683318Y-166550192D01*
X114681406Y-166559807D01*
X114677138Y-166573876D01*
X114673387Y-166582931D01*
X114666456Y-166595898D01*
X114661011Y-166604048D01*
X114651684Y-166615413D01*
X114644753Y-166622344D01*
X114633388Y-166631671D01*
X114625238Y-166637116D01*
X114612271Y-166644047D01*
X114603216Y-166647798D01*
X114589147Y-166652066D01*
X114579532Y-166653978D01*
X114564900Y-166655419D01*
X114560000Y-166655660D01*
X114516066Y-166655660D01*
X114511166Y-166655419D01*
X114496534Y-166653978D01*
X114486919Y-166652066D01*
X114472850Y-166647798D01*
X114463795Y-166644047D01*
X114450828Y-166637116D01*
X114442678Y-166631671D01*
X114431313Y-166622344D01*
X114427678Y-166619048D01*
X114221612Y-166412982D01*
X114218316Y-166409347D01*
X114208989Y-166397982D01*
X114203544Y-166389832D01*
X114196613Y-166376865D01*
X114192862Y-166367810D01*
X114188594Y-166353741D01*
X114186682Y-166344126D01*
X114185241Y-166329494D01*
X114185000Y-166324594D01*
X114185000Y-166055660D01*
X114185241Y-166050760D01*
X114186682Y-166036128D01*
X114188594Y-166026513D01*
X114192862Y-166012444D01*
X114196613Y-166003389D01*
X114203544Y-165990422D01*
X114208989Y-165982272D01*
X114218316Y-165970907D01*
X114225247Y-165963976D01*
X114236612Y-165954649D01*
X114244762Y-165949204D01*
X114257729Y-165942273D01*
X114266784Y-165938522D01*
X114280853Y-165934254D01*
X114290468Y-165932342D01*
X114305100Y-165930901D01*
X114310000Y-165930660D01*
X114560000Y-165930660D01*
X114564900Y-165930901D01*
G37*
G36*
G01*
X114685000Y-166530660D02*
X114685000Y-166055660D01*
G75*
G02*
X114810000Y-165930660I125000J0D01*
G01*
X115060000Y-165930660D01*
G75*
G02*
X115185000Y-166055660I0J-125000D01*
G01*
X115185000Y-166530660D01*
G75*
G02*
X115060000Y-166655660I-125000J0D01*
G01*
X114810000Y-166655660D01*
G75*
G02*
X114685000Y-166530660I0J125000D01*
G01*
G37*
G36*
X115564900Y-165930901D02*
G01*
X115579532Y-165932342D01*
X115589147Y-165934254D01*
X115603216Y-165938522D01*
X115612271Y-165942273D01*
X115625238Y-165949204D01*
X115633388Y-165954649D01*
X115644753Y-165963976D01*
X115651684Y-165970907D01*
X115661011Y-165982272D01*
X115666456Y-165990422D01*
X115673387Y-166003389D01*
X115677138Y-166012444D01*
X115681406Y-166026513D01*
X115683318Y-166036128D01*
X115684759Y-166050760D01*
X115685000Y-166055660D01*
X115685000Y-166324594D01*
X115684759Y-166329494D01*
X115683318Y-166344126D01*
X115681406Y-166353741D01*
X115677138Y-166367810D01*
X115673387Y-166376865D01*
X115666456Y-166389832D01*
X115661011Y-166397982D01*
X115651684Y-166409347D01*
X115648388Y-166412982D01*
X115442322Y-166619048D01*
X115438687Y-166622344D01*
X115427322Y-166631671D01*
X115419172Y-166637116D01*
X115406205Y-166644047D01*
X115397150Y-166647798D01*
X115383081Y-166652066D01*
X115373466Y-166653978D01*
X115358834Y-166655419D01*
X115353934Y-166655660D01*
X115310000Y-166655660D01*
X115305100Y-166655419D01*
X115290468Y-166653978D01*
X115280853Y-166652066D01*
X115266784Y-166647798D01*
X115257729Y-166644047D01*
X115244762Y-166637116D01*
X115236612Y-166631671D01*
X115225247Y-166622344D01*
X115218316Y-166615413D01*
X115208989Y-166604048D01*
X115203544Y-166595898D01*
X115196613Y-166582931D01*
X115192862Y-166573876D01*
X115188594Y-166559807D01*
X115186682Y-166550192D01*
X115185241Y-166535560D01*
X115185000Y-166530660D01*
X115185000Y-166055660D01*
X115185241Y-166050760D01*
X115186682Y-166036128D01*
X115188594Y-166026513D01*
X115192862Y-166012444D01*
X115196613Y-166003389D01*
X115203544Y-165990422D01*
X115208989Y-165982272D01*
X115218316Y-165970907D01*
X115225247Y-165963976D01*
X115236612Y-165954649D01*
X115244762Y-165949204D01*
X115257729Y-165942273D01*
X115266784Y-165938522D01*
X115280853Y-165934254D01*
X115290468Y-165932342D01*
X115305100Y-165930901D01*
X115310000Y-165930660D01*
X115560000Y-165930660D01*
X115564900Y-165930901D01*
G37*
G36*
X116339900Y-166205901D02*
G01*
X116354532Y-166207342D01*
X116364147Y-166209254D01*
X116378216Y-166213522D01*
X116387271Y-166217273D01*
X116400238Y-166224204D01*
X116408388Y-166229649D01*
X116419753Y-166238976D01*
X116426684Y-166245907D01*
X116436011Y-166257272D01*
X116441456Y-166265422D01*
X116448387Y-166278389D01*
X116452138Y-166287444D01*
X116456406Y-166301513D01*
X116458318Y-166311128D01*
X116459759Y-166325760D01*
X116460000Y-166330660D01*
X116460000Y-166580660D01*
X116459759Y-166585560D01*
X116458318Y-166600192D01*
X116456406Y-166609807D01*
X116452138Y-166623876D01*
X116448387Y-166632931D01*
X116441456Y-166645898D01*
X116436011Y-166654048D01*
X116426684Y-166665413D01*
X116419753Y-166672344D01*
X116408388Y-166681671D01*
X116400238Y-166687116D01*
X116387271Y-166694047D01*
X116378216Y-166697798D01*
X116364147Y-166702066D01*
X116354532Y-166703978D01*
X116339900Y-166705419D01*
X116335000Y-166705660D01*
X115860000Y-166705660D01*
X115855100Y-166705419D01*
X115840468Y-166703978D01*
X115830853Y-166702066D01*
X115816784Y-166697798D01*
X115807729Y-166694047D01*
X115794762Y-166687116D01*
X115786612Y-166681671D01*
X115775247Y-166672344D01*
X115768316Y-166665413D01*
X115758989Y-166654048D01*
X115753544Y-166645898D01*
X115746613Y-166632931D01*
X115742862Y-166623876D01*
X115738594Y-166609807D01*
X115736682Y-166600192D01*
X115735241Y-166585560D01*
X115735000Y-166580660D01*
X115735000Y-166536726D01*
X115735241Y-166531826D01*
X115736682Y-166517194D01*
X115738594Y-166507579D01*
X115742862Y-166493510D01*
X115746613Y-166484455D01*
X115753544Y-166471488D01*
X115758989Y-166463338D01*
X115768316Y-166451973D01*
X115771612Y-166448338D01*
X115977678Y-166242272D01*
X115981313Y-166238976D01*
X115992678Y-166229649D01*
X116000828Y-166224204D01*
X116013795Y-166217273D01*
X116022850Y-166213522D01*
X116036919Y-166209254D01*
X116046534Y-166207342D01*
X116061166Y-166205901D01*
X116066066Y-166205660D01*
X116335000Y-166205660D01*
X116339900Y-166205901D01*
G37*
G36*
G01*
X115735000Y-167080660D02*
X115735000Y-166830660D01*
G75*
G02*
X115860000Y-166705660I125000J0D01*
G01*
X116335000Y-166705660D01*
G75*
G02*
X116460000Y-166830660I0J-125000D01*
G01*
X116460000Y-167080660D01*
G75*
G02*
X116335000Y-167205660I-125000J0D01*
G01*
X115860000Y-167205660D01*
G75*
G02*
X115735000Y-167080660I0J125000D01*
G01*
G37*
G36*
G01*
X115735000Y-167580660D02*
X115735000Y-167330660D01*
G75*
G02*
X115860000Y-167205660I125000J0D01*
G01*
X116335000Y-167205660D01*
G75*
G02*
X116460000Y-167330660I0J-125000D01*
G01*
X116460000Y-167580660D01*
G75*
G02*
X116335000Y-167705660I-125000J0D01*
G01*
X115860000Y-167705660D01*
G75*
G02*
X115735000Y-167580660I0J125000D01*
G01*
G37*
G36*
X116339900Y-167705901D02*
G01*
X116354532Y-167707342D01*
X116364147Y-167709254D01*
X116378216Y-167713522D01*
X116387271Y-167717273D01*
X116400238Y-167724204D01*
X116408388Y-167729649D01*
X116419753Y-167738976D01*
X116426684Y-167745907D01*
X116436011Y-167757272D01*
X116441456Y-167765422D01*
X116448387Y-167778389D01*
X116452138Y-167787444D01*
X116456406Y-167801513D01*
X116458318Y-167811128D01*
X116459759Y-167825760D01*
X116460000Y-167830660D01*
X116460000Y-168080660D01*
X116459759Y-168085560D01*
X116458318Y-168100192D01*
X116456406Y-168109807D01*
X116452138Y-168123876D01*
X116448387Y-168132931D01*
X116441456Y-168145898D01*
X116436011Y-168154048D01*
X116426684Y-168165413D01*
X116419753Y-168172344D01*
X116408388Y-168181671D01*
X116400238Y-168187116D01*
X116387271Y-168194047D01*
X116378216Y-168197798D01*
X116364147Y-168202066D01*
X116354532Y-168203978D01*
X116339900Y-168205419D01*
X116335000Y-168205660D01*
X116066066Y-168205660D01*
X116061166Y-168205419D01*
X116046534Y-168203978D01*
X116036919Y-168202066D01*
X116022850Y-168197798D01*
X116013795Y-168194047D01*
X116000828Y-168187116D01*
X115992678Y-168181671D01*
X115981313Y-168172344D01*
X115977678Y-168169048D01*
X115771612Y-167962982D01*
X115768316Y-167959347D01*
X115758989Y-167947982D01*
X115753544Y-167939832D01*
X115746613Y-167926865D01*
X115742862Y-167917810D01*
X115738594Y-167903741D01*
X115736682Y-167894126D01*
X115735241Y-167879494D01*
X115735000Y-167874594D01*
X115735000Y-167830660D01*
X115735241Y-167825760D01*
X115736682Y-167811128D01*
X115738594Y-167801513D01*
X115742862Y-167787444D01*
X115746613Y-167778389D01*
X115753544Y-167765422D01*
X115758989Y-167757272D01*
X115768316Y-167745907D01*
X115775247Y-167738976D01*
X115786612Y-167729649D01*
X115794762Y-167724204D01*
X115807729Y-167717273D01*
X115816784Y-167713522D01*
X115830853Y-167709254D01*
X115840468Y-167707342D01*
X115855100Y-167705901D01*
X115860000Y-167705660D01*
X116335000Y-167705660D01*
X116339900Y-167705901D01*
G37*
G36*
X115358834Y-167755901D02*
G01*
X115373466Y-167757342D01*
X115383081Y-167759254D01*
X115397150Y-167763522D01*
X115406205Y-167767273D01*
X115419172Y-167774204D01*
X115427322Y-167779649D01*
X115438687Y-167788976D01*
X115442322Y-167792272D01*
X115648388Y-167998338D01*
X115651684Y-168001973D01*
X115661011Y-168013338D01*
X115666456Y-168021488D01*
X115673387Y-168034455D01*
X115677138Y-168043510D01*
X115681406Y-168057579D01*
X115683318Y-168067194D01*
X115684759Y-168081826D01*
X115685000Y-168086726D01*
X115685000Y-168355660D01*
X115684759Y-168360560D01*
X115683318Y-168375192D01*
X115681406Y-168384807D01*
X115677138Y-168398876D01*
X115673387Y-168407931D01*
X115666456Y-168420898D01*
X115661011Y-168429048D01*
X115651684Y-168440413D01*
X115644753Y-168447344D01*
X115633388Y-168456671D01*
X115625238Y-168462116D01*
X115612271Y-168469047D01*
X115603216Y-168472798D01*
X115589147Y-168477066D01*
X115579532Y-168478978D01*
X115564900Y-168480419D01*
X115560000Y-168480660D01*
X115310000Y-168480660D01*
X115305100Y-168480419D01*
X115290468Y-168478978D01*
X115280853Y-168477066D01*
X115266784Y-168472798D01*
X115257729Y-168469047D01*
X115244762Y-168462116D01*
X115236612Y-168456671D01*
X115225247Y-168447344D01*
X115218316Y-168440413D01*
X115208989Y-168429048D01*
X115203544Y-168420898D01*
X115196613Y-168407931D01*
X115192862Y-168398876D01*
X115188594Y-168384807D01*
X115186682Y-168375192D01*
X115185241Y-168360560D01*
X115185000Y-168355660D01*
X115185000Y-167880660D01*
X115185241Y-167875760D01*
X115186682Y-167861128D01*
X115188594Y-167851513D01*
X115192862Y-167837444D01*
X115196613Y-167828389D01*
X115203544Y-167815422D01*
X115208989Y-167807272D01*
X115218316Y-167795907D01*
X115225247Y-167788976D01*
X115236612Y-167779649D01*
X115244762Y-167774204D01*
X115257729Y-167767273D01*
X115266784Y-167763522D01*
X115280853Y-167759254D01*
X115290468Y-167757342D01*
X115305100Y-167755901D01*
X115310000Y-167755660D01*
X115353934Y-167755660D01*
X115358834Y-167755901D01*
G37*
G36*
G01*
X114685000Y-168355660D02*
X114685000Y-167880660D01*
G75*
G02*
X114810000Y-167755660I125000J0D01*
G01*
X115060000Y-167755660D01*
G75*
G02*
X115185000Y-167880660I0J-125000D01*
G01*
X115185000Y-168355660D01*
G75*
G02*
X115060000Y-168480660I-125000J0D01*
G01*
X114810000Y-168480660D01*
G75*
G02*
X114685000Y-168355660I0J125000D01*
G01*
G37*
G36*
X114564900Y-167755901D02*
G01*
X114579532Y-167757342D01*
X114589147Y-167759254D01*
X114603216Y-167763522D01*
X114612271Y-167767273D01*
X114625238Y-167774204D01*
X114633388Y-167779649D01*
X114644753Y-167788976D01*
X114651684Y-167795907D01*
X114661011Y-167807272D01*
X114666456Y-167815422D01*
X114673387Y-167828389D01*
X114677138Y-167837444D01*
X114681406Y-167851513D01*
X114683318Y-167861128D01*
X114684759Y-167875760D01*
X114685000Y-167880660D01*
X114685000Y-168355660D01*
X114684759Y-168360560D01*
X114683318Y-168375192D01*
X114681406Y-168384807D01*
X114677138Y-168398876D01*
X114673387Y-168407931D01*
X114666456Y-168420898D01*
X114661011Y-168429048D01*
X114651684Y-168440413D01*
X114644753Y-168447344D01*
X114633388Y-168456671D01*
X114625238Y-168462116D01*
X114612271Y-168469047D01*
X114603216Y-168472798D01*
X114589147Y-168477066D01*
X114579532Y-168478978D01*
X114564900Y-168480419D01*
X114560000Y-168480660D01*
X114310000Y-168480660D01*
X114305100Y-168480419D01*
X114290468Y-168478978D01*
X114280853Y-168477066D01*
X114266784Y-168472798D01*
X114257729Y-168469047D01*
X114244762Y-168462116D01*
X114236612Y-168456671D01*
X114225247Y-168447344D01*
X114218316Y-168440413D01*
X114208989Y-168429048D01*
X114203544Y-168420898D01*
X114196613Y-168407931D01*
X114192862Y-168398876D01*
X114188594Y-168384807D01*
X114186682Y-168375192D01*
X114185241Y-168360560D01*
X114185000Y-168355660D01*
X114185000Y-168086726D01*
X114185241Y-168081826D01*
X114186682Y-168067194D01*
X114188594Y-168057579D01*
X114192862Y-168043510D01*
X114196613Y-168034455D01*
X114203544Y-168021488D01*
X114208989Y-168013338D01*
X114218316Y-168001973D01*
X114221612Y-167998338D01*
X114427678Y-167792272D01*
X114431313Y-167788976D01*
X114442678Y-167779649D01*
X114450828Y-167774204D01*
X114463795Y-167767273D01*
X114472850Y-167763522D01*
X114486919Y-167759254D01*
X114496534Y-167757342D01*
X114511166Y-167755901D01*
X114516066Y-167755660D01*
X114560000Y-167755660D01*
X114564900Y-167755901D01*
G37*
G36*
X114014900Y-167705901D02*
G01*
X114029532Y-167707342D01*
X114039147Y-167709254D01*
X114053216Y-167713522D01*
X114062271Y-167717273D01*
X114075238Y-167724204D01*
X114083388Y-167729649D01*
X114094753Y-167738976D01*
X114101684Y-167745907D01*
X114111011Y-167757272D01*
X114116456Y-167765422D01*
X114123387Y-167778389D01*
X114127138Y-167787444D01*
X114131406Y-167801513D01*
X114133318Y-167811128D01*
X114134759Y-167825760D01*
X114135000Y-167830660D01*
X114135000Y-167874594D01*
X114134759Y-167879494D01*
X114133318Y-167894126D01*
X114131406Y-167903741D01*
X114127138Y-167917810D01*
X114123387Y-167926865D01*
X114116456Y-167939832D01*
X114111011Y-167947982D01*
X114101684Y-167959347D01*
X114098388Y-167962982D01*
X113892322Y-168169048D01*
X113888687Y-168172344D01*
X113877322Y-168181671D01*
X113869172Y-168187116D01*
X113856205Y-168194047D01*
X113847150Y-168197798D01*
X113833081Y-168202066D01*
X113823466Y-168203978D01*
X113808834Y-168205419D01*
X113803934Y-168205660D01*
X113535000Y-168205660D01*
X113530100Y-168205419D01*
X113515468Y-168203978D01*
X113505853Y-168202066D01*
X113491784Y-168197798D01*
X113482729Y-168194047D01*
X113469762Y-168187116D01*
X113461612Y-168181671D01*
X113450247Y-168172344D01*
X113443316Y-168165413D01*
X113433989Y-168154048D01*
X113428544Y-168145898D01*
X113421613Y-168132931D01*
X113417862Y-168123876D01*
X113413594Y-168109807D01*
X113411682Y-168100192D01*
X113410241Y-168085560D01*
X113410000Y-168080660D01*
X113410000Y-167830660D01*
X113410241Y-167825760D01*
X113411682Y-167811128D01*
X113413594Y-167801513D01*
X113417862Y-167787444D01*
X113421613Y-167778389D01*
X113428544Y-167765422D01*
X113433989Y-167757272D01*
X113443316Y-167745907D01*
X113450247Y-167738976D01*
X113461612Y-167729649D01*
X113469762Y-167724204D01*
X113482729Y-167717273D01*
X113491784Y-167713522D01*
X113505853Y-167709254D01*
X113515468Y-167707342D01*
X113530100Y-167705901D01*
X113535000Y-167705660D01*
X114010000Y-167705660D01*
X114014900Y-167705901D01*
G37*
G36*
G01*
X113410000Y-167580660D02*
X113410000Y-167330660D01*
G75*
G02*
X113535000Y-167205660I125000J0D01*
G01*
X114010000Y-167205660D01*
G75*
G02*
X114135000Y-167330660I0J-125000D01*
G01*
X114135000Y-167580660D01*
G75*
G02*
X114010000Y-167705660I-125000J0D01*
G01*
X113535000Y-167705660D01*
G75*
G02*
X113410000Y-167580660I0J125000D01*
G01*
G37*
G36*
G01*
X113410000Y-167080660D02*
X113410000Y-166830660D01*
G75*
G02*
X113535000Y-166705660I125000J0D01*
G01*
X114010000Y-166705660D01*
G75*
G02*
X114135000Y-166830660I0J-125000D01*
G01*
X114135000Y-167080660D01*
G75*
G02*
X114010000Y-167205660I-125000J0D01*
G01*
X113535000Y-167205660D01*
G75*
G02*
X113410000Y-167080660I0J125000D01*
G01*
G37*
G36*
X113808834Y-166205901D02*
G01*
X113823466Y-166207342D01*
X113833081Y-166209254D01*
X113847150Y-166213522D01*
X113856205Y-166217273D01*
X113869172Y-166224204D01*
X113877322Y-166229649D01*
X113888687Y-166238976D01*
X113892322Y-166242272D01*
X114098388Y-166448338D01*
X114101684Y-166451973D01*
X114111011Y-166463338D01*
X114116456Y-166471488D01*
X114123387Y-166484455D01*
X114127138Y-166493510D01*
X114131406Y-166507579D01*
X114133318Y-166517194D01*
X114134759Y-166531826D01*
X114135000Y-166536726D01*
X114135000Y-166580660D01*
X114134759Y-166585560D01*
X114133318Y-166600192D01*
X114131406Y-166609807D01*
X114127138Y-166623876D01*
X114123387Y-166632931D01*
X114116456Y-166645898D01*
X114111011Y-166654048D01*
X114101684Y-166665413D01*
X114094753Y-166672344D01*
X114083388Y-166681671D01*
X114075238Y-166687116D01*
X114062271Y-166694047D01*
X114053216Y-166697798D01*
X114039147Y-166702066D01*
X114029532Y-166703978D01*
X114014900Y-166705419D01*
X114010000Y-166705660D01*
X113535000Y-166705660D01*
X113530100Y-166705419D01*
X113515468Y-166703978D01*
X113505853Y-166702066D01*
X113491784Y-166697798D01*
X113482729Y-166694047D01*
X113469762Y-166687116D01*
X113461612Y-166681671D01*
X113450247Y-166672344D01*
X113443316Y-166665413D01*
X113433989Y-166654048D01*
X113428544Y-166645898D01*
X113421613Y-166632931D01*
X113417862Y-166623876D01*
X113413594Y-166609807D01*
X113411682Y-166600192D01*
X113410241Y-166585560D01*
X113410000Y-166580660D01*
X113410000Y-166330660D01*
X113410241Y-166325760D01*
X113411682Y-166311128D01*
X113413594Y-166301513D01*
X113417862Y-166287444D01*
X113421613Y-166278389D01*
X113428544Y-166265422D01*
X113433989Y-166257272D01*
X113443316Y-166245907D01*
X113450247Y-166238976D01*
X113461612Y-166229649D01*
X113469762Y-166224204D01*
X113482729Y-166217273D01*
X113491784Y-166213522D01*
X113505853Y-166209254D01*
X113515468Y-166207342D01*
X113530100Y-166205901D01*
X113535000Y-166205660D01*
X113803934Y-166205660D01*
X113808834Y-166205901D01*
G37*
D22*
X93666200Y-131657600D03*
X89366200Y-131657600D03*
X93666200Y-129657600D03*
X89366200Y-129657600D03*
D23*
X94466200Y-130657600D03*
X88566200Y-130657600D03*
D24*
X120384400Y-148437600D03*
X112584400Y-148437600D03*
D22*
X93818600Y-138820400D03*
X89518600Y-138820400D03*
X93818600Y-136820400D03*
X89518600Y-136820400D03*
D23*
X94618600Y-137820400D03*
X88718600Y-137820400D03*
D12*
X88392000Y-190195200D03*
X88392000Y-187655200D03*
D13*
X88392000Y-185115200D03*
D12*
X83769200Y-190195200D03*
X83769200Y-187655200D03*
D13*
X83769200Y-185115200D03*
D12*
X88341200Y-179730400D03*
X88341200Y-177190400D03*
D13*
X88341200Y-174650400D03*
D12*
X83769200Y-179730400D03*
X83769200Y-177190400D03*
D13*
X83769200Y-174650400D03*
D12*
X88239600Y-169316400D03*
X88239600Y-166776400D03*
D13*
X88239600Y-164236400D03*
D12*
X83820000Y-169367200D03*
X83820000Y-166827200D03*
D13*
X83820000Y-164287200D03*
D12*
X83413600Y-139750800D03*
X83413600Y-137210800D03*
D13*
X83413600Y-134670800D03*
D12*
X83413600Y-129540000D03*
X83413600Y-127000000D03*
D13*
X83413600Y-124460000D03*
D12*
X90322400Y-123901200D03*
X92862400Y-123901200D03*
D13*
X95402400Y-123901200D03*
D12*
X101447600Y-123901200D03*
X103987600Y-123901200D03*
D13*
X106527600Y-123901200D03*
G36*
G01*
X85525400Y-145119400D02*
X83175400Y-145119400D01*
G75*
G02*
X82900400Y-144844400I0J275000D01*
G01*
X82900400Y-144294400D01*
G75*
G02*
X83175400Y-144019400I275000J0D01*
G01*
X85525400Y-144019400D01*
G75*
G02*
X85800400Y-144294400I0J-275000D01*
G01*
X85800400Y-144844400D01*
G75*
G02*
X85525400Y-145119400I-275000J0D01*
G01*
G37*
G36*
G01*
X85525400Y-160069400D02*
X83175400Y-160069400D01*
G75*
G02*
X82900400Y-159794400I0J275000D01*
G01*
X82900400Y-159244400D01*
G75*
G02*
X83175400Y-158969400I275000J0D01*
G01*
X85525400Y-158969400D01*
G75*
G02*
X85800400Y-159244400I0J-275000D01*
G01*
X85800400Y-159794400D01*
G75*
G02*
X85525400Y-160069400I-275000J0D01*
G01*
G37*
G36*
G01*
X88425400Y-146769400D02*
X86975400Y-146769400D01*
G75*
G02*
X86800400Y-146594400I0J175000D01*
G01*
X86800400Y-146244400D01*
G75*
G02*
X86975400Y-146069400I175000J0D01*
G01*
X88425400Y-146069400D01*
G75*
G02*
X88600400Y-146244400I0J-175000D01*
G01*
X88600400Y-146594400D01*
G75*
G02*
X88425400Y-146769400I-175000J0D01*
G01*
G37*
G36*
G01*
X88425400Y-148019400D02*
X86975400Y-148019400D01*
G75*
G02*
X86800400Y-147844400I0J175000D01*
G01*
X86800400Y-147494400D01*
G75*
G02*
X86975400Y-147319400I175000J0D01*
G01*
X88425400Y-147319400D01*
G75*
G02*
X88600400Y-147494400I0J-175000D01*
G01*
X88600400Y-147844400D01*
G75*
G02*
X88425400Y-148019400I-175000J0D01*
G01*
G37*
G36*
G01*
X88425400Y-149269400D02*
X86975400Y-149269400D01*
G75*
G02*
X86800400Y-149094400I0J175000D01*
G01*
X86800400Y-148744400D01*
G75*
G02*
X86975400Y-148569400I175000J0D01*
G01*
X88425400Y-148569400D01*
G75*
G02*
X88600400Y-148744400I0J-175000D01*
G01*
X88600400Y-149094400D01*
G75*
G02*
X88425400Y-149269400I-175000J0D01*
G01*
G37*
G36*
G01*
X88425400Y-150519400D02*
X86975400Y-150519400D01*
G75*
G02*
X86800400Y-150344400I0J175000D01*
G01*
X86800400Y-149994400D01*
G75*
G02*
X86975400Y-149819400I175000J0D01*
G01*
X88425400Y-149819400D01*
G75*
G02*
X88600400Y-149994400I0J-175000D01*
G01*
X88600400Y-150344400D01*
G75*
G02*
X88425400Y-150519400I-175000J0D01*
G01*
G37*
G36*
G01*
X88425400Y-151769400D02*
X86975400Y-151769400D01*
G75*
G02*
X86800400Y-151594400I0J175000D01*
G01*
X86800400Y-151244400D01*
G75*
G02*
X86975400Y-151069400I175000J0D01*
G01*
X88425400Y-151069400D01*
G75*
G02*
X88600400Y-151244400I0J-175000D01*
G01*
X88600400Y-151594400D01*
G75*
G02*
X88425400Y-151769400I-175000J0D01*
G01*
G37*
G36*
G01*
X88425400Y-153019400D02*
X86975400Y-153019400D01*
G75*
G02*
X86800400Y-152844400I0J175000D01*
G01*
X86800400Y-152494400D01*
G75*
G02*
X86975400Y-152319400I175000J0D01*
G01*
X88425400Y-152319400D01*
G75*
G02*
X88600400Y-152494400I0J-175000D01*
G01*
X88600400Y-152844400D01*
G75*
G02*
X88425400Y-153019400I-175000J0D01*
G01*
G37*
G36*
G01*
X88425400Y-154269400D02*
X86975400Y-154269400D01*
G75*
G02*
X86800400Y-154094400I0J175000D01*
G01*
X86800400Y-153744400D01*
G75*
G02*
X86975400Y-153569400I175000J0D01*
G01*
X88425400Y-153569400D01*
G75*
G02*
X88600400Y-153744400I0J-175000D01*
G01*
X88600400Y-154094400D01*
G75*
G02*
X88425400Y-154269400I-175000J0D01*
G01*
G37*
G36*
G01*
X88425400Y-155519400D02*
X86975400Y-155519400D01*
G75*
G02*
X86800400Y-155344400I0J175000D01*
G01*
X86800400Y-154994400D01*
G75*
G02*
X86975400Y-154819400I175000J0D01*
G01*
X88425400Y-154819400D01*
G75*
G02*
X88600400Y-154994400I0J-175000D01*
G01*
X88600400Y-155344400D01*
G75*
G02*
X88425400Y-155519400I-175000J0D01*
G01*
G37*
G36*
G01*
X88425400Y-156769400D02*
X86975400Y-156769400D01*
G75*
G02*
X86800400Y-156594400I0J175000D01*
G01*
X86800400Y-156244400D01*
G75*
G02*
X86975400Y-156069400I175000J0D01*
G01*
X88425400Y-156069400D01*
G75*
G02*
X88600400Y-156244400I0J-175000D01*
G01*
X88600400Y-156594400D01*
G75*
G02*
X88425400Y-156769400I-175000J0D01*
G01*
G37*
G36*
G01*
X88425400Y-158019400D02*
X86975400Y-158019400D01*
G75*
G02*
X86800400Y-157844400I0J175000D01*
G01*
X86800400Y-157494400D01*
G75*
G02*
X86975400Y-157319400I175000J0D01*
G01*
X88425400Y-157319400D01*
G75*
G02*
X88600400Y-157494400I0J-175000D01*
G01*
X88600400Y-157844400D01*
G75*
G02*
X88425400Y-158019400I-175000J0D01*
G01*
G37*
D12*
X126238000Y-189230000D03*
X123698000Y-189230000D03*
X126238000Y-186690000D03*
X123698000Y-186690000D03*
X126238000Y-184150000D03*
X123698000Y-184150000D03*
X126238000Y-181610000D03*
X123698000Y-181610000D03*
X126238000Y-179070000D03*
X123698000Y-179070000D03*
X126238000Y-176530000D03*
X123698000Y-176530000D03*
X126238000Y-173990000D03*
X123698000Y-173990000D03*
X126238000Y-171450000D03*
X123698000Y-171450000D03*
X126238000Y-168910000D03*
X123698000Y-168910000D03*
X126238000Y-166370000D03*
X123698000Y-166370000D03*
X126238000Y-163830000D03*
X123698000Y-163830000D03*
X126238000Y-161290000D03*
X123698000Y-161290000D03*
X126238000Y-158750000D03*
X123698000Y-158750000D03*
X126238000Y-156210000D03*
X123698000Y-156210000D03*
X126238000Y-153670000D03*
X123698000Y-153670000D03*
X126238000Y-151130000D03*
X123698000Y-151130000D03*
X126238000Y-148590000D03*
X123698000Y-148590000D03*
X126238000Y-146050000D03*
X123698000Y-146050000D03*
X126238000Y-143510000D03*
X123698000Y-143510000D03*
X126238000Y-140970000D03*
D13*
X123698000Y-140970000D03*
M02*
