%FSLAX45Y45*%
G04 Gerber Fmt 4.5, Leading zero omitted, Abs format (unit mm)*
G04 Created by KiCad (PCBNEW (5.1.6)-1) date 2021-10-25 07:35:55*
%MOMM*%
%LPD*%
G01*
G04 APERTURE LIST*
%TA.AperFunction,Profile*%
%ADD10C,0.050000*%
%TD*%
%TA.AperFunction,Profile*%
%ADD11C,0.100000*%
%TD*%
%ADD12C,0.200000*%
%ADD13C,0.300000*%
G04 APERTURE END LIST*
D10*
X12984480Y-19050000D02*
G75*
G02*
X12730480Y-19304000I-254000J0D01*
G01*
X8280400Y-19304000D02*
G75*
G02*
X8097520Y-19121120I0J182880D01*
G01*
X8097595Y-12242943D02*
G75*
G02*
X8280400Y-12054840I182805J5223D01*
G01*
X12801600Y-12054840D02*
G75*
G02*
X12984480Y-12237720I0J-182880D01*
G01*
D11*
X12984480Y-12237720D02*
X12984480Y-19050000D01*
X8280400Y-12054840D02*
X12801600Y-12054840D01*
X8097520Y-19121120D02*
X8097595Y-12242943D01*
X12730480Y-19304000D02*
X8280400Y-19304000D01*
D12*
X8499160Y-16037880D02*
X8539160Y-16077880D01*
X8539160Y-16037880D02*
X8499160Y-16077880D01*
X8499160Y-16144560D02*
X8539160Y-16184560D01*
X8539160Y-16144560D02*
X8499160Y-16184560D01*
X8504240Y-16413800D02*
X8544240Y-16453800D01*
X8544240Y-16413800D02*
X8504240Y-16453800D01*
X8570280Y-16037880D02*
X8610280Y-16077880D01*
X8610280Y-16037880D02*
X8570280Y-16077880D01*
X8570280Y-16144560D02*
X8610280Y-16184560D01*
X8610280Y-16144560D02*
X8570280Y-16184560D01*
X8580440Y-16312200D02*
X8620440Y-16352200D01*
X8620440Y-16312200D02*
X8580440Y-16352200D01*
X8646480Y-16037880D02*
X8686480Y-16077880D01*
X8686480Y-16037880D02*
X8646480Y-16077880D01*
X8646480Y-16149640D02*
X8686480Y-16189640D01*
X8686480Y-16149640D02*
X8646480Y-16189640D01*
X8646480Y-16429040D02*
X8686480Y-16469040D01*
X8686480Y-16429040D02*
X8646480Y-16469040D01*
X8915720Y-16007400D02*
X8955720Y-16047400D01*
X8955720Y-16007400D02*
X8915720Y-16047400D01*
X8997000Y-15387640D02*
X9037000Y-15427640D01*
X9037000Y-15387640D02*
X8997000Y-15427640D01*
X8997000Y-15621320D02*
X9037000Y-15661320D01*
X9037000Y-15621320D02*
X8997000Y-15661320D01*
X9052880Y-15992160D02*
X9092880Y-16032160D01*
X9092880Y-15992160D02*
X9052880Y-16032160D01*
X9296720Y-14966000D02*
X9336720Y-15006000D01*
X9336720Y-14966000D02*
X9296720Y-15006000D01*
X9367840Y-16296960D02*
X9407840Y-16336960D01*
X9407840Y-16296960D02*
X9367840Y-16336960D01*
X9383080Y-15026960D02*
X9423080Y-15066960D01*
X9423080Y-15026960D02*
X9383080Y-15066960D01*
X9388160Y-16444280D02*
X9428160Y-16484280D01*
X9428160Y-16444280D02*
X9388160Y-16484280D01*
X9413560Y-16124240D02*
X9453560Y-16164240D01*
X9453560Y-16124240D02*
X9413560Y-16164240D01*
X9413560Y-16200440D02*
X9453560Y-16240440D01*
X9453560Y-16200440D02*
X9413560Y-16240440D01*
X9418640Y-15895640D02*
X9458640Y-15935640D01*
X9458640Y-15895640D02*
X9418640Y-15935640D01*
X9428800Y-15987080D02*
X9468800Y-16027080D01*
X9468800Y-15987080D02*
X9428800Y-16027080D01*
X9464360Y-16373160D02*
X9504360Y-16413160D01*
X9504360Y-16373160D02*
X9464360Y-16413160D01*
X9464360Y-16881160D02*
X9504360Y-16921160D01*
X9504360Y-16881160D02*
X9464360Y-16921160D01*
X9596440Y-16738920D02*
X9636440Y-16778920D01*
X9636440Y-16738920D02*
X9596440Y-16778920D01*
X9611680Y-14412280D02*
X9651680Y-14452280D01*
X9651680Y-14412280D02*
X9611680Y-14452280D01*
X9616760Y-15611160D02*
X9656760Y-15651160D01*
X9656760Y-15611160D02*
X9616760Y-15651160D01*
X9621916Y-17683876D02*
X9661916Y-17723876D01*
X9661916Y-17683876D02*
X9621916Y-17723876D01*
X9626920Y-14508800D02*
X9666920Y-14548800D01*
X9666920Y-14508800D02*
X9626920Y-14548800D01*
X9662480Y-16444280D02*
X9702480Y-16484280D01*
X9702480Y-16444280D02*
X9662480Y-16484280D01*
X9667560Y-14346240D02*
X9707560Y-14386240D01*
X9707560Y-14346240D02*
X9667560Y-14386240D01*
X9687880Y-16352840D02*
X9727880Y-16392840D01*
X9727880Y-16352840D02*
X9687880Y-16392840D01*
X9692960Y-16728760D02*
X9732960Y-16768760D01*
X9732960Y-16728760D02*
X9692960Y-16768760D01*
X9693920Y-16246160D02*
X9733920Y-16286160D01*
X9733920Y-16246160D02*
X9693920Y-16286160D01*
X9789480Y-17379000D02*
X9829480Y-17419000D01*
X9829480Y-17379000D02*
X9789480Y-17419000D01*
X9819960Y-15992160D02*
X9859960Y-16032160D01*
X9859960Y-15992160D02*
X9819960Y-16032160D01*
X9830120Y-15915960D02*
X9870120Y-15955960D01*
X9870120Y-15915960D02*
X9830120Y-15955960D01*
X9875840Y-16098840D02*
X9915840Y-16138840D01*
X9915840Y-16098840D02*
X9875840Y-16138840D01*
X9906320Y-15880400D02*
X9946320Y-15920400D01*
X9946320Y-15880400D02*
X9906320Y-15920400D01*
X9967280Y-16398560D02*
X10007280Y-16438560D01*
X10007280Y-16398560D02*
X9967280Y-16438560D01*
X9967280Y-17287560D02*
X10007280Y-17327560D01*
X10007280Y-17287560D02*
X9967280Y-17327560D01*
X9997760Y-16505240D02*
X10037760Y-16545240D01*
X10037760Y-16505240D02*
X9997760Y-16545240D01*
X10033320Y-15220000D02*
X10073320Y-15260000D01*
X10073320Y-15220000D02*
X10033320Y-15260000D01*
X10109520Y-17871760D02*
X10149520Y-17911760D01*
X10149520Y-17871760D02*
X10109520Y-17911760D01*
X10190800Y-17932720D02*
X10230800Y-17972720D01*
X10230800Y-17932720D02*
X10190800Y-17972720D01*
X10216200Y-15931200D02*
X10256200Y-15971200D01*
X10256200Y-15931200D02*
X10216200Y-15971200D01*
X10261920Y-16312200D02*
X10301920Y-16352200D01*
X10301920Y-16312200D02*
X10261920Y-16352200D01*
X10277160Y-16139480D02*
X10317160Y-16179480D01*
X10317160Y-16139480D02*
X10277160Y-16179480D01*
X10287320Y-17841280D02*
X10327320Y-17881280D01*
X10327320Y-17841280D02*
X10287320Y-17881280D01*
X10333040Y-15545120D02*
X10373040Y-15585120D01*
X10373040Y-15545120D02*
X10333040Y-15585120D01*
X10465120Y-17287560D02*
X10505120Y-17327560D01*
X10505120Y-17287560D02*
X10465120Y-17327560D01*
X10505760Y-15311440D02*
X10545760Y-15351440D01*
X10545760Y-15311440D02*
X10505760Y-15351440D01*
X10561640Y-17379000D02*
X10601640Y-17419000D01*
X10601640Y-17379000D02*
X10561640Y-17419000D01*
X10714040Y-16774480D02*
X10754040Y-16814480D01*
X10754040Y-16774480D02*
X10714040Y-16814480D01*
X11006140Y-16883700D02*
X11046140Y-16923700D01*
X11046140Y-16883700D02*
X11006140Y-16923700D01*
X11232200Y-16774480D02*
X11272200Y-16814480D01*
X11272200Y-16774480D02*
X11232200Y-16814480D01*
X11420160Y-16383320D02*
X11460160Y-16423320D01*
X11460160Y-16383320D02*
X11420160Y-16423320D01*
X11460800Y-15941360D02*
X11500800Y-15981360D01*
X11500800Y-15941360D02*
X11460800Y-15981360D01*
X11473500Y-16690660D02*
X11513500Y-16730660D01*
X11513500Y-16690660D02*
X11473500Y-16730660D01*
X11476040Y-16093760D02*
X11516040Y-16133760D01*
X11516040Y-16093760D02*
X11476040Y-16133760D01*
X11511600Y-16180120D02*
X11551600Y-16220120D01*
X11551600Y-16180120D02*
X11511600Y-16220120D01*
X11511600Y-16469680D02*
X11551600Y-16509680D01*
X11551600Y-16469680D02*
X11511600Y-16509680D01*
X11608120Y-15504480D02*
X11648120Y-15544480D01*
X11648120Y-15504480D02*
X11608120Y-15544480D01*
X11933240Y-16840520D02*
X11973240Y-16880520D01*
X11973240Y-16840520D02*
X11933240Y-16880520D01*
X11963720Y-14508800D02*
X12003720Y-14548800D01*
X12003720Y-14508800D02*
X11963720Y-14548800D01*
X8462880Y-14569440D02*
G75*
G03*
X8462880Y-14569440I-25000J0D01*
G01*
X8467960Y-15839440D02*
G75*
G03*
X8467960Y-15839440I-25000J0D01*
G01*
X8589880Y-15514320D02*
G75*
G03*
X8589880Y-15514320I-25000J0D01*
G01*
X8645760Y-14889480D02*
G75*
G03*
X8645760Y-14889480I-25000J0D01*
G01*
X8650840Y-14640560D02*
G75*
G03*
X8650840Y-14640560I-25000J0D01*
G01*
X8737200Y-13065760D02*
G75*
G03*
X8737200Y-13065760I-25000J0D01*
G01*
X8757520Y-13782040D02*
G75*
G03*
X8757520Y-13782040I-25000J0D01*
G01*
X8960720Y-12827000D02*
G75*
G03*
X8960720Y-12827000I-25000J0D01*
G01*
X8961620Y-13313780D02*
G75*
G03*
X8961620Y-13313780I-25000J0D01*
G01*
X8975960Y-13548360D02*
G75*
G03*
X8975960Y-13548360I-25000J0D01*
G01*
X8975960Y-15097760D02*
G75*
G03*
X8975960Y-15097760I-25000J0D01*
G01*
X8976860Y-14014820D02*
G75*
G03*
X8976860Y-14014820I-25000J0D01*
G01*
X9042000Y-14935200D02*
G75*
G03*
X9042000Y-14935200I-25000J0D01*
G01*
X9108040Y-16957040D02*
G75*
G03*
X9108040Y-16957040I-25000J0D01*
G01*
X9113120Y-15798800D02*
G75*
G03*
X9113120Y-15798800I-25000J0D01*
G01*
X9128360Y-14615160D02*
G75*
G03*
X9128360Y-14615160I-25000J0D01*
G01*
X9128360Y-16489680D02*
G75*
G03*
X9128360Y-16489680I-25000J0D01*
G01*
X9275680Y-15265400D02*
G75*
G03*
X9275680Y-15265400I-25000J0D01*
G01*
X9301080Y-16611600D02*
G75*
G03*
X9301080Y-16611600I-25000J0D01*
G01*
X9316320Y-13309600D02*
G75*
G03*
X9316320Y-13309600I-25000J0D01*
G01*
X9351880Y-14015720D02*
G75*
G03*
X9351880Y-14015720I-25000J0D01*
G01*
X9351880Y-15580360D02*
G75*
G03*
X9351880Y-15580360I-25000J0D01*
G01*
X9372200Y-15260320D02*
G75*
G03*
X9372200Y-15260320I-25000J0D01*
G01*
X9392520Y-12827000D02*
G75*
G03*
X9392520Y-12827000I-25000J0D01*
G01*
X9407760Y-13548360D02*
G75*
G03*
X9407760Y-13548360I-25000J0D01*
G01*
X9463640Y-15636240D02*
G75*
G03*
X9463640Y-15636240I-25000J0D01*
G01*
X9499200Y-17109440D02*
G75*
G03*
X9499200Y-17109440I-25000J0D01*
G01*
X9509360Y-19197320D02*
G75*
G03*
X9509360Y-19197320I-25000J0D01*
G01*
X9834480Y-18663920D02*
G75*
G03*
X9834480Y-18663920I-25000J0D01*
G01*
X9839560Y-18023840D02*
G75*
G03*
X9839560Y-18023840I-25000J0D01*
G01*
X9870040Y-14030960D02*
G75*
G03*
X9870040Y-14030960I-25000J0D01*
G01*
X9875120Y-14579600D02*
G75*
G03*
X9875120Y-14579600I-25000J0D01*
G01*
X9941160Y-15052040D02*
G75*
G03*
X9941160Y-15052040I-25000J0D01*
G01*
X10007200Y-17170400D02*
G75*
G03*
X10007200Y-17170400I-25000J0D01*
G01*
X10007200Y-19197320D02*
G75*
G03*
X10007200Y-19197320I-25000J0D01*
G01*
X10012280Y-18288000D02*
G75*
G03*
X10012280Y-18288000I-25000J0D01*
G01*
X10103720Y-16992600D02*
G75*
G03*
X10103720Y-16992600I-25000J0D01*
G01*
X10124040Y-16667480D02*
G75*
G03*
X10124040Y-16667480I-25000J0D01*
G01*
X10124040Y-18115280D02*
G75*
G03*
X10124040Y-18115280I-25000J0D01*
G01*
X10215480Y-15052040D02*
G75*
G03*
X10215480Y-15052040I-25000J0D01*
G01*
X10225640Y-14198600D02*
G75*
G03*
X10225640Y-14198600I-25000J0D01*
G01*
X10428840Y-16814800D02*
G75*
G03*
X10428840Y-16814800I-25000J0D01*
G01*
X10439000Y-14838680D02*
G75*
G03*
X10439000Y-14838680I-25000J0D01*
G01*
X10510120Y-18486120D02*
G75*
G03*
X10510120Y-18486120I-25000J0D01*
G01*
X10535520Y-18125440D02*
G75*
G03*
X10535520Y-18125440I-25000J0D01*
G01*
X10540600Y-18572480D02*
G75*
G03*
X10540600Y-18572480I-25000J0D01*
G01*
X10616800Y-16967200D02*
G75*
G03*
X10616800Y-16967200I-25000J0D01*
G01*
X10621880Y-16489680D02*
G75*
G03*
X10621880Y-16489680I-25000J0D01*
G01*
X10672680Y-18404840D02*
G75*
G03*
X10672680Y-18404840I-25000J0D01*
G01*
X10698080Y-14203680D02*
G75*
G03*
X10698080Y-14203680I-25000J0D01*
G01*
X10718400Y-17917160D02*
G75*
G03*
X10718400Y-17917160I-25000J0D01*
G01*
X10753960Y-15753080D02*
G75*
G03*
X10753960Y-15753080I-25000J0D01*
G01*
X10916520Y-18135600D02*
G75*
G03*
X10916520Y-18135600I-25000J0D01*
G01*
X10916520Y-18562320D02*
G75*
G03*
X10916520Y-18562320I-25000J0D01*
G01*
X10992720Y-18755360D02*
G75*
G03*
X10992720Y-18755360I-25000J0D01*
G01*
X11058760Y-15113000D02*
G75*
G03*
X11058760Y-15113000I-25000J0D01*
G01*
X11094320Y-17028160D02*
G75*
G03*
X11094320Y-17028160I-25000J0D01*
G01*
X11114640Y-13533120D02*
G75*
G03*
X11114640Y-13533120I-25000J0D01*
G01*
X11134960Y-18135600D02*
G75*
G03*
X11134960Y-18135600I-25000J0D01*
G01*
X11134960Y-18562320D02*
G75*
G03*
X11134960Y-18562320I-25000J0D01*
G01*
X11206080Y-19156680D02*
G75*
G03*
X11206080Y-19156680I-25000J0D01*
G01*
X11241640Y-15859760D02*
G75*
G03*
X11241640Y-15859760I-25000J0D01*
G01*
X11241640Y-16322040D02*
G75*
G03*
X11241640Y-16322040I-25000J0D01*
G01*
X11328000Y-14351000D02*
G75*
G03*
X11328000Y-14351000I-25000J0D01*
G01*
X11353400Y-13863320D02*
G75*
G03*
X11353400Y-13863320I-25000J0D01*
G01*
X11449920Y-12979400D02*
G75*
G03*
X11449920Y-12979400I-25000J0D01*
G01*
X11449920Y-13070840D02*
G75*
G03*
X11449920Y-13070840I-25000J0D01*
G01*
X11455000Y-14351000D02*
G75*
G03*
X11455000Y-14351000I-25000J0D01*
G01*
X11460080Y-13863320D02*
G75*
G03*
X11460080Y-13863320I-25000J0D01*
G01*
X11480400Y-15143480D02*
G75*
G03*
X11480400Y-15143480I-25000J0D01*
G01*
X11521040Y-15875000D02*
G75*
G03*
X11521040Y-15875000I-25000J0D01*
G01*
X11561680Y-17023080D02*
G75*
G03*
X11561680Y-17023080I-25000J0D01*
G01*
X11637880Y-17139920D02*
G75*
G03*
X11637880Y-17139920I-25000J0D01*
G01*
X11663280Y-13863320D02*
G75*
G03*
X11663280Y-13863320I-25000J0D01*
G01*
X11663280Y-14351000D02*
G75*
G03*
X11663280Y-14351000I-25000J0D01*
G01*
X11688680Y-12979400D02*
G75*
G03*
X11688680Y-12979400I-25000J0D01*
G01*
X11688680Y-13075920D02*
G75*
G03*
X11688680Y-13075920I-25000J0D01*
G01*
X11714080Y-15138400D02*
G75*
G03*
X11714080Y-15138400I-25000J0D01*
G01*
X11785200Y-13863320D02*
G75*
G03*
X11785200Y-13863320I-25000J0D01*
G01*
X11785200Y-14351000D02*
G75*
G03*
X11785200Y-14351000I-25000J0D01*
G01*
X11795360Y-16591280D02*
G75*
G03*
X11795360Y-16591280I-25000J0D01*
G01*
X11805520Y-15656560D02*
G75*
G03*
X11805520Y-15656560I-25000J0D01*
G01*
X11871560Y-16865600D02*
G75*
G03*
X11871560Y-16865600I-25000J0D01*
G01*
X11886800Y-12979400D02*
G75*
G03*
X11886800Y-12979400I-25000J0D01*
G01*
X11886800Y-13075920D02*
G75*
G03*
X11886800Y-13075920I-25000J0D01*
G01*
X11952840Y-15829280D02*
G75*
G03*
X11952840Y-15829280I-25000J0D01*
G01*
X11973160Y-16286480D02*
G75*
G03*
X11973160Y-16286480I-25000J0D01*
G01*
X12476080Y-12131040D02*
G75*
G03*
X12476080Y-12131040I-25000J0D01*
G01*
X12476080Y-12222480D02*
G75*
G03*
X12476080Y-12222480I-25000J0D01*
G01*
X12725000Y-12735560D02*
G75*
G03*
X12725000Y-12735560I-25000J0D01*
G01*
X12725000Y-12827000D02*
G75*
G03*
X12725000Y-12827000I-25000J0D01*
G01*
X12725000Y-12923520D02*
G75*
G03*
X12725000Y-12923520I-25000J0D01*
G01*
X10937240Y-17440440D02*
X10937240Y-17540440D01*
X10887240Y-17490440D02*
X10987240Y-17490440D01*
X10937240Y-17694440D02*
X10937240Y-17794440D01*
X10887240Y-17744440D02*
X10987240Y-17744440D01*
X11191240Y-17440440D02*
X11191240Y-17540440D01*
X11141240Y-17490440D02*
X11241240Y-17490440D01*
X11191240Y-17694440D02*
X11191240Y-17794440D01*
X11141240Y-17744440D02*
X11241240Y-17744440D01*
X11445240Y-17440440D02*
X11445240Y-17540440D01*
X11395240Y-17490440D02*
X11495240Y-17490440D01*
X11445240Y-17694440D02*
X11445240Y-17794440D01*
X11395240Y-17744440D02*
X11495240Y-17744440D01*
X11699240Y-17440440D02*
X11699240Y-17540440D01*
X11649240Y-17490440D02*
X11749240Y-17490440D01*
X11699240Y-17694440D02*
X11699240Y-17794440D01*
X11649240Y-17744440D02*
X11749240Y-17744440D01*
X11953240Y-17440440D02*
X11953240Y-17540440D01*
X11903240Y-17490440D02*
X12003240Y-17490440D01*
X11953240Y-17694440D02*
X11953240Y-17794440D01*
X11903240Y-17744440D02*
X12003240Y-17744440D01*
X8341360Y-12396000D02*
X8341360Y-12496000D01*
X8291360Y-12446000D02*
X8391360Y-12446000D01*
X8341360Y-12650000D02*
X8341360Y-12750000D01*
X8291360Y-12700000D02*
X8391360Y-12700000D01*
X8341360Y-12904000D02*
X8341360Y-13004000D01*
X8291360Y-12954000D02*
X8391360Y-12954000D01*
X8376920Y-18461520D02*
X8376920Y-18561520D01*
X8326920Y-18511520D02*
X8426920Y-18511520D01*
X8376920Y-18715520D02*
X8376920Y-18815520D01*
X8326920Y-18765520D02*
X8426920Y-18765520D01*
X8376920Y-18969520D02*
X8376920Y-19069520D01*
X8326920Y-19019520D02*
X8426920Y-19019520D01*
X8823960Y-16373640D02*
X8823960Y-16473640D01*
X8773960Y-16423640D02*
X8873960Y-16423640D01*
X8823960Y-16627640D02*
X8823960Y-16727640D01*
X8773960Y-16677640D02*
X8873960Y-16677640D01*
X8823960Y-16881640D02*
X8823960Y-16981640D01*
X8773960Y-16931640D02*
X8873960Y-16931640D01*
X8341360Y-13417080D02*
X8341360Y-13517080D01*
X8291360Y-13467080D02*
X8391360Y-13467080D01*
X8341360Y-13671080D02*
X8341360Y-13771080D01*
X8291360Y-13721080D02*
X8391360Y-13721080D01*
X8341360Y-13925080D02*
X8341360Y-14025080D01*
X8291360Y-13975080D02*
X8391360Y-13975080D01*
X10144760Y-12340120D02*
X10144760Y-12440120D01*
X10094760Y-12390120D02*
X10194760Y-12390120D01*
X10398760Y-12340120D02*
X10398760Y-12440120D01*
X10348760Y-12390120D02*
X10448760Y-12390120D01*
X10652760Y-12340120D02*
X10652760Y-12440120D01*
X10602760Y-12390120D02*
X10702760Y-12390120D01*
X8382000Y-16378720D02*
X8382000Y-16478720D01*
X8332000Y-16428720D02*
X8432000Y-16428720D01*
X8382000Y-16632720D02*
X8382000Y-16732720D01*
X8332000Y-16682720D02*
X8432000Y-16682720D01*
X8382000Y-16886720D02*
X8382000Y-16986720D01*
X8332000Y-16936720D02*
X8432000Y-16936720D01*
X12369800Y-14047000D02*
X12369800Y-14147000D01*
X12319800Y-14097000D02*
X12419800Y-14097000D01*
X12369800Y-14301000D02*
X12369800Y-14401000D01*
X12319800Y-14351000D02*
X12419800Y-14351000D01*
X12369800Y-14555000D02*
X12369800Y-14655000D01*
X12319800Y-14605000D02*
X12419800Y-14605000D01*
X12369800Y-14809000D02*
X12369800Y-14909000D01*
X12319800Y-14859000D02*
X12419800Y-14859000D01*
X12369800Y-15063000D02*
X12369800Y-15163000D01*
X12319800Y-15113000D02*
X12419800Y-15113000D01*
X12369800Y-15317000D02*
X12369800Y-15417000D01*
X12319800Y-15367000D02*
X12419800Y-15367000D01*
X12369800Y-15571000D02*
X12369800Y-15671000D01*
X12319800Y-15621000D02*
X12419800Y-15621000D01*
X12369800Y-15825000D02*
X12369800Y-15925000D01*
X12319800Y-15875000D02*
X12419800Y-15875000D01*
X12369800Y-16079000D02*
X12369800Y-16179000D01*
X12319800Y-16129000D02*
X12419800Y-16129000D01*
X12369800Y-16333000D02*
X12369800Y-16433000D01*
X12319800Y-16383000D02*
X12419800Y-16383000D01*
X12369800Y-16587000D02*
X12369800Y-16687000D01*
X12319800Y-16637000D02*
X12419800Y-16637000D01*
X12369800Y-16841000D02*
X12369800Y-16941000D01*
X12319800Y-16891000D02*
X12419800Y-16891000D01*
X12369800Y-17095000D02*
X12369800Y-17195000D01*
X12319800Y-17145000D02*
X12419800Y-17145000D01*
X12369800Y-17349000D02*
X12369800Y-17449000D01*
X12319800Y-17399000D02*
X12419800Y-17399000D01*
X12369800Y-17603000D02*
X12369800Y-17703000D01*
X12319800Y-17653000D02*
X12419800Y-17653000D01*
X12369800Y-17857000D02*
X12369800Y-17957000D01*
X12319800Y-17907000D02*
X12419800Y-17907000D01*
X12369800Y-18111000D02*
X12369800Y-18211000D01*
X12319800Y-18161000D02*
X12419800Y-18161000D01*
X12369800Y-18365000D02*
X12369800Y-18465000D01*
X12319800Y-18415000D02*
X12419800Y-18415000D01*
X12369800Y-18619000D02*
X12369800Y-18719000D01*
X12319800Y-18669000D02*
X12419800Y-18669000D01*
X12369800Y-18873000D02*
X12369800Y-18973000D01*
X12319800Y-18923000D02*
X12419800Y-18923000D01*
X12623800Y-14047000D02*
X12623800Y-14147000D01*
X12573800Y-14097000D02*
X12673800Y-14097000D01*
X12623800Y-14301000D02*
X12623800Y-14401000D01*
X12573800Y-14351000D02*
X12673800Y-14351000D01*
X12623800Y-14555000D02*
X12623800Y-14655000D01*
X12573800Y-14605000D02*
X12673800Y-14605000D01*
X12623800Y-14809000D02*
X12623800Y-14909000D01*
X12573800Y-14859000D02*
X12673800Y-14859000D01*
X12623800Y-15063000D02*
X12623800Y-15163000D01*
X12573800Y-15113000D02*
X12673800Y-15113000D01*
X12623800Y-15317000D02*
X12623800Y-15417000D01*
X12573800Y-15367000D02*
X12673800Y-15367000D01*
X12623800Y-15571000D02*
X12623800Y-15671000D01*
X12573800Y-15621000D02*
X12673800Y-15621000D01*
X12623800Y-15825000D02*
X12623800Y-15925000D01*
X12573800Y-15875000D02*
X12673800Y-15875000D01*
X12623800Y-16079000D02*
X12623800Y-16179000D01*
X12573800Y-16129000D02*
X12673800Y-16129000D01*
X12623800Y-16333000D02*
X12623800Y-16433000D01*
X12573800Y-16383000D02*
X12673800Y-16383000D01*
X12623800Y-16587000D02*
X12623800Y-16687000D01*
X12573800Y-16637000D02*
X12673800Y-16637000D01*
X12623800Y-16841000D02*
X12623800Y-16941000D01*
X12573800Y-16891000D02*
X12673800Y-16891000D01*
X12623800Y-17095000D02*
X12623800Y-17195000D01*
X12573800Y-17145000D02*
X12673800Y-17145000D01*
X12623800Y-17349000D02*
X12623800Y-17449000D01*
X12573800Y-17399000D02*
X12673800Y-17399000D01*
X12623800Y-17603000D02*
X12623800Y-17703000D01*
X12573800Y-17653000D02*
X12673800Y-17653000D01*
X12623800Y-17857000D02*
X12623800Y-17957000D01*
X12573800Y-17907000D02*
X12673800Y-17907000D01*
X12623800Y-18111000D02*
X12623800Y-18211000D01*
X12573800Y-18161000D02*
X12673800Y-18161000D01*
X12623800Y-18365000D02*
X12623800Y-18465000D01*
X12573800Y-18415000D02*
X12673800Y-18415000D01*
X12623800Y-18619000D02*
X12623800Y-18719000D01*
X12573800Y-18669000D02*
X12673800Y-18669000D01*
X12623800Y-18873000D02*
X12623800Y-18973000D01*
X12573800Y-18923000D02*
X12673800Y-18923000D01*
X9032240Y-12340120D02*
X9032240Y-12440120D01*
X8982240Y-12390120D02*
X9082240Y-12390120D01*
X9286240Y-12340120D02*
X9286240Y-12440120D01*
X9236240Y-12390120D02*
X9336240Y-12390120D01*
X9540240Y-12340120D02*
X9540240Y-12440120D01*
X9490240Y-12390120D02*
X9590240Y-12390120D01*
X8376920Y-17415040D02*
X8376920Y-17515040D01*
X8326920Y-17465040D02*
X8426920Y-17465040D01*
X8376920Y-17669040D02*
X8376920Y-17769040D01*
X8326920Y-17719040D02*
X8426920Y-17719040D01*
X8376920Y-17923040D02*
X8376920Y-18023040D01*
X8326920Y-17973040D02*
X8426920Y-17973040D01*
X8839200Y-18461520D02*
X8839200Y-18561520D01*
X8789200Y-18511520D02*
X8889200Y-18511520D01*
X8839200Y-18715520D02*
X8839200Y-18815520D01*
X8789200Y-18765520D02*
X8889200Y-18765520D01*
X8839200Y-18969520D02*
X8839200Y-19069520D01*
X8789200Y-19019520D02*
X8889200Y-19019520D01*
X8834120Y-17415040D02*
X8834120Y-17515040D01*
X8784120Y-17465040D02*
X8884120Y-17465040D01*
X8834120Y-17669040D02*
X8834120Y-17769040D01*
X8784120Y-17719040D02*
X8884120Y-17719040D01*
X8834120Y-17923040D02*
X8834120Y-18023040D01*
X8784120Y-17973040D02*
X8884120Y-17973040D01*
X11483033Y-18579794D02*
X11483033Y-18473727D01*
X11376966Y-18473727D01*
X11376966Y-18579794D01*
X11483033Y-18579794D01*
X11483033Y-19087794D02*
X11483033Y-18981727D01*
X11376966Y-18981727D01*
X11376966Y-19087794D01*
X11483033Y-19087794D01*
X11737033Y-18833794D02*
X11737033Y-18727727D01*
X11630966Y-18727727D01*
X11630966Y-18833794D01*
X11737033Y-18833794D01*
X11991033Y-18579794D02*
X11991033Y-18473727D01*
X11884966Y-18473727D01*
X11884966Y-18579794D01*
X11991033Y-18579794D01*
X11991033Y-19087794D02*
X11991033Y-18981727D01*
X11884966Y-18981727D01*
X11884966Y-19087794D01*
X11991033Y-19087794D01*
D13*
X8378948Y-19774714D02*
X8378948Y-19474714D01*
X8450377Y-19474714D01*
X8493234Y-19489000D01*
X8521806Y-19517572D01*
X8536091Y-19546143D01*
X8550377Y-19603286D01*
X8550377Y-19646143D01*
X8536091Y-19703286D01*
X8521806Y-19731857D01*
X8493234Y-19760429D01*
X8450377Y-19774714D01*
X8378948Y-19774714D01*
X8678948Y-19774714D02*
X8678948Y-19574714D01*
X8678948Y-19631857D02*
X8693234Y-19603286D01*
X8707520Y-19589000D01*
X8736091Y-19574714D01*
X8764663Y-19574714D01*
X8864663Y-19774714D02*
X8864663Y-19574714D01*
X8864663Y-19474714D02*
X8850377Y-19489000D01*
X8864663Y-19503286D01*
X8878948Y-19489000D01*
X8864663Y-19474714D01*
X8864663Y-19503286D01*
X9050377Y-19774714D02*
X9021806Y-19760429D01*
X9007520Y-19731857D01*
X9007520Y-19474714D01*
X9207520Y-19774714D02*
X9178948Y-19760429D01*
X9164663Y-19731857D01*
X9164663Y-19474714D01*
X9550377Y-19774714D02*
X9550377Y-19474714D01*
X9650377Y-19689000D01*
X9750377Y-19474714D01*
X9750377Y-19774714D01*
X10021806Y-19774714D02*
X10021806Y-19617572D01*
X10007520Y-19589000D01*
X9978948Y-19574714D01*
X9921806Y-19574714D01*
X9893234Y-19589000D01*
X10021806Y-19760429D02*
X9993234Y-19774714D01*
X9921806Y-19774714D01*
X9893234Y-19760429D01*
X9878948Y-19731857D01*
X9878948Y-19703286D01*
X9893234Y-19674714D01*
X9921806Y-19660429D01*
X9993234Y-19660429D01*
X10021806Y-19646143D01*
X10164663Y-19574714D02*
X10164663Y-19874714D01*
X10164663Y-19589000D02*
X10193234Y-19574714D01*
X10250377Y-19574714D01*
X10278948Y-19589000D01*
X10293234Y-19603286D01*
X10307520Y-19631857D01*
X10307520Y-19717572D01*
X10293234Y-19746143D01*
X10278948Y-19760429D01*
X10250377Y-19774714D01*
X10193234Y-19774714D01*
X10164663Y-19760429D01*
X10436091Y-19746143D02*
X10450377Y-19760429D01*
X10436091Y-19774714D01*
X10421806Y-19760429D01*
X10436091Y-19746143D01*
X10436091Y-19774714D01*
X10436091Y-19589000D02*
X10450377Y-19603286D01*
X10436091Y-19617572D01*
X10421806Y-19603286D01*
X10436091Y-19589000D01*
X10436091Y-19617572D01*
X8052520Y-20249000D02*
X8092520Y-20289000D01*
X8092520Y-20249000D02*
X8052520Y-20289000D01*
X8436091Y-20104714D02*
X8464663Y-20104714D01*
X8493234Y-20119000D01*
X8507520Y-20133286D01*
X8521806Y-20161857D01*
X8536091Y-20219000D01*
X8536091Y-20290429D01*
X8521806Y-20347572D01*
X8507520Y-20376143D01*
X8493234Y-20390429D01*
X8464663Y-20404714D01*
X8436091Y-20404714D01*
X8407520Y-20390429D01*
X8393234Y-20376143D01*
X8378948Y-20347572D01*
X8364663Y-20290429D01*
X8364663Y-20219000D01*
X8378948Y-20161857D01*
X8393234Y-20133286D01*
X8407520Y-20119000D01*
X8436091Y-20104714D01*
X8664663Y-20376143D02*
X8678948Y-20390429D01*
X8664663Y-20404714D01*
X8650377Y-20390429D01*
X8664663Y-20376143D01*
X8664663Y-20404714D01*
X8936091Y-20204714D02*
X8936091Y-20404714D01*
X8864663Y-20090429D02*
X8793234Y-20304714D01*
X8978948Y-20304714D01*
X9150377Y-20104714D02*
X9178948Y-20104714D01*
X9207520Y-20119000D01*
X9221806Y-20133286D01*
X9236091Y-20161857D01*
X9250377Y-20219000D01*
X9250377Y-20290429D01*
X9236091Y-20347572D01*
X9221806Y-20376143D01*
X9207520Y-20390429D01*
X9178948Y-20404714D01*
X9150377Y-20404714D01*
X9121806Y-20390429D01*
X9107520Y-20376143D01*
X9093234Y-20347572D01*
X9078948Y-20290429D01*
X9078948Y-20219000D01*
X9093234Y-20161857D01*
X9107520Y-20133286D01*
X9121806Y-20119000D01*
X9150377Y-20104714D01*
X9378948Y-20404714D02*
X9378948Y-20204714D01*
X9378948Y-20233286D02*
X9393234Y-20219000D01*
X9421806Y-20204714D01*
X9464663Y-20204714D01*
X9493234Y-20219000D01*
X9507520Y-20247572D01*
X9507520Y-20404714D01*
X9507520Y-20247572D02*
X9521806Y-20219000D01*
X9550377Y-20204714D01*
X9593234Y-20204714D01*
X9621806Y-20219000D01*
X9636091Y-20247572D01*
X9636091Y-20404714D01*
X9778948Y-20404714D02*
X9778948Y-20204714D01*
X9778948Y-20233286D02*
X9793234Y-20219000D01*
X9821806Y-20204714D01*
X9864663Y-20204714D01*
X9893234Y-20219000D01*
X9907520Y-20247572D01*
X9907520Y-20404714D01*
X9907520Y-20247572D02*
X9921806Y-20219000D01*
X9950377Y-20204714D01*
X9993234Y-20204714D01*
X10021806Y-20219000D01*
X10036091Y-20247572D01*
X10036091Y-20404714D01*
X10621806Y-20090429D02*
X10364663Y-20476143D01*
X11007520Y-20104714D02*
X11036091Y-20104714D01*
X11064663Y-20119000D01*
X11078948Y-20133286D01*
X11093234Y-20161857D01*
X11107520Y-20219000D01*
X11107520Y-20290429D01*
X11093234Y-20347572D01*
X11078948Y-20376143D01*
X11064663Y-20390429D01*
X11036091Y-20404714D01*
X11007520Y-20404714D01*
X10978948Y-20390429D01*
X10964663Y-20376143D01*
X10950377Y-20347572D01*
X10936091Y-20290429D01*
X10936091Y-20219000D01*
X10950377Y-20161857D01*
X10964663Y-20133286D01*
X10978948Y-20119000D01*
X11007520Y-20104714D01*
X11236091Y-20376143D02*
X11250377Y-20390429D01*
X11236091Y-20404714D01*
X11221806Y-20390429D01*
X11236091Y-20376143D01*
X11236091Y-20404714D01*
X11436091Y-20104714D02*
X11464663Y-20104714D01*
X11493234Y-20119000D01*
X11507520Y-20133286D01*
X11521806Y-20161857D01*
X11536091Y-20219000D01*
X11536091Y-20290429D01*
X11521806Y-20347572D01*
X11507520Y-20376143D01*
X11493234Y-20390429D01*
X11464663Y-20404714D01*
X11436091Y-20404714D01*
X11407520Y-20390429D01*
X11393234Y-20376143D01*
X11378948Y-20347572D01*
X11364663Y-20290429D01*
X11364663Y-20219000D01*
X11378948Y-20161857D01*
X11393234Y-20133286D01*
X11407520Y-20119000D01*
X11436091Y-20104714D01*
X11821806Y-20404714D02*
X11650377Y-20404714D01*
X11736091Y-20404714D02*
X11736091Y-20104714D01*
X11707520Y-20147572D01*
X11678948Y-20176143D01*
X11650377Y-20190429D01*
X12078948Y-20104714D02*
X12021806Y-20104714D01*
X11993234Y-20119000D01*
X11978948Y-20133286D01*
X11950377Y-20176143D01*
X11936091Y-20233286D01*
X11936091Y-20347572D01*
X11950377Y-20376143D01*
X11964663Y-20390429D01*
X11993234Y-20404714D01*
X12050377Y-20404714D01*
X12078948Y-20390429D01*
X12093234Y-20376143D01*
X12107520Y-20347572D01*
X12107520Y-20276143D01*
X12093234Y-20247572D01*
X12078948Y-20233286D01*
X12050377Y-20219000D01*
X11993234Y-20219000D01*
X11964663Y-20233286D01*
X11950377Y-20247572D01*
X11936091Y-20276143D01*
X12221806Y-20104714D02*
X12221806Y-20161857D01*
X12336091Y-20104714D02*
X12336091Y-20161857D01*
X12778948Y-20519000D02*
X12764663Y-20504714D01*
X12736091Y-20461857D01*
X12721806Y-20433286D01*
X12707520Y-20390429D01*
X12693234Y-20319000D01*
X12693234Y-20261857D01*
X12707520Y-20190429D01*
X12721806Y-20147572D01*
X12736091Y-20119000D01*
X12764663Y-20076143D01*
X12778948Y-20061857D01*
X13021806Y-20104714D02*
X12964663Y-20104714D01*
X12936091Y-20119000D01*
X12921806Y-20133286D01*
X12893234Y-20176143D01*
X12878948Y-20233286D01*
X12878948Y-20347572D01*
X12893234Y-20376143D01*
X12907520Y-20390429D01*
X12936091Y-20404714D01*
X12993234Y-20404714D01*
X13021806Y-20390429D01*
X13036091Y-20376143D01*
X13050377Y-20347572D01*
X13050377Y-20276143D01*
X13036091Y-20247572D01*
X13021806Y-20233286D01*
X12993234Y-20219000D01*
X12936091Y-20219000D01*
X12907520Y-20233286D01*
X12893234Y-20247572D01*
X12878948Y-20276143D01*
X13307520Y-20204714D02*
X13307520Y-20404714D01*
X13236091Y-20090429D02*
X13164663Y-20304714D01*
X13350377Y-20304714D01*
X13693234Y-20404714D02*
X13693234Y-20104714D01*
X13821806Y-20404714D02*
X13821806Y-20247572D01*
X13807520Y-20219000D01*
X13778948Y-20204714D01*
X13736091Y-20204714D01*
X13707520Y-20219000D01*
X13693234Y-20233286D01*
X14007520Y-20404714D02*
X13978948Y-20390429D01*
X13964663Y-20376143D01*
X13950377Y-20347572D01*
X13950377Y-20261857D01*
X13964663Y-20233286D01*
X13978948Y-20219000D01*
X14007520Y-20204714D01*
X14050377Y-20204714D01*
X14078948Y-20219000D01*
X14093234Y-20233286D01*
X14107520Y-20261857D01*
X14107520Y-20347572D01*
X14093234Y-20376143D01*
X14078948Y-20390429D01*
X14050377Y-20404714D01*
X14007520Y-20404714D01*
X14278948Y-20404714D02*
X14250377Y-20390429D01*
X14236091Y-20361857D01*
X14236091Y-20104714D01*
X14507520Y-20390429D02*
X14478948Y-20404714D01*
X14421806Y-20404714D01*
X14393234Y-20390429D01*
X14378948Y-20361857D01*
X14378948Y-20247572D01*
X14393234Y-20219000D01*
X14421806Y-20204714D01*
X14478948Y-20204714D01*
X14507520Y-20219000D01*
X14521806Y-20247572D01*
X14521806Y-20276143D01*
X14378948Y-20304714D01*
X14636091Y-20390429D02*
X14664663Y-20404714D01*
X14721806Y-20404714D01*
X14750377Y-20390429D01*
X14764663Y-20361857D01*
X14764663Y-20347572D01*
X14750377Y-20319000D01*
X14721806Y-20304714D01*
X14678948Y-20304714D01*
X14650377Y-20290429D01*
X14636091Y-20261857D01*
X14636091Y-20247572D01*
X14650377Y-20219000D01*
X14678948Y-20204714D01*
X14721806Y-20204714D01*
X14750377Y-20219000D01*
X14864663Y-20519000D02*
X14878948Y-20504714D01*
X14907520Y-20461857D01*
X14921806Y-20433286D01*
X14936091Y-20390429D01*
X14950377Y-20319000D01*
X14950377Y-20261857D01*
X14936091Y-20190429D01*
X14921806Y-20147572D01*
X14907520Y-20119000D01*
X14878948Y-20076143D01*
X14864663Y-20061857D01*
X8092520Y-20665000D02*
G75*
G03*
X8092520Y-20665000I-25000J0D01*
G01*
X8436091Y-20500714D02*
X8464663Y-20500714D01*
X8493234Y-20515000D01*
X8507520Y-20529286D01*
X8521806Y-20557857D01*
X8536091Y-20615000D01*
X8536091Y-20686429D01*
X8521806Y-20743572D01*
X8507520Y-20772143D01*
X8493234Y-20786429D01*
X8464663Y-20800714D01*
X8436091Y-20800714D01*
X8407520Y-20786429D01*
X8393234Y-20772143D01*
X8378948Y-20743572D01*
X8364663Y-20686429D01*
X8364663Y-20615000D01*
X8378948Y-20557857D01*
X8393234Y-20529286D01*
X8407520Y-20515000D01*
X8436091Y-20500714D01*
X8664663Y-20772143D02*
X8678948Y-20786429D01*
X8664663Y-20800714D01*
X8650377Y-20786429D01*
X8664663Y-20772143D01*
X8664663Y-20800714D01*
X8950377Y-20500714D02*
X8807520Y-20500714D01*
X8793234Y-20643572D01*
X8807520Y-20629286D01*
X8836091Y-20615000D01*
X8907520Y-20615000D01*
X8936091Y-20629286D01*
X8950377Y-20643572D01*
X8964663Y-20672143D01*
X8964663Y-20743572D01*
X8950377Y-20772143D01*
X8936091Y-20786429D01*
X8907520Y-20800714D01*
X8836091Y-20800714D01*
X8807520Y-20786429D01*
X8793234Y-20772143D01*
X9150377Y-20500714D02*
X9178948Y-20500714D01*
X9207520Y-20515000D01*
X9221806Y-20529286D01*
X9236091Y-20557857D01*
X9250377Y-20615000D01*
X9250377Y-20686429D01*
X9236091Y-20743572D01*
X9221806Y-20772143D01*
X9207520Y-20786429D01*
X9178948Y-20800714D01*
X9150377Y-20800714D01*
X9121806Y-20786429D01*
X9107520Y-20772143D01*
X9093234Y-20743572D01*
X9078948Y-20686429D01*
X9078948Y-20615000D01*
X9093234Y-20557857D01*
X9107520Y-20529286D01*
X9121806Y-20515000D01*
X9150377Y-20500714D01*
X9378948Y-20800714D02*
X9378948Y-20600714D01*
X9378948Y-20629286D02*
X9393234Y-20615000D01*
X9421806Y-20600714D01*
X9464663Y-20600714D01*
X9493234Y-20615000D01*
X9507520Y-20643572D01*
X9507520Y-20800714D01*
X9507520Y-20643572D02*
X9521806Y-20615000D01*
X9550377Y-20600714D01*
X9593234Y-20600714D01*
X9621806Y-20615000D01*
X9636091Y-20643572D01*
X9636091Y-20800714D01*
X9778948Y-20800714D02*
X9778948Y-20600714D01*
X9778948Y-20629286D02*
X9793234Y-20615000D01*
X9821806Y-20600714D01*
X9864663Y-20600714D01*
X9893234Y-20615000D01*
X9907520Y-20643572D01*
X9907520Y-20800714D01*
X9907520Y-20643572D02*
X9921806Y-20615000D01*
X9950377Y-20600714D01*
X9993234Y-20600714D01*
X10021806Y-20615000D01*
X10036091Y-20643572D01*
X10036091Y-20800714D01*
X10621806Y-20486429D02*
X10364663Y-20872143D01*
X11007520Y-20500714D02*
X11036091Y-20500714D01*
X11064663Y-20515000D01*
X11078948Y-20529286D01*
X11093234Y-20557857D01*
X11107520Y-20615000D01*
X11107520Y-20686429D01*
X11093234Y-20743572D01*
X11078948Y-20772143D01*
X11064663Y-20786429D01*
X11036091Y-20800714D01*
X11007520Y-20800714D01*
X10978948Y-20786429D01*
X10964663Y-20772143D01*
X10950377Y-20743572D01*
X10936091Y-20686429D01*
X10936091Y-20615000D01*
X10950377Y-20557857D01*
X10964663Y-20529286D01*
X10978948Y-20515000D01*
X11007520Y-20500714D01*
X11236091Y-20772143D02*
X11250377Y-20786429D01*
X11236091Y-20800714D01*
X11221806Y-20786429D01*
X11236091Y-20772143D01*
X11236091Y-20800714D01*
X11436091Y-20500714D02*
X11464663Y-20500714D01*
X11493234Y-20515000D01*
X11507520Y-20529286D01*
X11521806Y-20557857D01*
X11536091Y-20615000D01*
X11536091Y-20686429D01*
X11521806Y-20743572D01*
X11507520Y-20772143D01*
X11493234Y-20786429D01*
X11464663Y-20800714D01*
X11436091Y-20800714D01*
X11407520Y-20786429D01*
X11393234Y-20772143D01*
X11378948Y-20743572D01*
X11364663Y-20686429D01*
X11364663Y-20615000D01*
X11378948Y-20557857D01*
X11393234Y-20529286D01*
X11407520Y-20515000D01*
X11436091Y-20500714D01*
X11650377Y-20529286D02*
X11664663Y-20515000D01*
X11693234Y-20500714D01*
X11764663Y-20500714D01*
X11793234Y-20515000D01*
X11807520Y-20529286D01*
X11821806Y-20557857D01*
X11821806Y-20586429D01*
X11807520Y-20629286D01*
X11636091Y-20800714D01*
X11821806Y-20800714D01*
X12007520Y-20500714D02*
X12036091Y-20500714D01*
X12064663Y-20515000D01*
X12078948Y-20529286D01*
X12093234Y-20557857D01*
X12107520Y-20615000D01*
X12107520Y-20686429D01*
X12093234Y-20743572D01*
X12078948Y-20772143D01*
X12064663Y-20786429D01*
X12036091Y-20800714D01*
X12007520Y-20800714D01*
X11978948Y-20786429D01*
X11964663Y-20772143D01*
X11950377Y-20743572D01*
X11936091Y-20686429D01*
X11936091Y-20615000D01*
X11950377Y-20557857D01*
X11964663Y-20529286D01*
X11978948Y-20515000D01*
X12007520Y-20500714D01*
X12221806Y-20500714D02*
X12221806Y-20557857D01*
X12336091Y-20500714D02*
X12336091Y-20557857D01*
X12778948Y-20915000D02*
X12764663Y-20900714D01*
X12736091Y-20857857D01*
X12721806Y-20829286D01*
X12707520Y-20786429D01*
X12693234Y-20715000D01*
X12693234Y-20657857D01*
X12707520Y-20586429D01*
X12721806Y-20543572D01*
X12736091Y-20515000D01*
X12764663Y-20472143D01*
X12778948Y-20457857D01*
X12907520Y-20800714D02*
X12964663Y-20800714D01*
X12993234Y-20786429D01*
X13007520Y-20772143D01*
X13036091Y-20729286D01*
X13050377Y-20672143D01*
X13050377Y-20557857D01*
X13036091Y-20529286D01*
X13021806Y-20515000D01*
X12993234Y-20500714D01*
X12936091Y-20500714D01*
X12907520Y-20515000D01*
X12893234Y-20529286D01*
X12878948Y-20557857D01*
X12878948Y-20629286D01*
X12893234Y-20657857D01*
X12907520Y-20672143D01*
X12936091Y-20686429D01*
X12993234Y-20686429D01*
X13021806Y-20672143D01*
X13036091Y-20657857D01*
X13050377Y-20629286D01*
X13164663Y-20529286D02*
X13178948Y-20515000D01*
X13207520Y-20500714D01*
X13278948Y-20500714D01*
X13307520Y-20515000D01*
X13321806Y-20529286D01*
X13336091Y-20557857D01*
X13336091Y-20586429D01*
X13321806Y-20629286D01*
X13150377Y-20800714D01*
X13336091Y-20800714D01*
X13693234Y-20800714D02*
X13693234Y-20500714D01*
X13821806Y-20800714D02*
X13821806Y-20643572D01*
X13807520Y-20615000D01*
X13778948Y-20600714D01*
X13736091Y-20600714D01*
X13707520Y-20615000D01*
X13693234Y-20629286D01*
X14007520Y-20800714D02*
X13978948Y-20786429D01*
X13964663Y-20772143D01*
X13950377Y-20743572D01*
X13950377Y-20657857D01*
X13964663Y-20629286D01*
X13978948Y-20615000D01*
X14007520Y-20600714D01*
X14050377Y-20600714D01*
X14078948Y-20615000D01*
X14093234Y-20629286D01*
X14107520Y-20657857D01*
X14107520Y-20743572D01*
X14093234Y-20772143D01*
X14078948Y-20786429D01*
X14050377Y-20800714D01*
X14007520Y-20800714D01*
X14278948Y-20800714D02*
X14250377Y-20786429D01*
X14236091Y-20757857D01*
X14236091Y-20500714D01*
X14507520Y-20786429D02*
X14478948Y-20800714D01*
X14421806Y-20800714D01*
X14393234Y-20786429D01*
X14378948Y-20757857D01*
X14378948Y-20643572D01*
X14393234Y-20615000D01*
X14421806Y-20600714D01*
X14478948Y-20600714D01*
X14507520Y-20615000D01*
X14521806Y-20643572D01*
X14521806Y-20672143D01*
X14378948Y-20700714D01*
X14636091Y-20786429D02*
X14664663Y-20800714D01*
X14721806Y-20800714D01*
X14750377Y-20786429D01*
X14764663Y-20757857D01*
X14764663Y-20743572D01*
X14750377Y-20715000D01*
X14721806Y-20700714D01*
X14678948Y-20700714D01*
X14650377Y-20686429D01*
X14636091Y-20657857D01*
X14636091Y-20643572D01*
X14650377Y-20615000D01*
X14678948Y-20600714D01*
X14721806Y-20600714D01*
X14750377Y-20615000D01*
X14864663Y-20915000D02*
X14878948Y-20900714D01*
X14907520Y-20857857D01*
X14921806Y-20829286D01*
X14936091Y-20786429D01*
X14950377Y-20715000D01*
X14950377Y-20657857D01*
X14936091Y-20586429D01*
X14921806Y-20543572D01*
X14907520Y-20515000D01*
X14878948Y-20472143D01*
X14864663Y-20457857D01*
X8042520Y-21011000D02*
X8042520Y-21111000D01*
X7992520Y-21061000D02*
X8092520Y-21061000D01*
X8536091Y-21196714D02*
X8364663Y-21196714D01*
X8450377Y-21196714D02*
X8450377Y-20896714D01*
X8421806Y-20939572D01*
X8393234Y-20968143D01*
X8364663Y-20982429D01*
X8664663Y-21168143D02*
X8678948Y-21182429D01*
X8664663Y-21196714D01*
X8650377Y-21182429D01*
X8664663Y-21168143D01*
X8664663Y-21196714D01*
X8864663Y-20896714D02*
X8893234Y-20896714D01*
X8921806Y-20911000D01*
X8936091Y-20925286D01*
X8950377Y-20953857D01*
X8964663Y-21011000D01*
X8964663Y-21082429D01*
X8950377Y-21139572D01*
X8936091Y-21168143D01*
X8921806Y-21182429D01*
X8893234Y-21196714D01*
X8864663Y-21196714D01*
X8836091Y-21182429D01*
X8821806Y-21168143D01*
X8807520Y-21139572D01*
X8793234Y-21082429D01*
X8793234Y-21011000D01*
X8807520Y-20953857D01*
X8821806Y-20925286D01*
X8836091Y-20911000D01*
X8864663Y-20896714D01*
X9150377Y-20896714D02*
X9178948Y-20896714D01*
X9207520Y-20911000D01*
X9221806Y-20925286D01*
X9236091Y-20953857D01*
X9250377Y-21011000D01*
X9250377Y-21082429D01*
X9236091Y-21139572D01*
X9221806Y-21168143D01*
X9207520Y-21182429D01*
X9178948Y-21196714D01*
X9150377Y-21196714D01*
X9121806Y-21182429D01*
X9107520Y-21168143D01*
X9093234Y-21139572D01*
X9078948Y-21082429D01*
X9078948Y-21011000D01*
X9093234Y-20953857D01*
X9107520Y-20925286D01*
X9121806Y-20911000D01*
X9150377Y-20896714D01*
X9378948Y-21196714D02*
X9378948Y-20996714D01*
X9378948Y-21025286D02*
X9393234Y-21011000D01*
X9421806Y-20996714D01*
X9464663Y-20996714D01*
X9493234Y-21011000D01*
X9507520Y-21039572D01*
X9507520Y-21196714D01*
X9507520Y-21039572D02*
X9521806Y-21011000D01*
X9550377Y-20996714D01*
X9593234Y-20996714D01*
X9621806Y-21011000D01*
X9636091Y-21039572D01*
X9636091Y-21196714D01*
X9778948Y-21196714D02*
X9778948Y-20996714D01*
X9778948Y-21025286D02*
X9793234Y-21011000D01*
X9821806Y-20996714D01*
X9864663Y-20996714D01*
X9893234Y-21011000D01*
X9907520Y-21039572D01*
X9907520Y-21196714D01*
X9907520Y-21039572D02*
X9921806Y-21011000D01*
X9950377Y-20996714D01*
X9993234Y-20996714D01*
X10021806Y-21011000D01*
X10036091Y-21039572D01*
X10036091Y-21196714D01*
X10621806Y-20882429D02*
X10364663Y-21268143D01*
X11007520Y-20896714D02*
X11036091Y-20896714D01*
X11064663Y-20911000D01*
X11078948Y-20925286D01*
X11093234Y-20953857D01*
X11107520Y-21011000D01*
X11107520Y-21082429D01*
X11093234Y-21139572D01*
X11078948Y-21168143D01*
X11064663Y-21182429D01*
X11036091Y-21196714D01*
X11007520Y-21196714D01*
X10978948Y-21182429D01*
X10964663Y-21168143D01*
X10950377Y-21139572D01*
X10936091Y-21082429D01*
X10936091Y-21011000D01*
X10950377Y-20953857D01*
X10964663Y-20925286D01*
X10978948Y-20911000D01*
X11007520Y-20896714D01*
X11236091Y-21168143D02*
X11250377Y-21182429D01*
X11236091Y-21196714D01*
X11221806Y-21182429D01*
X11236091Y-21168143D01*
X11236091Y-21196714D01*
X11436091Y-20896714D02*
X11464663Y-20896714D01*
X11493234Y-20911000D01*
X11507520Y-20925286D01*
X11521806Y-20953857D01*
X11536091Y-21011000D01*
X11536091Y-21082429D01*
X11521806Y-21139572D01*
X11507520Y-21168143D01*
X11493234Y-21182429D01*
X11464663Y-21196714D01*
X11436091Y-21196714D01*
X11407520Y-21182429D01*
X11393234Y-21168143D01*
X11378948Y-21139572D01*
X11364663Y-21082429D01*
X11364663Y-21011000D01*
X11378948Y-20953857D01*
X11393234Y-20925286D01*
X11407520Y-20911000D01*
X11436091Y-20896714D01*
X11636091Y-20896714D02*
X11821806Y-20896714D01*
X11721806Y-21011000D01*
X11764663Y-21011000D01*
X11793234Y-21025286D01*
X11807520Y-21039572D01*
X11821806Y-21068143D01*
X11821806Y-21139572D01*
X11807520Y-21168143D01*
X11793234Y-21182429D01*
X11764663Y-21196714D01*
X11678948Y-21196714D01*
X11650377Y-21182429D01*
X11636091Y-21168143D01*
X11964663Y-21196714D02*
X12021806Y-21196714D01*
X12050377Y-21182429D01*
X12064663Y-21168143D01*
X12093234Y-21125286D01*
X12107520Y-21068143D01*
X12107520Y-20953857D01*
X12093234Y-20925286D01*
X12078948Y-20911000D01*
X12050377Y-20896714D01*
X11993234Y-20896714D01*
X11964663Y-20911000D01*
X11950377Y-20925286D01*
X11936091Y-20953857D01*
X11936091Y-21025286D01*
X11950377Y-21053857D01*
X11964663Y-21068143D01*
X11993234Y-21082429D01*
X12050377Y-21082429D01*
X12078948Y-21068143D01*
X12093234Y-21053857D01*
X12107520Y-21025286D01*
X12221806Y-20896714D02*
X12221806Y-20953857D01*
X12336091Y-20896714D02*
X12336091Y-20953857D01*
X12778948Y-21311000D02*
X12764663Y-21296714D01*
X12736091Y-21253857D01*
X12721806Y-21225286D01*
X12707520Y-21182429D01*
X12693234Y-21111000D01*
X12693234Y-21053857D01*
X12707520Y-20982429D01*
X12721806Y-20939572D01*
X12736091Y-20911000D01*
X12764663Y-20868143D01*
X12778948Y-20853857D01*
X12936091Y-21025286D02*
X12907520Y-21011000D01*
X12893234Y-20996714D01*
X12878948Y-20968143D01*
X12878948Y-20953857D01*
X12893234Y-20925286D01*
X12907520Y-20911000D01*
X12936091Y-20896714D01*
X12993234Y-20896714D01*
X13021806Y-20911000D01*
X13036091Y-20925286D01*
X13050377Y-20953857D01*
X13050377Y-20968143D01*
X13036091Y-20996714D01*
X13021806Y-21011000D01*
X12993234Y-21025286D01*
X12936091Y-21025286D01*
X12907520Y-21039572D01*
X12893234Y-21053857D01*
X12878948Y-21082429D01*
X12878948Y-21139572D01*
X12893234Y-21168143D01*
X12907520Y-21182429D01*
X12936091Y-21196714D01*
X12993234Y-21196714D01*
X13021806Y-21182429D01*
X13036091Y-21168143D01*
X13050377Y-21139572D01*
X13050377Y-21082429D01*
X13036091Y-21053857D01*
X13021806Y-21039572D01*
X12993234Y-21025286D01*
X13236091Y-20896714D02*
X13264663Y-20896714D01*
X13293234Y-20911000D01*
X13307520Y-20925286D01*
X13321806Y-20953857D01*
X13336091Y-21011000D01*
X13336091Y-21082429D01*
X13321806Y-21139572D01*
X13307520Y-21168143D01*
X13293234Y-21182429D01*
X13264663Y-21196714D01*
X13236091Y-21196714D01*
X13207520Y-21182429D01*
X13193234Y-21168143D01*
X13178948Y-21139572D01*
X13164663Y-21082429D01*
X13164663Y-21011000D01*
X13178948Y-20953857D01*
X13193234Y-20925286D01*
X13207520Y-20911000D01*
X13236091Y-20896714D01*
X13693234Y-21196714D02*
X13693234Y-20896714D01*
X13821806Y-21196714D02*
X13821806Y-21039572D01*
X13807520Y-21011000D01*
X13778948Y-20996714D01*
X13736091Y-20996714D01*
X13707520Y-21011000D01*
X13693234Y-21025286D01*
X14007520Y-21196714D02*
X13978948Y-21182429D01*
X13964663Y-21168143D01*
X13950377Y-21139572D01*
X13950377Y-21053857D01*
X13964663Y-21025286D01*
X13978948Y-21011000D01*
X14007520Y-20996714D01*
X14050377Y-20996714D01*
X14078948Y-21011000D01*
X14093234Y-21025286D01*
X14107520Y-21053857D01*
X14107520Y-21139572D01*
X14093234Y-21168143D01*
X14078948Y-21182429D01*
X14050377Y-21196714D01*
X14007520Y-21196714D01*
X14278948Y-21196714D02*
X14250377Y-21182429D01*
X14236091Y-21153857D01*
X14236091Y-20896714D01*
X14507520Y-21182429D02*
X14478948Y-21196714D01*
X14421806Y-21196714D01*
X14393234Y-21182429D01*
X14378948Y-21153857D01*
X14378948Y-21039572D01*
X14393234Y-21011000D01*
X14421806Y-20996714D01*
X14478948Y-20996714D01*
X14507520Y-21011000D01*
X14521806Y-21039572D01*
X14521806Y-21068143D01*
X14378948Y-21096714D01*
X14636091Y-21182429D02*
X14664663Y-21196714D01*
X14721806Y-21196714D01*
X14750377Y-21182429D01*
X14764663Y-21153857D01*
X14764663Y-21139572D01*
X14750377Y-21111000D01*
X14721806Y-21096714D01*
X14678948Y-21096714D01*
X14650377Y-21082429D01*
X14636091Y-21053857D01*
X14636091Y-21039572D01*
X14650377Y-21011000D01*
X14678948Y-20996714D01*
X14721806Y-20996714D01*
X14750377Y-21011000D01*
X14864663Y-21311000D02*
X14878948Y-21296714D01*
X14907520Y-21253857D01*
X14921806Y-21225286D01*
X14936091Y-21182429D01*
X14950377Y-21111000D01*
X14950377Y-21053857D01*
X14936091Y-20982429D01*
X14921806Y-20939572D01*
X14907520Y-20911000D01*
X14878948Y-20868143D01*
X14864663Y-20853857D01*
X8070553Y-21510034D02*
X8070553Y-21403967D01*
X7964486Y-21403967D01*
X7964486Y-21510034D01*
X8070553Y-21510034D01*
X8536091Y-21592714D02*
X8364663Y-21592714D01*
X8450377Y-21592714D02*
X8450377Y-21292714D01*
X8421806Y-21335572D01*
X8393234Y-21364143D01*
X8364663Y-21378429D01*
X8664663Y-21564143D02*
X8678948Y-21578429D01*
X8664663Y-21592714D01*
X8650377Y-21578429D01*
X8664663Y-21564143D01*
X8664663Y-21592714D01*
X8950377Y-21292714D02*
X8807520Y-21292714D01*
X8793234Y-21435572D01*
X8807520Y-21421286D01*
X8836091Y-21407000D01*
X8907520Y-21407000D01*
X8936091Y-21421286D01*
X8950377Y-21435572D01*
X8964663Y-21464143D01*
X8964663Y-21535572D01*
X8950377Y-21564143D01*
X8936091Y-21578429D01*
X8907520Y-21592714D01*
X8836091Y-21592714D01*
X8807520Y-21578429D01*
X8793234Y-21564143D01*
X9150377Y-21292714D02*
X9178948Y-21292714D01*
X9207520Y-21307000D01*
X9221806Y-21321286D01*
X9236091Y-21349857D01*
X9250377Y-21407000D01*
X9250377Y-21478429D01*
X9236091Y-21535572D01*
X9221806Y-21564143D01*
X9207520Y-21578429D01*
X9178948Y-21592714D01*
X9150377Y-21592714D01*
X9121806Y-21578429D01*
X9107520Y-21564143D01*
X9093234Y-21535572D01*
X9078948Y-21478429D01*
X9078948Y-21407000D01*
X9093234Y-21349857D01*
X9107520Y-21321286D01*
X9121806Y-21307000D01*
X9150377Y-21292714D01*
X9378948Y-21592714D02*
X9378948Y-21392714D01*
X9378948Y-21421286D02*
X9393234Y-21407000D01*
X9421806Y-21392714D01*
X9464663Y-21392714D01*
X9493234Y-21407000D01*
X9507520Y-21435572D01*
X9507520Y-21592714D01*
X9507520Y-21435572D02*
X9521806Y-21407000D01*
X9550377Y-21392714D01*
X9593234Y-21392714D01*
X9621806Y-21407000D01*
X9636091Y-21435572D01*
X9636091Y-21592714D01*
X9778948Y-21592714D02*
X9778948Y-21392714D01*
X9778948Y-21421286D02*
X9793234Y-21407000D01*
X9821806Y-21392714D01*
X9864663Y-21392714D01*
X9893234Y-21407000D01*
X9907520Y-21435572D01*
X9907520Y-21592714D01*
X9907520Y-21435572D02*
X9921806Y-21407000D01*
X9950377Y-21392714D01*
X9993234Y-21392714D01*
X10021806Y-21407000D01*
X10036091Y-21435572D01*
X10036091Y-21592714D01*
X10621806Y-21278429D02*
X10364663Y-21664143D01*
X11007520Y-21292714D02*
X11036091Y-21292714D01*
X11064663Y-21307000D01*
X11078948Y-21321286D01*
X11093234Y-21349857D01*
X11107520Y-21407000D01*
X11107520Y-21478429D01*
X11093234Y-21535572D01*
X11078948Y-21564143D01*
X11064663Y-21578429D01*
X11036091Y-21592714D01*
X11007520Y-21592714D01*
X10978948Y-21578429D01*
X10964663Y-21564143D01*
X10950377Y-21535572D01*
X10936091Y-21478429D01*
X10936091Y-21407000D01*
X10950377Y-21349857D01*
X10964663Y-21321286D01*
X10978948Y-21307000D01*
X11007520Y-21292714D01*
X11236091Y-21564143D02*
X11250377Y-21578429D01*
X11236091Y-21592714D01*
X11221806Y-21578429D01*
X11236091Y-21564143D01*
X11236091Y-21592714D01*
X11436091Y-21292714D02*
X11464663Y-21292714D01*
X11493234Y-21307000D01*
X11507520Y-21321286D01*
X11521806Y-21349857D01*
X11536091Y-21407000D01*
X11536091Y-21478429D01*
X11521806Y-21535572D01*
X11507520Y-21564143D01*
X11493234Y-21578429D01*
X11464663Y-21592714D01*
X11436091Y-21592714D01*
X11407520Y-21578429D01*
X11393234Y-21564143D01*
X11378948Y-21535572D01*
X11364663Y-21478429D01*
X11364663Y-21407000D01*
X11378948Y-21349857D01*
X11393234Y-21321286D01*
X11407520Y-21307000D01*
X11436091Y-21292714D01*
X11807520Y-21292714D02*
X11664663Y-21292714D01*
X11650377Y-21435572D01*
X11664663Y-21421286D01*
X11693234Y-21407000D01*
X11764663Y-21407000D01*
X11793234Y-21421286D01*
X11807520Y-21435572D01*
X11821806Y-21464143D01*
X11821806Y-21535572D01*
X11807520Y-21564143D01*
X11793234Y-21578429D01*
X11764663Y-21592714D01*
X11693234Y-21592714D01*
X11664663Y-21578429D01*
X11650377Y-21564143D01*
X11964663Y-21592714D02*
X12021806Y-21592714D01*
X12050377Y-21578429D01*
X12064663Y-21564143D01*
X12093234Y-21521286D01*
X12107520Y-21464143D01*
X12107520Y-21349857D01*
X12093234Y-21321286D01*
X12078948Y-21307000D01*
X12050377Y-21292714D01*
X11993234Y-21292714D01*
X11964663Y-21307000D01*
X11950377Y-21321286D01*
X11936091Y-21349857D01*
X11936091Y-21421286D01*
X11950377Y-21449857D01*
X11964663Y-21464143D01*
X11993234Y-21478429D01*
X12050377Y-21478429D01*
X12078948Y-21464143D01*
X12093234Y-21449857D01*
X12107520Y-21421286D01*
X12221806Y-21292714D02*
X12221806Y-21349857D01*
X12336091Y-21292714D02*
X12336091Y-21349857D01*
X12778948Y-21707000D02*
X12764663Y-21692714D01*
X12736091Y-21649857D01*
X12721806Y-21621286D01*
X12707520Y-21578429D01*
X12693234Y-21507000D01*
X12693234Y-21449857D01*
X12707520Y-21378429D01*
X12721806Y-21335572D01*
X12736091Y-21307000D01*
X12764663Y-21264143D01*
X12778948Y-21249857D01*
X13036091Y-21292714D02*
X12893234Y-21292714D01*
X12878948Y-21435572D01*
X12893234Y-21421286D01*
X12921806Y-21407000D01*
X12993234Y-21407000D01*
X13021806Y-21421286D01*
X13036091Y-21435572D01*
X13050377Y-21464143D01*
X13050377Y-21535572D01*
X13036091Y-21564143D01*
X13021806Y-21578429D01*
X12993234Y-21592714D01*
X12921806Y-21592714D01*
X12893234Y-21578429D01*
X12878948Y-21564143D01*
X13407520Y-21592714D02*
X13407520Y-21292714D01*
X13536091Y-21592714D02*
X13536091Y-21435572D01*
X13521806Y-21407000D01*
X13493234Y-21392714D01*
X13450377Y-21392714D01*
X13421806Y-21407000D01*
X13407520Y-21421286D01*
X13721806Y-21592714D02*
X13693234Y-21578429D01*
X13678948Y-21564143D01*
X13664663Y-21535572D01*
X13664663Y-21449857D01*
X13678948Y-21421286D01*
X13693234Y-21407000D01*
X13721806Y-21392714D01*
X13764663Y-21392714D01*
X13793234Y-21407000D01*
X13807520Y-21421286D01*
X13821806Y-21449857D01*
X13821806Y-21535572D01*
X13807520Y-21564143D01*
X13793234Y-21578429D01*
X13764663Y-21592714D01*
X13721806Y-21592714D01*
X13993234Y-21592714D02*
X13964663Y-21578429D01*
X13950377Y-21549857D01*
X13950377Y-21292714D01*
X14221806Y-21578429D02*
X14193234Y-21592714D01*
X14136091Y-21592714D01*
X14107520Y-21578429D01*
X14093234Y-21549857D01*
X14093234Y-21435572D01*
X14107520Y-21407000D01*
X14136091Y-21392714D01*
X14193234Y-21392714D01*
X14221806Y-21407000D01*
X14236091Y-21435572D01*
X14236091Y-21464143D01*
X14093234Y-21492714D01*
X14350377Y-21578429D02*
X14378948Y-21592714D01*
X14436091Y-21592714D01*
X14464663Y-21578429D01*
X14478948Y-21549857D01*
X14478948Y-21535572D01*
X14464663Y-21507000D01*
X14436091Y-21492714D01*
X14393234Y-21492714D01*
X14364663Y-21478429D01*
X14350377Y-21449857D01*
X14350377Y-21435572D01*
X14364663Y-21407000D01*
X14393234Y-21392714D01*
X14436091Y-21392714D01*
X14464663Y-21407000D01*
X14578948Y-21707000D02*
X14593234Y-21692714D01*
X14621806Y-21649857D01*
X14636091Y-21621286D01*
X14650377Y-21578429D01*
X14664663Y-21507000D01*
X14664663Y-21449857D01*
X14650377Y-21378429D01*
X14636091Y-21335572D01*
X14621806Y-21307000D01*
X14593234Y-21264143D01*
X14578948Y-21249857D01*
M02*
