M48
; DRILL file {KiCad (5.1.6)-1} date 10/25/21 07:35:05
; FORMAT={-:-/ absolute / metric / decimal}
; #@! TF.CreationDate,2021-10-25T07:35:05+01:00
; #@! TF.GenerationSoftware,Kicad,Pcbnew,(5.1.6)-1
; #@! TF.FileFunction,Plated,1,4,PTH
FMAT,2
METRIC
T1C0.400
T2C0.500
T3C1.000
T4C1.500
%
G90
G05
T1
X85.192Y-160.579
X85.192Y-161.646
X85.242Y-164.338
X85.903Y-160.579
X85.903Y-161.646
X86.004Y-163.322
X86.665Y-160.579
X86.665Y-161.696
X86.665Y-164.49
X89.357Y-160.274
X90.17Y-154.076
X90.17Y-156.413
X90.729Y-160.122
X93.167Y-149.86
X93.878Y-163.17
X94.031Y-150.47
X94.082Y-164.643
X94.336Y-161.442
X94.336Y-162.204
X94.386Y-159.156
X94.488Y-160.071
X94.844Y-163.932
X94.844Y-169.012
X96.164Y-167.589
X96.317Y-144.323
X96.368Y-156.312
X96.419Y-177.039
X96.469Y-145.288
X96.825Y-164.643
X96.876Y-143.662
X97.079Y-163.728
X97.13Y-167.488
X97.139Y-162.662
X98.095Y-173.99
X98.4Y-160.122
X98.501Y-159.36
X98.958Y-161.188
X99.263Y-159.004
X99.873Y-164.186
X99.873Y-173.076
X100.178Y-165.252
X100.533Y-152.4
X101.295Y-178.918
X102.108Y-179.527
X102.362Y-159.512
X102.819Y-163.322
X102.972Y-161.595
X103.073Y-178.613
X103.53Y-155.651
X104.851Y-173.076
X105.258Y-153.314
X105.816Y-173.99
X107.34Y-167.945
X110.261Y-169.037
X112.522Y-167.945
X114.402Y-164.033
X114.808Y-159.614
X114.935Y-167.107
X114.96Y-161.138
X115.316Y-162.001
X115.316Y-164.897
X116.281Y-155.245
X119.532Y-168.605
X119.837Y-145.288
T2
X84.379Y-145.694
X84.43Y-158.394
X85.649Y-155.143
X86.208Y-148.895
X86.258Y-146.406
X87.122Y-130.658
X87.325Y-137.82
X89.357Y-128.27
X89.366Y-133.138
X89.51Y-135.484
X89.51Y-150.978
X89.519Y-140.148
X90.17Y-149.352
X90.83Y-169.57
X90.881Y-157.988
X91.034Y-146.152
X91.034Y-164.897
X92.507Y-152.654
X92.761Y-166.116
X92.913Y-133.096
X93.269Y-140.157
X93.269Y-155.804
X93.472Y-152.603
X93.675Y-128.27
X93.828Y-135.484
X94.386Y-156.362
X94.742Y-171.094
X94.844Y-191.973
X98.095Y-186.639
X98.146Y-180.238
X98.45Y-140.31
X98.501Y-145.796
X99.162Y-150.52
X99.822Y-171.704
X99.822Y-191.973
X99.873Y-182.88
X100.787Y-169.926
X100.99Y-166.675
X100.99Y-181.153
X101.905Y-150.52
X102.006Y-141.986
X104.038Y-168.148
X104.14Y-148.387
X104.851Y-184.861
X105.105Y-181.254
X105.156Y-185.725
X105.918Y-169.672
X105.969Y-164.897
X106.477Y-184.048
X106.731Y-142.037
X106.934Y-179.172
X107.29Y-157.531
X108.915Y-181.356
X108.915Y-185.623
X109.677Y-187.554
X110.338Y-151.13
X110.693Y-170.282
X110.896Y-135.331
X111.1Y-181.356
X111.1Y-185.623
X111.811Y-191.567
X112.166Y-158.598
X112.166Y-163.22
X113.03Y-143.51
X113.284Y-138.633
X114.249Y-129.794
X114.249Y-130.708
X114.3Y-143.51
X114.351Y-138.633
X114.554Y-151.435
X114.96Y-158.75
X115.367Y-170.231
X116.129Y-171.399
X116.383Y-138.633
X116.383Y-143.51
X116.637Y-129.794
X116.637Y-130.759
X116.891Y-151.384
X117.602Y-138.633
X117.602Y-143.51
X117.704Y-165.913
X117.805Y-156.566
X118.466Y-168.656
X118.618Y-129.794
X118.618Y-130.759
X119.278Y-158.293
X119.482Y-162.865
X124.511Y-121.31
X124.511Y-122.225
X127.0Y-127.356
X127.0Y-128.27
X127.0Y-129.235
T3
X109.372Y-174.904
X109.372Y-177.444
X111.912Y-174.904
X111.912Y-177.444
X114.452Y-174.904
X114.452Y-177.444
X116.992Y-174.904
X116.992Y-177.444
X119.532Y-174.904
X119.532Y-177.444
X83.414Y-124.46
X83.414Y-127.0
X83.414Y-129.54
X83.769Y-185.115
X83.769Y-187.655
X83.769Y-190.195
X88.24Y-164.236
X88.24Y-166.776
X88.24Y-169.316
X83.414Y-134.671
X83.414Y-137.211
X83.414Y-139.751
X101.448Y-123.901
X103.988Y-123.901
X106.528Y-123.901
X83.82Y-164.287
X83.82Y-166.827
X83.82Y-169.367
X123.698Y-140.97
X123.698Y-143.51
X123.698Y-146.05
X123.698Y-148.59
X123.698Y-151.13
X123.698Y-153.67
X123.698Y-156.21
X123.698Y-158.75
X123.698Y-161.29
X123.698Y-163.83
X123.698Y-166.37
X123.698Y-168.91
X123.698Y-171.45
X123.698Y-173.99
X123.698Y-176.53
X123.698Y-179.07
X123.698Y-181.61
X123.698Y-184.15
X123.698Y-186.69
X123.698Y-189.23
X126.238Y-140.97
X126.238Y-143.51
X126.238Y-146.05
X126.238Y-148.59
X126.238Y-151.13
X126.238Y-153.67
X126.238Y-156.21
X126.238Y-158.75
X126.238Y-161.29
X126.238Y-163.83
X126.238Y-166.37
X126.238Y-168.91
X126.238Y-171.45
X126.238Y-173.99
X126.238Y-176.53
X126.238Y-179.07
X126.238Y-181.61
X126.238Y-184.15
X126.238Y-186.69
X126.238Y-189.23
X90.322Y-123.901
X92.862Y-123.901
X95.402Y-123.901
X83.769Y-174.65
X83.769Y-177.19
X83.769Y-179.73
X88.392Y-185.115
X88.392Y-187.655
X88.392Y-190.195
X88.341Y-174.65
X88.341Y-177.19
X88.341Y-179.73
T4
X114.3Y-185.268
X114.3Y-190.348
X116.84Y-187.808
X119.38Y-185.268
X119.38Y-190.348
T0
M30
